solid Visualization Toolkit generated SLA File
 facet normal 1 0 0
  outer loop
   vertex 0 0.5 0
   vertex 0 0.5 2
   vertex 0 -0.5 2
  endloop
 endfacet
 facet normal 1 0 0
  outer loop
   vertex 0 -0.5 2
   vertex 0 -0.5 0
   vertex 0 0.5 0
  endloop
 endfacet
 facet normal 1 -0 0
  outer loop
   vertex 0 1.1975254624446694 3.2770244558350177
   vertex 0 0 3.2000000000000002
   vertex 0 1.0302394121444303 2.5846897094438459
  endloop
 endfacet
 facet normal 1 0 0
  outer loop
   vertex 0 0.94292327262836895 3.9422234851685891
   vertex 0 0 3.2000000000000002
   vertex 0 1.1975254624446694 3.2770244558350177
  endloop
 endfacet
 facet normal 1 0 0
  outer loop
   vertex 0 0.35612919835559004 4.3459371684689367
   vertex 0 0 3.2000000000000002
   vertex 0 0.94292327262836895 3.9422234851685891
  endloop
 endfacet
 facet normal 1 0 -0
  outer loop
   vertex 0 -0.35612919835559043 4.3459371684689367
   vertex 0 0 3.2000000000000002
   vertex 0 0.35612919835559004 4.3459371684689367
  endloop
 endfacet
 facet normal 1 0 0
  outer loop
   vertex 0 -0.94292327262836928 3.9422234851685882
   vertex 0 0 3.2000000000000002
   vertex 0 -0.35612919835559043 4.3459371684689367
  endloop
 endfacet
 facet normal 1 0 0
  outer loop
   vertex 0 -1.1975254624446694 3.2770244558350168
   vertex 0 0 3.2000000000000002
   vertex 0 -0.94292327262836928 3.9422234851685882
  endloop
 endfacet
 facet normal 1 0 0
  outer loop
   vertex 0 -1.03023941214443 2.5846897094438459
   vertex 0 0 3.2000000000000002
   vertex 0 -1.1975254624446694 3.2770244558350168
  endloop
 endfacet
 facet normal 1 0 0
  outer loop
   vertex 0 0.5 2
   vertex 0 0 3.2000000000000002
   vertex 0 -0.5 2
  endloop
 endfacet
 facet normal 1 0 0
  outer loop
   vertex 0 1.0302394121444303 2.5846897094438459
   vertex 0 0 3.2000000000000002
   vertex 0 0.5 2
  endloop
 endfacet
 facet normal 1 0 0
  outer loop
   vertex 0 -0.5 2
   vertex 0 0 3.2000000000000002
   vertex 0 -1.03023941214443 2.5846897094438459
  endloop
 endfacet
 facet normal -1 -0 -0
  outer loop
   vertex -6 -0.5 2
   vertex -6 0.5 2
   vertex -6 0.5 0
  endloop
 endfacet
 facet normal -1 0 0
  outer loop
   vertex -6 0.5 0
   vertex -6 -0.5 0
   vertex -6 -0.5 2
  endloop
 endfacet
 facet normal -1 0 0
  outer loop
   vertex -6 1.0302394121444303 2.5846897094438459
   vertex -6 0 3.2000000000000002
   vertex -6 1.1975254624446694 3.2770244558350177
  endloop
 endfacet
 facet normal -1 0 0
  outer loop
   vertex -6 1.1975254624446694 3.2770244558350177
   vertex -6 0 3.2000000000000002
   vertex -6 0.94292327262836895 3.9422234851685891
  endloop
 endfacet
 facet normal -1 0 0
  outer loop
   vertex -6 0.94292327262836895 3.9422234851685891
   vertex -6 0 3.2000000000000002
   vertex -6 0.35612919835559004 4.3459371684689367
  endloop
 endfacet
 facet normal -1 0 0
  outer loop
   vertex -6 0.35612919835559004 4.3459371684689367
   vertex -6 0 3.2000000000000002
   vertex -6 -0.35612919835559043 4.3459371684689367
  endloop
 endfacet
 facet normal -1 0 0
  outer loop
   vertex -6 -0.35612919835559043 4.3459371684689367
   vertex -6 0 3.2000000000000002
   vertex -6 -0.94292327262836928 3.9422234851685882
  endloop
 endfacet
 facet normal -1 0 0
  outer loop
   vertex -6 -0.94292327262836928 3.9422234851685882
   vertex -6 0 3.2000000000000002
   vertex -6 -1.1975254624446694 3.2770244558350168
  endloop
 endfacet
 facet normal -1 -0 0
  outer loop
   vertex -6 -1.1975254624446694 3.2770244558350168
   vertex -6 0 3.2000000000000002
   vertex -6 -1.03023941214443 2.5846897094438459
  endloop
 endfacet
 facet normal -1 0 -0
  outer loop
   vertex -6 -0.5 2
   vertex -6 0 3.2000000000000002
   vertex -6 0.5 2
  endloop
 endfacet
 facet normal -1 0 0
  outer loop
   vertex -6 0.5 2
   vertex -6 0 3.2000000000000002
   vertex -6 1.0302394121444303 2.5846897094438459
  endloop
 endfacet
 facet normal -1 0 0
  outer loop
   vertex -6 -1.03023941214443 2.5846897094438459
   vertex -6 0 3.2000000000000002
   vertex -6 -0.5 2
  endloop
 endfacet
 facet normal 0 1 0
  outer loop
   vertex -6 0.5 0
   vertex 0 0.5 2
   vertex 0 0.5 0
  endloop
 endfacet
 facet normal -0 1 0
  outer loop
   vertex -6 0.5 0
   vertex -6 0.5 2
   vertex 0 0.5 2
  endloop
 endfacet
 facet normal 0 -1 0
  outer loop
   vertex -6 -0.5 0
   vertex 0 -0.5 0
   vertex 0 -0.5 2
  endloop
 endfacet
 facet normal 0 -1 0
  outer loop
   vertex 0 -0.5 2
   vertex -6 -0.5 2
   vertex -6 -0.5 0
  endloop
 endfacet
 facet normal 0 0 -1
  outer loop
   vertex 0 -0.5 0
   vertex -6 0.5 0
   vertex 0 0.5 0
  endloop
 endfacet
 facet normal 0 0 -1
  outer loop
   vertex -6 -0.5 0
   vertex -6 0.5 0
   vertex 0 -0.5 0
  endloop
 endfacet
 facet normal 0 0.972027496745555 -0.23486708064471326
  outer loop
   vertex -6 1.0302394121444303 2.5846897094438459
   vertex 0 1.1975254624446694 3.2770244558350177
   vertex 0 1.0302394121444303 2.5846897094438459
  endloop
 endfacet
 facet normal 0 0.972027496745555 -0.23486708064471326
  outer loop
   vertex -6 1.0302394121444303 2.5846897094438459
   vertex -6 1.1975254624446694 3.2770244558350177
   vertex 0 1.1975254624446694 3.2770244558350177
  endloop
 endfacet
 facet normal 0 0.93392936103680446 0.35745761789810282
  outer loop
   vertex -6 1.1975254624446694 3.2770244558350177
   vertex 0 0.94292327262836895 3.9422234851685891
   vertex 0 1.1975254624446694 3.2770244558350177
  endloop
 endfacet
 facet normal -0 0.93392936103680446 0.35745761789810282
  outer loop
   vertex -6 1.1975254624446694 3.2770244558350177
   vertex -6 0.94292327262836895 3.9422234851685891
   vertex 0 0.94292327262836895 3.9422234851685891
  endloop
 endfacet
 facet normal 0 0.56680789607321813 0.82384999177584006
  outer loop
   vertex -6 0.94292327262836895 3.9422234851685891
   vertex 0 0.35612919835559004 4.3459371684689367
   vertex 0 0.94292327262836895 3.9422234851685891
  endloop
 endfacet
 facet normal -0 0.56680789607321813 0.82384999177584006
  outer loop
   vertex -6 0.94292327262836895 3.9422234851685891
   vertex -6 0.35612919835559004 4.3459371684689367
   vertex 0 0.35612919835559004 4.3459371684689367
  endloop
 endfacet
 facet normal 0 -0 1
  outer loop
   vertex -6 0.35612919835559004 4.3459371684689367
   vertex 0 -0.35612919835559043 4.3459371684689367
   vertex 0 0.35612919835559004 4.3459371684689367
  endloop
 endfacet
 facet normal 0 0 1
  outer loop
   vertex -6 0.35612919835559004 4.3459371684689367
   vertex -6 -0.35612919835559043 4.3459371684689367
   vertex 0 -0.35612919835559043 4.3459371684689367
  endloop
 endfacet
 facet normal 0 -0.56680789607321902 0.82384999177583962
  outer loop
   vertex -6 -0.35612919835559043 4.3459371684689367
   vertex 0 -0.94292327262836928 3.9422234851685882
   vertex 0 -0.35612919835559043 4.3459371684689367
  endloop
 endfacet
 facet normal 0 -0.56680789607321902 0.82384999177583962
  outer loop
   vertex -6 -0.35612919835559043 4.3459371684689367
   vertex -6 -0.94292327262836928 3.9422234851685882
   vertex 0 -0.94292327262836928 3.9422234851685882
  endloop
 endfacet
 facet normal 0 -0.93392936103680468 0.35745761789810243
  outer loop
   vertex -6 -0.94292327262836928 3.9422234851685882
   vertex 0 -1.1975254624446694 3.2770244558350168
   vertex 0 -0.94292327262836928 3.9422234851685882
  endloop
 endfacet
 facet normal 0 -0.93392936103680468 0.35745761789810243
  outer loop
   vertex -6 -0.94292327262836928 3.9422234851685882
   vertex -6 -1.1975254624446694 3.2770244558350168
   vertex 0 -1.1975254624446694 3.2770244558350168
  endloop
 endfacet
 facet normal 0 -0.97202749674555478 -0.23486708064471382
  outer loop
   vertex -6 -1.1975254624446694 3.2770244558350168
   vertex 0 -1.03023941214443 2.5846897094438459
   vertex 0 -1.1975254624446694 3.2770244558350168
  endloop
 endfacet
 facet normal 0 -0.97202749674555478 -0.23486708064471382
  outer loop
   vertex -6 -1.1975254624446694 3.2770244558350168
   vertex -6 -1.03023941214443 2.5846897094438459
   vertex 0 -1.03023941214443 2.5846897094438459
  endloop
 endfacet
 facet normal 0 0.74075721189289345 -0.67177284332478537
  outer loop
   vertex 0 0.5 2
   vertex -6 0.5 2
   vertex -6 1.0302394121444303 2.5846897094438459
  endloop
 endfacet
 facet normal 0 0.74075721189289345 -0.67177284332478537
  outer loop
   vertex -6 1.0302394121444303 2.5846897094438459
   vertex 0 1.0302394121444303 2.5846897094438459
   vertex 0 0.5 2
  endloop
 endfacet
 facet normal 0 -0.74075721189289379 -0.67177284332478537
  outer loop
   vertex -6 -1.03023941214443 2.5846897094438459
   vertex -6 -0.5 2
   vertex 0 -0.5 2
  endloop
 endfacet
 facet normal -0 -0.74075721189289379 -0.67177284332478537
  outer loop
   vertex 0 -0.5 2
   vertex 0 -1.03023941214443 2.5846897094438459
   vertex -6 -1.03023941214443 2.5846897094438459
  endloop
 endfacet
endsolid
