solid Visualization Toolkit generated SLA File
 facet normal -0.86383042815486344 -0.23186290475502205 0.44725449667090994
  outer loop
   vertex -51.263613231615743 117.11752799728808 -8.0908930548670845
   vertex -50.721311586955906 115.24604497633524 -8.0136905388168742
   vertex -50.175225722330161 115.45220279741552 -6.8521014629112074
  endloop
 endfacet
 facet normal -0.86383042815486333 -0.23186290475502186 0.44725449667091022
  outer loop
   vertex -50.175225722330161 115.45220279741552 -6.8521014629112074
   vertex -50.717527366989998 117.32368581836836 -6.9293039789614186
   vertex -51.263613231615743 117.11752799728808 -8.0908930548670845
  endloop
 endfacet
 facet normal -0.86383042815486233 -0.23186290475501689 0.4472544966709146
  outer loop
   vertex -50.804816815443075 113.99534989631648 -8.8233507081133915
   vertex -49.975492861862662 113.71757458655752 -7.3655912432818047
   vertex -50.819476761818457 114.63999842295833 -8.5174703353114438
  endloop
 endfacet
 facet normal -0.86383042815486144 -0.23186290475502333 0.44725449667091294
  outer loop
   vertex -50.643992270163615 113.30174472666307 -8.8723075632045187
   vertex -49.975492861862662 113.71757458655752 -7.3655912432818047
   vertex -50.804816815443075 113.99534989631648 -8.8233507081133915
  endloop
 endfacet
 facet normal -0.863830428154862 -0.23186290475502139 0.44725449667091277
  outer loop
   vertex -50.365347725280778 112.68142769058089 -8.6557124761228206
   vertex -49.975492861862662 113.71757458655752 -7.3655912432818047
   vertex -50.643992270163615 113.30174472666307 -8.8723075632045187
  endloop
 endfacet
 facet normal -0.86383042815486266 -0.23186290475502033 0.44725449667091211
  outer loop
   vertex -50.017993022568419 112.24372686231746 -8.211739352121139
   vertex -49.975492861862662 113.71757458655752 -7.3655912432818047
   vertex -50.365347725280778 112.68142769058089 -8.6557124761228206
  endloop
 endfacet
 facet normal -0.86383042815486377 -0.2318629047550195 0.44725449667091072
  outer loop
   vertex -49.663147858600126 112.06578503477888 -7.6186364478834072
   vertex -49.975492861862662 113.71757458655752 -7.3655912432818047
   vertex -50.017993022568419 112.24372686231746 -8.211739352121139
  endloop
 endfacet
 facet normal -0.86383042815485955 -0.23186290475501986 0.44725449667091827
  outer loop
   vertex -49.363352089894633 112.17896365090691 -6.980935469906802
   vertex -49.975492861862662 113.71757458655752 -7.3655912432818047
   vertex -49.663147858600126 112.06578503477888 -7.6186364478834072
  endloop
 endfacet
 facet normal -0.86383042815486288 -0.23186290475502314 0.44725449667091027
  outer loop
   vertex -49.171443365837085 112.56331549109035 -6.4110283336355556
   vertex -49.975492861862662 113.71757458655752 -7.3655912432818047
   vertex -49.363352089894633 112.17896365090691 -6.980935469906802
  endloop
 endfacet
 facet normal -0.86383042815486322 -0.23186290475502416 0.44725449667090933
  outer loop
   vertex -49.121244731760925 113.15110028047532 -6.0093585962900109
   vertex -49.975492861862662 113.71757458655752 -7.3655912432818047
   vertex -49.171443365837085 112.56331549109035 -6.4110283336355556
  endloop
 endfacet
 facet normal -0.86383042815486322 -0.23186290475502175 0.44725449667091044
  outer loop
   vertex -49.221603470062369 113.8387236062736 -5.8467187338351385
   vertex -49.975492861862662 113.71757458655752 -7.3655912432818047
   vertex -49.121244731760925 113.15110028047532 -6.0093585962900109
  endloop
 endfacet
 facet normal -0.86383042815486466 -0.23186290475501611 0.44725449667091066
  outer loop
   vertex -49.454831806661069 114.50499496484849 -5.9517732870199422
   vertex -49.975492861862662 113.71757458655752 -7.3655912432818047
   vertex -49.221603470062369 113.8387236062736 -5.8467187338351385
  endloop
 endfacet
 facet normal -0.86383042815486344 -0.23186290475501903 0.44725449667091172
  outer loop
   vertex -49.779824301246478 115.03248704029174 -6.3060068656124004
   vertex -49.975492861862662 113.71757458655752 -7.3655912432818047
   vertex -49.454831806661069 114.50499496484849 -5.9517732870199422
  endloop
 endfacet
 facet normal -0.86383042815486366 -0.23186290475502139 0.44725449667090983
  outer loop
   vertex -50.721311586955906 115.24604497633524 -8.0136905388168742
   vertex -49.975492861862662 113.71757458655752 -7.3655912432818047
   vertex -50.175225722330161 115.45220279741552 -6.8521014629112074
  endloop
 endfacet
 facet normal -0.86383042815486255 -0.23186290475501975 0.44725449667091266
  outer loop
   vertex -50.819476761818457 114.63999842295833 -8.5174703353114438
   vertex -49.975492861862662 113.71757458655752 -7.3655912432818047
   vertex -50.721311586955906 115.24604497633524 -8.0136905388168742
  endloop
 endfacet
 facet normal -0.86383042815486011 -0.23186290475502275 0.44725449667091577
  outer loop
   vertex -50.175225722330161 115.45220279741552 -6.8521014629112074
   vertex -49.975492861862662 113.71757458655752 -7.3655912432818047
   vertex -49.779824301246478 115.03248704029174 -6.3060068656124004
  endloop
 endfacet
 facet normal 0.86383042815486344 0.23186290475502205 -0.44725449667090994
  outer loop
   vertex -33.762447587387776 119.85759798776093 -15.349936899658541
   vertex -34.308533452013521 119.65144016668064 -16.511525975564208
   vertex -34.850835096673357 121.52292318763348 -16.588728491614418
  endloop
 endfacet
 facet normal 0.86383042815486311 0.23186290475502161 -0.44725449667091038
  outer loop
   vertex -34.850835096673357 121.52292318763348 -16.588728491614418
   vertex -34.304749232047612 121.72908100871376 -15.427139415708753
   vertex -33.762447587387776 119.85759798776093 -15.349936899658541
  endloop
 endfacet
 facet normal 0.86383042815486233 0.23186290475501703 -0.44725449667091483
  outer loop
   vertex -34.406698626876072 119.04539361330373 -17.015305772058777
   vertex -33.562714726920277 118.12296977690292 -15.863426680029139
   vertex -34.39203868050069 118.40074508666189 -17.321186144860725
  endloop
 endfacet
 facet normal 0.86383042815486133 0.23186290475502322 -0.44725449667091327
  outer loop
   vertex -34.39203868050069 118.40074508666189 -17.321186144860725
   vertex -33.562714726920277 118.12296977690292 -15.863426680029139
   vertex -34.231214135221229 117.70713991700848 -17.370142999951852
  endloop
 endfacet
 facet normal 0.86383042815486244 0.23186290475502022 -0.44725449667091283
  outer loop
   vertex -34.231214135221229 117.70713991700848 -17.370142999951852
   vertex -33.562714726920277 118.12296977690292 -15.863426680029139
   vertex -33.952569590338392 117.08682288092629 -17.153547912870152
  endloop
 endfacet
 facet normal 0.86383042815486222 0.23186290475502072 -0.44725449667091316
  outer loop
   vertex -33.952569590338392 117.08682288092629 -17.153547912870152
   vertex -33.562714726920277 118.12296977690292 -15.863426680029139
   vertex -33.605214887626033 116.64912205266286 -16.709574788868473
  endloop
 endfacet
 facet normal 0.86383042815486122 0.23186290475502139 -0.44725449667091427
  outer loop
   vertex -33.605214887626033 116.64912205266286 -16.709574788868473
   vertex -33.562714726920277 118.12296977690292 -15.863426680029139
   vertex -33.250369723657741 116.4711802251243 -16.116471884630741
  endloop
 endfacet
 facet normal 0.86383042815486144 0.23186290475502133 -0.44725449667091405
  outer loop
   vertex -33.250369723657741 116.4711802251243 -16.116471884630741
   vertex -33.562714726920277 118.12296977690292 -15.863426680029139
   vertex -32.950573954952247 116.58435884125231 -15.478770906654136
  endloop
 endfacet
 facet normal 0.86383042815486277 0.2318629047550228 -0.44725449667091072
  outer loop
   vertex -32.950573954952247 116.58435884125231 -15.478770906654136
   vertex -33.562714726920277 118.12296977690292 -15.863426680029139
   vertex -32.7586652308947 116.96871068143575 -14.90886377038289
  endloop
 endfacet
 facet normal 0.86383042815486322 0.23186290475502416 -0.44725449667090933
  outer loop
   vertex -32.7586652308947 116.96871068143575 -14.90886377038289
   vertex -33.562714726920277 118.12296977690292 -15.863426680029139
   vertex -32.708466596818539 117.55649547082072 -14.507194033037345
  endloop
 endfacet
 facet normal 0.86383042815486355 0.23186290475501378 -0.44725449667091399
  outer loop
   vertex -32.708466596818539 117.55649547082072 -14.507194033037345
   vertex -33.562714726920277 118.12296977690292 -15.863426680029139
   vertex -32.808825335119977 118.24411879661901 -14.344554170582473
  endloop
 endfacet
 facet normal 0.86383042815486089 0.23186290475502491 -0.44725449667091349
  outer loop
   vertex -32.808825335119977 118.24411879661901 -14.344554170582473
   vertex -33.562714726920277 118.12296977690292 -15.863426680029139
   vertex -33.042053671718683 118.91039015519389 -14.449608723767275
  endloop
 endfacet
 facet normal 0.86383042815486355 0.23186290475501922 -0.44725449667091127
  outer loop
   vertex -33.042053671718683 118.91039015519389 -14.449608723767275
   vertex -33.562714726920277 118.12296977690292 -15.863426680029139
   vertex -33.367046166304092 119.43788223063714 -14.803842302359733
  endloop
 endfacet
 facet normal 0.86383042815486344 0.23186290475502158 -0.44725449667090972
  outer loop
   vertex -33.762447587387776 119.85759798776093 -15.349936899658541
   vertex -33.562714726920277 118.12296977690292 -15.863426680029139
   vertex -34.308533452013521 119.65144016668064 -16.511525975564208
  endloop
 endfacet
 facet normal 0.86383042815486244 0.23186290475501981 -0.44725449667091277
  outer loop
   vertex -34.308533452013521 119.65144016668064 -16.511525975564208
   vertex -33.562714726920277 118.12296977690292 -15.863426680029139
   vertex -34.406698626876072 119.04539361330373 -17.015305772058777
  endloop
 endfacet
 facet normal 0.86383042815486044 0.2318629047550228 -0.44725449667091516
  outer loop
   vertex -33.367046166304092 119.43788223063714 -14.803842302359733
   vertex -33.562714726920277 118.12296977690292 -15.863426680029139
   vertex -33.762447587387776 119.85759798776093 -15.349936899658541
  endloop
 endfacet
 facet normal -0.42006604971211348 -0.15858293929252762 -0.8935300583889737
  outer loop
   vertex -34.850835096673357 121.52292318763348 -16.588728491614418
   vertex -50.721311586955906 115.24604497633524 -8.0136905388168742
   vertex -51.263613231615743 117.11752799728808 -8.0908930548670845
  endloop
 endfacet
 facet normal -0.42006604971211348 -0.15858293929252759 -0.8935300583889737
  outer loop
   vertex -34.850835096673357 121.52292318763348 -16.588728491614418
   vertex -34.308533452013521 119.65144016668064 -16.511525975564208
   vertex -50.721311586955906 115.24604497633524 -8.0136905388168742
  endloop
 endfacet
 facet normal 0.42006604971211331 0.15858293929252801 0.8935300583889737
  outer loop
   vertex -34.304749232047612 121.72908100871376 -15.427139415708753
   vertex -50.717527366989998 117.32368581836836 -6.9293039789614186
   vertex -50.175225722330161 115.45220279741552 -6.8521014629112074
  endloop
 endfacet
 facet normal 0.4200660497121132 0.1585829392925284 0.8935300583889737
  outer loop
   vertex -50.175225722330161 115.45220279741552 -6.8521014629112074
   vertex -33.762447587387776 119.85759798776093 -15.349936899658541
   vertex -34.304749232047612 121.72908100871376 -15.427139415708753
  endloop
 endfacet
 facet normal -0.27810340751786339 0.95973488253991646 -0.039591033871900751
  outer loop
   vertex -50.717527366989998 117.32368581836836 -6.9293039789614186
   vertex -34.850835096673357 121.52292318763348 -16.588728491614418
   vertex -51.263613231615743 117.11752799728808 -8.0908930548670845
  endloop
 endfacet
 facet normal -0.2781034075178635 0.95973488253991646 -0.03959103387190098
  outer loop
   vertex -34.304749232047612 121.72908100871376 -15.427139415708753
   vertex -34.850835096673357 121.52292318763348 -16.588728491614418
   vertex -50.717527366989998 117.32368581836836 -6.9293039789614186
  endloop
 endfacet
 facet normal -0.50336373837527548 0.36104338345695103 -0.78503033199413663
  outer loop
   vertex -34.406698626876072 119.04539361330373 -17.015305772058777
   vertex -50.804816815443075 113.99534989631648 -8.8233507081133915
   vertex -50.819476761818457 114.63999842295833 -8.5174703353114438
  endloop
 endfacet
 facet normal -0.50336373837527537 0.36104338345695092 -0.78503033199413652
  outer loop
   vertex -34.406698626876072 119.04539361330373 -17.015305772058777
   vertex -34.39203868050069 118.40074508666189 -17.321186144860725
   vertex -50.804816815443075 113.99534989631648 -8.8233507081133915
  endloop
 endfacet
 facet normal -0.45057457016597413 -0.04152950953350245 -0.89177231206045771
  outer loop
   vertex -34.39203868050069 118.40074508666189 -17.321186144860725
   vertex -50.643992270163615 113.30174472666307 -8.8723075632045187
   vertex -50.804816815443075 113.99534989631648 -8.8233507081133915
  endloop
 endfacet
 facet normal -0.45057457016597413 -0.041529509533502464 -0.89177231206045771
  outer loop
   vertex -34.39203868050069 118.40074508666189 -17.321186144860725
   vertex -34.231214135221229 117.70713991700848 -17.370142999951852
   vertex -50.643992270163615 113.30174472666307 -8.8723075632045187
  endloop
 endfacet
 facet normal -0.31837367021980562 -0.43678301415052057 -0.84134345225975138
  outer loop
   vertex -34.231214135221229 117.70713991700848 -17.370142999951852
   vertex -50.365347725280778 112.68142769058089 -8.6557124761228206
   vertex -50.643992270163615 113.30174472666307 -8.8723075632045187
  endloop
 endfacet
 facet normal -0.31837367021980473 -0.43678301415052234 -0.84134345225975071
  outer loop
   vertex -34.231214135221229 117.70713991700848 -17.370142999951852
   vertex -33.952569590338392 117.08682288092629 -17.153547912870152
   vertex -50.365347725280778 112.68142769058089 -8.6557124761228206
  endloop
 endfacet
 facet normal -0.13006084970461848 -0.75505548645102361 -0.64263161123175438
  outer loop
   vertex -33.952569590338392 117.08682288092629 -17.153547912870152
   vertex -50.017993022568419 112.24372686231746 -8.211739352121139
   vertex -50.365347725280778 112.68142769058089 -8.6557124761228206
  endloop
 endfacet
 facet normal -0.13006084970461934 -0.75505548645102261 -0.64263161123175538
  outer loop
   vertex -33.952569590338392 117.08682288092629 -17.153547912870152
   vertex -33.605214887626033 116.64912205266286 -16.709574788868473
   vertex -50.017993022568419 112.24372686231746 -8.211739352121139
  endloop
 endfacet
 facet normal 0.081174607794745224 -0.94025284154195221 -0.33065885293101405
  outer loop
   vertex -33.605214887626033 116.64912205266286 -16.709574788868473
   vertex -49.663147858600126 112.06578503477888 -7.6186364478834072
   vertex -50.017993022568419 112.24372686231746 -8.211739352121139
  endloop
 endfacet
 facet normal 0.081174607794755091 -0.94025284154195665 -0.33065885293099878
  outer loop
   vertex -33.605214887626033 116.64912205266286 -16.709574788868473
   vertex -33.250369723657741 116.4711802251243 -16.116471884630741
   vertex -49.663147858600126 112.06578503477888 -7.6186364478834072
  endloop
 endfacet
 facet normal 0.27810340751786927 -0.95973488253991424 0.0395910338719117
  outer loop
   vertex -33.250369723657741 116.4711802251243 -16.116471884630741
   vertex -49.363352089894633 112.17896365090691 -6.980935469906802
   vertex -49.663147858600126 112.06578503477888 -7.6186364478834072
  endloop
 endfacet
 facet normal 0.27810340751786061 -0.95973488253991746 0.03959103387189495
  outer loop
   vertex -33.250369723657741 116.4711802251243 -16.116471884630741
   vertex -32.950573954952247 116.58435884125231 -15.478770906654136
   vertex -49.363352089894633 112.17896365090691 -6.980935469906802
  endloop
 endfacet
 facet normal 0.42601773848216884 -0.81006798776305766 0.40286317987630627
  outer loop
   vertex -32.950573954952247 116.58435884125231 -15.478770906654136
   vertex -49.171443365837085 112.56331549109035 -6.4110283336355556
   vertex -49.363352089894633 112.17896365090691 -6.980935469906802
  endloop
 endfacet
 facet normal 0.4260177384821689 -0.81006798776305744 0.40286317987630665
  outer loop
   vertex -32.950573954952247 116.58435884125231 -15.478770906654136
   vertex -32.7586652308947 116.96871068143575 -14.90886377038289
   vertex -49.171443365837085 112.56331549109035 -6.4110283336355556
  endloop
 endfacet
 facet normal 0.49884836831564666 -0.51763027103509596 0.69513251106314267
  outer loop
   vertex -32.7586652308947 116.96871068143575 -14.90886377038289
   vertex -49.121244731760925 113.15110028047532 -6.0093585962900109
   vertex -49.171443365837085 112.56331549109035 -6.4110283336355556
  endloop
 endfacet
 facet normal 0.49884836831564666 -0.51763027103509596 0.69513251106314267
  outer loop
   vertex -32.7586652308947 116.96871068143575 -14.90886377038289
   vertex -32.708466596818539 117.55649547082072 -14.507194033037345
   vertex -49.121244731760925 113.15110028047532 -6.0093585962900109
  endloop
 endfacet
 facet normal 0.48375922764928775 -0.13396255833292775 0.86488787864616379
  outer loop
   vertex -32.708466596818539 117.55649547082072 -14.507194033037345
   vertex -49.221603470062369 113.8387236062736 -5.8467187338351385
   vertex -49.121244731760925 113.15110028047532 -6.0093585962900109
  endloop
 endfacet
 facet normal 0.48375922764928825 -0.1339625583329325 0.8648878786461629
  outer loop
   vertex -32.708466596818539 117.55649547082072 -14.507194033037345
   vertex -32.808825335119977 118.24411879661901 -14.344554170582473
   vertex -49.221603470062369 113.8387236062736 -5.8467187338351385
  endloop
 endfacet
 facet normal 0.38340970933408086 0.27331544986638351 0.88221066625420708
  outer loop
   vertex -32.808825335119977 118.24411879661901 -14.344554170582473
   vertex -49.454831806661069 114.50499496484849 -5.9517732870199422
   vertex -49.221603470062369 113.8387236062736 -5.8467187338351385
  endloop
 endfacet
 facet normal 0.38340970933408042 0.27331544986638506 0.88221066625420685
  outer loop
   vertex -32.808825335119977 118.24411879661901 -14.344554170582473
   vertex -33.042053671718683 118.91039015519389 -14.449608723767275
   vertex -49.454831806661069 114.50499496484849 -5.9517732870199422
  endloop
 endfacet
 facet normal 0.21548596246946541 0.63242284520502046 0.74404781085720217
  outer loop
   vertex -33.042053671718683 118.91039015519389 -14.449608723767275
   vertex -49.779824301246478 115.03248704029174 -6.3060068656124004
   vertex -49.454831806661069 114.50499496484849 -5.9517732870199422
  endloop
 endfacet
 facet normal 0.21548596246946547 0.63242284520502046 0.74404781085720217
  outer loop
   vertex -33.042053671718683 118.91039015519389 -14.449608723767275
   vertex -33.367046166304092 119.43788223063714 -14.803842302359733
   vertex -49.779824301246478 115.03248704029174 -6.3060068656124004
  endloop
 endfacet
 facet normal -0.48838370922747382 0.60324452792977679 -0.63053738357372202
  outer loop
   vertex -50.721311586955906 115.24604497633524 -8.0136905388168742
   vertex -34.308533452013521 119.65144016668064 -16.511525975564208
   vertex -34.406698626876072 119.04539361330373 -17.015305772058777
  endloop
 endfacet
 facet normal -0.48838370922747382 0.60324452792977679 -0.63053738357372202
  outer loop
   vertex -34.406698626876072 119.04539361330373 -17.015305772058777
   vertex -50.819476761818457 114.63999842295833 -8.5174703353114438
   vertex -50.721311586955906 115.24604497633524 -8.0136905388168742
  endloop
 endfacet
 facet normal 0.076935493023362791 0.81666330050825164 0.57196327112518441
  outer loop
   vertex -33.367046166304092 119.43788223063714 -14.803842302359733
   vertex -33.762447587387776 119.85759798776093 -15.349936899658541
   vertex -50.175225722330161 115.45220279741552 -6.8521014629112074
  endloop
 endfacet
 facet normal 0.076935493023363125 0.81666330050825131 0.57196327112518497
  outer loop
   vertex -50.175225722330161 115.45220279741552 -6.8521014629112074
   vertex -49.779824301246478 115.03248704029174 -6.3060068656124004
   vertex -33.367046166304092 119.43788223063714 -14.803842302359733
  endloop
 endfacet
endsolid
