solid Visualization Toolkit generated SLA File
 facet normal -0.86002613890880086 -0.23187995726104235 0.4545181248467845
  outer loop
   vertex -50.015427816340008 118.23449042351608 -8.323940833530072
   vertex -49.466125639551009 116.36542685923443 -8.2381008006218259
   vertex -48.913046517354552 116.58108850419062 -7.0815570100608332
  endloop
 endfacet
 facet normal -0.86002613890880086 -0.23187995726104235 0.4545181248467845
  outer loop
   vertex -48.913046517354552 116.58108850419062 -7.0815570100608332
   vertex -49.46234869414355 118.45015206847226 -7.1673970429690792
   vertex -50.015427816340008 118.23449042351608 -8.323940833530072
  endloop
 endfacet
 facet normal -0.8600261389087992 -0.23187995726105032 0.45451812484678344
  outer loop
   vertex -49.550667519946686 115.10915716265022 -9.0389753326281976
   vertex -48.710707257662364 114.84381765131316 -7.5849940048572178
   vertex -49.565532657935449 115.75574845805214 -8.7372334499242399
  endloop
 endfacet
 facet normal -0.8600261389088002 -0.23187995726104307 0.45451812484678517
  outer loop
   vertex -49.387763181712828 114.41580097750823 -9.0844595772039582
   vertex -48.710707257662364 114.84381765131316 -7.5849940048572178
   vertex -49.550667519946686 115.10915716265022 -9.0389753326281976
  endloop
 endfacet
 facet normal -0.86002613890880109 -0.23187995726104046 0.45451812484678494
  outer loop
   vertex -49.105530796643698 113.79788079681404 -8.8656697910992897
   vertex -48.710707257662364 114.84381765131316 -7.5849940048572178
   vertex -49.387763181712828 114.41580097750823 -9.0844595772039582
  endloop
 endfacet
 facet normal -0.86002613890879775 -0.23187995726104596 0.45451812484678838
  outer loop
   vertex -48.753712547131663 113.36430225988502 -8.4211666853514533
   vertex -48.710707257662364 114.84381765131316 -7.5849940048572178
   vertex -49.105530796643698 113.79788079681404 -8.8656697910992897
  endloop
 endfacet
 facet normal -0.86002613890880608 -0.23187995726103899 0.45451812484677645
  outer loop
   vertex -48.394314809701925 113.19148162440919 -7.8292919235320282
   vertex -48.710707257662364 114.84381765131316 -7.5849940048572178
   vertex -48.753712547131663 113.36430225988502 -8.4211666853514533
  endloop
 endfacet
 facet normal -0.86002613890880086 -0.23187995726103938 0.45451812484678622
  outer loop
   vertex -48.090679811371615 113.30987774637116 -7.1943607575872379
   vertex -48.710707257662364 114.84381765131316 -7.5849940048572178
   vertex -48.394314809701925 113.19148162440919 -7.8292919235320282
  endloop
 endfacet
 facet normal -0.86002613890880086 -0.23187995726103947 0.45451812484678594
  outer loop
   vertex -47.896321848396845 113.69862384433566 -6.628276936108155
   vertex -48.710707257662364 114.84381765131316 -7.5849940048572178
   vertex -48.090679811371615 113.30987774637116 -7.1943607575872379
  endloop
 endfacet
 facet normal -0.8600261389088022 -0.23187995726104488 0.45451812484678056
  outer loop
   vertex -47.845495633401526 114.2892051753736 -6.2308101743614808
   vertex -48.710707257662364 114.84381765131316 -7.5849940048572178
   vertex -47.896321848396845 113.69862384433566 -6.628276936108155
  endloop
 endfacet
 facet normal -0.86002613890880231 -0.23187995726104416 0.45451812484678095
  outer loop
   vertex -47.947159057082686 114.97753444886867 -6.0720121928571436
   vertex -48.710707257662364 114.84381765131316 -7.5849940048572178
   vertex -47.845495633401526 114.2892051753736 -6.2308101743614808
  endloop
 endfacet
 facet normal -0.86002613890880264 -0.23187995726104296 0.454518124846781
  outer loop
   vertex -48.183394400457992 115.64229674109296 -6.1798704181889992
   vertex -48.710707257662364 114.84381765131316 -7.5849940048572178
   vertex -47.947159057082686 114.97753444886867 -6.0720121928571436
  endloop
 endfacet
 facet normal -0.86002613890879942 -0.2318799572610496 0.4545181248467835
  outer loop
   vertex -48.512566251861905 116.16633070226268 -6.5353753255795777
   vertex -48.710707257662364 114.84381765131316 -7.5849940048572178
   vertex -48.183394400457992 115.64229674109296 -6.1798704181889992
  endloop
 endfacet
 facet normal -0.86002613890879909 -0.23187995726104868 0.45451812484678483
  outer loop
   vertex -49.466125639551009 116.36542685923443 -8.2381008006218259
   vertex -48.710707257662364 114.84381765131316 -7.5849940048572178
   vertex -48.913046517354552 116.58108850419062 -7.0815570100608332
  endloop
 endfacet
 facet normal -0.86002613890879931 -0.23187995726104893 0.45451812484678433
  outer loop
   vertex -49.565532657935449 115.75574845805214 -8.7372334499242399
   vertex -48.710707257662364 114.84381765131316 -7.5849940048572178
   vertex -49.466125639551009 116.36542685923443 -8.2381008006218259
  endloop
 endfacet
 facet normal -0.86002613890880086 -0.23187995726104801 0.45451812484678172
  outer loop
   vertex -48.913046517354552 116.58108850419062 -7.0815570100608332
   vertex -48.710707257662364 114.84381765131316 -7.5849940048572178
   vertex -48.512566251861905 116.16633070226268 -6.5353753255795777
  endloop
 endfacet
 facet normal 0.86002613890879998 0.23187995726104432 -0.45451812484678483
  outer loop
   vertex -32.572549878087337 120.98680769215046 -15.717401382149728
   vertex -33.125629000283794 120.77114604719428 -16.873945172710719
   vertex -33.674931177072793 122.64020961147591 -16.959785205618964
  endloop
 endfacet
 facet normal 0.86002613890879998 0.23187995726104432 -0.45451812484678483
  outer loop
   vertex -33.674931177072793 122.64020961147591 -16.959785205618964
   vertex -33.121852054876335 122.8558712564321 -15.803241415057972
   vertex -32.572549878087337 120.98680769215046 -15.717401382149728
  endloop
 endfacet
 facet normal 0.86002613890880086 0.23187995726103738 -0.45451812484678689
  outer loop
   vertex -33.225036018668234 120.16146764601199 -17.373077822013133
   vertex -32.370210618395156 119.24953683927299 -16.220838376946112
   vertex -33.210170880679478 119.51487635061005 -17.674819704717091
  endloop
 endfacet
 facet normal 0.86002613890879964 0.23187995726104749 -0.45451812484678422
  outer loop
   vertex -33.210170880679478 119.51487635061005 -17.674819704717091
   vertex -32.370210618395156 119.24953683927299 -16.220838376946112
   vertex -33.04726654244562 118.82152016546807 -17.720303949292852
  endloop
 endfacet
 facet normal 0.86002613890880053 0.23187995726104496 -0.45451812484678394
  outer loop
   vertex -33.04726654244562 118.82152016546807 -17.720303949292852
   vertex -32.370210618395156 119.24953683927299 -16.220838376946112
   vertex -32.765034157376483 118.20359998477387 -17.501514163188183
  endloop
 endfacet
 facet normal 0.86002613890880153 0.23187995726104282 -0.45451812484678256
  outer loop
   vertex -32.765034157376483 118.20359998477387 -17.501514163188183
   vertex -32.370210618395156 119.24953683927299 -16.220838376946112
   vertex -32.413215907864455 117.77002144784485 -17.057011057440349
  endloop
 endfacet
 facet normal 0.86002613890879931 0.23187995726104479 -0.45451812484678589
  outer loop
   vertex -32.413215907864455 117.77002144784485 -17.057011057440349
   vertex -32.370210618395156 119.24953683927299 -16.220838376946112
   vertex -32.05381817043471 117.59720081236904 -16.465136295620923
  endloop
 endfacet
 facet normal 0.86002613890880208 0.23187995726104454 -0.45451812484678122
  outer loop
   vertex -32.05381817043471 117.59720081236904 -16.465136295620923
   vertex -32.370210618395156 119.24953683927299 -16.220838376946112
   vertex -31.7501831721044 117.71559693433099 -15.830205129676131
  endloop
 endfacet
 facet normal 0.86002613890879942 0.23187995726104196 -0.45451812484678705
  outer loop
   vertex -31.7501831721044 117.71559693433099 -15.830205129676131
   vertex -32.370210618395156 119.24953683927299 -16.220838376946112
   vertex -31.55582520912963 118.10434303229549 -15.264121308197048
  endloop
 endfacet
 facet normal 0.86002613890879986 0.23187995726104327 -0.45451812484678611
  outer loop
   vertex -31.55582520912963 118.10434303229549 -15.264121308197048
   vertex -32.370210618395156 119.24953683927299 -16.220838376946112
   vertex -31.504998994134311 118.69492436333344 -14.866654546450373
  endloop
 endfacet
 facet normal 0.86002613890879975 0.23187995726104763 -0.45451812484678411
  outer loop
   vertex -31.504998994134311 118.69492436333344 -14.866654546450373
   vertex -32.370210618395156 119.24953683927299 -16.220838376946112
   vertex -31.606662417815475 119.38325363682851 -14.707856564946038
  endloop
 endfacet
 facet normal 0.86002613890879986 0.23187995726104679 -0.45451812484678406
  outer loop
   vertex -31.606662417815475 119.38325363682851 -14.707856564946038
   vertex -32.370210618395156 119.24953683927299 -16.220838376946112
   vertex -31.842897761190784 120.04801592905281 -14.815714790277893
  endloop
 endfacet
 facet normal 0.86002613890880253 0.23187995726104102 -0.45451812484678172
  outer loop
   vertex -31.842897761190784 120.04801592905281 -14.815714790277893
   vertex -32.370210618395156 119.24953683927299 -16.220838376946112
   vertex -32.17206961259469 120.57204989022253 -15.171219697668471
  endloop
 endfacet
 facet normal 0.86002613890880031 0.23187995726104341 -0.45451812484678483
  outer loop
   vertex -32.572549878087337 120.98680769215046 -15.717401382149728
   vertex -32.370210618395156 119.24953683927299 -16.220838376946112
   vertex -33.125629000283794 120.77114604719428 -16.873945172710719
  endloop
 endfacet
 facet normal 0.86002613890880175 0.23187995726104579 -0.454518124846781
  outer loop
   vertex -33.125629000283794 120.77114604719428 -16.873945172710719
   vertex -32.370210618395156 119.24953683927299 -16.220838376946112
   vertex -33.225036018668234 120.16146764601199 -17.373077822013133
  endloop
 endfacet
 facet normal 0.86002613890880075 0.2318799572610433 -0.45451812484678433
  outer loop
   vertex -32.17206961259469 120.57204989022253 -15.171219697668471
   vertex -32.370210618395156 119.24953683927299 -16.220838376946112
   vertex -32.572549878087337 120.98680769215046 -15.717401382149728
  endloop
 endfacet
 facet normal -0.4254454786126593 -0.16589357304321747 -0.88964906966230228
  outer loop
   vertex -33.674931177072793 122.64020961147591 -16.959785205618964
   vertex -49.466125639551009 116.36542685923443 -8.2381008006218259
   vertex -50.015427816340008 118.23449042351608 -8.323940833530072
  endloop
 endfacet
 facet normal -0.42544547861265924 -0.16589357304321783 -0.88964906966230228
  outer loop
   vertex -33.674931177072793 122.64020961147591 -16.959785205618964
   vertex -33.125629000283794 120.77114604719428 -16.873945172710719
   vertex -49.466125639551009 116.36542685923443 -8.2381008006218259
  endloop
 endfacet
 facet normal 0.42544547861265947 0.16589357304321747 0.88964906966230217
  outer loop
   vertex -33.121852054876335 122.8558712564321 -15.803241415057972
   vertex -49.46234869414355 118.45015206847226 -7.1673970429690792
   vertex -48.913046517354552 116.58108850419062 -7.0815570100608332
  endloop
 endfacet
 facet normal 0.42544547861265924 0.16589357304321783 0.88964906966230228
  outer loop
   vertex -48.913046517354552 116.58108850419062 -7.0815570100608332
   vertex -32.572549878087337 120.98680769215046 -15.717401382149728
   vertex -33.121852054876335 122.8558712564321 -15.803241415057972
  endloop
 endfacet
 facet normal -0.28169342399435865 0.95849413552904472 -0.044020529696537178
  outer loop
   vertex -49.46234869414355 118.45015206847226 -7.1673970429690792
   vertex -33.674931177072793 122.64020961147591 -16.959785205618964
   vertex -50.015427816340008 118.23449042351608 -8.323940833530072
  endloop
 endfacet
 facet normal -0.28169342399435898 0.95849413552904472 -0.044020529696537247
  outer loop
   vertex -33.121852054876335 122.8558712564321 -15.803241415057972
   vertex -33.674931177072793 122.64020961147591 -16.959785205618964
   vertex -49.46234869414355 118.45015206847226 -7.1673970429690792
  endloop
 endfacet
 facet normal -0.50982468351347687 0.35414594339748556 -0.78400219569557839
  outer loop
   vertex -33.225036018668234 120.16146764601199 -17.373077822013133
   vertex -49.550667519946686 115.10915716265022 -9.0389753326281976
   vertex -49.565532657935449 115.75574845805214 -8.7372334499242399
  endloop
 endfacet
 facet normal -0.50982468351347676 0.35414594339748384 -0.78400219569557927
  outer loop
   vertex -33.225036018668234 120.16146764601199 -17.373077822013133
   vertex -33.210170880679478 119.51487635061005 -17.674819704717091
   vertex -49.550667519946686 115.10915716265022 -9.0389753326281976
  endloop
 endfacet
 facet normal -0.45634814724352124 -0.048936473031580316 -0.88845460779638852
  outer loop
   vertex -33.210170880679478 119.51487635061005 -17.674819704717091
   vertex -49.387763181712828 114.41580097750823 -9.0844595772039582
   vertex -49.550667519946686 115.10915716265022 -9.0389753326281976
  endloop
 endfacet
 facet normal -0.45634814724352107 -0.04893647303158126 -0.88845460779638874
  outer loop
   vertex -33.210170880679478 119.51487635061005 -17.674819704717091
   vertex -33.04726654244562 118.82152016546807 -17.720303949292852
   vertex -49.387763181712828 114.41580097750823 -9.0844595772039582
  endloop
 endfacet
 facet normal -0.32244231236896581 -0.44339405724452957 -0.8363209104132151
  outer loop
   vertex -33.04726654244562 118.82152016546807 -17.720303949292852
   vertex -49.105530796643698 113.79788079681404 -8.8656697910992897
   vertex -49.387763181712828 114.41580097750823 -9.0844595772039582
  endloop
 endfacet
 facet normal -0.32244231236896825 -0.4433940572445248 -0.83632091041321677
  outer loop
   vertex -33.04726654244562 118.82152016546807 -17.720303949292852
   vertex -32.765034157376483 118.20359998477387 -17.501514163188183
   vertex -49.105530796643698 113.79788079681404 -8.8656697910992897
  endloop
 endfacet
 facet normal -0.13170747713376973 -0.75970544267254947 -0.63678943210512162
  outer loop
   vertex -32.765034157376483 118.20359998477387 -17.501514163188183
   vertex -48.753712547131663 113.36430225988502 -8.4211666853514533
   vertex -49.105530796643698 113.79788079681404 -8.8656697910992897
  endloop
 endfacet
 facet normal -0.13170747713377123 -0.75970544267254758 -0.63678943210512329
  outer loop
   vertex -32.765034157376483 118.20359998477387 -17.501514163188183
   vertex -32.413215907864455 117.77002144784485 -17.057011057440349
   vertex -48.753712547131663 113.36430225988502 -8.4211666853514533
  endloop
 endfacet
 facet normal 0.082240205728474111 -0.94212217712120894 -0.32502669419315627
  outer loop
   vertex -32.413215907864455 117.77002144784485 -17.057011057440349
   vertex -48.394314809701925 113.19148162440919 -7.8292919235320282
   vertex -48.753712547131663 113.36430225988502 -8.4211666853514533
  endloop
 endfacet
 facet normal 0.082240205728483937 -0.94212217712121327 -0.3250266941931414
  outer loop
   vertex -32.413215907864455 117.77002144784485 -17.057011057440349
   vertex -32.05381817043471 117.59720081236904 -16.465136295620923
   vertex -48.394314809701925 113.19148162440919 -7.8292919235320282
  endloop
 endfacet
 facet normal 0.2816934239943647 -0.9584941355290425 0.044020529696547663
  outer loop
   vertex -32.05381817043471 117.59720081236904 -16.465136295620923
   vertex -48.090679811371615 113.30987774637116 -7.1943607575872379
   vertex -48.394314809701925 113.19148162440919 -7.8292919235320282
  endloop
 endfacet
 facet normal 0.28169342399435593 -0.95849413552904594 0.044020529696530919
  outer loop
   vertex -32.05381817043471 117.59720081236904 -16.465136295620923
   vertex -31.7501831721044 117.71559693433099 -15.830205129676131
   vertex -48.090679811371615 113.30987774637116 -7.1943607575872379
  endloop
 endfacet
 facet normal 0.43149944932158923 -0.8059358342154882 0.40530933416657244
  outer loop
   vertex -31.7501831721044 117.71559693433099 -15.830205129676131
   vertex -47.896321848396845 113.69862384433566 -6.628276936108155
   vertex -48.090679811371615 113.30987774637116 -7.1943607575872379
  endloop
 endfacet
 facet normal 0.43149944932158923 -0.8059358342154882 0.40530933416657244
  outer loop
   vertex -31.7501831721044 117.71559693433099 -15.830205129676131
   vertex -31.55582520912963 118.10434303229549 -15.264121308197048
   vertex -47.896321848396845 113.69862384433566 -6.628276936108155
  endloop
 endfacet
 facet normal 0.50525564675571577 -0.51133498433939317 0.69516420018014158
  outer loop
   vertex -31.55582520912963 118.10434303229549 -15.264121308197048
   vertex -47.845495633401526 114.2892051753736 -6.2308101743614808
   vertex -47.896321848396845 113.69862384433566 -6.628276936108155
  endloop
 endfacet
 facet normal 0.50525564675571688 -0.51133498433938451 0.69516420018014702
  outer loop
   vertex -31.55582520912963 118.10434303229549 -15.264121308197048
   vertex -31.504998994134311 118.69492436333344 -14.866654546450373
   vertex -47.845495633401526 114.2892051753736 -6.2308101743614808
  endloop
 endfacet
 facet normal 0.48996281982097706 -0.12661365431929347 0.86249951752623677
  outer loop
   vertex -31.504998994134311 118.69492436333344 -14.866654546450373
   vertex -47.947159057082686 114.97753444886867 -6.0720121928571436
   vertex -47.845495633401526 114.2892051753736 -6.2308101743614808
  endloop
 endfacet
 facet normal 0.4899628198209765 -0.126613654319289 0.86249951752623766
  outer loop
   vertex -31.504998994134311 118.69492436333344 -14.866654546450373
   vertex -31.606662417815475 119.38325363682851 -14.707856564946038
   vertex -47.947159057082686 114.97753444886867 -6.0720121928571436
  endloop
 endfacet
 facet normal 0.38831626015265452 0.28042276007701561 0.8778231927511625
  outer loop
   vertex -31.606662417815475 119.38325363682851 -14.707856564946038
   vertex -48.183394400457992 115.64229674109296 -6.1798704181889992
   vertex -47.947159057082686 114.97753444886867 -6.0720121928571436
  endloop
 endfacet
 facet normal 0.38831626015265425 0.28042276007701644 0.87782319275116238
  outer loop
   vertex -31.606662417815475 119.38325363682851 -14.707856564946038
   vertex -31.842897761190784 120.04801592905281 -14.815714790277893
   vertex -48.183394400457992 115.64229674109296 -6.1798704181889992
  endloop
 endfacet
 facet normal 0.2182307145270323 0.63803593030766959 0.73843449734790123
  outer loop
   vertex -31.842897761190784 120.04801592905281 -14.815714790277893
   vertex -48.512566251861905 116.16633070226268 -6.5353753255795777
   vertex -48.183394400457992 115.64229674109296 -6.1798704181889992
  endloop
 endfacet
 facet normal 0.21823071452703321 0.63803593030766792 0.73843449734790234
  outer loop
   vertex -31.842897761190784 120.04801592905281 -14.815714790277893
   vertex -32.17206961259469 120.57204989022253 -15.171219697668471
   vertex -48.512566251861905 116.16633070226268 -6.5353753255795777
  endloop
 endfacet
 facet normal -0.49465916793001991 0.59740742225148413 -0.63120256607654668
  outer loop
   vertex -49.466125639551009 116.36542685923443 -8.2381008006218259
   vertex -33.125629000283794 120.77114604719428 -16.873945172710719
   vertex -33.225036018668234 120.16146764601199 -17.373077822013133
  endloop
 endfacet
 facet normal -0.49465916793001991 0.59740742225148413 -0.63120256607654668
  outer loop
   vertex -33.225036018668234 120.16146764601199 -17.373077822013133
   vertex -49.565532657935449 115.75574845805214 -8.7372334499242399
   vertex -49.466125639551009 116.36542685923443 -8.2381008006218259
  endloop
 endfacet
 facet normal 0.07789959690081065 0.82066474674986889 0.56607510654034654
  outer loop
   vertex -32.17206961259469 120.57204989022253 -15.171219697668471
   vertex -32.572549878087337 120.98680769215046 -15.717401382149728
   vertex -48.913046517354552 116.58108850419062 -7.0815570100608332
  endloop
 endfacet
 facet normal 0.077899596900810983 0.82066474674986867 0.56607510654034698
  outer loop
   vertex -48.913046517354552 116.58108850419062 -7.0815570100608332
   vertex -48.512566251861905 116.16633070226268 -6.5353753255795777
   vertex -32.17206961259469 120.57204989022253 -15.171219697668471
  endloop
 endfacet
endsolid
