solid Visualization Toolkit generated SLA File
 facet normal -0.86541246414976758 -0.24415448997542671 0.43754982792713648
  outer loop
   vertex -51.398214257694974 118.23193646667694 -8.4904665686620202
   vertex -50.829334689071224 116.36872187372593 -8.4049831374203592
   vertex -50.299749315083965 116.5839829298842 -7.2374207153801491
  endloop
 endfacet
 facet normal -0.86541246414976747 -0.24415448997542644 0.4375498279271367
  outer loop
   vertex -50.299749315083965 116.5839829298842 -7.2374207153801491
   vertex -50.868628883707714 118.44719752283521 -7.322904146621811
   vertex -51.398214257694974 118.23193646667694 -8.4904665686620202
  endloop
 endfacet
 facet normal -0.8654124641497668 -0.24415448997542843 0.43754982792713698
  outer loop
   vertex -50.885087845546323 115.11618160070751 -9.2141773947671961
   vertex -50.06859571148253 114.852011474617 -7.7466779094203444
   vertex -50.912759380231734 115.76082741827437 -8.9091929763842295
  endloop
 endfacet
 facet normal -0.86541246414976647 -0.24415448997542941 0.43754982792713665
  outer loop
   vertex -50.713513262156567 114.42497699226556 -9.2605216608410235
   vertex -50.06859571148253 114.852011474617 -7.7466779094203444
   vertex -50.885087845546323 115.11618160070751 -9.2141773947671961
  endloop
 endfacet
 facet normal -0.86541246414976758 -0.24415448997542627 0.43754982792713626
  outer loop
   vertex -50.428274874998088 113.80903528146648 -9.0400578071510882
   vertex -50.06859571148253 114.852011474617 -7.7466779094203444
   vertex -50.713513262156567 114.42497699226556 -9.2605216608410235
  endloop
 endfacet
 facet normal -0.86541246414976669 -0.24415448997542774 0.43754982792713715
  outer loop
   vertex -50.079644660746666 113.37691341124983 -8.5916415915810447
   vertex -50.06859571148253 114.852011474617 -7.7466779094203444
   vertex -50.428274874998088 113.80903528146648 -9.0400578071510882
  endloop
 endfacet
 facet normal -0.86541246414976913 -0.24415448997542585 0.43754982792713387
  outer loop
   vertex -49.729067119120302 113.20477090837859 -7.9943043456243501
   vertex -50.06859571148253 114.852011474617 -7.7466779094203444
   vertex -50.079644660746666 113.37691341124983 -8.5916415915810447
  endloop
 endfacet
 facet normal -0.86541246414976736 -0.24415448997542594 0.43754982792713687
  outer loop
   vertex -49.438329957486381 113.32294711103044 -7.3533240593701414
   vertex -50.06859571148253 114.852011474617 -7.7466779094203444
   vertex -49.729067119120302 113.20477090837859 -7.9943043456243501
  endloop
 endfacet
 facet normal -0.8654124641497658 -0.24415448997542433 0.43754982792714114
  outer loop
   vertex -49.258674286671699 113.71061399755469 -6.7816706115265948
   vertex -50.06859571148253 114.852011474617 -7.7466779094203444
   vertex -49.438329957486381 113.32294711103044 -7.3533240593701414
  endloop
 endfacet
 facet normal -0.86541246414976714 -0.24415448997543027 0.43754982792713509
  outer loop
   vertex -49.221763606750152 114.29944703116135 -6.3800953388366688
   vertex -50.06859571148253 114.852011474617 -7.7466779094203444
   vertex -49.258674286671699 113.71061399755469 -6.7816706115265948
  endloop
 endfacet
 facet normal -0.86541246414976725 -0.24415448997542846 0.43754982792713587
  outer loop
   vertex -49.334103258249662 114.98566705075541 -6.2193740682966894
   vertex -50.06859571148253 114.852011474617 -7.7466779094203444
   vertex -49.221763606750152 114.29944703116135 -6.3800953388366688
  endloop
 endfacet
 facet normal -0.86541246414976936 -0.24415448997542047 0.43754982792713631
  outer loop
   vertex -49.57589388528335 115.64833087907678 -6.3278331975012376
   vertex -50.06859571148253 114.852011474617 -7.7466779094203444
   vertex -49.334103258249662 114.98566705075541 -6.2193740682966894
  endloop
 endfacet
 facet normal -0.8654124641497648 -0.24415448997543002 0.43754982792713998
  outer loop
   vertex -49.904520982546558 116.17064701112109 -6.6863572950809118
   vertex -50.06859571148253 114.852011474617 -7.7466779094203444
   vertex -49.57589388528335 115.64833087907678 -6.3278331975012376
  endloop
 endfacet
 facet normal -0.86541246414976758 -0.24415448997542616 0.43754982792713631
  outer loop
   vertex -50.829334689071224 116.36872187372593 -8.4049831374203592
   vertex -50.06859571148253 114.852011474617 -7.7466779094203444
   vertex -50.299749315083965 116.5839829298842 -7.2374207153801491
  endloop
 endfacet
 facet normal -0.86541246414976636 -0.24415448997542388 0.43754982792714014
  outer loop
   vertex -50.912759380231734 115.76082741827437 -8.9091929763842295
   vertex -50.06859571148253 114.852011474617 -7.7466779094203444
   vertex -50.829334689071224 116.36872187372593 -8.4049831374203592
  endloop
 endfacet
 facet normal -0.86541246414976813 -0.24415448997542599 0.43754982792713543
  outer loop
   vertex -50.299749315083965 116.5839829298842 -7.2374207153801491
   vertex -50.06859571148253 114.852011474617 -7.7466779094203444
   vertex -49.904520982546558 116.17064701112109 -6.6863572950809118
  endloop
 endfacet
 facet normal 0.86541246414976714 0.24415448997542608 -0.43754982792713715
  outer loop
   vertex -33.856912496238394 121.22291823941731 -15.550867445995751
   vertex -34.386497870225654 121.00765718325904 -16.718429868035958
   vertex -34.955377438849403 122.87087177621005 -16.803913299277621
  endloop
 endfacet
 facet normal 0.86541246414976736 0.2441544899754266 -0.4375498279271367
  outer loop
   vertex -34.955377438849403 122.87087177621005 -16.803913299277621
   vertex -34.425792064862144 123.08613283236832 -15.636350877237412
   vertex -33.856912496238394 121.22291823941731 -15.550867445995751
  endloop
 endfacet
 facet normal 0.86541246414976702 0.24415448997543343 -0.43754982792713354
  outer loop
   vertex -34.469922561386156 120.39976272780748 -17.222639706999828
   vertex -33.625758892636952 119.49094678415011 -16.060124640035944
   vertex -34.442251026700745 119.75511691024063 -17.527624125382797
  endloop
 endfacet
 facet normal 0.86541246414976836 0.24415448997542477 -0.43754982792713593
  outer loop
   vertex -34.442251026700745 119.75511691024063 -17.527624125382797
   vertex -33.625758892636952 119.49094678415011 -16.060124640035944
   vertex -34.27067644331099 119.06391230179867 -17.573968391456624
  endloop
 endfacet
 facet normal 0.86541246414976769 0.24415448997542646 -0.43754982792713609
  outer loop
   vertex -34.27067644331099 119.06391230179867 -17.573968391456624
   vertex -33.625758892636952 119.49094678415011 -16.060124640035944
   vertex -33.98543805615251 118.44797059099959 -17.353504537766689
  endloop
 endfacet
 facet normal 0.86541246414976636 0.2441544899754288 -0.43754982792713759
  outer loop
   vertex -33.98543805615251 118.44797059099959 -17.353504537766689
   vertex -33.625758892636952 119.49094678415011 -16.060124640035944
   vertex -33.636807841901089 118.01584872078294 -16.905088322196647
  endloop
 endfacet
 facet normal 0.86541246414976902 0.24415448997542649 -0.43754982792713365
  outer loop
   vertex -33.636807841901089 118.01584872078294 -16.905088322196647
   vertex -33.625758892636952 119.49094678415011 -16.060124640035944
   vertex -33.286230300274724 117.8437062179117 -16.307751076239953
  endloop
 endfacet
 facet normal 0.86541246414976769 0.2441544899754266 -0.43754982792713598
  outer loop
   vertex -33.286230300274724 117.8437062179117 -16.307751076239953
   vertex -33.625758892636952 119.49094678415011 -16.060124640035944
   vertex -32.995493138640803 117.96188242056355 -15.666770789985742
  endloop
 endfacet
 facet normal 0.86541246414976869 0.24415448997542757 -0.43754982792713348
  outer loop
   vertex -32.995493138640803 117.96188242056355 -15.666770789985742
   vertex -33.625758892636952 119.49094678415011 -16.060124640035944
   vertex -32.815837467826128 118.3495493070878 -15.095117342142196
  endloop
 endfacet
 facet normal 0.86541246414976802 0.24415448997542472 -0.43754982792713648
  outer loop
   vertex -32.815837467826128 118.3495493070878 -15.095117342142196
   vertex -33.625758892636952 119.49094678415011 -16.060124640035944
   vertex -32.778926787904581 118.93838234069447 -14.69354206945227
  endloop
 endfacet
 facet normal 0.86541246414976825 0.24415448997542086 -0.43754982792713826
  outer loop
   vertex -32.778926787904581 118.93838234069447 -14.69354206945227
   vertex -33.625758892636952 119.49094678415011 -16.060124640035944
   vertex -32.891266439404085 119.62460236028853 -14.53282079891229
  endloop
 endfacet
 facet normal 0.86541246414976492 0.24415448997543371 -0.43754982792713776
  outer loop
   vertex -32.891266439404085 119.62460236028853 -14.53282079891229
   vertex -33.625758892636952 119.49094678415011 -16.060124640035944
   vertex -33.133057066437779 120.28726618860989 -14.641279928116838
  endloop
 endfacet
 facet normal 0.86541246414976924 0.24415448997542441 -0.43754982792713409
  outer loop
   vertex -33.133057066437779 120.28726618860989 -14.641279928116838
   vertex -33.625758892636952 119.49094678415011 -16.060124640035944
   vertex -33.46168416370098 120.8095823206542 -14.999804025696513
  endloop
 endfacet
 facet normal 0.86541246414976636 0.24415448997542941 -0.43754982792713737
  outer loop
   vertex -33.856912496238394 121.22291823941731 -15.550867445995751
   vertex -33.625758892636952 119.49094678415011 -16.060124640035944
   vertex -34.386497870225654 121.00765718325904 -16.718429868035958
  endloop
 endfacet
 facet normal 0.8654124641497668 0.24415448997543027 -0.4375498279271357
  outer loop
   vertex -34.386497870225654 121.00765718325904 -16.718429868035958
   vertex -33.625758892636952 119.49094678415011 -16.060124640035944
   vertex -34.469922561386156 120.39976272780748 -17.222639706999828
  endloop
 endfacet
 facet normal 0.86541246414976458 0.24415448997543007 -0.43754982792714037
  outer loop
   vertex -33.46168416370098 120.8095823206542 -14.999804025696513
   vertex -33.625758892636952 119.49094678415011 -16.060124640035944
   vertex -33.856912496238394 121.22291823941731 -15.550867445995751
  endloop
 endfacet
 facet normal -0.4073733646055841 -0.16558542781405597 -0.89812494003093024
  outer loop
   vertex -34.955377438849403 122.87087177621005 -16.803913299277621
   vertex -50.829334689071224 116.36872187372593 -8.4049831374203592
   vertex -51.398214257694974 118.23193646667694 -8.4904665686620202
  endloop
 endfacet
 facet normal -0.40737336460558377 -0.16558542781405672 -0.89812494003093024
  outer loop
   vertex -34.955377438849403 122.87087177621005 -16.803913299277621
   vertex -34.386497870225654 121.00765718325904 -16.718429868035958
   vertex -50.829334689071224 116.36872187372593 -8.4049831374203592
  endloop
 endfacet
 facet normal 0.40737336460558399 0.16558542781405636 0.89812494003093024
  outer loop
   vertex -34.425792064862144 123.08613283236832 -15.636350877237412
   vertex -50.868628883707714 118.44719752283521 -7.322904146621811
   vertex -50.299749315083965 116.5839829298842 -7.2374207153801491
  endloop
 endfacet
 facet normal 0.40737336460558415 0.165585427814056 0.89812494003093024
  outer loop
   vertex -50.299749315083965 116.5839829298842 -7.2374207153801491
   vertex -33.856912496238394 121.22291823941731 -15.550867445995751
   vertex -34.425792064862144 123.08613283236832 -15.636350877237412
  endloop
 endfacet
 facet normal -0.29173311211474301 0.95549466305180175 -0.043837657047003327
  outer loop
   vertex -50.868628883707714 118.44719752283521 -7.322904146621811
   vertex -34.955377438849403 122.87087177621005 -16.803913299277621
   vertex -51.398214257694974 118.23193646667694 -8.4904665686620202
  endloop
 endfacet
 facet normal -0.29173311211474307 0.95549466305180164 -0.043837657047003008
  outer loop
   vertex -34.425792064862144 123.08613283236832 -15.636350877237412
   vertex -34.955377438849403 122.87087177621005 -16.803913299277621
   vertex -50.868628883707714 118.44719752283521 -7.322904146621811
  endloop
 endfacet
 facet normal -0.49955775399727242 0.35285715768478249 -0.79115983005446955
  outer loop
   vertex -34.469922561386156 120.39976272780748 -17.222639706999828
   vertex -50.885087845546323 115.11618160070751 -9.2141773947671961
   vertex -50.912759380231734 115.76082741827437 -8.9091929763842295
  endloop
 endfacet
 facet normal -0.49955775399727309 0.35285715768479053 -0.79115983005446566
  outer loop
   vertex -34.469922561386156 120.39976272780748 -17.222639706999828
   vertex -34.442251026700745 119.75511691024063 -17.527624125382797
   vertex -50.885087845546323 115.11618160070751 -9.2141773947671961
  endloop
 endfacet
 facet normal -0.43962062369627897 -0.04899278458673155 -0.89684637161519076
  outer loop
   vertex -34.442251026700745 119.75511691024063 -17.527624125382797
   vertex -50.713513262156567 114.42497699226556 -9.2605216608410235
   vertex -50.885087845546323 115.11618160070751 -9.2141773947671961
  endloop
 endfacet
 facet normal -0.43962062369627924 -0.048992784586730627 -0.89684637161519065
  outer loop
   vertex -34.442251026700745 119.75511691024063 -17.527624125382797
   vertex -34.27067644331099 119.06391230179867 -17.573968391456624
   vertex -50.713513262156567 114.42497699226556 -9.2605216608410235
  endloop
 endfacet
 facet normal -0.30220234522018358 -0.44220796998502032 -0.84446779324326415
  outer loop
   vertex -34.27067644331099 119.06391230179867 -17.573968391456624
   vertex -50.428274874998088 113.80903528146648 -9.0400578071510882
   vertex -50.713513262156567 114.42497699226556 -9.2605216608410235
  endloop
 endfacet
 facet normal -0.30220234522018358 -0.44220796998502032 -0.84446779324326415
  outer loop
   vertex -34.27067644331099 119.06391230179867 -17.573968391456624
   vertex -33.98543805615251 118.44797059099959 -17.353504537766689
   vertex -50.428274874998088 113.80903528146648 -9.0400578071510882
  endloop
 endfacet
 facet normal -0.11152226912413604 -0.75748599911765746 -0.64325558266534155
  outer loop
   vertex -33.98543805615251 118.44797059099959 -17.353504537766689
   vertex -50.079644660746666 113.37691341124983 -8.5916415915810447
   vertex -50.428274874998088 113.80903528146648 -9.0400578071510882
  endloop
 endfacet
 facet normal -0.11152226912413687 -0.75748599911765657 -0.64325558266534255
  outer loop
   vertex -33.98543805615251 118.44797059099959 -17.353504537766689
   vertex -33.636807841901089 118.01584872078294 -16.905088322196647
   vertex -50.079644660746666 113.37691341124983 -8.5916415915810447
  endloop
 endfacet
 facet normal 0.098813102909068126 -0.93926054416727867 -0.32867248266940402
  outer loop
   vertex -33.636807841901089 118.01584872078294 -16.905088322196647
   vertex -49.729067119120302 113.20477090837859 -7.9943043456243501
   vertex -50.079644660746666 113.37691341124983 -8.5916415915810447
  endloop
 endfacet
 facet normal 0.098813102909068098 -0.93926054416727855 -0.32867248266940396
  outer loop
   vertex -33.636807841901089 118.01584872078294 -16.905088322196647
   vertex -33.286230300274724 117.8437062179117 -16.307751076239953
   vertex -49.729067119120302 113.20477090837859 -7.9943043456243501
  endloop
 endfacet
 facet normal 0.29173311211474351 -0.95549466305180153 0.043837657047004194
  outer loop
   vertex -33.286230300274724 117.8437062179117 -16.307751076239953
   vertex -49.438329957486381 113.32294711103044 -7.3533240593701414
   vertex -49.729067119120302 113.20477090837859 -7.9943043456243501
  endloop
 endfacet
 facet normal 0.29173311211474345 -0.95549466305180153 0.043837657047004097
  outer loop
   vertex -33.286230300274724 117.8437062179117 -16.307751076239953
   vertex -32.995493138640803 117.96188242056355 -15.666770789985742
   vertex -49.438329957486381 113.32294711103044 -7.3533240593701414
  endloop
 endfacet
 facet normal 0.43323647872231463 -0.80332716568371021 0.4086216078217918
  outer loop
   vertex -32.995493138640803 117.96188242056355 -15.666770789985742
   vertex -49.258674286671699 113.71061399755469 -6.7816706115265948
   vertex -49.438329957486381 113.32294711103044 -7.3533240593701414
  endloop
 endfacet
 facet normal 0.43323647872231591 -0.80332716568370777 0.40862160782179519
  outer loop
   vertex -32.995493138640803 117.96188242056355 -15.666770789985742
   vertex -32.815837467826128 118.3495493070878 -15.095117342142196
   vertex -49.258674286671699 113.71061399755469 -6.7816706115265948
  endloop
 endfacet
 facet normal 0.49838387385495891 -0.50957688579259952 0.70138784687734668
  outer loop
   vertex -32.815837467826128 118.3495493070878 -15.095117342142196
   vertex -49.221763606750152 114.29944703116135 -6.3800953388366688
   vertex -49.258674286671699 113.71061399755469 -6.7816706115265948
  endloop
 endfacet
 facet normal 0.49838387385495986 -0.50957688579259042 0.70138784687735267
  outer loop
   vertex -32.815837467826128 118.3495493070878 -15.095117342142196
   vertex -32.778926787904581 118.93838234069447 -14.69354206945227
   vertex -49.221763606750152 114.29944703116135 -6.3800953388366688
  endloop
 endfacet
 facet normal 0.47569336353729924 -0.12601598268108982 0.87053764766119679
  outer loop
   vertex -32.778926787904581 118.93838234069447 -14.69354206945227
   vertex -49.334103258249662 114.98566705075541 -6.2193740682966894
   vertex -49.221763606750152 114.29944703116135 -6.3800953388366688
  endloop
 endfacet
 facet normal 0.47569336353730002 -0.12601598268109548 0.87053764766119557
  outer loop
   vertex -32.778926787904581 118.93838234069447 -14.69354206945227
   vertex -32.891266439404085 119.62460236028853 -14.53282079891229
   vertex -49.334103258249662 114.98566705075541 -6.2193740682966894
  endloop
 endfacet
 facet normal 0.36916404766895006 0.27975466788141085 0.88625912221383574
  outer loop
   vertex -32.891266439404085 119.62460236028853 -14.53282079891229
   vertex -49.57589388528335 115.64833087907678 -6.3278331975012376
   vertex -49.334103258249662 114.98566705075541 -6.2193740682966894
  endloop
 endfacet
 facet normal 0.3691640476689475 0.27975466788141845 0.8862591222138344
  outer loop
   vertex -32.891266439404085 119.62460236028853 -14.53282079891229
   vertex -33.133057066437779 120.28726618860989 -14.641279928116838
   vertex -49.57589388528335 115.64833087907678 -6.3278331975012376
  endloop
 endfacet
 facet normal 0.19757123674009572 0.63621982250847264 0.74578143169448563
  outer loop
   vertex -33.133057066437779 120.28726618860989 -14.641279928116838
   vertex -49.904520982546558 116.17064701112109 -6.6863572950809118
   vertex -49.57589388528335 115.64833087907678 -6.3278331975012376
  endloop
 endfacet
 facet normal 0.19757123674009619 0.63621982250847187 0.74578143169448619
  outer loop
   vertex -33.133057066437779 120.28726618860989 -14.641279928116838
   vertex -33.46168416370098 120.8095823206542 -14.999804025696513
   vertex -49.904520982546558 116.17064701112109 -6.6863572950809118
  endloop
 endfacet
 facet normal -0.4899253198004031 0.59539594246926963 -0.6367706437247268
  outer loop
   vertex -50.829334689071224 116.36872187372593 -8.4049831374203592
   vertex -34.386497870225654 121.00765718325904 -16.718429868035958
   vertex -34.469922561386156 120.39976272780748 -17.222639706999828
  endloop
 endfacet
 facet normal -0.48992531980040244 0.59539594246927297 -0.63677064372472403
  outer loop
   vertex -34.469922561386156 120.39976272780748 -17.222639706999828
   vertex -50.912759380231734 115.76082741827437 -8.9091929763842295
   vertex -50.829334689071224 116.36872187372593 -8.4049831374203592
  endloop
 endfacet
 facet normal 0.0583122386856968 0.81823856929036376 0.57191374047588772
  outer loop
   vertex -33.46168416370098 120.8095823206542 -14.999804025696513
   vertex -33.856912496238394 121.22291823941731 -15.550867445995751
   vertex -50.299749315083965 116.5839829298842 -7.2374207153801491
  endloop
 endfacet
 facet normal 0.058312238685697314 0.81823856929036309 0.5719137404758885
  outer loop
   vertex -50.299749315083965 116.5839829298842 -7.2374207153801491
   vertex -49.904520982546558 116.17064701112109 -6.6863572950809118
   vertex -33.46168416370098 120.8095823206542 -14.999804025696513
  endloop
 endfacet
endsolid
