solid Visualization Toolkit generated SLA File
 facet normal -0.79742290590555343 -0.19660406366755878 0.57049412905528274
  outer loop
   vertex -39.891624302212051 89.717810815394813 -7.7619741113999607
   vertex -39.348262301362951 87.848597883135639 -7.64664523423414
   vertex -38.652461716096916 88.116565029669331 -6.581724977162259
  endloop
 endfacet
 facet normal -0.79742290590555487 -0.19660406366756247 0.5704941290552793
  outer loop
   vertex -38.652461716096916 88.116565029669331 -6.581724977162259
   vertex -39.195823716946023 89.985777961928505 -6.6970538543280798
   vertex -39.891624302212051 89.717810815394813 -7.7619741113999607
  endloop
 endfacet
 facet normal -0.79742290590555576 -0.19660406366755595 0.57049412905528019
  outer loop
   vertex -39.541343241462364 86.5537407177234 -8.3627636377568759
   vertex -38.526661802861483 86.353011207766286 -7.0136419820151756
   vertex -39.513794912538501 87.215241011748816 -8.0962905810091552
  endloop
 endfacet
 facet normal -0.79742290590555542 -0.1966040636675595 0.57049412905527941
  outer loop
   vertex -39.39005855242236 85.856862754712978 -8.3914600996854709
   vertex -38.526661802861483 86.353011207766286 -7.0136419820151756
   vertex -39.541343241462364 86.5537407177234 -8.3627636377568759
  endloop
 endfacet
 facet normal -0.79742290590555409 -0.19660406366756336 0.57049412905528007
  outer loop
   vertex -39.086604088169892 85.247428714338994 -8.1773223450662442
   vertex -38.526661802861483 86.353011207766286 -7.0136419820151756
   vertex -39.39005855242236 85.856862754712978 -8.3914600996854709
  endloop
 endfacet
 facet normal -0.79742290590555143 -0.19660406366756727 0.57049412905528241
  outer loop
   vertex -38.684462326645715 84.832848592038275 -7.7580911854108008
   vertex -38.526661802861483 86.353011207766286 -7.0136419820151756
   vertex -39.086604088169892 85.247428714338994 -8.1773223450662442
  endloop
 endfacet
 facet normal -0.79742290590555553 -0.19660406366756447 0.57049412905527752
  outer loop
   vertex -38.254508935943107 84.686190260779028 -7.2076542180019363
   vertex -38.526661802861483 86.353011207766286 -7.0136419820151756
   vertex -38.684462326645715 84.832848592038275 -7.7580911854108008
  endloop
 endfacet
 facet normal -0.79742290590555676 -0.19660406366756442 0.57049412905527586
  outer loop
   vertex -37.872521258110581 84.833301588661399 -6.6230234707883771
   vertex -38.526661802861483 86.353011207766286 -7.0136419820151756
   vertex -38.254508935943107 84.686190260779028 -7.2076542180019363
  endloop
 endfacet
 facet normal -0.79742290590555287 -0.19660406366756103 0.57049412905528252
  outer loop
   vertex -37.605822895071888 85.248254868977597 -6.1072374708795101
   vertex -38.526661802861483 86.353011207766286 -7.0136419820151756
   vertex -37.872521258110581 84.833301588661399 -6.6230234707883771
  endloop
 endfacet
 facet normal -0.79742290590555354 -0.19660406366756261 0.57049412905528119
  outer loop
   vertex -37.501418228038546 85.857916461345624 -5.751201169798243
   vertex -38.526661802861483 86.353011207766286 -7.0136419820151756
   vertex -37.605822895071888 85.248254868977597 -6.1072374708795101
  endloop
 endfacet
 facet normal -0.79742290590555343 -0.19660406366756353 0.57049412905528085
  outer loop
   vertex -37.577708107745366 86.554836265318016 -5.617664356596447
   vertex -38.526661802861483 86.353011207766286 -7.0136419820151756
   vertex -37.501418228038546 85.857916461345624 -5.751201169798243
  endloop
 endfacet
 facet normal -0.7974229059055542 -0.19660406366756 0.57049412905528085
  outer loop
   vertex -37.82124678766634 87.216185314992913 -5.73016229111595
   vertex -38.526661802861483 86.353011207766286 -7.0136419820151756
   vertex -37.577708107745366 86.554836265318016 -5.617664356596447
  endloop
 endfacet
 facet normal -0.79742290590555354 -0.19660406366756134 0.57049412905528141
  outer loop
   vertex -38.189111676075285 87.72540382916057 -6.0688677208029231
   vertex -38.526661802861483 86.353011207766286 -7.0136419820151756
   vertex -37.82124678766634 87.216185314992913 -5.73016229111595
  endloop
 endfacet
 facet normal -0.79742290590555287 -0.1966040636675607 0.57049412905528285
  outer loop
   vertex -39.348262301362951 87.848597883135639 -7.64664523423414
   vertex -38.526661802861483 86.353011207766286 -7.0136419820151756
   vertex -38.652461716096916 88.116565029669331 -6.581724977162259
  endloop
 endfacet
 facet normal -0.7974229059055582 -0.1966040636675678 0.57049412905527286
  outer loop
   vertex -39.513794912538501 87.215241011748816 -8.0962905810091552
   vertex -38.526661802861483 86.353011207766286 -7.0136419820151756
   vertex -39.348262301362951 87.848597883135639 -7.64664523423414
  endloop
 endfacet
 facet normal -0.79742290590555476 -0.1966040636675602 0.5704941290552803
  outer loop
   vertex -38.652461716096916 88.116565029669331 -6.581724977162259
   vertex -38.526661802861483 86.353011207766286 -7.0136419820151756
   vertex -38.189111676075285 87.72540382916057 -6.0688677208029231
  endloop
 endfacet
 facet normal 0.79742290590555476 0.1966040636675645 -0.57049412905527863
  outer loop
   vertex -25.096272315702493 91.458834112017897 -16.280125171102018
   vertex -25.79207290096852 91.190866965484204 -17.345045428173901
   vertex -26.335434901817628 93.060079897743364 -17.46037430533972
  endloop
 endfacet
 facet normal 0.7974229059055542 0.19660406366756314 -0.57049412905527985
  outer loop
   vertex -26.335434901817628 93.060079897743364 -17.46037430533972
   vertex -25.6396343165516 93.328047044277056 -16.39545404826784
   vertex -25.096272315702493 91.458834112017897 -16.280125171102018
  endloop
 endfacet
 facet normal 0.79742290590555553 0.19660406366755992 -0.57049412905527919
  outer loop
   vertex -25.957605512144077 90.557510094097367 -17.794690774948915
   vertex -24.970472402467056 89.695280290114837 -16.712042175954934
   vertex -25.985153841067937 89.896009800071951 -18.061163831696636
  endloop
 endfacet
 facet normal 0.7974229059055552 0.19660406366756489 -0.57049412905527808
  outer loop
   vertex -25.985153841067937 89.896009800071951 -18.061163831696636
   vertex -24.970472402467056 89.695280290114837 -16.712042175954934
   vertex -25.833869152027933 89.199131837061543 -18.089860293625232
  endloop
 endfacet
 facet normal 0.79742290590555653 0.19660406366756084 -0.57049412905527752
  outer loop
   vertex -25.833869152027933 89.199131837061543 -18.089860293625232
   vertex -24.970472402467056 89.695280290114837 -16.712042175954934
   vertex -25.530414687775465 88.589697796687545 -17.875722539006006
  endloop
 endfacet
 facet normal 0.79742290590555476 0.19660406366756342 -0.57049412905527908
  outer loop
   vertex -25.530414687775465 88.589697796687545 -17.875722539006006
   vertex -24.970472402467056 89.695280290114837 -16.712042175954934
   vertex -25.128272926251292 88.175117674386826 -17.45649137935056
  endloop
 endfacet
 facet normal 0.7974229059055552 0.19660406366756311 -0.57049412905527852
  outer loop
   vertex -25.128272926251292 88.175117674386826 -17.45649137935056
   vertex -24.970472402467056 89.695280290114837 -16.712042175954934
   vertex -24.698319535548684 88.028459343127579 -16.906054411941696
  endloop
 endfacet
 facet normal 0.79742290590555254 0.19660406366756314 -0.57049412905528241
  outer loop
   vertex -24.698319535548684 88.028459343127579 -16.906054411941696
   vertex -24.970472402467056 89.695280290114837 -16.712042175954934
   vertex -24.31633185771615 88.17557067100995 -16.321423664728137
  endloop
 endfacet
 facet normal 0.79742290590555609 0.19660406366756616 -0.57049412905527641
  outer loop
   vertex -24.31633185771615 88.17557067100995 -16.321423664728137
   vertex -24.970472402467056 89.695280290114837 -16.712042175954934
   vertex -24.049633494677465 88.590523951326148 -15.805637664819269
  endloop
 endfacet
 facet normal 0.7974229059055542 0.19660406366756125 -0.57049412905528052
  outer loop
   vertex -24.049633494677465 88.590523951326148 -15.805637664819269
   vertex -24.970472402467056 89.695280290114837 -16.712042175954934
   vertex -23.945228827644122 89.200185543694175 -15.449601363738003
  endloop
 endfacet
 facet normal 0.7974229059055542 0.19660406366755906 -0.57049412905528141
  outer loop
   vertex -23.945228827644122 89.200185543694175 -15.449601363738003
   vertex -24.970472402467056 89.695280290114837 -16.712042175954934
   vertex -24.021518707350939 89.897105347666567 -15.316064550536208
  endloop
 endfacet
 facet normal 0.79742290590555398 0.19660406366755992 -0.57049412905528141
  outer loop
   vertex -24.021518707350939 89.897105347666567 -15.316064550536208
   vertex -24.970472402467056 89.695280290114837 -16.712042175954934
   vertex -24.265057387271913 90.558454397341464 -15.428562485055711
  endloop
 endfacet
 facet normal 0.79742290590555109 0.19660406366756558 -0.57049412905528363
  outer loop
   vertex -24.265057387271913 90.558454397341464 -15.428562485055711
   vertex -24.970472402467056 89.695280290114837 -16.712042175954934
   vertex -24.632922275680862 91.067672911509121 -15.767267914742682
  endloop
 endfacet
 facet normal 0.79742290590555609 0.19660406366755992 -0.57049412905527841
  outer loop
   vertex -25.096272315702493 91.458834112017897 -16.280125171102018
   vertex -24.970472402467056 89.695280290114837 -16.712042175954934
   vertex -25.79207290096852 91.190866965484204 -17.345045428173901
  endloop
 endfacet
 facet normal 0.79742290590555553 0.19660406366755903 -0.57049412905527952
  outer loop
   vertex -25.79207290096852 91.190866965484204 -17.345045428173901
   vertex -24.970472402467056 89.695280290114837 -16.712042175954934
   vertex -25.957605512144077 90.557510094097367 -17.794690774948915
  endloop
 endfacet
 facet normal 0.79742290590555709 0.19660406366755961 -0.57049412905527708
  outer loop
   vertex -24.632922275680862 91.067672911509121 -15.767267914742682
   vertex -24.970472402467056 89.695280290114837 -16.712042175954934
   vertex -25.096272315702493 91.458834112017897 -16.280125171102018
  endloop
 endfacet
 facet normal -0.53523121943540786 -0.20612857425668471 -0.81916942851683172
  outer loop
   vertex -26.335434901817628 93.060079897743364 -17.46037430533972
   vertex -39.348262301362951 87.848597883135639 -7.64664523423414
   vertex -39.891624302212051 89.717810815394813 -7.7619741113999607
  endloop
 endfacet
 facet normal -0.53523121943540686 -0.20612857425668721 -0.81916942851683161
  outer loop
   vertex -26.335434901817628 93.060079897743364 -17.46037430533972
   vertex -25.79207290096852 91.190866965484204 -17.345045428173901
   vertex -39.348262301362951 87.848597883135639 -7.64664523423414
  endloop
 endfacet
 facet normal 0.53523121943540741 0.2061285742566866 0.81916942851683161
  outer loop
   vertex -25.6396343165516 93.328047044277056 -16.39545404826784
   vertex -39.195823716946023 89.985777961928505 -6.6970538543280798
   vertex -38.652461716096916 88.116565029669331 -6.581724977162259
  endloop
 endfacet
 facet normal 0.53523121943540652 0.20612857425668865 0.81916942851683161
  outer loop
   vertex -38.652461716096916 88.116565029669331 -6.581724977162259
   vertex -25.096272315702493 91.458834112017897 -16.280125171102018
   vertex -25.6396343165516 93.328047044277056 -16.39545404826784
  endloop
 endfacet
 facet normal -0.27864717992261845 0.95857073449188235 -0.05914301393119039
  outer loop
   vertex -39.195823716946023 89.985777961928505 -6.6970538543280798
   vertex -26.335434901817628 93.060079897743364 -17.46037430533972
   vertex -39.891624302212051 89.717810815394813 -7.7619741113999607
  endloop
 endfacet
 facet normal -0.27864717992261862 0.95857073449188235 -0.059143013931190529
  outer loop
   vertex -25.6396343165516 93.328047044277056 -16.39545404826784
   vertex -26.335434901817628 93.060079897743364 -17.46037430533972
   vertex -39.195823716946023 89.985777961928505 -6.6970538543280798
  endloop
 endfacet
 facet normal -0.6021849789479744 0.31975895701125606 -0.73152406695918171
  outer loop
   vertex -25.957605512144077 90.557510094097367 -17.794690774948915
   vertex -39.541343241462364 86.5537407177234 -8.3627636377568759
   vertex -39.513794912538501 87.215241011748816 -8.0962905810091552
  endloop
 endfacet
 facet normal -0.6021849789479744 0.31975895701125318 -0.73152406695918282
  outer loop
   vertex -25.957605512144077 90.557510094097367 -17.794690774948915
   vertex -25.985153841067937 89.896009800071951 -18.061163831696636
   vertex -39.541343241462364 86.5537407177234 -8.3627636377568759
  endloop
 endfacet
 facet normal -0.56496266108854021 -0.088867797560099535 -0.82031683277412548
  outer loop
   vertex -25.985153841067937 89.896009800071951 -18.061163831696636
   vertex -39.39005855242236 85.856862754712978 -8.3914600996854709
   vertex -39.541343241462364 86.5537407177234 -8.3627636377568759
  endloop
 endfacet
 facet normal -0.56496266108854021 -0.088867797560099285 -0.82031683277412548
  outer loop
   vertex -25.985153841067937 89.896009800071951 -18.061163831696636
   vertex -25.833869152027933 89.199131837061543 -18.089860293625232
   vertex -39.39005855242236 85.856862754712978 -8.3914600996854709
  endloop
 endfacet
 facet normal -0.42816822741443961 -0.48183200442644059 -0.76453246402175445
  outer loop
   vertex -25.833869152027933 89.199131837061543 -18.089860293625232
   vertex -39.086604088169892 85.247428714338994 -8.1773223450662442
   vertex -39.39005855242236 85.856862754712978 -8.3914600996854709
  endloop
 endfacet
 facet normal -0.42816822741444399 -0.48183200442643248 -0.76453246402175701
  outer loop
   vertex -25.833869152027933 89.199131837061543 -18.089860293625232
   vertex -25.530414687775465 88.589697796687545 -17.875722539006006
   vertex -39.086604088169892 85.247428714338994 -8.1773223450662442
  endloop
 endfacet
 facet normal -0.2159110786537852 -0.78987549802736468 -0.57400270359170047
  outer loop
   vertex -25.530414687775465 88.589697796687545 -17.875722539006006
   vertex -38.684462326645715 84.832848592038275 -7.7580911854108008
   vertex -39.086604088169892 85.247428714338994 -8.1773223450662442
  endloop
 endfacet
 facet normal -0.21591107865378456 -0.78987549802736523 -0.5740027035916998
  outer loop
   vertex -25.530414687775465 88.589697796687545 -17.875722539006006
   vertex -25.128272926251292 88.175117674386826 -17.45649137935056
   vertex -38.684462326645715 84.832848592038275 -7.7580911854108008
  endloop
 endfacet
 facet normal 0.034399421965500498 -0.95870700473839099 -0.28230756070991475
  outer loop
   vertex -25.128272926251292 88.175117674386826 -17.45649137935056
   vertex -38.254508935943107 84.686190260779028 -7.2076542180019363
   vertex -38.684462326645715 84.832848592038275 -7.7580911854108008
  endloop
 endfacet
 facet normal 0.034399421965500276 -0.95870700473839088 -0.28230756070991497
  outer loop
   vertex -25.128272926251292 88.175117674386826 -17.45649137935056
   vertex -24.698319535548684 88.028459343127579 -16.906054411941696
   vertex -38.254508935943107 84.686190260779028 -7.2076542180019363
  endloop
 endfacet
 facet normal 0.27864717992262095 -0.95857073449188146 0.059143013931194109
  outer loop
   vertex -24.698319535548684 88.028459343127579 -16.906054411941696
   vertex -37.872521258110581 84.833301588661399 -6.6230234707883771
   vertex -38.254508935943107 84.686190260779028 -7.2076542180019363
  endloop
 endfacet
 facet normal 0.27864717992261934 -0.9585707344918819 0.059143013931191903
  outer loop
   vertex -24.698319535548684 88.028459343127579 -16.906054411941696
   vertex -24.31633185771615 88.17557067100995 -16.321423664728137
   vertex -37.872521258110581 84.833301588661399 -6.6230234707883771
  endloop
 endfacet
 facet normal 0.47378463169202195 -0.78949070430296342 0.39016989964842996
  outer loop
   vertex -24.31633185771615 88.17557067100995 -16.321423664728137
   vertex -37.605822895071888 85.248254868977597 -6.1072374708795101
   vertex -37.872521258110581 84.833301588661399 -6.6230234707883771
  endloop
 endfacet
 facet normal 0.47378463169202367 -0.78949070430296098 0.39016989964843296
  outer loop
   vertex -24.31633185771615 88.17557067100995 -16.321423664728137
   vertex -24.049633494677465 88.590523951326148 -15.805637664819269
   vertex -37.605822895071888 85.248254868977597 -6.1072374708795101
  endloop
 endfacet
 facet normal 0.58541968327245608 -0.48126650537906779 0.65243110382430181
  outer loop
   vertex -24.049633494677465 88.590523951326148 -15.805637664819269
   vertex -37.501418228038546 85.857916461345624 -5.751201169798243
   vertex -37.605822895071888 85.248254868977597 -6.1072374708795101
  endloop
 endfacet
 facet normal 0.58541968327245619 -0.48126650537906707 0.65243110382430203
  outer loop
   vertex -24.049633494677465 88.590523951326148 -15.805637664819269
   vertex -23.945228827644122 89.200185543694175 -15.449601363738003
   vertex -37.501418228038546 85.857916461345624 -5.751201169798243
  endloop
 endfacet
 facet normal 0.59387716132850965 -0.088221259841248692 0.79970427444425618
  outer loop
   vertex -23.945228827644122 89.200185543694175 -15.449601363738003
   vertex -37.577708107745366 86.554836265318016 -5.617664356596447
   vertex -37.501418228038546 85.857916461345624 -5.751201169798243
  endloop
 endfacet
 facet normal 0.59387716132850987 -0.088221259841250607 0.79970427444425574
  outer loop
   vertex -23.945228827644122 89.200185543694175 -15.449601363738003
   vertex -24.021518707350939 89.897105347666567 -15.316064550536208
   vertex -37.577708107745366 86.554836265318016 -5.617664356596447
  endloop
 endfacet
 facet normal 0.49766647357418969 0.32037258405048691 0.80603318074943042
  outer loop
   vertex -24.021518707350939 89.897105347666567 -15.316064550536208
   vertex -37.82124678766634 87.216185314992913 -5.73016229111595
   vertex -37.577708107745366 86.554836265318016 -5.617664356596447
  endloop
 endfacet
 facet normal 0.49766647357418986 0.32037258405048696 0.80603318074943042
  outer loop
   vertex -24.021518707350939 89.897105347666567 -15.316064550536208
   vertex -24.265057387271913 90.558454397341464 -15.428562485055711
   vertex -37.82124678766634 87.216185314992913 -5.73016229111595
  endloop
 endfacet
 facet normal 0.31374431892694216 0.67250220784412318 0.67030238160538347
  outer loop
   vertex -24.265057387271913 90.558454397341464 -15.428562485055711
   vertex -38.189111676075285 87.72540382916057 -6.0688677208029231
   vertex -37.82124678766634 87.216185314992913 -5.73016229111595
  endloop
 endfacet
 facet normal 0.3137443189269421 0.67250220784412307 0.67030238160538347
  outer loop
   vertex -24.265057387271913 90.558454397341464 -15.428562485055711
   vertex -24.632922275680862 91.067672911509121 -15.767267914742682
   vertex -38.189111676075285 87.72540382916057 -6.0688677208029231
  endloop
 endfacet
 facet normal -0.56627982228964191 0.57039022560168695 -0.59496399336906802
  outer loop
   vertex -39.348262301362951 87.848597883135639 -7.64664523423414
   vertex -25.79207290096852 91.190866965484204 -17.345045428173901
   vertex -25.957605512144077 90.557510094097367 -17.794690774948915
  endloop
 endfacet
 facet normal -0.56627982228964047 0.5703902256016915 -0.5949639933690648
  outer loop
   vertex -25.957605512144077 90.557510094097367 -17.794690774948915
   vertex -39.513794912538501 87.215241011748816 -8.0962905810091552
   vertex -39.348262301362951 87.848597883135639 -7.64664523423414
  endloop
 endfacet
 facet normal 0.15402710610492343 0.84779526997448007 0.50746313244790608
  outer loop
   vertex -24.632922275680862 91.067672911509121 -15.767267914742682
   vertex -25.096272315702493 91.458834112017897 -16.280125171102018
   vertex -38.652461716096916 88.116565029669331 -6.581724977162259
  endloop
 endfacet
 facet normal 0.1540271061049151 0.84779526997448773 0.50746313244789587
  outer loop
   vertex -38.652461716096916 88.116565029669331 -6.581724977162259
   vertex -38.189111676075285 87.72540382916057 -6.0688677208029231
   vertex -24.632922275680862 91.067672911509121 -15.767267914742682
  endloop
 endfacet
endsolid
