solid Visualization Toolkit generated SLA File
 facet normal -0.65829311940396251 0 0.75276169465867504
  outer loop
   vertex -31.556976318359375 19.5 -13.398220062255859
   vertex -31.556976318359375 4.5 -13.398220062255859
   vertex -27.0404052734375 19.5 -9.448460578918457
  endloop
 endfacet
 facet normal -0.65829311940396251 0 0.75276169465867504
  outer loop
   vertex -27.0404052734375 19.5 -9.448460578918457
   vertex -31.556976318359375 4.5 -13.398220062255859
   vertex -27.0404052734375 4.5 -9.448460578918457
  endloop
 endfacet
 facet normal 0.65744821402101139 0.050651590113437291 -0.75179535932297603
  outer loop
   vertex -23.683109283447266 19.5 -13.287544250488281
   vertex -28.199680328369141 19.5 -17.2373046875
   vertex -23.691722869873047 19.757980346679688 -13.277695655822754
  endloop
 endfacet
 facet normal 0.65744835071301599 0.050649513841031432 -0.75179537966949661
  outer loop
   vertex -23.691722869873047 19.757980346679688 -13.277695655822754
   vertex -28.199680328369141 19.5 -17.2373046875
   vertex -28.208292007446289 19.757980346679688 -17.227455139160156
  endloop
 endfacet
 facet normal 0.65070201912777759 0.15142810708188439 -0.74408091676149768
  outer loop
   vertex -23.691722869873047 19.757980346679688 -13.277695655822754
   vertex -28.208292007446289 19.757980346679688 -17.227455139160156
   vertex -23.717472076416016 20.013311386108398 -13.248250961303711
  endloop
 endfacet
 facet normal 0.65070238199870722 0.15142539162848048 -0.74408115204685155
  outer loop
   vertex -23.717472076416016 20.013311386108398 -13.248250961303711
   vertex -28.208292007446289 19.757980346679688 -17.227455139160156
   vertex -28.234041213989258 20.013311386108398 -17.19801139831543
  endloop
 endfacet
 facet normal 0.63727893204803943 0.25065144124595545 -0.72873137558982304
  outer loop
   vertex -23.717472076416016 20.013311386108398 -13.248250961303711
   vertex -28.234041213989258 20.013311386108398 -17.19801139831543
   vertex -23.760093688964844 20.263376235961914 -13.199512481689453
  endloop
 endfacet
 facet normal 0.63727893204803943 0.25065144124595545 -0.72873137558982304
  outer loop
   vertex -23.760093688964844 20.263376235961914 -13.199512481689453
   vertex -28.234041213989258 20.013311386108398 -17.19801139831543
   vertex -28.276662826538086 20.263376235961914 -17.149272918701172
  endloop
 endfacet
 facet normal 0.61731581526789414 0.34730604533152626 -0.70590346018156835
  outer loop
   vertex -23.760093688964844 20.263376235961914 -13.199512481689453
   vertex -28.276662826538086 20.263376235961914 -17.149272918701172
   vertex -23.819150924682617 20.505607604980469 -13.131979942321777
  endloop
 endfacet
 facet normal 0.61731513495927059 0.34730848927014424 -0.7059028526866199
  outer loop
   vertex -23.819150924682617 20.505607604980469 -13.131979942321777
   vertex -28.276662826538086 20.263376235961914 -17.149272918701172
   vertex -28.335720062255859 20.505607604980469 -17.08173942565918
  endloop
 endfacet
 facet normal 0.59101938118352115 0.4403920184816707 -0.67583353062946483
  outer loop
   vertex -23.819150924682617 20.505607604980469 -13.131979942321777
   vertex -28.335720062255859 20.505607604980469 -17.08173942565918
   vertex -23.894037246704102 20.737520217895508 -13.046347618103027
  endloop
 endfacet
 facet normal 0.59101938118352115 0.4403920184816707 -0.67583353062946483
  outer loop
   vertex -23.894037246704102 20.737520217895508 -13.046347618103027
   vertex -28.335720062255859 20.505607604980469 -17.08173942565918
   vertex -28.410606384277344 20.737520217895508 -16.99610710144043
  endloop
 endfacet
 facet normal 0.55865499310493016 0.52896843641237379 -0.63882469579562984
  outer loop
   vertex -23.894037246704102 20.737520217895508 -13.046347618103027
   vertex -28.410606384277344 20.737520217895508 -16.99610710144043
   vertex -23.983985900878906 20.956733703613281 -12.94349193572998
  endloop
 endfacet
 facet normal 0.55865499310493016 0.52896843641237379 -0.63882469579562984
  outer loop
   vertex -23.983985900878906 20.956733703613281 -12.94349193572998
   vertex -28.410606384277344 20.737520217895508 -16.99610710144043
   vertex -28.500555038452148 20.956733703613281 -16.893251419067383
  endloop
 endfacet
 facet normal 0.52056332060320698 0.61210408007284378 -0.59526668342915035
  outer loop
   vertex -23.983985900878906 20.956733703613281 -12.94349193572998
   vertex -28.500555038452148 20.956733703613281 -16.893251419067383
   vertex -24.088069915771484 21.160999298095703 -12.824470520019531
  endloop
 endfacet
 facet normal 0.52056427738063193 0.61210234216864434 -0.59526763378067205
  outer loop
   vertex -24.088069915771484 21.160999298095703 -12.824470520019531
   vertex -28.500555038452148 20.956733703613281 -16.893251419067383
   vertex -28.604639053344727 21.160999298095703 -16.77423095703125
  endloop
 endfacet
 facet normal 0.47712555328323764 0.68896808725958314 -0.54559525395849595
  outer loop
   vertex -24.088069915771484 21.160999298095703 -12.824470520019531
   vertex -28.604639053344727 21.160999298095703 -16.77423095703125
   vertex -24.205224990844727 21.348220825195312 -12.690503120422363
  endloop
 endfacet
 facet normal 0.47712457442436046 0.68896954721663817 -0.5455942663632688
  outer loop
   vertex -24.205224990844727 21.348220825195312 -12.690503120422363
   vertex -28.604639053344727 21.160999298095703 -16.77423095703125
   vertex -28.721794128417969 21.348220825195312 -16.640262603759766
  endloop
 endfacet
 facet normal 0.42879768052022915 0.75875348745591542 -0.49033222865110315
  outer loop
   vertex -24.205224990844727 21.348220825195312 -12.690503120422363
   vertex -28.721794128417969 21.348220825195312 -16.640262603759766
   vertex -24.334247589111328 21.5164794921875 -12.542965888977051
  endloop
 endfacet
 facet normal 0.42879768052022915 0.75875348745591542 -0.49033222865110315
  outer loop
   vertex -24.334247589111328 21.5164794921875 -12.542965888977051
   vertex -28.721794128417969 21.348220825195312 -16.640262603759766
   vertex -28.85081672668457 21.5164794921875 -16.492725372314453
  endloop
 endfacet
 facet normal 0.37606037809485166 0.82076518283189415 -0.43002686739096296
  outer loop
   vertex -24.334247589111328 21.5164794921875 -12.542965888977051
   vertex -28.85081672668457 21.5164794921875 -16.492725372314453
   vertex -24.473814010620117 21.664043426513672 -12.383371353149414
  endloop
 endfacet
 facet normal 0.37605946883275421 0.82076608979644072 -0.43002593147563528
  outer loop
   vertex -24.473814010620117 21.664043426513672 -12.383371353149414
   vertex -28.85081672668457 21.5164794921875 -16.492725372314453
   vertex -28.990383148193359 21.664043426513672 -16.3331298828125
  endloop
 endfacet
 facet normal 0.31946988116697234 0.87434753884359895 -0.36531544772333674
  outer loop
   vertex -24.473814010620117 21.664043426513672 -12.383371353149414
   vertex -28.990383148193359 21.664043426513672 -16.3331298828125
   vertex -24.622491836547852 21.789402008056641 -12.213356971740723
  endloop
 endfacet
 facet normal 0.31947070117527332 0.87434688430277629 -0.36531629720094144
  outer loop
   vertex -24.622491836547852 21.789402008056641 -12.213356971740723
   vertex -28.990383148193359 21.664043426513672 -16.3331298828125
   vertex -29.139060974121094 21.789402008056641 -16.163116455078125
  endloop
 endfacet
 facet normal 0.25960127313602216 0.91895816038243605 -0.29685531568878054
  outer loop
   vertex -24.622491836547852 21.789402008056641 -12.213356971740723
   vertex -29.139060974121094 21.789402008056641 -16.163116455078125
   vertex -24.778755187988281 21.891267776489258 -12.034669876098633
  endloop
 endfacet
 facet normal 0.25960057461075126 0.91895859258743917 -0.29685458859765113
  outer loop
   vertex -24.778755187988281 21.891267776489258 -12.034669876098633
   vertex -29.139060974121094 21.789402008056641 -16.163116455078125
   vertex -29.295324325561523 21.891267776489258 -15.984428405761719
  endloop
 endfacet
 facet normal 0.19707094385435464 0.95413818896655045 -0.2253516351038633
  outer loop
   vertex -24.778755187988281 21.891267776489258 -12.034669876098633
   vertex -29.295324325561523 21.891267776489258 -15.984428405761719
   vertex -24.940999984741211 21.968597412109375 -11.849140167236328
  endloop
 endfacet
 facet normal 0.19707204293596361 0.95413769082271094 -0.22535278308587742
  outer loop
   vertex -24.940999984741211 21.968597412109375 -11.849140167236328
   vertex -29.295324325561523 21.891267776489258 -15.984428405761719
   vertex -29.457569122314453 21.968597412109375 -15.798900604248047
  endloop
 endfacet
 facet normal 0.13251441649815515 0.97952964907164186 -0.15153084177730811
  outer loop
   vertex -24.940999984741211 21.968597412109375 -11.849140167236328
   vertex -29.457569122314453 21.968597412109375 -15.798900604248047
   vertex -25.107564926147461 22.020595550537109 -11.658674240112305
  endloop
 endfacet
 facet normal 0.1325140376290212 0.97952976168730765 -0.15153044512592409
  outer loop
   vertex -25.107564926147461 22.020595550537109 -11.658674240112305
   vertex -29.457569122314453 21.968597412109375 -15.798900604248047
   vertex -29.624134063720703 22.020595550537109 -15.608433723449707
  endloop
 endfacet
 facet normal 0.066593092756147443 0.99487014724440193 -0.07614952474620712
  outer loop
   vertex -25.107564926147461 22.020595550537109 -11.658674240112305
   vertex -29.624134063720703 22.020595550537109 -15.608433723449707
   vertex -25.276735305786133 22.046726226806641 -11.465225219726562
  endloop
 endfacet
 facet normal 0.066593285992623333 0.99487011880385057 -0.076149727326609171
  outer loop
   vertex -25.276735305786133 22.046726226806641 -11.465225219726562
   vertex -29.624134063720703 22.020595550537109 -15.608433723449707
   vertex -29.793304443359375 22.046726226806641 -15.414985656738281
  endloop
 endfacet
 facet normal 0 1 0
  outer loop
   vertex -25.276735305786133 22.046726226806641 -11.465225219726562
   vertex -29.793304443359375 22.046726226806641 -15.414985656738281
   vertex -25.446781158447266 22.046726226806641 -11.270778656005859
  endloop
 endfacet
 facet normal 0 1 -0
  outer loop
   vertex -25.446781158447266 22.046726226806641 -11.270778656005859
   vertex -29.793304443359375 22.046726226806641 -15.414985656738281
   vertex -29.963350296020508 22.046726226806641 -15.220539093017578
  endloop
 endfacet
 facet normal -0.066593285992623333 0.99487011880385057 0.076149727326609171
  outer loop
   vertex -25.446781158447266 22.046726226806641 -11.270778656005859
   vertex -29.963350296020508 22.046726226806641 -15.220539093017578
   vertex -25.615951538085938 22.020595550537109 -11.077330589294434
  endloop
 endfacet
 facet normal -0.066593092756147443 0.99487014724440193 0.07614952474620712
  outer loop
   vertex -25.615951538085938 22.020595550537109 -11.077330589294434
   vertex -29.963350296020508 22.046726226806641 -15.220539093017578
   vertex -30.13252067565918 22.020595550537109 -15.027090072631836
  endloop
 endfacet
 facet normal -0.1325140376290212 0.97952976168730765 0.15153044512592409
  outer loop
   vertex -25.615951538085938 22.020595550537109 -11.077330589294434
   vertex -30.13252067565918 22.020595550537109 -15.027090072631836
   vertex -25.782516479492188 21.968597412109375 -10.886863708496094
  endloop
 endfacet
 facet normal -0.13251441649815515 0.97952964907164186 0.15153084177730811
  outer loop
   vertex -25.782516479492188 21.968597412109375 -10.886863708496094
   vertex -30.13252067565918 22.020595550537109 -15.027090072631836
   vertex -30.29908561706543 21.968597412109375 -14.836624145507812
  endloop
 endfacet
 facet normal -0.19707204293596361 0.95413769082271094 0.22535278308587742
  outer loop
   vertex -25.782516479492188 21.968597412109375 -10.886863708496094
   vertex -30.29908561706543 21.968597412109375 -14.836624145507812
   vertex -25.944761276245117 21.891267776489258 -10.701335906982422
  endloop
 endfacet
 facet normal -0.19707094385435464 0.95413818896655045 0.2253516351038633
  outer loop
   vertex -25.944761276245117 21.891267776489258 -10.701335906982422
   vertex -30.29908561706543 21.968597412109375 -14.836624145507812
   vertex -30.461330413818359 21.891267776489258 -14.651094436645508
  endloop
 endfacet
 facet normal -0.25960057461075126 0.91895859258743917 0.29685458859765113
  outer loop
   vertex -25.944761276245117 21.891267776489258 -10.701335906982422
   vertex -30.461330413818359 21.891267776489258 -14.651094436645508
   vertex -26.101024627685547 21.789402008056641 -10.522647857666016
  endloop
 endfacet
 facet normal -0.25960127313602216 0.91895816038243605 0.29685531568878054
  outer loop
   vertex -26.101024627685547 21.789402008056641 -10.522647857666016
   vertex -30.461330413818359 21.891267776489258 -14.651094436645508
   vertex -30.617593765258789 21.789402008056641 -14.472407341003418
  endloop
 endfacet
 facet normal -0.31946992487636866 0.87434753884355965 0.36531540949937652
  outer loop
   vertex -26.101024627685547 21.789402008056641 -10.522647857666016
   vertex -30.617593765258789 21.789402008056641 -14.472407341003418
   vertex -26.249702453613281 21.664043426513672 -10.352633476257324
  endloop
 endfacet
 facet normal -0.31946992487636866 0.87434753884355965 0.36531540949937652
  outer loop
   vertex -26.249702453613281 21.664043426513672 -10.352633476257324
   vertex -30.617593765258789 21.789402008056641 -14.472407341003418
   vertex -30.766271591186523 21.664043426513672 -14.302392959594727
  endloop
 endfacet
 facet normal -0.37606037809485166 0.82076518283189415 0.43002686739096296
  outer loop
   vertex -26.249702453613281 21.664043426513672 -10.352633476257324
   vertex -30.766271591186523 21.664043426513672 -14.302392959594727
   vertex -26.38926887512207 21.5164794921875 -10.193038940429688
  endloop
 endfacet
 facet normal -0.37606037809485166 0.82076518283189415 0.43002686739096296
  outer loop
   vertex -26.38926887512207 21.5164794921875 -10.193038940429688
   vertex -30.766271591186523 21.664043426513672 -14.302392959594727
   vertex -30.905838012695312 21.5164794921875 -14.14279842376709
  endloop
 endfacet
 facet normal -0.42879768052022915 0.75875348745591542 0.49033222865110315
  outer loop
   vertex -26.38926887512207 21.5164794921875 -10.193038940429688
   vertex -30.905838012695312 21.5164794921875 -14.14279842376709
   vertex -26.518291473388672 21.348220825195312 -10.045501708984375
  endloop
 endfacet
 facet normal -0.42879768052022915 0.75875348745591542 0.49033222865110315
  outer loop
   vertex -26.518291473388672 21.348220825195312 -10.045501708984375
   vertex -30.905838012695312 21.5164794921875 -14.14279842376709
   vertex -31.034860610961914 21.348220825195312 -13.995261192321777
  endloop
 endfacet
 facet normal -0.47712548800373128 0.68896808725958614 0.54559531104571302
  outer loop
   vertex -26.518291473388672 21.348220825195312 -10.045501708984375
   vertex -31.034860610961914 21.348220825195312 -13.995261192321777
   vertex -26.635446548461914 21.160999298095703 -9.911534309387207
  endloop
 endfacet
 facet normal -0.47712548800373128 0.68896808725958614 0.54559531104571302
  outer loop
   vertex -26.635446548461914 21.160999298095703 -9.911534309387207
   vertex -31.034860610961914 21.348220825195312 -13.995261192321777
   vertex -31.152015686035156 21.160999298095703 -13.861293792724609
  endloop
 endfacet
 facet normal -0.52056332060320698 0.61210408007284378 0.59526668342915035
  outer loop
   vertex -26.635446548461914 21.160999298095703 -9.911534309387207
   vertex -31.152015686035156 21.160999298095703 -13.861293792724609
   vertex -26.739530563354492 20.956733703613281 -9.7925128936767578
  endloop
 endfacet
 facet normal -0.52056332060320698 0.61210408007284378 0.59526668342915035
  outer loop
   vertex -26.739530563354492 20.956733703613281 -9.7925128936767578
   vertex -31.152015686035156 21.160999298095703 -13.861293792724609
   vertex -31.256099700927734 20.956733703613281 -13.74227237701416
  endloop
 endfacet
 facet normal -0.55865499310493016 0.52896843641237379 0.63882469579562984
  outer loop
   vertex -26.739530563354492 20.956733703613281 -9.7925128936767578
   vertex -31.256099700927734 20.956733703613281 -13.74227237701416
   vertex -26.829479217529297 20.737520217895508 -9.6896572113037109
  endloop
 endfacet
 facet normal -0.55865499310493016 0.52896843641237379 0.63882469579562984
  outer loop
   vertex -26.829479217529297 20.737520217895508 -9.6896572113037109
   vertex -31.256099700927734 20.956733703613281 -13.74227237701416
   vertex -31.346048355102539 20.737520217895508 -13.639416694641113
  endloop
 endfacet
 facet normal -0.59101938118352115 0.4403920184816707 0.67583353062946483
  outer loop
   vertex -26.829479217529297 20.737520217895508 -9.6896572113037109
   vertex -31.346048355102539 20.737520217895508 -13.639416694641113
   vertex -26.904365539550781 20.505607604980469 -9.6040248870849609
  endloop
 endfacet
 facet normal -0.59101938118352115 0.4403920184816707 0.67583353062946483
  outer loop
   vertex -26.904365539550781 20.505607604980469 -9.6040248870849609
   vertex -31.346048355102539 20.737520217895508 -13.639416694641113
   vertex -31.420934677124023 20.505607604980469 -13.553784370422363
  endloop
 endfacet
 facet normal -0.61731513495927059 0.34730848927014424 0.7059028526866199
  outer loop
   vertex -26.904365539550781 20.505607604980469 -9.6040248870849609
   vertex -31.420934677124023 20.505607604980469 -13.553784370422363
   vertex -26.963422775268555 20.263376235961914 -9.5364913940429688
  endloop
 endfacet
 facet normal -0.61731581526789414 0.34730604533152626 0.70590346018156835
  outer loop
   vertex -26.963422775268555 20.263376235961914 -9.5364913940429688
   vertex -31.420934677124023 20.505607604980469 -13.553784370422363
   vertex -31.479991912841797 20.263376235961914 -13.486251831054688
  endloop
 endfacet
 facet normal -0.63727937597622419 0.25064883667901677 0.72873188322373417
  outer loop
   vertex -26.963422775268555 20.263376235961914 -9.5364913940429688
   vertex -31.479991912841797 20.263376235961914 -13.486251831054688
   vertex -27.006044387817383 20.013311386108398 -9.4877538681030273
  endloop
 endfacet
 facet normal -0.63727884485660025 0.25065144124608829 0.72873145183908183
  outer loop
   vertex -27.006044387817383 20.013311386108398 -9.4877538681030273
   vertex -31.479991912841797 20.263376235961914 -13.486251831054688
   vertex -31.522613525390625 20.013311386108398 -13.43751335144043
  endloop
 endfacet
 facet normal -0.65070201912777759 0.15142810708188439 0.74408091676149768
  outer loop
   vertex -27.006044387817383 20.013311386108398 -9.4877538681030273
   vertex -31.522613525390625 20.013311386108398 -13.43751335144043
   vertex -27.031793594360352 19.757980346679688 -9.4583091735839844
  endloop
 endfacet
 facet normal -0.65070201912777759 0.15142810708188439 0.74408091676149768
  outer loop
   vertex -27.031793594360352 19.757980346679688 -9.4583091735839844
   vertex -31.522613525390625 20.013311386108398 -13.43751335144043
   vertex -31.548362731933594 19.757980346679688 -13.408068656921387
  endloop
 endfacet
 facet normal -0.65744844325487395 0.050646741812795201 0.75179548549156028
  outer loop
   vertex -27.031793594360352 19.757980346679688 -9.4583091735839844
   vertex -31.548362731933594 19.757980346679688 -13.408068656921387
   vertex -27.0404052734375 19.5 -9.448460578918457
  endloop
 endfacet
 facet normal -0.65744812407004616 0.050651590113106944 0.75179543798548742
  outer loop
   vertex -27.0404052734375 19.5 -9.448460578918457
   vertex -31.548362731933594 19.757980346679688 -13.408068656921387
   vertex -31.556976318359375 19.5 -13.398220062255859
  endloop
 endfacet
 facet normal 0.6582932094705497 0 -0.75276161589507407
  outer loop
   vertex -28.199680328369141 4.5 -17.2373046875
   vertex -28.199680328369141 19.5 -17.2373046875
   vertex -23.683109283447266 4.5 -13.287544250488281
  endloop
 endfacet
 facet normal 0.6582932094705497 0 -0.75276161589507407
  outer loop
   vertex -23.683109283447266 4.5 -13.287544250488281
   vertex -28.199680328369141 19.5 -17.2373046875
   vertex -23.683109283447266 19.5 -13.287544250488281
  endloop
 endfacet
 facet normal -0.65744827969559272 -0.050646928559305304 0.75179561594413036
  outer loop
   vertex -27.0404052734375 4.5 -9.448460578918457
   vertex -31.556976318359375 4.5 -13.398220062255859
   vertex -27.031793594360352 4.2420206069946289 -9.4583091735839844
  endloop
 endfacet
 facet normal -0.65744827515966342 -0.05065177687739629 0.75179529327387118
  outer loop
   vertex -27.031793594360352 4.2420206069946289 -9.4583091735839844
   vertex -31.556976318359375 4.5 -13.398220062255859
   vertex -31.548362731933594 4.2420206069946289 -13.408068656921387
  endloop
 endfacet
 facet normal -0.6507020748578024 -0.15142755446153897 0.74408098048905158
  outer loop
   vertex -27.031793594360352 4.2420206069946289 -9.4583091735839844
   vertex -31.548362731933594 4.2420206069946289 -13.408068656921387
   vertex -27.006044387817383 3.9866886138916016 -9.4877538681030273
  endloop
 endfacet
 facet normal -0.6507020748578024 -0.15142755446153897 0.74408098048905158
  outer loop
   vertex -27.006044387817383 3.9866886138916016 -9.4877538681030273
   vertex -31.548362731933594 4.2420206069946289 -13.408068656921387
   vertex -31.522613525390625 3.9866886138916016 -13.43751335144043
  endloop
 endfacet
 facet normal -0.63727928878477058 -0.250648836678877 0.7287319594730991
  outer loop
   vertex -27.006044387817383 3.9866886138916016 -9.4877538681030273
   vertex -31.522613525390625 3.9866886138916016 -13.43751335144043
   vertex -26.963422775268555 3.7366237640380859 -9.5364913940429688
  endloop
 endfacet
 facet normal -0.63727893204803943 -0.25065144124595545 0.72873137558982304
  outer loop
   vertex -26.963422775268555 3.7366237640380859 -9.5364913940429688
   vertex -31.522613525390625 3.9866886138916016 -13.43751335144043
   vertex -31.479991912841797 3.7366237640380859 -13.486251831054688
  endloop
 endfacet
 facet normal -0.61731521941936873 -0.3473084892698049 0.70590277882605235
  outer loop
   vertex -26.963422775268555 3.7366237640380859 -9.5364913940429688
   vertex -31.479991912841797 3.7366237640380859 -13.486251831054688
   vertex -26.904365539550781 3.4943923950195312 -9.6040248870849609
  endloop
 endfacet
 facet normal -0.6173157308077768 -0.34730604533160991 0.70590353404227846
  outer loop
   vertex -26.904365539550781 3.4943923950195312 -9.6040248870849609
   vertex -31.479991912841797 3.7366237640380859 -13.486251831054688
   vertex -31.420934677124023 3.4943923950195312 -13.553784370422363
  endloop
 endfacet
 facet normal -0.59101938118352115 -0.4403920184816707 0.67583353062946483
  outer loop
   vertex -26.904365539550781 3.4943923950195312 -9.6040248870849609
   vertex -31.420934677124023 3.4943923950195312 -13.553784370422363
   vertex -26.829479217529297 3.2624797821044922 -9.6896572113037109
  endloop
 endfacet
 facet normal -0.59101938118352115 -0.4403920184816707 0.67583353062946483
  outer loop
   vertex -26.829479217529297 3.2624797821044922 -9.6896572113037109
   vertex -31.420934677124023 3.4943923950195312 -13.553784370422363
   vertex -31.346048355102539 3.2624797821044922 -13.639416694641113
  endloop
 endfacet
 facet normal -0.55865499310493016 -0.52896843641237379 0.63882469579562984
  outer loop
   vertex -26.829479217529297 3.2624797821044922 -9.6896572113037109
   vertex -31.346048355102539 3.2624797821044922 -13.639416694641113
   vertex -26.739530563354492 3.0432662963867188 -9.7925128936767578
  endloop
 endfacet
 facet normal -0.55865499310493016 -0.52896843641237379 0.63882469579562984
  outer loop
   vertex -26.739530563354492 3.0432662963867188 -9.7925128936767578
   vertex -31.346048355102539 3.2624797821044922 -13.639416694641113
   vertex -31.256099700927734 3.0432662963867188 -13.74227237701416
  endloop
 endfacet
 facet normal -0.52056423120201045 -0.61210229301940589 0.59526772470330125
  outer loop
   vertex -26.739530563354492 3.0432662963867188 -9.7925128936767578
   vertex -31.256099700927734 3.0432662963867188 -13.74227237701416
   vertex -26.635446548461914 2.8389997482299805 -9.911534309387207
  endloop
 endfacet
 facet normal -0.52056423120201045 -0.61210229301940589 0.59526772470330125
  outer loop
   vertex -26.635446548461914 2.8389997482299805 -9.911534309387207
   vertex -31.256099700927734 3.0432662963867188 -13.74227237701416
   vertex -31.152015686035156 2.8389997482299805 -13.861293792724609
  endloop
 endfacet
 facet normal -0.47712548800373128 -0.68896808725958614 0.54559531104571302
  outer loop
   vertex -26.635446548461914 2.8389997482299805 -9.911534309387207
   vertex -31.152015686035156 2.8389997482299805 -13.861293792724609
   vertex -26.518291473388672 2.6517782211303711 -10.045501708984375
  endloop
 endfacet
 facet normal -0.47712548800373128 -0.68896808725958614 0.54559531104571302
  outer loop
   vertex -26.518291473388672 2.6517782211303711 -10.045501708984375
   vertex -31.152015686035156 2.8389997482299805 -13.861293792724609
   vertex -31.034860610961914 2.6517782211303711 -13.995261192321777
  endloop
 endfacet
 facet normal -0.42879488212146954 -0.75875713684379953 0.49032902866854072
  outer loop
   vertex -26.518291473388672 2.6517782211303711 -10.045501708984375
   vertex -31.034860610961914 2.6517782211303711 -13.995261192321777
   vertex -26.38926887512207 2.4835214614868164 -10.193038940429688
  endloop
 endfacet
 facet normal -0.42879488212146954 -0.75875713684379953 0.49032902866854072
  outer loop
   vertex -26.38926887512207 2.4835214614868164 -10.193038940429688
   vertex -31.034860610961914 2.6517782211303711 -13.995261192321777
   vertex -30.905838012695312 2.4835214614868164 -14.14279842376709
  endloop
 endfacet
 facet normal -0.37606037809485166 -0.82076518283189415 0.43002686739096296
  outer loop
   vertex -26.38926887512207 2.4835214614868164 -10.193038940429688
   vertex -30.905838012695312 2.4835214614868164 -14.14279842376709
   vertex -26.249702453613281 2.3359575271606445 -10.352633476257324
  endloop
 endfacet
 facet normal -0.37606037809485166 -0.82076518283189415 0.43002686739096296
  outer loop
   vertex -26.249702453613281 2.3359575271606445 -10.352633476257324
   vertex -30.905838012695312 2.4835214614868164 -14.14279842376709
   vertex -30.766271591186523 2.3359575271606445 -14.302392959594727
  endloop
 endfacet
 facet normal -0.31947178286483446 -0.87434597226667587 0.36531753411820406
  outer loop
   vertex -26.249702453613281 2.3359575271606445 -10.352633476257324
   vertex -30.766271591186523 2.3359575271606445 -14.302392959594727
   vertex -26.101024627685547 2.2105979919433594 -10.522647857666016
  endloop
 endfacet
 facet normal -0.31947178286483446 -0.87434597226667587 0.36531753411820406
  outer loop
   vertex -26.101024627685547 2.2105979919433594 -10.522647857666016
   vertex -30.766271591186523 2.3359575271606445 -14.302392959594727
   vertex -30.617593765258789 2.2105979919433594 -14.472407341003418
  endloop
 endfacet
 facet normal -0.25960061012888919 -0.91895859258743329 0.29685455753690643
  outer loop
   vertex -26.101024627685547 2.2105979919433594 -10.522647857666016
   vertex -30.617593765258789 2.2105979919433594 -14.472407341003418
   vertex -25.944761276245117 2.1087322235107422 -10.701335906982422
  endloop
 endfacet
 facet normal -0.25960123761786286 -0.91895816038239675 0.29685534674968395
  outer loop
   vertex -25.944761276245117 2.1087322235107422 -10.701335906982422
   vertex -30.617593765258789 2.2105979919433594 -14.472407341003418
   vertex -30.461330413818359 2.1087322235107422 -14.651094436645508
  endloop
 endfacet
 facet normal -0.19706977641523102 -0.95413874539000465 0.22535030013123747
  outer loop
   vertex -25.944761276245117 2.1087322235107422 -10.701335906982422
   vertex -30.461330413818359 2.1087322235107422 -14.651094436645508
   vertex -25.782516479492188 2.0314035415649414 -10.886863708496094
  endloop
 endfacet
 facet normal -0.19706878519465387 -0.9541392435230952 0.22534905784377918
  outer loop
   vertex -25.782516479492188 2.0314035415649414 -10.886863708496094
   vertex -30.461330413818359 2.1087322235107422 -14.651094436645508
   vertex -30.29908561706543 2.0314035415649414 -14.836624145507812
  endloop
 endfacet
 facet normal -0.13251405575933212 -0.97952976168731898 0.15153042927081287
  outer loop
   vertex -25.782516479492188 2.0314035415649414 -10.886863708496094
   vertex -30.29908561706543 2.0314035415649414 -14.836624145507812
   vertex -25.615951538085938 1.979405403137207 -11.077330589294434
  endloop
 endfacet
 facet normal -0.13251439836783266 -0.97952964907161888 0.15153085763250565
  outer loop
   vertex -25.615951538085938 1.979405403137207 -11.077330589294434
   vertex -30.29908561706543 2.0314035415649414 -14.836624145507812
   vertex -30.13252067565918 1.979405403137207 -15.027090072631836
  endloop
 endfacet
 facet normal -0.066598087956189392 -0.99486937564250277 0.076155236781697042
  outer loop
   vertex -25.615951538085938 1.979405403137207 -11.077330589294434
   vertex -30.13252067565918 1.979405403137207 -15.027090072631836
   vertex -25.446781158447266 1.953272819519043 -11.270778656005859
  endloop
 endfacet
 facet normal -0.066597912929736269 -0.99486940408713365 0.076155018250375059
  outer loop
   vertex -25.446781158447266 1.953272819519043 -11.270778656005859
   vertex -30.13252067565918 1.979405403137207 -15.027090072631836
   vertex -29.963350296020508 1.953272819519043 -15.220539093017578
  endloop
 endfacet
 facet normal 0 -1 0
  outer loop
   vertex -25.446781158447266 1.953272819519043 -11.270778656005859
   vertex -29.963350296020508 1.953272819519043 -15.220539093017578
   vertex -25.276735305786133 1.953272819519043 -11.465225219726562
  endloop
 endfacet
 facet normal 0 -1 0
  outer loop
   vertex -25.276735305786133 1.953272819519043 -11.465225219726562
   vertex -29.963350296020508 1.953272819519043 -15.220539093017578
   vertex -29.793304443359375 1.953272819519043 -15.414985656738281
  endloop
 endfacet
 facet normal 0.066597912929736269 -0.99486940408713365 -0.076155018250375059
  outer loop
   vertex -25.276735305786133 1.953272819519043 -11.465225219726562
   vertex -29.793304443359375 1.953272819519043 -15.414985656738281
   vertex -25.107564926147461 1.979405403137207 -11.658674240112305
  endloop
 endfacet
 facet normal 0.066598087956189392 -0.99486937564250277 -0.076155236781697042
  outer loop
   vertex -25.107564926147461 1.979405403137207 -11.658674240112305
   vertex -29.793304443359375 1.953272819519043 -15.414985656738281
   vertex -29.624134063720703 1.979405403137207 -15.608433723449707
  endloop
 endfacet
 facet normal 0.13251439836783266 -0.97952964907161888 -0.15153085763250565
  outer loop
   vertex -25.107564926147461 1.979405403137207 -11.658674240112305
   vertex -29.624134063720703 1.979405403137207 -15.608433723449707
   vertex -24.940999984741211 2.0314035415649414 -11.849140167236328
  endloop
 endfacet
 facet normal 0.13251405575933212 -0.97952976168731898 -0.15153042927081287
  outer loop
   vertex -24.940999984741211 2.0314035415649414 -11.849140167236328
   vertex -29.624134063720703 1.979405403137207 -15.608433723449707
   vertex -29.457569122314453 2.0314035415649414 -15.798900604248047
  endloop
 endfacet
 facet normal 0.19706878519465387 -0.9541392435230952 -0.22534905784377918
  outer loop
   vertex -24.940999984741211 2.0314035415649414 -11.849140167236328
   vertex -29.457569122314453 2.0314035415649414 -15.798900604248047
   vertex -24.778755187988281 2.1087322235107422 -12.034669876098633
  endloop
 endfacet
 facet normal 0.19706977641523102 -0.95413874539000465 -0.22535030013123747
  outer loop
   vertex -24.778755187988281 2.1087322235107422 -12.034669876098633
   vertex -29.457569122314453 2.0314035415649414 -15.798900604248047
   vertex -29.295324325561523 2.1087322235107422 -15.984428405761719
  endloop
 endfacet
 facet normal 0.25960123761786286 -0.91895816038239675 -0.29685534674968395
  outer loop
   vertex -24.778755187988281 2.1087322235107422 -12.034669876098633
   vertex -29.295324325561523 2.1087322235107422 -15.984428405761719
   vertex -24.622491836547852 2.2105979919433594 -12.213356971740723
  endloop
 endfacet
 facet normal 0.25960061012888919 -0.91895859258743329 -0.29685455753690643
  outer loop
   vertex -24.622491836547852 2.2105979919433594 -12.213356971740723
   vertex -29.295324325561523 2.1087322235107422 -15.984428405761719
   vertex -29.139060974121094 2.2105979919433594 -16.163116455078125
  endloop
 endfacet
 facet normal 0.31947178286483446 -0.87434597226667587 -0.36531753411820406
  outer loop
   vertex -24.622491836547852 2.2105979919433594 -12.213356971740723
   vertex -29.139060974121094 2.2105979919433594 -16.163116455078125
   vertex -24.473814010620117 2.3359575271606445 -12.383371353149414
  endloop
 endfacet
 facet normal 0.31947251545579652 -0.87434531771942259 -0.3653184600461189
  outer loop
   vertex -24.473814010620117 2.3359575271606445 -12.383371353149414
   vertex -29.139060974121094 2.2105979919433594 -16.163116455078125
   vertex -28.990383148193359 2.3359575271606445 -16.3331298828125
  endloop
 endfacet
 facet normal 0.37606032664292316 -0.82076518283185784 -0.4300269123859633
  outer loop
   vertex -24.473814010620117 2.3359575271606445 -12.383371353149414
   vertex -28.990383148193359 2.3359575271606445 -16.3331298828125
   vertex -24.334247589111328 2.4835214614868164 -12.542965888977051
  endloop
 endfacet
 facet normal 0.37605952028465511 -0.8207660897963821 -0.43002588648084022
  outer loop
   vertex -24.334247589111328 2.4835214614868164 -12.542965888977051
   vertex -28.990383148193359 2.3359575271606445 -16.3331298828125
   vertex -28.85081672668457 2.4835214614868164 -16.492725372314453
  endloop
 endfacet
 facet normal 0.42879488212146954 -0.75875713684379953 -0.49032902866854072
  outer loop
   vertex -24.334247589111328 2.4835214614868164 -12.542965888977051
   vertex -28.85081672668457 2.4835214614868164 -16.492725372314453
   vertex -24.205224990844727 2.6517782211303711 -12.690503120422363
  endloop
 endfacet
 facet normal 0.42879488212146954 -0.75875713684379953 -0.49032902866854072
  outer loop
   vertex -24.205224990844727 2.6517782211303711 -12.690503120422363
   vertex -28.85081672668457 2.4835214614868164 -16.492725372314453
   vertex -28.721794128417969 2.6517782211303711 -16.640262603759766
  endloop
 endfacet
 facet normal 0.47712548800373128 -0.68896808725958614 -0.54559531104571302
  outer loop
   vertex -24.205224990844727 2.6517782211303711 -12.690503120422363
   vertex -28.721794128417969 2.6517782211303711 -16.640262603759766
   vertex -24.088069915771484 2.8389997482299805 -12.824470520019531
  endloop
 endfacet
 facet normal 0.47712463970383734 -0.6889695472164824 -0.54559420927627034
  outer loop
   vertex -24.088069915771484 2.8389997482299805 -12.824470520019531
   vertex -28.721794128417969 2.6517782211303711 -16.640262603759766
   vertex -28.604639053344727 2.8389997482299805 -16.77423095703125
  endloop
 endfacet
 facet normal 0.52056430242481344 -0.61210229301924313 -0.59526766241880824
  outer loop
   vertex -24.088069915771484 2.8389997482299805 -12.824470520019531
   vertex -28.604639053344727 2.8389997482299805 -16.77423095703125
   vertex -23.983985900878906 3.0432662963867188 -12.94349193572998
  endloop
 endfacet
 facet normal 0.52056511675310668 -0.61210055511418127 -0.59526873733527752
  outer loop
   vertex -23.983985900878906 3.0432662963867188 -12.94349193572998
   vertex -28.604639053344727 2.8389997482299805 -16.77423095703125
   vertex -28.500555038452148 3.0432662963867188 -16.893251419067383
  endloop
 endfacet
 facet normal 0.55865499310493016 -0.52896843641237379 -0.63882469579562984
  outer loop
   vertex -23.983985900878906 3.0432662963867188 -12.94349193572998
   vertex -28.500555038452148 3.0432662963867188 -16.893251419067383
   vertex -23.894037246704102 3.2624797821044922 -13.046347618103027
  endloop
 endfacet
 facet normal 0.55865499310493016 -0.52896843641237379 -0.63882469579562984
  outer loop
   vertex -23.894037246704102 3.2624797821044922 -13.046347618103027
   vertex -28.500555038452148 3.0432662963867188 -16.893251419067383
   vertex -28.410606384277344 3.2624797821044922 -16.99610710144043
  endloop
 endfacet
 facet normal 0.59101938118352115 -0.4403920184816707 -0.67583353062946483
  outer loop
   vertex -23.894037246704102 3.2624797821044922 -13.046347618103027
   vertex -28.410606384277344 3.2624797821044922 -16.99610710144043
   vertex -23.819150924682617 3.4943923950195312 -13.131979942321777
  endloop
 endfacet
 facet normal 0.59101938118352115 -0.4403920184816707 -0.67583353062946483
  outer loop
   vertex -23.819150924682617 3.4943923950195312 -13.131979942321777
   vertex -28.410606384277344 3.2624797821044922 -16.99610710144043
   vertex -28.335720062255859 3.4943923950195312 -17.08173942565918
  endloop
 endfacet
 facet normal 0.6173157308077768 -0.34730604533160991 -0.70590353404227846
  outer loop
   vertex -23.819150924682617 3.4943923950195312 -13.131979942321777
   vertex -28.335720062255859 3.4943923950195312 -17.08173942565918
   vertex -23.760093688964844 3.7366237640380859 -13.199512481689453
  endloop
 endfacet
 facet normal 0.61731521941936873 -0.3473084892698049 -0.70590277882605235
  outer loop
   vertex -23.760093688964844 3.7366237640380859 -13.199512481689453
   vertex -28.335720062255859 3.4943923950195312 -17.08173942565918
   vertex -28.276662826538086 3.7366237640380859 -17.149272918701172
  endloop
 endfacet
 facet normal 0.63727893204803943 -0.25065144124595545 -0.72873137558982304
  outer loop
   vertex -23.760093688964844 3.7366237640380859 -13.199512481689453
   vertex -28.276662826538086 3.7366237640380859 -17.149272918701172
   vertex -23.717472076416016 3.9866886138916016 -13.248250961303711
  endloop
 endfacet
 facet normal 0.63727893204803943 -0.25065144124595545 -0.72873137558982304
  outer loop
   vertex -23.717472076416016 3.9866886138916016 -13.248250961303711
   vertex -28.276662826538086 3.7366237640380859 -17.149272918701172
   vertex -28.234041213989258 3.9866886138916016 -17.19801139831543
  endloop
 endfacet
 facet normal 0.65070216388577351 -0.15142755446143308 -0.74408090263371351
  outer loop
   vertex -23.717472076416016 3.9866886138916016 -13.248250961303711
   vertex -28.234041213989258 3.9866886138916016 -17.19801139831543
   vertex -23.691722869873047 4.2420206069946289 -13.277695655822754
  endloop
 endfacet
 facet normal 0.65070234869878474 -0.15142483901740145 -0.74408129362754383
  outer loop
   vertex -23.691722869873047 4.2420206069946289 -13.277695655822754
   vertex -28.234041213989258 3.9866886138916016 -17.19801139831543
   vertex -28.208292007446289 4.2420206069946289 -17.227455139160156
  endloop
 endfacet
 facet normal 0.65744827515966342 -0.05065177687739629 -0.75179529327387118
  outer loop
   vertex -23.691722869873047 4.2420206069946289 -13.277695655822754
   vertex -28.208292007446289 4.2420206069946289 -17.227455139160156
   vertex -23.683109283447266 4.5 -13.287544250488281
  endloop
 endfacet
 facet normal 0.65744827710406406 -0.050649700597594306 -0.75179543145876593
  outer loop
   vertex -23.683109283447266 4.5 -13.287544250488281
   vertex -28.208292007446289 4.2420206069946289 -17.227455139160156
   vertex -28.199680328369141 4.5 -17.2373046875
  endloop
 endfacet
 facet normal 0.75274938931829527 -3.7387359616791673e-06 0.65830719035033747
  outer loop
   vertex -27.031793594360352 4.2420206069946289 -9.4583091735839844
   vertex -27.006044387817383 3.9866886138916016 -9.4877538681030273
   vertex -27.0404052734375 4.5 -9.448460578918457
  endloop
 endfacet
 facet normal 0.75274831807850673 -3.9042102836762118e-06 0.65830841526957296
  outer loop
   vertex -27.0404052734375 4.5 -9.448460578918457
   vertex -27.006044387817383 3.9866886138916016 -9.4877538681030273
   vertex -26.963422775268555 3.7366237640380859 -9.5364913940429688
  endloop
 endfacet
 facet normal 0.75276941888492177 1.0061584862589297e-06 0.65828428660468929
  outer loop
   vertex -27.0404052734375 4.5 -9.448460578918457
   vertex -26.963422775268555 3.7366237640380859 -9.5364913940429688
   vertex -26.904365539550781 3.4943923950195312 -9.6040248870849609
  endloop
 endfacet
 facet normal 0.75275461637618435 -3.614857016411217e-06 0.65830121336002134
  outer loop
   vertex -26.904365539550781 3.4943923950195312 -9.6040248870849609
   vertex -26.829479217529297 3.2624797821044922 -9.6896572113037109
   vertex -27.0404052734375 4.5 -9.448460578918457
  endloop
 endfacet
 facet normal 0.75275431487408906 -3.7334407990846927e-06 0.65830155812097402
  outer loop
   vertex -27.0404052734375 4.5 -9.448460578918457
   vertex -26.829479217529297 3.2624797821044922 -9.6896572113037109
   vertex -26.739530563354492 3.0432662963867188 -9.7925128936767578
  endloop
 endfacet
 facet normal 0.75276502333303241 1.3703456059852424e-06 0.65828931302622662
  outer loop
   vertex -27.0404052734375 4.5 -9.448460578918457
   vertex -26.739530563354492 3.0432662963867188 -9.7925128936767578
   vertex -26.635446548461914 2.8389997482299805 -9.911534309387207
  endloop
 endfacet
 facet normal 0.75276090971268605 -9.4400051563313558e-07 0.65829401699213275
  outer loop
   vertex -26.635446548461914 2.8389997482299805 -9.911534309387207
   vertex -26.518291473388672 2.6517782211303711 -10.045501708984375
   vertex -27.0404052734375 4.5 -9.448460578918457
  endloop
 endfacet
 facet normal 0.75275851384643144 -2.505830170037157e-06 0.6582967566572332
  outer loop
   vertex -27.0404052734375 4.5 -9.448460578918457
   vertex -26.518291473388672 2.6517782211303711 -10.045501708984375
   vertex -26.38926887512207 2.4835214614868164 -10.193038940429688
  endloop
 endfacet
 facet normal 0.75276032193803732 -1.1585493082881902e-06 0.65829468911301414
  outer loop
   vertex -27.0404052734375 4.5 -9.448460578918457
   vertex -26.38926887512207 2.4835214614868164 -10.193038940429688
   vertex -26.249702453613281 2.3359575271606445 -10.352633476257324
  endloop
 endfacet
 facet normal 0.75276169600001586 0 0.65829311787013223
  outer loop
   vertex -27.0404052734375 4.5 -9.448460578918457
   vertex -26.249702453613281 2.3359575271606445 -10.352633476257324
   vertex -27.0404052734375 19.5 -9.448460578918457
  endloop
 endfacet
 facet normal 0.75276268099916466 1.0471075863363391e-07 0.65829199151663609
  outer loop
   vertex -27.0404052734375 19.5 -9.448460578918457
   vertex -26.249702453613281 2.3359575271606445 -10.352633476257324
   vertex -26.101024627685547 2.2105979919433594 -10.522647857666016
  endloop
 endfacet
 facet normal 0.75276182751521148 -2.2978956314917945e-09 0.65829296748177324
  outer loop
   vertex -27.0404052734375 19.5 -9.448460578918457
   vertex -26.101024627685547 2.2105979919433594 -10.522647857666016
   vertex -25.944761276245117 2.1087322235107422 -10.701335906982422
  endloop
 endfacet
 facet normal 0.75276170944589382 -1.9462619085521043e-08 0.6582931024946983
  outer loop
   vertex -25.944761276245117 2.1087322235107422 -10.701335906982422
   vertex -25.782516479492188 2.0314035415649414 -10.886863708496094
   vertex -27.0404052734375 19.5 -9.448460578918457
  endloop
 endfacet
 facet normal 0.7527599071767398 -3.189404477841605e-07 0.65829516339341598
  outer loop
   vertex -27.0404052734375 19.5 -9.448460578918457
   vertex -25.782516479492188 2.0314035415649414 -10.886863708496094
   vertex -25.615951538085938 1.979405403137207 -11.077330589294434
  endloop
 endfacet
 facet normal 0.75276312157702319 2.8411970125813774e-07 0.6582914877115873
  outer loop
   vertex -27.0404052734375 19.5 -9.448460578918457
   vertex -25.615951538085938 1.979405403137207 -11.077330589294434
   vertex -25.446781158447266 1.953272819519043 -11.270778656005859
  endloop
 endfacet
 facet normal 0.75275871493594504 -6.3942574689979471e-07 0.65829652671693151
  outer loop
   vertex -25.446781158447266 1.953272819519043 -11.270778656005859
   vertex -25.276735305786133 1.953272819519043 -11.465225219726562
   vertex -27.0404052734375 19.5 -9.448460578918457
  endloop
 endfacet
 facet normal 0.75276466119445273 7.397708628059156e-07 0.6582897271386311
  outer loop
   vertex -27.0404052734375 19.5 -9.448460578918457
   vertex -25.276735305786133 1.953272819519043 -11.465225219726562
   vertex -25.107564926147461 1.979405403137207 -11.658674240112305
  endloop
 endfacet
 facet normal 0.7527584314401532 -8.461421342542869e-07 0.65829685089254686
  outer loop
   vertex -27.0404052734375 19.5 -9.448460578918457
   vertex -25.107564926147461 1.979405403137207 -11.658674240112305
   vertex -24.940999984741211 2.0314035415649414 -11.849140167236328
  endloop
 endfacet
 facet normal 0.75276487287844951 9.4027265750966559e-07 0.65828948507431573
  outer loop
   vertex -24.940999984741211 2.0314035415649414 -11.849140167236328
   vertex -24.778755187988281 2.1087322235107422 -12.034669876098633
   vertex -27.0404052734375 19.5 -9.448460578918457
  endloop
 endfacet
 facet normal 0.75276150709863043 -6.9776350466649603e-08 0.65829333387980904
  outer loop
   vertex -27.0404052734375 19.5 -9.448460578918457
   vertex -24.778755187988281 2.1087322235107422 -12.034669876098633
   vertex -23.683109283447266 19.5 -13.287544250488281
  endloop
 endfacet
 facet normal 0.75276150709567047 2.8052355390953786e-06 0.65829333387722044
  outer loop
   vertex -27.0404052734375 19.5 -9.448460578918457
   vertex -23.683109283447266 19.5 -13.287544250488281
   vertex -27.031793594360352 19.757980346679688 -9.4583091735839844
  endloop
 endfacet
 facet normal 0.75276150558910837 2.7601057914195473e-06 0.65829333560017211
  outer loop
   vertex -27.031793594360352 19.757980346679688 -9.4583091735839844
   vertex -23.683109283447266 19.5 -13.287544250488281
   vertex -23.691722869873047 19.757980346679688 -13.277695655822754
  endloop
 endfacet
 facet normal 0.75276150559165755 9.1914269159512755e-07 0.65829333560240155
  outer loop
   vertex -27.031793594360352 19.757980346679688 -9.4583091735839844
   vertex -23.691722869873047 19.757980346679688 -13.277695655822754
   vertex -27.006044387817383 20.013311386108398 -9.4877538681030273
  endloop
 endfacet
 facet normal 0.75276144374044651 -9.3353639055499294e-07 0.65829340632952371
  outer loop
   vertex -27.006044387817383 20.013311386108398 -9.4877538681030273
   vertex -23.691722869873047 19.757980346679688 -13.277695655822754
   vertex -23.717472076416016 20.013311386108398 -13.248250961303711
  endloop
 endfacet
 facet normal 0.75276144374017862 -1.2581925225618396e-06 0.65829340632928945
  outer loop
   vertex -27.006044387817383 20.013311386108398 -9.4877538681030273
   vertex -23.717472076416016 20.013311386108398 -13.248250961303711
   vertex -26.963422775268555 20.263376235961914 -9.5364913940429688
  endloop
 endfacet
 facet normal 0.75276144393795641 -1.2522685154424312e-06 0.65829340610314091
  outer loop
   vertex -26.963422775268555 20.263376235961914 -9.5364913940429688
   vertex -23.717472076416016 20.013311386108398 -13.248250961303711
   vertex -23.760093688964844 20.263376235961914 -13.199512481689453
  endloop
 endfacet
 facet normal 0.7527614439339867 3.4806671152005327e-06 0.65829340609966946
  outer loop
   vertex -26.963422775268555 20.263376235961914 -9.5364913940429688
   vertex -23.760093688964844 20.263376235961914 -13.199512481689453
   vertex -26.904365539550781 20.505607604980469 -9.6040248870849609
  endloop
 endfacet
 facet normal 0.7527612952670717 -9.7258374413930211e-07 0.6582935761093941
  outer loop
   vertex -26.904365539550781 20.505607604980469 -9.6040248870849609
   vertex -23.760093688964844 20.263376235961914 -13.199512481689453
   vertex -23.819150924682617 20.505607604980469 -13.131979942321777
  endloop
 endfacet
 facet normal 0.75276129526672964 -1.3618153649630429e-06 0.658293576109095
  outer loop
   vertex -26.904365539550781 20.505607604980469 -9.6040248870849609
   vertex -23.819150924682617 20.505607604980469 -13.131979942321777
   vertex -26.829479217529297 20.737520217895508 -9.6896572113037109
  endloop
 endfacet
 facet normal 0.75276138851437713 1.4312979196807783e-06 0.65829346947988054
  outer loop
   vertex -26.829479217529297 20.737520217895508 -9.6896572113037109
   vertex -23.819150924682617 20.505607604980469 -13.131979942321777
   vertex -23.894037246704102 20.737520217895508 -13.046347618103027
  endloop
 endfacet
 facet normal 0.75276138851184093 -2.9642635796209703e-06 0.65829346947766265
  outer loop
   vertex -26.829479217529297 20.737520217895508 -9.6896572113037109
   vertex -23.894037246704102 20.737520217895508 -13.046347618103027
   vertex -26.739530563354492 20.956733703613281 -9.7925128936767578
  endloop
 endfacet
 facet normal 0.75276159289473366 3.1577861006714278e-06 0.65829323576398047
  outer loop
   vertex -26.739530563354492 20.956733703613281 -9.7925128936767578
   vertex -23.894037246704102 20.737520217895508 -13.046347618103027
   vertex -23.983985900878906 20.956733703613281 -12.94349193572998
  endloop
 endfacet
 facet normal 0.75276159289581701 2.6633355781750737e-06 0.65829323576492782
  outer loop
   vertex -26.739530563354492 20.956733703613281 -9.7925128936767578
   vertex -23.983985900878906 20.956733703613281 -12.94349193572998
   vertex -26.635446548461914 21.160999298095703 -9.911534309387207
  endloop
 endfacet
 facet normal 0.7527614077994017 -2.8809805359339019e-06 0.65829344742262386
  outer loop
   vertex -26.635446548461914 21.160999298095703 -9.911534309387207
   vertex -23.983985900878906 20.956733703613281 -12.94349193572998
   vertex -24.088069915771484 21.160999298095703 -12.824470520019531
  endloop
 endfacet
 facet normal 0.75276140780250655 2.2476093539522365e-07 0.65829344742533913
  outer loop
   vertex -26.635446548461914 21.160999298095703 -9.911534309387207
   vertex -24.088069915771484 21.160999298095703 -12.824470520019531
   vertex -26.518291473388672 21.348220825195312 -10.045501708984375
  endloop
 endfacet
 facet normal 0.75276139203519365 -2.4752888633763514e-07 0.65829346545532119
  outer loop
   vertex -26.518291473388672 21.348220825195312 -10.045501708984375
   vertex -24.088069915771484 21.160999298095703 -12.824470520019531
   vertex -24.205224990844727 21.348220825195312 -12.690503120422363
  endloop
 endfacet
 facet normal 0.75276139203269754 -2.5871080151688269e-06 0.65829346545313838
  outer loop
   vertex -26.518291473388672 21.348220825195312 -10.045501708984375
   vertex -24.205224990844727 21.348220825195312 -12.690503120422363
   vertex -26.38926887512207 21.5164794921875 -10.193038940429688
  endloop
 endfacet
 facet normal 0.75276157562013768 2.9119654229157667e-06 0.65829325551869977
  outer loop
   vertex -26.38926887512207 21.5164794921875 -10.193038940429688
   vertex -24.205224990844727 21.348220825195312 -12.690503120422363
   vertex -24.334247589111328 21.5164794921875 -12.542965888977051
  endloop
 endfacet
 facet normal 0.75276157562239243 -1.5776595456497048e-06 0.65829325552067153
  outer loop
   vertex -26.38926887512207 21.5164794921875 -10.193038940429688
   vertex -24.334247589111328 21.5164794921875 -12.542965888977051
   vertex -26.249702453613281 21.664043426513672 -10.352633476257324
  endloop
 endfacet
 facet normal 0.7527616892399106 1.8256345556525176e-06 0.65829312559781705
  outer loop
   vertex -26.249702453613281 21.664043426513672 -10.352633476257324
   vertex -24.334247589111328 21.5164794921875 -12.542965888977051
   vertex -24.473814010620117 21.664043426513672 -12.383371353149414
  endloop
 endfacet
 facet normal 0.75276168923860187 2.6096037792701072e-06 0.65829312559667252
  outer loop
   vertex -26.249702453613281 21.664043426513672 -10.352633476257324
   vertex -24.473814010620117 21.664043426513672 -12.383371353149414
   vertex -26.101024627685547 21.789402008056641 -10.522647857666016
  endloop
 endfacet
 facet normal 0.75276149747370857 -3.1344362221205259e-06 0.65829334487849356
  outer loop
   vertex -26.101024627685547 21.789402008056641 -10.522647857666016
   vertex -24.473814010620117 21.664043426513672 -12.383371353149414
   vertex -24.622491836547852 21.789402008056641 -12.213356971740723
  endloop
 endfacet
 facet normal 0.75276149747689058 1.1705968931717373e-06 0.65829334488127633
  outer loop
   vertex -26.101024627685547 21.789402008056641 -10.522647857666016
   vertex -24.622491836547852 21.789402008056641 -12.213356971740723
   vertex -25.944761276245117 21.891267776489258 -10.701335906982422
  endloop
 endfacet
 facet normal 0.75276164215431474 5.504570314047634e-06 0.65829317941995957
  outer loop
   vertex -25.944761276245117 21.891267776489258 -10.701335906982422
   vertex -24.622491836547852 21.789402008056641 -12.213356971740723
   vertex -24.778755187988281 21.891267776489258 -12.034669876098633
  endloop
 endfacet
 facet normal 0.75276164216567432 3.4520403008666248e-07 0.65829317942989352
  outer loop
   vertex -25.944761276245117 21.891267776489258 -10.701335906982422
   vertex -24.778755187988281 21.891267776489258 -12.034669876098633
   vertex -25.782516479492188 21.968597412109375 -10.886863708496094
  endloop
 endfacet
 facet normal 0.75276096793809533 -1.9845736604797104e-05 0.65829395011275071
  outer loop
   vertex -25.782516479492188 21.968597412109375 -10.886863708496094
   vertex -24.778755187988281 21.891267776489258 -12.034669876098633
   vertex -24.940999984741211 21.968597412109375 -11.849140167236328
  endloop
 endfacet
 facet normal 0.75276096806503157 -7.5231756216376123e-06 0.65829395022375714
  outer loop
   vertex -25.782516479492188 21.968597412109375 -10.886863708496094
   vertex -24.940999984741211 21.968597412109375 -11.849140167236328
   vertex -25.615951538085938 22.020595550537109 -11.077330589294434
  endloop
 endfacet
 facet normal 0.7527621698209559 2.8481974190343423e-05 0.65829257543680653
  outer loop
   vertex -25.615951538085938 22.020595550537109 -11.077330589294434
   vertex -24.940999984741211 21.968597412109375 -11.849140167236328
   vertex -25.107564926147461 22.020595550537109 -11.658674240112305
  endloop
 endfacet
 facet normal 0.75276217005324908 1.3930083189995861e-05 0.65829257563994759
  outer loop
   vertex -25.615951538085938 22.020595550537109 -11.077330589294434
   vertex -25.107564926147461 22.020595550537109 -11.658674240112305
   vertex -25.446781158447266 22.046726226806641 -11.270778656005859
  endloop
 endfacet
 facet normal 0.75275871191620436 -8.9574210052605199e-05 0.65829652407613215
  outer loop
   vertex -25.446781158447266 22.046726226806641 -11.270778656005859
   vertex -25.107564926147461 22.020595550537109 -11.658674240112305
   vertex -25.276735305786133 22.046726226806641 -11.465225219726562
  endloop
 endfacet
 facet normal 0.75276102713455861 0 0.65829388272057054
  outer loop
   vertex -23.683109283447266 19.5 -13.287544250488281
   vertex -24.778755187988281 2.1087322235107422 -12.034669876098633
   vertex -23.683109283447266 4.5 -13.287544250488281
  endloop
 endfacet
 facet normal 0.75275968681432803 1.4171316306650694e-06 0.65829541537609559
  outer loop
   vertex -23.683109283447266 4.5 -13.287544250488281
   vertex -24.778755187988281 2.1087322235107422 -12.034669876098633
   vertex -24.622491836547852 2.2105979919433594 -12.213356971740723
  endloop
 endfacet
 facet normal 0.75276341462735574 -2.1125499941197179e-06 0.65829115260202375
  outer loop
   vertex -23.683109283447266 4.5 -13.287544250488281
   vertex -24.622491836547852 2.2105979919433594 -12.213356971740723
   vertex -24.473814010620117 2.3359575271606445 -12.383371353149414
  endloop
 endfacet
 facet normal 0.75276081729619959 7.7415410120645696e-08 0.65829412267128107
  outer loop
   vertex -24.473814010620117 2.3359575271606445 -12.383371353149414
   vertex -24.334247589111328 2.4835214614868164 -12.542965888977051
   vertex -23.683109283447266 4.5 -13.287544250488281
  endloop
 endfacet
 facet normal 0.75275920893461767 1.2758730362433705e-06 0.65829596183061978
  outer loop
   vertex -23.683109283447266 4.5 -13.287544250488281
   vertex -24.334247589111328 2.4835214614868164 -12.542965888977051
   vertex -24.205224990844727 2.6517782211303711 -12.690503120422363
  endloop
 endfacet
 facet normal 0.75276189044036979 -4.7216721401305456e-07 0.65829289552631343
  outer loop
   vertex -23.683109283447266 4.5 -13.287544250488281
   vertex -24.205224990844727 2.6517782211303711 -12.690503120422363
   vertex -24.088069915771484 2.8389997482299805 -12.824470520019531
  endloop
 endfacet
 facet normal 0.75276643290215861 -3.0277941467763643e-06 0.65828770115094248
  outer loop
   vertex -24.088069915771484 2.8389997482299805 -12.824470520019531
   vertex -23.983985900878906 3.0432662963867188 -12.94349193572998
   vertex -23.683109283447266 4.5 -13.287544250488281
  endloop
 endfacet
 facet normal 0.75275641084142098 1.7488770145930723e-06 0.6582991614259307
  outer loop
   vertex -23.683109283447266 4.5 -13.287544250488281
   vertex -23.983985900878906 3.0432662963867188 -12.94349193572998
   vertex -23.894037246704102 3.2624797821044922 -13.046347618103027
  endloop
 endfacet
 facet normal 0.75275791407993109 1.1576328327450424e-06 0.65829744248986011
  outer loop
   vertex -23.683109283447266 4.5 -13.287544250488281
   vertex -23.894037246704102 3.2624797821044922 -13.046347618103027
   vertex -23.819150924682617 3.4943923950195312 -13.131979942321777
  endloop
 endfacet
 facet normal 0.75276477125778096 -9.8303738346425042e-07 0.65828960127914393
  outer loop
   vertex -23.819150924682617 3.4943923950195312 -13.131979942321777
   vertex -23.760093688964844 3.7366237640380859 -13.199512481689453
   vertex -23.683109283447266 4.5 -13.287544250488281
  endloop
 endfacet
 facet normal 0.752770540911743 -2.3257374705338931e-06 0.6582830035251046
  outer loop
   vertex -23.683109283447266 4.5 -13.287544250488281
   vertex -23.760093688964844 3.7366237640380859 -13.199512481689453
   vertex -23.717472076416016 3.9866886138916016 -13.248250961303711
  endloop
 endfacet
 facet normal 0.75278513989659035 -4.5810111678677355e-06 0.65826630866989178
  outer loop
   vertex -23.683109283447266 4.5 -13.287544250488281
   vertex -23.717472076416016 3.9866886138916016 -13.248250961303711
   vertex -23.691722869873047 4.2420206069946289 -13.277695655822754
  endloop
 endfacet
 facet normal -0.7527179599473427 -8.5934989841767594e-06 -0.65834312687143814
  outer loop
   vertex -28.208292007446289 4.2420206069946289 -17.227455139160156
   vertex -28.234041213989258 3.9866886138916016 -17.19801139831543
   vertex -28.199680328369141 4.5 -17.2373046875
  endloop
 endfacet
 facet normal -0.75275882977276287 -2.2804562855643414e-06 -0.65829639539795459
  outer loop
   vertex -28.199680328369141 4.5 -17.2373046875
   vertex -28.234041213989258 3.9866886138916016 -17.19801139831543
   vertex -28.276662826538086 3.7366237640380859 -17.149272918701172
  endloop
 endfacet
 facet normal -0.75276692607467532 -3.9634110109602811e-07 -0.65828713720376397
  outer loop
   vertex -28.199680328369141 4.5 -17.2373046875
   vertex -28.276662826538086 3.7366237640380859 -17.149272918701172
   vertex -28.335720062255859 3.4943923950195312 -17.08173942565918
  endloop
 endfacet
 facet normal -0.75275317441266509 -4.6893045133299997e-06 -0.65830286220680079
  outer loop
   vertex -28.335720062255859 3.4943923950195312 -17.08173942565918
   vertex -28.410606384277344 3.2624797821044922 -16.99610710144043
   vertex -28.199680328369141 4.5 -17.2373046875
  endloop
 endfacet
 facet normal -0.75275339838520272 -4.6012138877374931e-06 -0.65830260610023195
  outer loop
   vertex -28.199680328369141 4.5 -17.2373046875
   vertex -28.410606384277344 3.2624797821044922 -16.99610710144043
   vertex -28.500555038452148 3.0432662963867188 -16.893251419067383
  endloop
 endfacet
 facet normal -0.75276001154786099 -1.4493106354201101e-06 -0.65829504404359895
  outer loop
   vertex -28.199680328369141 4.5 -17.2373046875
   vertex -28.500555038452148 3.0432662963867188 -16.893251419067383
   vertex -28.604639053344727 2.8389997482299805 -16.77423095703125
  endloop
 endfacet
 facet normal -0.75276471415118518 1.1963974928064081e-06 -0.65828966658109778
  outer loop
   vertex -28.604639053344727 2.8389997482299805 -16.77423095703125
   vertex -28.721794128417969 2.6517782211303711 -16.640262603759766
   vertex -28.199680328369141 4.5 -17.2373046875
  endloop
 endfacet
 facet normal -0.75275820991426412 -3.0436364232537432e-06 -0.65829710419947085
  outer loop
   vertex -28.199680328369141 4.5 -17.2373046875
   vertex -28.721794128417969 2.6517782211303711 -16.640262603759766
   vertex -28.85081672668457 2.4835214614868164 -16.492725372314453
  endloop
 endfacet
 facet normal -0.75276306514521207 5.7420047869595603e-07 -0.65829155224175206
  outer loop
   vertex -28.199680328369141 4.5 -17.2373046875
   vertex -28.85081672668457 2.4835214614868164 -16.492725372314453
   vertex -28.990383148193359 2.3359575271606445 -16.3331298828125
  endloop
 endfacet
 facet normal -0.75276238413551155 0 -0.65829233098268769
  outer loop
   vertex -28.199680328369141 4.5 -17.2373046875
   vertex -28.990383148193359 2.3359575271606445 -16.3331298828125
   vertex -28.199680328369141 19.5 -17.2373046875
  endloop
 endfacet
 facet normal -0.75276074940854809 -1.7378037183733612e-07 -0.65829420030093755
  outer loop
   vertex -28.199680328369141 19.5 -17.2373046875
   vertex -28.990383148193359 2.3359575271606445 -16.3331298828125
   vertex -29.139060974121094 2.2105979919433594 -16.163116455078125
  endloop
 endfacet
 facet normal -0.7527618168808824 -3.9942306567538041e-08 -0.6582929796421888
  outer loop
   vertex -28.199680328369141 19.5 -17.2373046875
   vertex -29.139060974121094 2.2105979919433594 -16.163116455078125
   vertex -29.295324325561523 2.1087322235107422 -15.984428405761719
  endloop
 endfacet
 facet normal -0.75276170175924773 -5.6678507608335019e-08 -0.65829311128441748
  outer loop
   vertex -29.295324325561523 2.1087322235107422 -15.984428405761719
   vertex -29.457569122314453 2.0314035415649414 -15.798900604248047
   vertex -28.199680328369141 19.5 -17.2373046875
  endloop
 endfacet
 facet normal -0.75275990220299793 -3.5570564857228097e-07 -0.6582951690808666
  outer loop
   vertex -28.199680328369141 19.5 -17.2373046875
   vertex -29.457569122314453 2.0314035415649414 -15.798900604248047
   vertex -29.624134063720703 1.979405403137207 -15.608433723449707
  endloop
 endfacet
 facet normal -0.75276311914788874 2.4783209267175005e-07 -0.65829149048934243
  outer loop
   vertex -28.199680328369141 19.5 -17.2373046875
   vertex -29.624134063720703 1.979405403137207 -15.608433723449707
   vertex -29.793304443359375 1.953272819519043 -15.414985656738281
  endloop
 endfacet
 facet normal -0.75275871493592728 -6.7520452681993088e-07 -0.65829652671691608
  outer loop
   vertex -29.793304443359375 1.953272819519043 -15.414985656738281
   vertex -29.963350296020508 1.953272819519043 -15.220539093017578
   vertex -28.199680328369141 19.5 -17.2373046875
  endloop
 endfacet
 facet normal -0.75276466355289584 7.0453947675155268e-07 -0.65828972444175304
  outer loop
   vertex -28.199680328369141 19.5 -17.2373046875
   vertex -29.963350296020508 1.953272819519043 -15.220539093017578
   vertex -30.13252067565918 1.979405403137207 -15.027090072631836
  endloop
 endfacet
 facet normal -0.75275843612627713 -8.8078134762150957e-07 -0.65829684553394718
  outer loop
   vertex -28.199680328369141 19.5 -17.2373046875
   vertex -30.13252067565918 1.979405403137207 -15.027090072631836
   vertex -30.29908561706543 2.0314035415649414 -14.836624145507812
  endloop
 endfacet
 facet normal -0.75276487989904284 9.0628127406155182e-07 -0.65828947704619911
  outer loop
   vertex -30.29908561706543 2.0314035415649414 -14.836624145507812
   vertex -30.461330413818359 2.1087322235107422 -14.651094436645508
   vertex -28.199680328369141 19.5 -17.2373046875
  endloop
 endfacet
 facet normal -0.75276158813290173 -8.155697912678999e-08 -0.65829324121672761
  outer loop
   vertex -28.199680328369141 19.5 -17.2373046875
   vertex -30.461330413818359 2.1087322235107422 -14.651094436645508
   vertex -31.556976318359375 19.5 -13.398220062255859
  endloop
 endfacet
 facet normal -0.7527615881225993 5.2325015017475978e-06 -0.65829324120771815
  outer loop
   vertex -28.199680328369141 19.5 -17.2373046875
   vertex -31.556976318359375 19.5 -13.398220062255859
   vertex -28.208292007446289 19.757980346679688 -17.227455139160156
  endloop
 endfacet
 facet normal -0.75276150558910837 2.7601057914195473e-06 -0.65829333560017211
  outer loop
   vertex -28.208292007446289 19.757980346679688 -17.227455139160156
   vertex -31.556976318359375 19.5 -13.398220062255859
   vertex -31.548362731933594 19.757980346679688 -13.408068656921387
  endloop
 endfacet
 facet normal -0.75276150559108335 -1.5396161347104109e-06 -0.65829333560189929
  outer loop
   vertex -28.208292007446289 19.757980346679688 -17.227455139160156
   vertex -31.548362731933594 19.757980346679688 -13.408068656921387
   vertex -28.234041213989258 20.013311386108398 -17.19801139831543
  endloop
 endfacet
 facet normal -0.75276152646819072 -9.1428441074762142e-07 -0.65829331172999439
  outer loop
   vertex -28.234041213989258 20.013311386108398 -17.19801139831543
   vertex -31.548362731933594 19.757980346679688 -13.408068656921387
   vertex -31.522613525390625 20.013311386108398 -13.43751335144043
  endloop
 endfacet
 facet normal -0.75276152646794525 1.2198082342269728e-06 -0.65829331172977967
  outer loop
   vertex -28.234041213989258 20.013311386108398 -17.19801139831543
   vertex -31.522613525390625 20.013311386108398 -13.43751335144043
   vertex -28.276662826538086 20.263376235961914 -17.149272918701172
  endloop
 endfacet
 facet normal -0.75276144393795641 -1.2522685154424312e-06 -0.65829340610314091
  outer loop
   vertex -28.276662826538086 20.263376235961914 -17.149272918701172
   vertex -31.522613525390625 20.013311386108398 -13.43751335144043
   vertex -31.479991912841797 20.263376235961914 -13.486251831054688
  endloop
 endfacet
 facet normal -0.7527614439339867 3.4806671152005327e-06 -0.65829340609966946
  outer loop
   vertex -28.276662826538086 20.263376235961914 -17.149272918701172
   vertex -31.479991912841797 20.263376235961914 -13.486251831054688
   vertex -28.335720062255859 20.505607604980469 -17.08173942565918
  endloop
 endfacet
 facet normal -0.7527612952670717 -9.7258374413930211e-07 -0.6582935761093941
  outer loop
   vertex -28.335720062255859 20.505607604980469 -17.08173942565918
   vertex -31.479991912841797 20.263376235961914 -13.486251831054688
   vertex -31.420934677124023 20.505607604980469 -13.553784370422363
  endloop
 endfacet
 facet normal -0.75276129526672964 -1.3618153649630429e-06 -0.658293576109095
  outer loop
   vertex -28.335720062255859 20.505607604980469 -17.08173942565918
   vertex -31.420934677124023 20.505607604980469 -13.553784370422363
   vertex -28.410606384277344 20.737520217895508 -16.99610710144043
  endloop
 endfacet
 facet normal -0.75276138851437713 1.4312979196807783e-06 -0.65829346947988054
  outer loop
   vertex -28.410606384277344 20.737520217895508 -16.99610710144043
   vertex -31.420934677124023 20.505607604980469 -13.553784370422363
   vertex -31.346048355102539 20.737520217895508 -13.639416694641113
  endloop
 endfacet
 facet normal -0.75276138851184093 -2.9642635796209703e-06 -0.65829346947766265
  outer loop
   vertex -28.410606384277344 20.737520217895508 -16.99610710144043
   vertex -31.346048355102539 20.737520217895508 -13.639416694641113
   vertex -28.500555038452148 20.956733703613281 -16.893251419067383
  endloop
 endfacet
 facet normal -0.75276159289473366 3.1577861006714278e-06 -0.65829323576398047
  outer loop
   vertex -28.500555038452148 20.956733703613281 -16.893251419067383
   vertex -31.346048355102539 20.737520217895508 -13.639416694641113
   vertex -31.256099700927734 20.956733703613281 -13.74227237701416
  endloop
 endfacet
 facet normal -0.75276159289842348 -4.101010091464942e-07 -0.65829323576720722
  outer loop
   vertex -28.500555038452148 20.956733703613281 -16.893251419067383
   vertex -31.256099700927734 20.956733703613281 -13.74227237701416
   vertex -28.604639053344727 21.160999298095703 -16.77423095703125
  endloop
 endfacet
 facet normal -0.75276151459822926 -2.7554015302912516e-06 -0.65829332529821971
  outer loop
   vertex -28.604639053344727 21.160999298095703 -16.77423095703125
   vertex -31.256099700927734 20.956733703613281 -13.74227237701416
   vertex -31.152015686035156 21.160999298095703 -13.861293792724609
  endloop
 endfacet
 facet normal -0.75276151459667484 3.4237772705002861e-06 -0.65829332529686035
  outer loop
   vertex -28.604639053344727 21.160999298095703 -16.77423095703125
   vertex -31.152015686035156 21.160999298095703 -13.861293792724609
   vertex -28.721794128417969 21.348220825195312 -16.640262603759766
  endloop
 endfacet
 facet normal -0.75276139203519365 -2.4752888633763514e-07 -0.65829346545532119
  outer loop
   vertex -28.721794128417969 21.348220825195312 -16.640262603759766
   vertex -31.152015686035156 21.160999298095703 -13.861293792724609
   vertex -31.034860610961914 21.348220825195312 -13.995261192321777
  endloop
 endfacet
 facet normal -0.75276139203269754 -2.5871080151688269e-06 -0.65829346545313838
  outer loop
   vertex -28.721794128417969 21.348220825195312 -16.640262603759766
   vertex -31.034860610961914 21.348220825195312 -13.995261192321777
   vertex -28.85081672668457 21.5164794921875 -16.492725372314453
  endloop
 endfacet
 facet normal -0.75276157562013768 2.9119654229157667e-06 -0.65829325551869977
  outer loop
   vertex -28.85081672668457 21.5164794921875 -16.492725372314453
   vertex -31.034860610961914 21.348220825195312 -13.995261192321777
   vertex -30.905838012695312 21.5164794921875 -14.14279842376709
  endloop
 endfacet
 facet normal -0.75276157562063239 2.6767497266385302e-06 -0.65829325551913243
  outer loop
   vertex -28.85081672668457 21.5164794921875 -16.492725372314453
   vertex -30.905838012695312 21.5164794921875 -14.14279842376709
   vertex -28.990383148193359 21.664043426513672 -16.3331298828125
  endloop
 endfacet
 facet normal -0.75276153604605189 1.4912825538882338e-06 -0.65829330077661019
  outer loop
   vertex -28.990383148193359 21.664043426513672 -16.3331298828125
   vertex -30.905838012695312 21.5164794921875 -14.14279842376709
   vertex -30.766271591186523 21.664043426513672 -14.302392959594727
  endloop
 endfacet
 facet normal -0.75276153604541463 -1.9791364770988817e-06 -0.65829330077605286
  outer loop
   vertex -28.990383148193359 21.664043426513672 -16.3331298828125
   vertex -30.766271591186523 21.664043426513672 -14.302392959594727
   vertex -29.139060974121094 21.789402008056641 -16.163116455078125
  endloop
 endfacet
 facet normal -0.75276149747370857 -3.1344362221205259e-06 -0.65829334487849356
  outer loop
   vertex -29.139060974121094 21.789402008056641 -16.163116455078125
   vertex -30.766271591186523 21.664043426513672 -14.302392959594727
   vertex -30.617593765258789 21.789402008056641 -14.472407341003418
  endloop
 endfacet
 facet normal -0.75276149747689058 1.1705968931717373e-06 -0.65829334488127633
  outer loop
   vertex -29.139060974121094 21.789402008056641 -16.163116455078125
   vertex -30.617593765258789 21.789402008056641 -14.472407341003418
   vertex -29.295324325561523 21.891267776489258 -15.984428405761719
  endloop
 endfacet
 facet normal -0.75276164215431474 5.504570314047634e-06 -0.65829317941995957
  outer loop
   vertex -29.295324325561523 21.891267776489258 -15.984428405761719
   vertex -30.617593765258789 21.789402008056641 -14.472407341003418
   vertex -30.461330413818359 21.891267776489258 -14.651094436645508
  endloop
 endfacet
 facet normal -0.75276164216567432 3.4520403008666248e-07 -0.65829317942989352
  outer loop
   vertex -29.295324325561523 21.891267776489258 -15.984428405761719
   vertex -30.461330413818359 21.891267776489258 -14.651094436645508
   vertex -29.457569122314453 21.968597412109375 -15.798900604248047
  endloop
 endfacet
 facet normal -0.75276096793809533 -1.9845736604797104e-05 -0.65829395011275071
  outer loop
   vertex -29.457569122314453 21.968597412109375 -15.798900604248047
   vertex -30.461330413818359 21.891267776489258 -14.651094436645508
   vertex -30.29908561706543 21.968597412109375 -14.836624145507812
  endloop
 endfacet
 facet normal -0.75276096806503157 -7.5231756216376123e-06 -0.65829395022375714
  outer loop
   vertex -29.457569122314453 21.968597412109375 -15.798900604248047
   vertex -30.29908561706543 21.968597412109375 -14.836624145507812
   vertex -29.624134063720703 22.020595550537109 -15.608433723449707
  endloop
 endfacet
 facet normal -0.7527621698209559 2.8481974190343423e-05 -0.65829257543680653
  outer loop
   vertex -29.624134063720703 22.020595550537109 -15.608433723449707
   vertex -30.29908561706543 21.968597412109375 -14.836624145507812
   vertex -30.13252067565918 22.020595550537109 -15.027090072631836
  endloop
 endfacet
 facet normal -0.75276217005324908 1.3930083189995861e-05 -0.65829257563994759
  outer loop
   vertex -29.624134063720703 22.020595550537109 -15.608433723449707
   vertex -30.13252067565918 22.020595550537109 -15.027090072631836
   vertex -29.793304443359375 22.046726226806641 -15.414985656738281
  endloop
 endfacet
 facet normal -0.75275871191620436 -8.9574210052605199e-05 -0.65829652407613215
  outer loop
   vertex -29.793304443359375 22.046726226806641 -15.414985656738281
   vertex -30.13252067565918 22.020595550537109 -15.027090072631836
   vertex -29.963350296020508 22.046726226806641 -15.220539093017578
  endloop
 endfacet
 facet normal -0.75276102713455861 0 -0.65829388272057054
  outer loop
   vertex -31.556976318359375 19.5 -13.398220062255859
   vertex -30.461330413818359 2.1087322235107422 -14.651094436645508
   vertex -31.556976318359375 4.5 -13.398220062255859
  endloop
 endfacet
 facet normal -0.75275968681432803 1.4171316306650694e-06 -0.65829541537609559
  outer loop
   vertex -31.556976318359375 4.5 -13.398220062255859
   vertex -30.461330413818359 2.1087322235107422 -14.651094436645508
   vertex -30.617593765258789 2.2105979919433594 -14.472407341003418
  endloop
 endfacet
 facet normal -0.75276341462735574 -2.1125499941197179e-06 -0.65829115260202375
  outer loop
   vertex -31.556976318359375 4.5 -13.398220062255859
   vertex -30.617593765258789 2.2105979919433594 -14.472407341003418
   vertex -30.766271591186523 2.3359575271606445 -14.302392959594727
  endloop
 endfacet
 facet normal -0.75276081729619959 7.7415410120645696e-08 -0.65829412267128107
  outer loop
   vertex -30.766271591186523 2.3359575271606445 -14.302392959594727
   vertex -30.905838012695312 2.4835214614868164 -14.14279842376709
   vertex -31.556976318359375 4.5 -13.398220062255859
  endloop
 endfacet
 facet normal -0.75275920893461767 1.2758730362433705e-06 -0.65829596183061978
  outer loop
   vertex -31.556976318359375 4.5 -13.398220062255859
   vertex -30.905838012695312 2.4835214614868164 -14.14279842376709
   vertex -31.034860610961914 2.6517782211303711 -13.995261192321777
  endloop
 endfacet
 facet normal -0.75276189044036979 -4.7216721401305456e-07 -0.65829289552631343
  outer loop
   vertex -31.556976318359375 4.5 -13.398220062255859
   vertex -31.034860610961914 2.6517782211303711 -13.995261192321777
   vertex -31.152015686035156 2.8389997482299805 -13.861293792724609
  endloop
 endfacet
 facet normal -0.75276643290215861 -3.0277941467763643e-06 -0.65828770115094248
  outer loop
   vertex -31.152015686035156 2.8389997482299805 -13.861293792724609
   vertex -31.256099700927734 3.0432662963867188 -13.74227237701416
   vertex -31.556976318359375 4.5 -13.398220062255859
  endloop
 endfacet
 facet normal -0.75275641084142098 1.7488770145930723e-06 -0.6582991614259307
  outer loop
   vertex -31.556976318359375 4.5 -13.398220062255859
   vertex -31.256099700927734 3.0432662963867188 -13.74227237701416
   vertex -31.346048355102539 3.2624797821044922 -13.639416694641113
  endloop
 endfacet
 facet normal -0.75275791407993109 1.1576328327450424e-06 -0.65829744248986011
  outer loop
   vertex -31.556976318359375 4.5 -13.398220062255859
   vertex -31.346048355102539 3.2624797821044922 -13.639416694641113
   vertex -31.420934677124023 3.4943923950195312 -13.553784370422363
  endloop
 endfacet
 facet normal -0.75276477125778096 -9.8303738346425042e-07 -0.65828960127914393
  outer loop
   vertex -31.420934677124023 3.4943923950195312 -13.553784370422363
   vertex -31.479991912841797 3.7366237640380859 -13.486251831054688
   vertex -31.556976318359375 4.5 -13.398220062255859
  endloop
 endfacet
 facet normal -0.752770540911743 -2.3257374705338931e-06 -0.6582830035251046
  outer loop
   vertex -31.556976318359375 4.5 -13.398220062255859
   vertex -31.479991912841797 3.7366237640380859 -13.486251831054688
   vertex -31.522613525390625 3.9866886138916016 -13.43751335144043
  endloop
 endfacet
 facet normal -0.75278513989659035 -4.5810111678677355e-06 -0.65826630866989178
  outer loop
   vertex -31.556976318359375 4.5 -13.398220062255859
   vertex -31.522613525390625 3.9866886138916016 -13.43751335144043
   vertex -31.548362731933594 4.2420206069946289 -13.408068656921387
  endloop
 endfacet
endsolid
