solid Visualization Toolkit generated SLA File
 facet normal -0.99408465495839438 0 0.10860800512047959
  outer loop
   vertex -6.4209985733032227 19.5 -28.36744499206543
   vertex -6.4209985733032227 4.5 -28.36744499206543
   vertex -5.769350528717041 19.5 -22.402936935424805
  endloop
 endfacet
 facet normal -0.99408465495839438 0 0.10860800512047959
  outer loop
   vertex -5.769350528717041 19.5 -22.402936935424805
   vertex -6.4209985733032227 4.5 -28.36744499206543
   vertex -5.769350528717041 4.5 -22.402936935424805
  endloop
 endfacet
 facet normal 0.99280877995416195 0.050648577605143942 -0.1084686499985328
  outer loop
   vertex -0.69951891899108887 19.5 -22.956838607788086
   vertex -1.3511672019958496 19.5 -28.921346664428711
   vertex -0.7125246524810791 19.757980346679688 -22.955417633056641
  endloop
 endfacet
 facet normal 0.99280877995416195 0.050648577605143942 -0.1084686499985328
  outer loop
   vertex -0.7125246524810791 19.757980346679688 -22.955417633056641
   vertex -1.3511672019958496 19.5 -28.921346664428711
   vertex -1.3641729354858398 19.757980346679688 -28.919925689697266
  endloop
 endfacet
 facet normal 0.9826210715947008 0.15142854769779343 -0.10735559883033045
  outer loop
   vertex -0.7125246524810791 19.757980346679688 -22.955417633056641
   vertex -1.3641729354858398 19.757980346679688 -28.919925689697266
   vertex -0.75140881538391113 20.013311386108398 -22.951169967651367
  endloop
 endfacet
 facet normal 0.98262094855914217 0.15142933126561553 -0.10735561971867243
  outer loop
   vertex -0.75140881538391113 20.013311386108398 -22.951169967651367
   vertex -1.3641729354858398 19.757980346679688 -28.919925689697266
   vertex -1.4030570983886719 20.013311386108398 -28.915676116943359
  endloop
 endfacet
 facet normal 0.96235059226697428 0.25065256579191914 -0.10514099497974849
  outer loop
   vertex -0.75140881538391113 20.013311386108398 -22.951169967651367
   vertex -1.4030570983886719 20.013311386108398 -28.915676116943359
   vertex -0.81577205657958984 20.263376235961914 -22.944137573242188
  endloop
 endfacet
 facet normal 0.96235101481570606 0.25065095433571449 -0.10514096905477067
  outer loop
   vertex -0.81577205657958984 20.263376235961914 -22.944137573242188
   vertex -1.4030570983886719 20.013311386108398 -28.915676116943359
   vertex -1.4674201011657715 20.263376235961914 -28.908645629882812
  endloop
 endfacet
 facet normal 0.93220463651833907 0.34730625293841527 -0.10184734814215195
  outer loop
   vertex -0.81577205657958984 20.263376235961914 -22.944137573242188
   vertex -1.4674201011657715 20.263376235961914 -28.908645629882812
   vertex -0.90495419502258301 20.505607604980469 -22.934392929077148
  endloop
 endfacet
 facet normal 0.93220433543447778 0.34730705979550303 -0.10184735251034517
  outer loop
   vertex -0.90495419502258301 20.505607604980469 -22.934392929077148
   vertex -1.4674201011657715 20.263376235961914 -28.908645629882812
   vertex -1.5566024780273438 20.505607604980469 -28.898900985717773
  endloop
 endfacet
 facet normal 0.89249447888390698 0.44039257903139756 -0.097508879061435211
  outer loop
   vertex -0.90495419502258301 20.505607604980469 -22.934392929077148
   vertex -1.5566024780273438 20.505607604980469 -28.898900985717773
   vertex -1.0180394649505615 20.737520217895508 -22.922039031982422
  endloop
 endfacet
 facet normal 0.89249447888390698 0.44039257903139756 -0.097508879061435211
  outer loop
   vertex -1.0180394649505615 20.737520217895508 -22.922039031982422
   vertex -1.5566024780273438 20.505607604980469 -28.898900985717773
   vertex -1.6696877479553223 20.737520217895508 -28.886547088623047
  endloop
 endfacet
 facet normal 0.84362328653489604 0.52896553338946373 -0.092169490082461253
  outer loop
   vertex -1.0180394649505615 20.737520217895508 -22.922039031982422
   vertex -1.6696877479553223 20.737520217895508 -28.886547088623047
   vertex -1.1538684368133545 20.956733703613281 -22.907197952270508
  endloop
 endfacet
 facet normal 0.84362328653489604 0.52896553338946373 -0.092169490082461253
  outer loop
   vertex -1.1538684368133545 20.956733703613281 -22.907197952270508
   vertex -1.6696877479553223 20.737520217895508 -28.886547088623047
   vertex -1.8055167198181152 20.956733703613281 -28.871706008911133
  endloop
 endfacet
 facet normal 0.7860974641431705 0.61210670780081688 -0.085884545367151691
  outer loop
   vertex -1.1538684368133545 20.956733703613281 -22.907197952270508
   vertex -1.8055167198181152 20.956733703613281 -28.871706008911133
   vertex -1.311046838760376 21.160999298095703 -22.890026092529297
  endloop
 endfacet
 facet normal 0.78609768658643808 0.61210642092266732 -0.085884553958744864
  outer loop
   vertex -1.311046838760376 21.160999298095703 -22.890026092529297
   vertex -1.8055167198181152 20.956733703613281 -28.871706008911133
   vertex -1.9626950025558472 21.160999298095703 -28.854534149169922
  endloop
 endfacet
 facet normal 0.7205051168874721 0.68896720413549417 -0.078718283547663914
  outer loop
   vertex -1.311046838760376 21.160999298095703 -22.890026092529297
   vertex -1.9626950025558472 21.160999298095703 -28.854534149169922
   vertex -1.4879615306854248 21.348220825195312 -22.870697021484375
  endloop
 endfacet
 facet normal 0.72050488759920672 0.68896744513636232 -0.078718272897263103
  outer loop
   vertex -1.4879615306854248 21.348220825195312 -22.870697021484375
   vertex -1.9626950025558472 21.160999298095703 -28.854534149169922
   vertex -2.1396098136901855 21.348220825195312 -28.835205078125
  endloop
 endfacet
 facet normal 0.64752425168468331 0.75875392156966415 -0.070744823010923177
  outer loop
   vertex -1.4879615306854248 21.348220825195312 -22.870697021484375
   vertex -2.1396098136901855 21.348220825195312 -28.835205078125
   vertex -1.6827975511550903 21.5164794921875 -22.849411010742188
  endloop
 endfacet
 facet normal 0.64752402489177108 0.75875411621937361 -0.07074481117451821
  outer loop
   vertex -1.6827975511550903 21.5164794921875 -22.849411010742188
   vertex -2.1396098136901855 21.348220825195312 -28.835205078125
   vertex -2.3344459533691406 21.5164794921875 -28.813919067382812
  endloop
 endfacet
 facet normal 0.56788713764090526 0.82076471912218985 -0.06204413547058496
  outer loop
   vertex -1.6827975511550903 21.5164794921875 -22.849411010742188
   vertex -2.3344459533691406 21.5164794921875 -28.813919067382812
   vertex -1.8935554027557373 21.664043426513672 -22.826385498046875
  endloop
 endfacet
 facet normal 0.56788735269831747 0.82076456940577025 -0.062044147616493808
  outer loop
   vertex -1.8935554027557373 21.664043426513672 -22.826385498046875
   vertex -2.3344459533691406 21.5164794921875 -28.813919067382812
   vertex -2.545203685760498 21.664043426513672 -28.7908935546875
  endloop
 endfacet
 facet normal 0.48243071236382001 0.87434690622156974 -0.052707640327626891
  outer loop
   vertex -1.8935554027557373 21.664043426513672 -22.826385498046875
   vertex -2.545203685760498 21.664043426513672 -28.7908935546875
   vertex -2.118072509765625 21.789402008056641 -22.801855087280273
  endloop
 endfacet
 facet normal 0.48243032325639484 0.87434712231605183 -0.052707617100089595
  outer loop
   vertex -2.118072509765625 21.789402008056641 -22.801855087280273
   vertex -2.545203685760498 21.664043426513672 -28.7908935546875
   vertex -2.7697210311889648 21.789402008056641 -28.766363143920898
  endloop
 endfacet
 facet normal 0.39202091933910266 0.91895875331653032 -0.042829995370687227
  outer loop
   vertex -2.118072509765625 21.789402008056641 -22.801855087280273
   vertex -2.7697210311889648 21.789402008056641 -28.766363143920898
   vertex -2.3540451526641846 21.891267776489258 -22.776073455810547
  endloop
 endfacet
 facet normal 0.39202125157299378 0.91895861062656903 -0.042830015998469598
  outer loop
   vertex -2.3540451526641846 21.891267776489258 -22.776073455810547
   vertex -2.7697210311889648 21.789402008056641 -28.766363143920898
   vertex -3.0056934356689453 21.891267776489258 -28.740581512451172
  endloop
 endfacet
 facet normal 0.29759549016881054 0.95413824494718424 -0.032513593469381763
  outer loop
   vertex -2.3540451526641846 21.891267776489258 -22.776073455810547
   vertex -3.0056934356689453 21.891267776489258 -28.740581512451172
   vertex -2.5990517139434814 21.968597412109375 -22.749305725097656
  endloop
 endfacet
 facet normal 0.29759549016881054 0.95413824494718424 -0.032513593469381763
  outer loop
   vertex -2.5990517139434814 21.968597412109375 -22.749305725097656
   vertex -3.0056934356689453 21.891267776489258 -28.740581512451172
   vertex -3.2506999969482422 21.968597412109375 -28.713813781738281
  endloop
 endfacet
 facet normal 0.20010998699660007 0.97952948273226259 -0.021862880928336787
  outer loop
   vertex -2.5990517139434814 21.968597412109375 -22.749305725097656
   vertex -3.2506999969482422 21.968597412109375 -28.713813781738281
   vertex -2.8505780696868896 22.020595550537109 -22.721826553344727
  endloop
 endfacet
 facet normal 0.20010982904787852 0.97952951522901854 -0.021862870663131986
  outer loop
   vertex -2.8505780696868896 22.020595550537109 -22.721826553344727
   vertex -3.2506999969482422 21.968597412109375 -28.713813781738281
   vertex -3.5022263526916504 22.020595550537109 -28.686332702636719
  endloop
 endfacet
 facet normal 0.10056148221151597 0.99487018196313948 -0.010986780058450756
  outer loop
   vertex -2.8505780696868896 22.020595550537109 -22.721826553344727
   vertex -3.5022263526916504 22.020595550537109 -28.686332702636719
   vertex -3.1060433387756348 22.046726226806641 -22.693914413452148
  endloop
 endfacet
 facet normal 0.10056156282295889 0.99487017375647002 -0.01098678535221315
  outer loop
   vertex -3.1060433387756348 22.046726226806641 -22.693914413452148
   vertex -3.5022263526916504 22.020595550537109 -28.686332702636719
   vertex -3.7576916217803955 22.046726226806641 -28.658422470092773
  endloop
 endfacet
 facet normal 0 1 0
  outer loop
   vertex -3.1060433387756348 22.046726226806641 -22.693914413452148
   vertex -3.7576916217803955 22.046726226806641 -28.658422470092773
   vertex -3.3628261089324951 22.046726226806641 -22.665861129760742
  endloop
 endfacet
 facet normal 0 1 -0
  outer loop
   vertex -3.3628261089324951 22.046726226806641 -22.665861129760742
   vertex -3.7576916217803955 22.046726226806641 -28.658422470092773
   vertex -4.0144743919372559 22.046726226806641 -28.630369186401367
  endloop
 endfacet
 facet normal -0.10056156282295889 0.99487017375647002 0.01098678535221315
  outer loop
   vertex -3.3628261089324951 22.046726226806641 -22.665861129760742
   vertex -4.0144743919372559 22.046726226806641 -28.630369186401367
   vertex -3.6182913780212402 22.020595550537109 -22.637950897216797
  endloop
 endfacet
 facet normal -0.10056157444065027 0.99487017257372723 0.010986786115148228
  outer loop
   vertex -3.6182913780212402 22.020595550537109 -22.637950897216797
   vertex -4.0144743919372559 22.046726226806641 -28.630369186401367
   vertex -4.2699394226074219 22.020595550537109 -28.602457046508789
  endloop
 endfacet
 facet normal -0.20010982991151391 0.97952951522901399 0.021862862758518661
  outer loop
   vertex -3.6182913780212402 22.020595550537109 -22.637950897216797
   vertex -4.2699394226074219 22.020595550537109 -28.602457046508789
   vertex -3.8698177337646484 21.968597412109375 -22.610469818115234
  endloop
 endfacet
 facet normal -0.20010962643622696 0.97952955709247724 0.021862849534516296
  outer loop
   vertex -3.8698177337646484 21.968597412109375 -22.610469818115234
   vertex -4.2699394226074219 22.020595550537109 -28.602457046508789
   vertex -4.5214662551879883 21.968597412109375 -28.574977874755859
  endloop
 endfacet
 facet normal -0.29759548888449167 0.95413824494718025 0.032513605224813856
  outer loop
   vertex -3.8698177337646484 21.968597412109375 -22.610469818115234
   vertex -4.5214662551879883 21.968597412109375 -28.574977874755859
   vertex -4.1148242950439453 21.891267776489258 -22.583702087402344
  endloop
 endfacet
 facet normal -0.29759548888449167 0.95413824494718025 0.032513605224813856
  outer loop
   vertex -4.1148242950439453 21.891267776489258 -22.583702087402344
   vertex -4.5214662551879883 21.968597412109375 -28.574977874755859
   vertex -4.7664728164672852 21.891267776489258 -28.548210144042969
  endloop
 endfacet
 facet normal -0.39202124988111497 0.91895861062658379 0.042830031483843845
  outer loop
   vertex -4.1148242950439453 21.891267776489258 -22.583702087402344
   vertex -4.7664728164672852 21.891267776489258 -28.548210144042969
   vertex -4.3507966995239258 21.789402008056641 -22.557920455932617
  endloop
 endfacet
 facet normal -0.39202124988111497 0.91895861062658379 0.042830031483843845
  outer loop
   vertex -4.3507966995239258 21.789402008056641 -22.557920455932617
   vertex -4.7664728164672852 21.891267776489258 -28.548210144042969
   vertex -5.0024452209472656 21.789402008056641 -28.522428512573242
  endloop
 endfacet
 facet normal -0.48243032325639484 0.87434712231605183 0.052707617100089595
  outer loop
   vertex -4.3507966995239258 21.789402008056641 -22.557920455932617
   vertex -5.0024452209472656 21.789402008056641 -28.522428512573242
   vertex -4.5753140449523926 21.664043426513672 -22.533390045166016
  endloop
 endfacet
 facet normal -0.48243110147177709 0.87434669012656574 0.052707663555191193
  outer loop
   vertex -4.5753140449523926 21.664043426513672 -22.533390045166016
   vertex -5.0024452209472656 21.789402008056641 -28.522428512573242
   vertex -5.2269620895385742 21.664043426513672 -28.497898101806641
  endloop
 endfacet
 facet normal -0.56788735514909816 0.82076456940580378 0.062044125184157736
  outer loop
   vertex -4.5753140449523926 21.664043426513672 -22.533390045166016
   vertex -5.2269620895385742 21.664043426513672 -28.497898101806641
   vertex -4.78607177734375 21.5164794921875 -22.510364532470703
  endloop
 endfacet
 facet normal -0.56788649492018528 0.82076516827046642 0.062044076600585737
  outer loop
   vertex -4.78607177734375 21.5164794921875 -22.510364532470703
   vertex -5.2269620895385742 21.664043426513672 -28.497898101806641
   vertex -5.4377202987670898 21.5164794921875 -28.474872589111328
  endloop
 endfacet
 facet normal -0.64752402349453797 0.75875411621935163 0.07074482396356524
  outer loop
   vertex -4.78607177734375 21.5164794921875 -22.510364532470703
   vertex -5.4377202987670898 21.5164794921875 -28.474872589111328
   vertex -4.9809079170227051 21.348220825195312 -22.489078521728516
  endloop
 endfacet
 facet normal -0.64752493066678884 0.75875333761929031 0.07074487130921478
  outer loop
   vertex -4.9809079170227051 21.348220825195312 -22.489078521728516
   vertex -5.4377202987670898 21.5164794921875 -28.474872589111328
   vertex -5.6325559616088867 21.348220825195312 -28.453586578369141
  endloop
 endfacet
 facet normal -0.72050511844222664 0.68896720413547896 0.078718269317194348
  outer loop
   vertex -4.9809079170227051 21.348220825195312 -22.489078521728516
   vertex -5.6325559616088867 21.348220825195312 -28.453586578369141
   vertex -5.1578226089477539 21.160999298095703 -22.469749450683594
  endloop
 endfacet
 facet normal -0.72050420128955828 0.68896816813757611 0.078718226715597583
  outer loop
   vertex -5.1578226089477539 21.160999298095703 -22.469749450683594
   vertex -5.6325559616088867 21.348220825195312 -28.453586578369141
   vertex -5.8094711303710938 21.160999298095703 -28.434257507324219
  endloop
 endfacet
 facet normal -0.78609746075065345 0.61210670780076326 0.085884576419085895
  outer loop
   vertex -5.1578226089477539 21.160999298095703 -22.469749450683594
   vertex -5.8094711303710938 21.160999298095703 -28.434257507324219
   vertex -5.3150010108947754 20.956733703613281 -22.452577590942383
  endloop
 endfacet
 facet normal -0.78609835052385157 0.61210556028671281 0.085884610785455007
  outer loop
   vertex -5.3150010108947754 20.956733703613281 -22.452577590942383
   vertex -5.8094711303710938 21.160999298095703 -28.434257507324219
   vertex -5.966649055480957 20.956733703613281 -28.417085647583008
  endloop
 endfacet
 facet normal -0.84362329017579685 0.52896553338933439 0.09216945675819084
  outer loop
   vertex -5.3150010108947754 20.956733703613281 -22.452577590942383
   vertex -5.966649055480957 20.956733703613281 -28.417085647583008
   vertex -5.4508299827575684 20.737520217895508 -22.437736511230469
  endloop
 endfacet
 facet normal -0.84362329017579685 0.52896553338933439 0.09216945675819084
  outer loop
   vertex -5.4508299827575684 20.737520217895508 -22.437736511230469
   vertex -5.966649055480957 20.956733703613281 -28.417085647583008
   vertex -6.10247802734375 20.737520217895508 -28.402244567871094
  endloop
 endfacet
 facet normal -0.89249448273557197 0.44039257903153911 0.097508843806669257
  outer loop
   vertex -5.4508299827575684 20.737520217895508 -22.437736511230469
   vertex -6.10247802734375 20.737520217895508 -28.402244567871094
   vertex -5.5639152526855469 20.505607604980469 -22.425382614135742
  endloop
 endfacet
 facet normal -0.89249375376340956 0.44039405819097671 0.097508835514434858
  outer loop
   vertex -5.5639152526855469 20.505607604980469 -22.425382614135742
   vertex -6.10247802734375 20.737520217895508 -28.402244567871094
   vertex -6.2155637741088867 20.505607604980469 -28.389890670776367
  endloop
 endfacet
 facet normal -0.93220433141131342 0.34730705979564769 0.10184738933369118
  outer loop
   vertex -5.5639152526855469 20.505607604980469 -22.425382614135742
   vertex -6.2155637741088867 20.505607604980469 -28.389890670776367
   vertex -5.6530976295471191 20.263376235961914 -22.415637969970703
  endloop
 endfacet
 facet normal -0.93220493357853662 0.34730544608070135 0.1018473805972505
  outer loop
   vertex -5.6530976295471191 20.263376235961914 -22.415637969970703
   vertex -6.2155637741088867 20.505607604980469 -28.389890670776367
   vertex -6.3047456741333008 20.263376235961914 -28.380146026611328
  endloop
 endfacet
 facet normal -0.96235101481570606 0.25065095433571449 0.10514096905477067
  outer loop
   vertex -5.6530976295471191 20.263376235961914 -22.415637969970703
   vertex -6.3047456741333008 20.263376235961914 -28.380146026611328
   vertex -5.7174606323242188 20.013311386108398 -22.408607482910156
  endloop
 endfacet
 facet normal -0.96235036679057517 0.2506534256772609 0.10514100881339987
  outer loop
   vertex -5.7174606323242188 20.013311386108398 -22.408607482910156
   vertex -6.3047456741333008 20.263376235961914 -28.380146026611328
   vertex -6.3691091537475586 20.013311386108398 -28.373113632202148
  endloop
 endfacet
 facet normal -0.98262094431841596 0.15142933126580976 0.10735565853355862
  outer loop
   vertex -5.7174606323242188 20.013311386108398 -22.408607482910156
   vertex -6.3691091537475586 20.013311386108398 -28.373113632202148
   vertex -5.7563447952270508 19.757980346679688 -22.40435791015625
  endloop
 endfacet
 facet normal -0.98262106735401999 0.15142854769770459 0.10735563764521411
  outer loop
   vertex -5.7563447952270508 19.757980346679688 -22.40435791015625
   vertex -6.3691091537475586 20.013311386108398 -28.373113632202148
   vertex -6.4079933166503906 19.757980346679688 -28.368865966796875
  endloop
 endfacet
 facet normal -0.99280877566950021 0.050648577605150291 0.10846868921584341
  outer loop
   vertex -5.7563447952270508 19.757980346679688 -22.40435791015625
   vertex -6.4079933166503906 19.757980346679688 -28.368865966796875
   vertex -5.769350528717041 19.5 -22.402936935424805
  endloop
 endfacet
 facet normal -0.99280887651171523 0.050646747257331586 0.10846862086243034
  outer loop
   vertex -5.769350528717041 19.5 -22.402936935424805
   vertex -6.4079933166503906 19.757980346679688 -28.368865966796875
   vertex -6.4209985733032227 19.5 -28.36744499206543
  endloop
 endfacet
 facet normal 0.99408465066822804 0 -0.10860804438818938
  outer loop
   vertex -1.3511672019958496 4.5 -28.921346664428711
   vertex -1.3511672019958496 19.5 -28.921346664428711
   vertex -0.69951891899108887 4.5 -22.956838607788086
  endloop
 endfacet
 facet normal 0.99408465066822804 0 -0.10860804438818938
  outer loop
   vertex -0.69951891899108887 4.5 -22.956838607788086
   vertex -1.3511672019958496 19.5 -28.921346664428711
   vertex -0.69951891899108887 19.5 -22.956838607788086
  endloop
 endfacet
 facet normal -0.99280877482391627 -0.050648764357798894 0.10846860975260289
  outer loop
   vertex -5.769350528717041 4.5 -22.402936935424805
   vertex -6.4209985733032227 4.5 -28.36744499206543
   vertex -5.7563447952270508 4.2420206069946289 -22.40435791015625
  endloop
 endfacet
 facet normal -0.99280885852816547 -0.050646934003307359 0.108468698268514
  outer loop
   vertex -5.7563447952270508 4.2420206069946289 -22.40435791015625
   vertex -6.4209985733032227 4.5 -28.36744499206543
   vertex -6.4079933166503906 4.2420206069946289 -28.368865966796875
  endloop
 endfacet
 facet normal -0.98262103218387287 -0.15142877864103677 0.10735563380272213
  outer loop
   vertex -5.7563447952270508 4.2420206069946289 -22.40435791015625
   vertex -6.4079933166503906 4.2420206069946289 -28.368865966796875
   vertex -5.7174606323242188 3.9866886138916016 -22.408607482910156
  endloop
 endfacet
 facet normal -0.98262114780556775 -0.15142799507574883 0.10735568076542464
  outer loop
   vertex -5.7174606323242188 3.9866886138916016 -22.408607482910156
   vertex -6.4079933166503906 4.2420206069946289 -28.368865966796875
   vertex -6.3691091537475586 3.9866886138916016 -28.373113632202148
  endloop
 endfacet
 facet normal -0.96235100287937325 -0.25065095433512063 0.10514107830889781
  outer loop
   vertex -5.7174606323242188 3.9866886138916016 -22.408607482910156
   vertex -6.3691091537475586 3.9866886138916016 -28.373113632202148
   vertex -5.6530976295471191 3.7366237640380859 -22.415637969970703
  endloop
 endfacet
 facet normal -0.96235037872709561 -0.25065342567709503 0.10514089955936633
  outer loop
   vertex -5.6530976295471191 3.7366237640380859 -22.415637969970703
   vertex -6.3691091537475586 3.9866886138916016 -28.373113632202148
   vertex -6.3047456741333008 3.7366237640380859 -28.380146026611328
  endloop
 endfacet
 facet normal -0.93220433945764092 -0.34730705979535792 0.10184731568699869
  outer loop
   vertex -5.6530976295471191 3.7366237640380859 -22.415637969970703
   vertex -6.3047456741333008 3.7366237640380859 -28.380146026611328
   vertex -5.5639152526855469 3.4943923950195312 -22.425382614135742
  endloop
 endfacet
 facet normal -0.9322049255321988 -0.34730544608100505 0.10184745424398937
  outer loop
   vertex -5.5639152526855469 3.4943923950195312 -22.425382614135742
   vertex -6.3047456741333008 3.7366237640380859 -28.380146026611328
   vertex -6.2155637741088867 3.4943923950195312 -28.389890670776367
  endloop
 endfacet
 facet normal -0.89249447503224089 -0.44039257903125545 0.097508914316200734
  outer loop
   vertex -5.5639152526855469 3.4943923950195312 -22.425382614135742
   vertex -6.2155637741088867 3.4943923950195312 -28.389890670776367
   vertex -5.4508299827575684 3.2624797821044922 -22.437736511230469
  endloop
 endfacet
 facet normal -0.89249376146672821 -0.44039405819127314 0.097508765004959683
  outer loop
   vertex -5.4508299827575684 3.2624797821044922 -22.437736511230469
   vertex -6.2155637741088867 3.4943923950195312 -28.389890670776367
   vertex -6.10247802734375 3.2624797821044922 -28.402244567871094
  endloop
 endfacet
 facet normal -0.84362329017579685 -0.52896553338933439 0.09216945675819084
  outer loop
   vertex -5.4508299827575684 3.2624797821044922 -22.437736511230469
   vertex -6.10247802734375 3.2624797821044922 -28.402244567871094
   vertex -5.3150010108947754 3.0432662963867188 -22.452577590942383
  endloop
 endfacet
 facet normal -0.84362329017579685 -0.52896553338933439 0.09216945675819084
  outer loop
   vertex -5.3150010108947754 3.0432662963867188 -22.452577590942383
   vertex -6.10247802734375 3.2624797821044922 -28.402244567871094
   vertex -5.966649055480957 3.0432662963867188 -28.417085647583008
  endloop
 endfacet
 facet normal -0.78609884263364493 -0.61210492074895329 0.085884664550557085
  outer loop
   vertex -5.3150010108947754 3.0432662963867188 -22.452577590942383
   vertex -5.966649055480957 3.0432662963867188 -28.417085647583008
   vertex -5.1578226089477539 2.8389997482299805 -22.469749450683594
  endloop
 endfacet
 facet normal -0.78609971883313823 -0.61210377323403542 0.085884823124446757
  outer loop
   vertex -5.1578226089477539 2.8389997482299805 -22.469749450683594
   vertex -5.966649055480957 3.0432662963867188 -28.417085647583008
   vertex -5.8094711303710938 2.8389997482299805 -28.434257507324219
  endloop
 endfacet
 facet normal -0.7205051122232079 -0.68896720413553902 0.078718326239072156
  outer loop
   vertex -5.1578226089477539 2.8389997482299805 -22.469749450683594
   vertex -5.8094711303710938 2.8389997482299805 -28.434257507324219
   vertex -4.9809079170227051 2.6517782211303711 -22.489078521728516
  endloop
 endfacet
 facet normal -0.72050420750856115 -0.68896816813752437 0.078718169793790871
  outer loop
   vertex -4.9809079170227051 2.6517782211303711 -22.489078521728516
   vertex -5.8094711303710938 2.8389997482299805 -28.434257507324219
   vertex -5.6325559616088867 2.6517782211303711 -28.453586578369141
  endloop
 endfacet
 facet normal -0.64751980323635083 -0.75875776560214081 0.070744311115484307
  outer loop
   vertex -4.9809079170227051 2.6517782211303711 -22.489078521728516
   vertex -5.6325559616088867 2.6517782211303711 -28.453586578369141
   vertex -4.78607177734375 2.4835214614868164 -22.510364532470703
  endloop
 endfacet
 facet normal -0.64752069923354749 -0.75875698700832872 0.070744460773552134
  outer loop
   vertex -4.78607177734375 2.4835214614868164 -22.510364532470703
   vertex -5.6325559616088867 2.6517782211303711 -28.453586578369141
   vertex -5.4377202987670898 2.4835214614868164 -28.474872589111328
  endloop
 endfacet
 facet normal -0.56788735024753645 -0.82076456940573628 0.062044170048829658
  outer loop
   vertex -4.78607177734375 2.4835214614868164 -22.510364532470703
   vertex -5.4377202987670898 2.4835214614868164 -28.474872589111328
   vertex -4.5753140449523926 2.3359575271606445 -22.533390045166016
  endloop
 endfacet
 facet normal -0.56788649982173223 -0.82076516827053914 0.062044031735980582
  outer loop
   vertex -4.5753140449523926 2.3359575271606445 -22.533390045166016
   vertex -5.4377202987670898 2.4835214614868164 -28.474872589111328
   vertex -5.2269620895385742 2.3359575271606445 -28.497898101806641
  endloop
 endfacet
 facet normal -0.48243313315925207 -0.87434555573500339 0.05270788552574731
  outer loop
   vertex -4.5753140449523926 2.3359575271606445 -22.533390045166016
   vertex -5.2269620895385742 2.3359575271606445 -28.497898101806641
   vertex -4.3507966995239258 2.2105979919433594 -22.557920455932617
  endloop
 endfacet
 facet normal -0.4824339030479986 -0.87434512354140026 0.052708008207936786
  outer loop
   vertex -4.3507966995239258 2.2105979919433594 -22.557920455932617
   vertex -5.2269620895385742 2.3359575271606445 -28.497898101806641
   vertex -5.0024452209472656 2.2105979919433594 -28.522428512573242
  endloop
 endfacet
 facet normal -0.39202124988111497 -0.91895861062658379 0.042830031483843845
  outer loop
   vertex -4.3507966995239258 2.2105979919433594 -22.557920455932617
   vertex -5.0024452209472656 2.2105979919433594 -28.522428512573242
   vertex -4.1148242950439453 2.1087322235107422 -22.583702087402344
  endloop
 endfacet
 facet normal -0.39202124988111497 -0.91895861062658379 0.042830031483843845
  outer loop
   vertex -4.1148242950439453 2.1087322235107422 -22.583702087402344
   vertex -5.0024452209472656 2.2105979919433594 -28.522428512573242
   vertex -4.7664728164672852 2.1087322235107422 -28.548210144042969
  endloop
 endfacet
 facet normal -0.29759214767432002 -0.95413929950263876 0.032513240183028778
  outer loop
   vertex -4.1148242950439453 2.1087322235107422 -22.583702087402344
   vertex -4.7664728164672852 2.1087322235107422 -28.548210144042969
   vertex -3.8698177337646484 2.0314035415649414 -22.610469818115234
  endloop
 endfacet
 facet normal -0.29759214767432002 -0.95413929950263876 0.032513240183028778
  outer loop
   vertex -3.8698177337646484 2.0314035415649414 -22.610469818115234
   vertex -4.7664728164672852 2.1087322235107422 -28.548210144042969
   vertex -4.5214662551879883 2.0314035415649414 -28.574977874755859
  endloop
 endfacet
 facet normal -0.20010982893909057 -0.97952951522901899 0.021862871658837428
  outer loop
   vertex -3.8698177337646484 2.0314035415649414 -22.610469818115234
   vertex -4.5214662551879883 2.0314035415649414 -28.574977874755859
   vertex -3.6182913780212402 1.979405403137207 -22.637950897216797
  endloop
 endfacet
 facet normal -0.2001096274085836 -0.9795295570924859 0.021862840634199354
  outer loop
   vertex -3.6182913780212402 1.979405403137207 -22.637950897216797
   vertex -4.5214662551879883 2.0314035415649414 -28.574977874755859
   vertex -4.2699394226074219 1.979405403137207 -28.602457046508789
  endloop
 endfacet
 facet normal -0.10056882801419226 -0.99486943060301847 0.010987578599370156
  outer loop
   vertex -3.6182913780212402 1.979405403137207 -22.637950897216797
   vertex -4.2699394226074219 1.979405403137207 -28.602457046508789
   vertex -3.3628261089324951 1.953272819519043 -22.665861129760742
  endloop
 endfacet
 facet normal -0.10056883952335953 -0.99486942942010614 0.010987580363180859
  outer loop
   vertex -3.3628261089324951 1.953272819519043 -22.665861129760742
   vertex -4.2699394226074219 1.979405403137207 -28.602457046508789
   vertex -4.0144743919372559 1.953272819519043 -28.630369186401367
  endloop
 endfacet
 facet normal 0 -1 0
  outer loop
   vertex -3.3628261089324951 1.953272819519043 -22.665861129760742
   vertex -4.0144743919372559 1.953272819519043 -28.630369186401367
   vertex -3.1060433387756348 1.953272819519043 -22.693914413452148
  endloop
 endfacet
 facet normal 0 -1 0
  outer loop
   vertex -3.1060433387756348 1.953272819519043 -22.693914413452148
   vertex -4.0144743919372559 1.953272819519043 -28.630369186401367
   vertex -3.7576916217803955 1.953272819519043 -28.658422470092773
  endloop
 endfacet
 facet normal 0.10056874772174572 -0.99486943881086587 -0.010987570333457796
  outer loop
   vertex -3.1060433387756348 1.953272819519043 -22.693914413452148
   vertex -3.7576916217803955 1.953272819519043 -28.658422470092773
   vertex -2.8505780696868896 1.979405403137207 -22.721826553344727
  endloop
 endfacet
 facet normal 0.10056882758017453 -0.99486943060301791 -0.010987582571979048
  outer loop
   vertex -2.8505780696868896 1.979405403137207 -22.721826553344727
   vertex -3.7576916217803955 1.953272819519043 -28.658422470092773
   vertex -3.5022263526916504 1.979405403137207 -28.686332702636719
  endloop
 endfacet
 facet normal 0.20010998624180196 -0.97952948273225626 -0.021862887837252983
  outer loop
   vertex -2.8505780696868896 1.979405403137207 -22.721826553344727
   vertex -3.5022263526916504 1.979405403137207 -28.686332702636719
   vertex -2.5990517139434814 2.0314035415649414 -22.749305725097656
  endloop
 endfacet
 facet normal 0.20010982980272571 -0.97952951522901444 -0.021862863754226643
  outer loop
   vertex -2.5990517139434814 2.0314035415649414 -22.749305725097656
   vertex -3.5022263526916504 1.979405403137207 -28.686332702636719
   vertex -3.2506999969482422 2.0314035415649414 -28.713813781738281
  endloop
 endfacet
 facet normal 0.29759214895862457 -0.95413929950264298 -0.032513228427728677
  outer loop
   vertex -2.5990517139434814 2.0314035415649414 -22.749305725097656
   vertex -3.2506999969482422 2.0314035415649414 -28.713813781738281
   vertex -2.3540451526641846 2.1087322235107422 -22.776073455810547
  endloop
 endfacet
 facet normal 0.29759214895862457 -0.95413929950264298 -0.032513228427728677
  outer loop
   vertex -2.3540451526641846 2.1087322235107422 -22.776073455810547
   vertex -3.2506999969482422 2.0314035415649414 -28.713813781738281
   vertex -3.0056934356689453 2.1087322235107422 -28.740581512451172
  endloop
 endfacet
 facet normal 0.39202092103097869 -0.91895875331651622 -0.042829979885325886
  outer loop
   vertex -2.3540451526641846 2.1087322235107422 -22.776073455810547
   vertex -3.0056934356689453 2.1087322235107422 -28.740581512451172
   vertex -2.118072509765625 2.2105979919433594 -22.801855087280273
  endloop
 endfacet
 facet normal 0.39202124988111497 -0.91895861062658379 -0.042830031483843845
  outer loop
   vertex -2.118072509765625 2.2105979919433594 -22.801855087280273
   vertex -3.0056934356689453 2.1087322235107422 -28.740581512451172
   vertex -2.7697210311889648 2.2105979919433594 -28.766363143920898
  endloop
 endfacet
 facet normal 0.48243351602126905 -0.87434533963849492 -0.052707965923578438
  outer loop
   vertex -2.118072509765625 2.2105979919433594 -22.801855087280273
   vertex -2.7697210311889648 2.2105979919433594 -28.766363143920898
   vertex -1.8935554027557373 2.3359575271606445 -22.826385498046875
  endloop
 endfacet
 facet normal 0.48243313107715857 -0.87434555573503658 -0.052707904582512489
  outer loop
   vertex -1.8935554027557373 2.3359575271606445 -22.826385498046875
   vertex -2.7697210311889648 2.2105979919433594 -28.766363143920898
   vertex -2.545203685760498 2.3359575271606445 -28.7908935546875
  endloop
 endfacet
 facet normal 0.56788713886629483 -0.82076471912220716 -0.062044124254421178
  outer loop
   vertex -1.8935554027557373 2.3359575271606445 -22.826385498046875
   vertex -2.545203685760498 2.3359575271606445 -28.7908935546875
   vertex -1.6827975511550903 2.4835214614868164 -22.849411010742188
  endloop
 endfacet
 facet normal 0.56788735147292702 -0.82076456940575337 -0.062044158832661761
  outer loop
   vertex -1.6827975511550903 2.4835214614868164 -22.849411010742188
   vertex -2.545203685760498 2.3359575271606445 -28.7908935546875
   vertex -2.3344459533691406 2.4835214614868164 -28.813919067382812
  endloop
 endfacet
 facet normal 0.64752002444105461 -0.75875757095394847 -0.070744374107908056
  outer loop
   vertex -1.6827975511550903 2.4835214614868164 -22.849411010742188
   vertex -2.3344459533691406 2.4835214614868164 -28.813919067382812
   vertex -1.4879615306854248 2.6517782211303711 -22.870697021484375
  endloop
 endfacet
 facet normal 0.64751980044190316 -0.75875776560209707 -0.070744336693411777
  outer loop
   vertex -1.4879615306854248 2.6517782211303711 -22.870697021484375
   vertex -2.3344459533691406 2.4835214614868164 -28.813919067382812
   vertex -2.1396098136901855 2.6517782211303711 -28.835205078125
  endloop
 endfacet
 facet normal 0.72050511533271744 -0.68896720413550927 -0.078718297778133398
  outer loop
   vertex -1.4879615306854248 2.6517782211303711 -22.870697021484375
   vertex -2.1396098136901855 2.6517782211303711 -28.835205078125
   vertex -1.311046838760376 2.8389997482299805 -22.890026092529297
  endloop
 endfacet
 facet normal 0.72050488915396038 -0.68896744513634789 -0.07871825866679806
  outer loop
   vertex -1.311046838760376 2.8389997482299805 -22.890026092529297
   vertex -2.1396098136901855 2.6517782211303711 -28.835205078125
   vertex -1.9626950025558472 2.8389997482299805 -28.854534149169922
  endloop
 endfacet
 facet normal 0.7860988409373838 -0.61210492074892686 -0.085884680076551562
  outer loop
   vertex -1.311046838760376 2.8389997482299805 -22.890026092529297
   vertex -1.9626950025558472 2.8389997482299805 -28.854534149169922
   vertex -1.1538684368133545 3.0432662963867188 -22.907197952270508
  endloop
 endfacet
 facet normal 0.7860990599872284 -0.6121046338705588 -0.085884719720012048
  outer loop
   vertex -1.1538684368133545 3.0432662963867188 -22.907197952270508
   vertex -1.9626950025558472 2.8389997482299805 -28.854534149169922
   vertex -1.8055167198181152 3.0432662963867188 -28.871706008911133
  endloop
 endfacet
 facet normal 0.84362328653489604 -0.52896553338946373 -0.092169490082461253
  outer loop
   vertex -1.1538684368133545 3.0432662963867188 -22.907197952270508
   vertex -1.8055167198181152 3.0432662963867188 -28.871706008911133
   vertex -1.0180394649505615 3.2624797821044922 -22.922039031982422
  endloop
 endfacet
 facet normal 0.84362328653489604 -0.52896553338946373 -0.092169490082461253
  outer loop
   vertex -1.0180394649505615 3.2624797821044922 -22.922039031982422
   vertex -1.8055167198181152 3.0432662963867188 -28.871706008911133
   vertex -1.6696877479553223 3.2624797821044922 -28.886547088623047
  endloop
 endfacet
 facet normal 0.89249447888390698 -0.44039257903139756 -0.097508879061435211
  outer loop
   vertex -1.0180394649505615 3.2624797821044922 -22.922039031982422
   vertex -1.6696877479553223 3.2624797821044922 -28.886547088623047
   vertex -0.90495419502258301 3.4943923950195312 -22.934392929077148
  endloop
 endfacet
 facet normal 0.89249447888390698 -0.44039257903139756 -0.097508879061435211
  outer loop
   vertex -0.90495419502258301 3.4943923950195312 -22.934392929077148
   vertex -1.6696877479553223 3.2624797821044922 -28.886547088623047
   vertex -1.5566024780273438 3.4943923950195312 -28.898900985717773
  endloop
 endfacet
 facet normal 0.93220463249517349 -0.34730625293856393 -0.10184738496551003
  outer loop
   vertex -0.90495419502258301 3.4943923950195312 -22.934392929077148
   vertex -1.5566024780273438 3.4943923950195312 -28.898900985717773
   vertex -0.81577205657958984 3.7366237640380859 -22.944137573242188
  endloop
 endfacet
 facet normal 0.93220433945764092 -0.34730705979535792 -0.10184731568699869
  outer loop
   vertex -0.81577205657958984 3.7366237640380859 -22.944137573242188
   vertex -1.5566024780273438 3.4943923950195312 -28.898900985717773
   vertex -1.4674201011657715 3.7366237640380859 -28.908645629882812
  endloop
 endfacet
 facet normal 0.96235060005026862 -0.25065256579180367 -0.10514092373987066
  outer loop
   vertex -0.81577205657958984 3.7366237640380859 -22.944137573242188
   vertex -1.4674201011657715 3.7366237640380859 -28.908645629882812
   vertex -0.75140881538391113 3.9866886138916016 -22.951169967651367
  endloop
 endfacet
 facet normal 0.96235100703253751 -0.25065095433532758 -0.10514104029469333
  outer loop
   vertex -0.75140881538391113 3.9866886138916016 -22.951169967651367
   vertex -1.4674201011657715 3.7366237640380859 -28.908645629882812
   vertex -1.4030570983886719 3.9866886138916016 -28.915676116943359
  endloop
 endfacet
 facet normal 0.98262115204625144 -0.15142799507583787 -0.10735564195052567
  outer loop
   vertex -0.75140881538391113 3.9866886138916016 -22.951169967651367
   vertex -1.4030570983886719 3.9866886138916016 -28.915676116943359
   vertex -0.7125246524810791 4.2420206069946289 -22.955417633056641
  endloop
 endfacet
 facet normal 0.98262103642459675 -0.15142877864084231 -0.10735559498784458
  outer loop
   vertex -0.7125246524810791 4.2420206069946289 -22.955417633056641
   vertex -1.4030570983886719 3.9866886138916016 -28.915676116943359
   vertex -1.3641729354858398 4.2420206069946289 -28.919925689697266
  endloop
 endfacet
 facet normal 0.99280877053925609 -0.050648764357805326 -0.10846864896991364
  outer loop
   vertex -0.7125246524810791 4.2420206069946289 -22.955417633056641
   vertex -1.3641729354858398 4.2420206069946289 -28.919925689697266
   vertex -0.69951891899108887 4.5 -22.956838607788086
  endloop
 endfacet
 facet normal 0.99280877053925609 -0.050648764357805326 -0.10846864896991364
  outer loop
   vertex -0.69951891899108887 4.5 -22.956838607788086
   vertex -1.3641729354858398 4.2420206069946289 -28.919925689697266
   vertex -1.3511672019958496 4.5 -28.921346664428711
  endloop
 endfacet
 facet normal 0.10865593847238401 2.2809785634077673e-06 0.99407941686239665
  outer loop
   vertex -5.7563447952270508 4.2420206069946289 -22.40435791015625
   vertex -5.7174606323242188 3.9866886138916016 -22.408607482910156
   vertex -5.769350528717041 4.5 -22.402936935424805
  endloop
 endfacet
 facet normal 0.10855506517103494 -8.0378997418617166e-06 0.99409043741558267
  outer loop
   vertex -5.769350528717041 4.5 -22.402936935424805
   vertex -5.7174606323242188 3.9866886138916016 -22.408607482910156
   vertex -5.6530976295471191 3.7366237640380859 -22.415637969970703
  endloop
 endfacet
 facet normal 0.10862898779615951 3.3539692114519639e-06 0.9940823622814825
  outer loop
   vertex -5.769350528717041 4.5 -22.402936935424805
   vertex -5.6530976295471191 3.7366237640380859 -22.415637969970703
   vertex -5.5639152526855469 3.4943923950195312 -22.425382614135742
  endloop
 endfacet
 facet normal 0.10858733814794312 -5.2561922181494684e-06 0.99408691268234506
  outer loop
   vertex -5.5639152526855469 3.4943923950195312 -22.425382614135742
   vertex -5.4508299827575684 3.2624797821044922 -22.437736511230469
   vertex -5.769350528717041 4.5 -22.402936935424805
  endloop
 endfacet
 facet normal 0.10862298505076741 4.0283403595838213e-06 0.99408301821449141
  outer loop
   vertex -5.769350528717041 4.5 -22.402936935424805
   vertex -5.4508299827575684 3.2624797821044922 -22.437736511230469
   vertex -5.3150010108947754 3.0432662963867188 -22.452577590942383
  endloop
 endfacet
 facet normal 0.10860067485827851 -3.0131854673209134e-06 0.99408545578901175
  outer loop
   vertex -5.769350528717041 4.5 -22.402936935424805
   vertex -5.3150010108947754 3.0432662963867188 -22.452577590942383
   vertex -5.1578226089477539 2.8389997482299805 -22.469749450683594
  endloop
 endfacet
 facet normal 0.10861100965734205 8.3717866195868565e-07 0.99408432669492974
  outer loop
   vertex -5.1578226089477539 2.8389997482299805 -22.469749450683594
   vertex -4.9809079170227051 2.6517782211303711 -22.489078521728516
   vertex -5.769350528717041 4.5 -22.402936935424805
  endloop
 endfacet
 facet normal 0.10860202102714385 -3.0430983888021116e-06 0.99408530872333056
  outer loop
   vertex -5.769350528717041 4.5 -22.402936935424805
   vertex -4.9809079170227051 2.6517782211303711 -22.489078521728516
   vertex -4.78607177734375 2.4835214614868164 -22.510364532470703
  endloop
 endfacet
 facet normal 0.10860315416833145 -2.4839590846344629e-06 0.99408518493060716
  outer loop
   vertex -5.769350528717041 4.5 -22.402936935424805
   vertex -4.78607177734375 2.4835214614868164 -22.510364532470703
   vertex -4.5753140449523926 2.3359575271606445 -22.533390045166016
  endloop
 endfacet
 facet normal 0.1086076029340805 0 0.99408469889889828
  outer loop
   vertex -5.769350528717041 4.5 -22.402936935424805
   vertex -4.5753140449523926 2.3359575271606445 -22.533390045166016
   vertex -5.769350528717041 19.5 -22.402936935424805
  endloop
 endfacet
 facet normal 0.10861225231236354 3.2730017106761357e-07 0.99408419092525979
  outer loop
   vertex -5.769350528717041 19.5 -22.402936935424805
   vertex -4.5753140449523926 2.3359575271606445 -22.533390045166016
   vertex -4.3507966995239258 2.2105979919433594 -22.557920455932617
  endloop
 endfacet
 facet normal 0.10861073826448189 2.0159333371353308e-07 0.99408435634688652
  outer loop
   vertex -5.769350528717041 19.5 -22.402936935424805
   vertex -4.3507966995239258 2.2105979919433594 -22.557920455932617
   vertex -4.1148242950439453 2.1087322235107422 -22.583702087402344
  endloop
 endfacet
 facet normal 0.10860680642455223 -1.7692905464904561e-07 0.99408478592031002
  outer loop
   vertex -4.1148242950439453 2.1087322235107422 -22.583702087402344
   vertex -3.8698177337646484 2.0314035415649414 -22.610469818115234
   vertex -5.769350528717041 19.5 -22.402936935424805
  endloop
 endfacet
 facet normal 0.10861098318195028 2.826723597761282e-07 0.99408432958787274
  outer loop
   vertex -5.769350528717041 19.5 -22.402936935424805
   vertex -3.8698177337646484 2.0314035415649414 -22.610469818115234
   vertex -3.6182913780212402 1.979405403137207 -22.637950897216797
  endloop
 endfacet
 facet normal 0.10860627498941793 -3.0226727524461934e-07 0.99408484398105157
  outer loop
   vertex -5.769350528717041 19.5 -22.402936935424805
   vertex -3.6182913780212402 1.979405403137207 -22.637950897216797
   vertex -3.3628261089324951 1.953272819519043 -22.665861129760742
  endloop
 endfacet
 facet normal 0.10860290375707761 -7.7014885626773402e-07 0.9940852122906455
  outer loop
   vertex -3.3628261089324951 1.953272819519043 -22.665861129760742
   vertex -3.1060433387756348 1.953272819519043 -22.693914413452148
   vertex -5.769350528717041 19.5 -22.402936935424805
  endloop
 endfacet
 facet normal 0.10861355251687617 8.6545240098847277e-07 0.9940840488655448
  outer loop
   vertex -5.769350528717041 19.5 -22.402936935424805
   vertex -3.1060433387756348 1.953272819519043 -22.693914413452148
   vertex -2.8505780696868896 1.979405403137207 -22.721826553344727
  endloop
 endfacet
 facet normal 0.10860364066490094 -8.0548244089265498e-07 0.99408513178383273
  outer loop
   vertex -5.769350528717041 19.5 -22.402936935424805
   vertex -2.8505780696868896 1.979405403137207 -22.721826553344727
   vertex -2.5990517139434814 2.0314035415649414 -22.749305725097656
  endloop
 endfacet
 facet normal 0.10860692472298959 -2.023590899742165e-07 0.99408477299583153
  outer loop
   vertex -2.5990517139434814 2.0314035415649414 -22.749305725097656
   vertex -2.3540451526641846 2.1087322235107422 -22.776073455810547
   vertex -5.769350528717041 19.5 -22.402936935424805
  endloop
 endfacet
 facet normal 0.10860817185830704 4.5477321691905292e-08 0.99408463674155745
  outer loop
   vertex -5.769350528717041 19.5 -22.402936935424805
   vertex -2.3540451526641846 2.1087322235107422 -22.776073455810547
   vertex -0.69951891899108887 19.5 -22.956838607788086
  endloop
 endfacet
 facet normal 0.10860817185830585 1.5587118966406327e-07 0.99408463674154657
  outer loop
   vertex -5.769350528717041 19.5 -22.402936935424805
   vertex -0.69951891899108887 19.5 -22.956838607788086
   vertex -5.7563447952270508 19.757980346679688 -22.40435791015625
  endloop
 endfacet
 facet normal 0.10860815610144856 -1.5667503269510547e-07 0.99408463846305306
  outer loop
   vertex -5.7563447952270508 19.757980346679688 -22.40435791015625
   vertex -0.69951891899108887 19.5 -22.956838607788086
   vertex -0.7125246524810791 19.757980346679688 -22.955417633056641
  endloop
 endfacet
 facet normal 0.10860815610004702 5.0826576638941075e-06 0.99408463845022499
  outer loop
   vertex -5.7563447952270508 19.757980346679688 -22.40435791015625
   vertex -0.7125246524810791 19.757980346679688 -22.955417633056641
   vertex -5.7174606323242188 20.013311386108398 -22.408607482910156
  endloop
 endfacet
 facet normal 0.10860801691533792 2.3218054339712449e-06 0.99408465366704402
  outer loop
   vertex -5.7174606323242188 20.013311386108398 -22.408607482910156
   vertex -0.7125246524810791 19.757980346679688 -22.955417633056641
   vertex -0.75140881538391113 20.013311386108398 -22.951169967651367
  endloop
 endfacet
 facet normal 0.10860801691383293 -5.7537060631434935e-06 0.99408465365326881
  outer loop
   vertex -5.7174606323242188 20.013311386108398 -22.408607482910156
   vertex -0.75140881538391113 20.013311386108398 -22.951169967651367
   vertex -5.6530976295471191 20.263376235961914 -22.415637969970703
  endloop
 endfacet
 facet normal 0.10860822272013021 -1.6714376898726163e-06 0.99408463118327162
  outer loop
   vertex -5.6530976295471191 20.263376235961914 -22.415637969970703
   vertex -0.75140881538391113 20.013311386108398 -22.951169967651367
   vertex -0.81577205657958984 20.263376235961914 -22.944137573242188
  endloop
 endfacet
 facet normal 0.10860822271923898 4.3823883221264302e-06 0.99408463117511425
  outer loop
   vertex -5.6530976295471191 20.263376235961914 -22.415637969970703
   vertex -0.81577205657958984 20.263376235961914 -22.944137573242188
   vertex -5.5639152526855469 20.505607604980469 -22.425382614135742
  endloop
 endfacet
 facet normal 0.10860776689876855 -4.6591094461276747e-06 0.99408468097418912
  outer loop
   vertex -5.5639152526855469 20.505607604980469 -22.425382614135742
   vertex -0.81577205657958984 20.263376235961914 -22.944137573242188
   vertex -0.90495419502258301 20.505607604980469 -22.934392929077148
  endloop
 endfacet
 facet normal 0.10860776689868355 -4.8241611740360788e-06 0.99408468097341107
  outer loop
   vertex -5.5639152526855469 20.505607604980469 -22.425382614135742
   vertex -0.90495419502258301 20.505607604980469 -22.934392929077148
   vertex -5.4508299827575684 20.737520217895508 -22.437736511230469
  endloop
 endfacet
 facet normal 0.10860826572065831 5.0703000115246663e-06 0.99408462647374396
  outer loop
   vertex -5.4508299827575684 20.737520217895508 -22.437736511230469
   vertex -0.90495419502258301 20.505607604980469 -22.934392929077148
   vertex -1.0180394649505615 20.737520217895508 -22.922039031982422
  endloop
 endfacet
 facet normal 0.10860826572058545 5.2009265916119915e-06 0.99408462647307694
  outer loop
   vertex -5.4508299827575684 20.737520217895508 -22.437736511230469
   vertex -1.0180394649505615 20.737520217895508 -22.922039031982422
   vertex -5.3150010108947754 20.956733703613281 -22.452577590942383
  endloop
 endfacet
 facet normal 0.10860772420202398 -5.5404674185985549e-06 0.99408468563445851
  outer loop
   vertex -5.3150010108947754 20.956733703613281 -22.452577590942383
   vertex -1.0180394649505615 20.737520217895508 -22.922039031982422
   vertex -1.1538684368133545 20.956733703613281 -22.907197952270508
  endloop
 endfacet
 facet normal 0.10860772420335806 -2.4758774358313627e-06 0.9940846856466693
  outer loop
   vertex -5.3150010108947754 20.956733703613281 -22.452577590942383
   vertex -1.1538684368133545 20.956733703613281 -22.907197952270508
   vertex -5.1578226089477539 21.160999298095703 -22.469749450683594
  endloop
 endfacet
 facet normal 0.10860798404224152 2.6782049614897419e-06 0.99408465725767425
  outer loop
   vertex -5.1578226089477539 21.160999298095703 -22.469749450683594
   vertex -1.1538684368133545 20.956733703613281 -22.907197952270508
   vertex -1.311046838760376 21.160999298095703 -22.890026092529297
  endloop
 endfacet
 facet normal 0.10860798404240146 2.0559995027392399e-06 0.99408465725913808
  outer loop
   vertex -5.1578226089477539 21.160999298095703 -22.469749450683594
   vertex -1.311046838760376 21.160999298095703 -22.890026092529297
   vertex -4.9809079170227051 21.348220825195312 -22.489078521728516
  endloop
 endfacet
 facet normal 0.10860776623947063 -2.2642687247957207e-06 0.9940846810545596
  outer loop
   vertex -4.9809079170227051 21.348220825195312 -22.489078521728516
   vertex -1.311046838760376 21.160999298095703 -22.890026092529297
   vertex -1.4879615306854248 21.348220825195312 -22.870697021484375
  endloop
 endfacet
 facet normal 0.10860776623901003 -3.6890443298040231e-06 0.99408468105034375
  outer loop
   vertex -4.9809079170227051 21.348220825195312 -22.489078521728516
   vertex -1.4879615306854248 21.348220825195312 -22.870697021484375
   vertex -4.78607177734375 21.5164794921875 -22.510364532470703
  endloop
 endfacet
 facet normal 0.10860815743518627 4.0704918063754757e-06 0.99408463830901483
  outer loop
   vertex -4.78607177734375 21.5164794921875 -22.510364532470703
   vertex -1.4879615306854248 21.348220825195312 -22.870697021484375
   vertex -1.6827975511550903 21.5164794921875 -22.849411010742188
  endloop
 endfacet
 facet normal 0.10860815743486223 -4.7472347985639413e-06 0.99408463830604887
  outer loop
   vertex -4.78607177734375 21.5164794921875 -22.510364532470703
   vertex -1.6827975511550903 21.5164794921875 -22.849411010742188
   vertex -4.5753140449523926 21.664043426513672 -22.533390045166016
  endloop
 endfacet
 facet normal 0.1086086784765227 5.5880335992727871e-06 0.99408458137542655
  outer loop
   vertex -4.5753140449523926 21.664043426513672 -22.533390045166016
   vertex -1.6827975511550903 21.5164794921875 -22.849411010742188
   vertex -1.8935554027557373 21.664043426513672 -22.826385498046875
  endloop
 endfacet
 facet normal 0.10860867847616461 6.1498449659016754e-06 0.99408458137214895
  outer loop
   vertex -4.5753140449523926 21.664043426513672 -22.533390045166016
   vertex -1.8935554027557373 21.664043426513672 -22.826385498046875
   vertex -4.3507966995239258 21.789402008056641 -22.557920455932617
  endloop
 endfacet
 facet normal 0.10860798458145388 -7.6140047287799408e-06 0.99408465717321171
  outer loop
   vertex -4.3507966995239258 21.789402008056641 -22.557920455932617
   vertex -1.8935554027557373 21.664043426513672 -22.826385498046875
   vertex -2.118072509765625 21.789402008056641 -22.801855087280273
  endloop
 endfacet
 facet normal 0.10860798458247845 6.2534603008037088e-06 0.99408465718258943
  outer loop
   vertex -4.3507966995239258 21.789402008056641 -22.557920455932617
   vertex -2.118072509765625 21.789402008056641 -22.801855087280273
   vertex -4.1148242950439453 21.891267776489258 -22.583702087402344
  endloop
 endfacet
 facet normal 0.10860728409013461 -7.6413232501194683e-06 0.99408473370441364
  outer loop
   vertex -4.1148242950439453 21.891267776489258 -22.583702087402344
   vertex -2.118072509765625 21.789402008056641 -22.801855087280273
   vertex -2.3540451526641846 21.891267776489258 -22.776073455810547
  endloop
 endfacet
 facet normal 0.10860728409320576 -1.3545545818486599e-06 0.99408473373252393
  outer loop
   vertex -4.1148242950439453 21.891267776489258 -22.583702087402344
   vertex -2.3540451526641846 21.891267776489258 -22.776073455810547
   vertex -3.8698177337646484 21.968597412109375 -22.610469818115234
  endloop
 endfacet
 facet normal 0.10860744700533821 1.876876919138736e-06 0.99408471593293302
  outer loop
   vertex -3.8698177337646484 21.968597412109375 -22.610469818115234
   vertex -2.3540451526641846 21.891267776489258 -22.776073455810547
   vertex -2.5990517139434814 21.968597412109375 -22.749305725097656
  endloop
 endfacet
 facet normal 0.10860744698978625 1.7026770300069589e-05 0.99408471579058577
  outer loop
   vertex -3.8698177337646484 21.968597412109375 -22.610469818115234
   vertex -2.5990517139434814 21.968597412109375 -22.749305725097656
   vertex -3.6182913780212402 22.020595550537109 -22.637950897216797
  endloop
 endfacet
 facet normal 0.10860760832854241 2.0227122843041205e-05 0.99408469810374678
  outer loop
   vertex -3.6182913780212402 22.020595550537109 -22.637950897216797
   vertex -2.5990517139434814 21.968597412109375 -22.749305725097656
   vertex -2.8505780696868896 22.020595550537109 -22.721826553344727
  endloop
 endfacet
 facet normal 0.10860760834173899 -1.2888846788526801e-05 0.99408469822453505
  outer loop
   vertex -3.6182913780212402 22.020595550537109 -22.637950897216797
   vertex -2.8505780696868896 22.020595550537109 -22.721826553344727
   vertex -3.3628261089324951 22.046726226806641 -22.665861129760742
  endloop
 endfacet
 facet normal 0.1086029031444973 -0.00010621533229822936 0.99408520668345635
  outer loop
   vertex -3.3628261089324951 22.046726226806641 -22.665861129760742
   vertex -2.8505780696868896 22.020595550537109 -22.721826553344727
   vertex -3.1060433387756348 22.046726226806641 -22.693914413452148
  endloop
 endfacet
 facet normal 0.1086086442466308 0 0.99408458513091769
  outer loop
   vertex -0.69951891899108887 19.5 -22.956838607788086
   vertex -2.3540451526641846 2.1087322235107422 -22.776073455810547
   vertex -0.69951891899108887 4.5 -22.956838607788086
  endloop
 endfacet
 facet normal 0.10861135283650465 -1.8964531295003107e-06 0.99408428919857073
  outer loop
   vertex -0.69951891899108887 4.5 -22.956838607788086
   vertex -2.3540451526641846 2.1087322235107422 -22.776073455810547
   vertex -2.118072509765625 2.2105979919433594 -22.801855087280273
  endloop
 endfacet
 facet normal 0.10861422615988552 -3.6980672684425146e-06 0.99408397525662462
  outer loop
   vertex -0.69951891899108887 4.5 -22.956838607788086
   vertex -2.118072509765625 2.2105979919433594 -22.801855087280273
   vertex -1.8935554027557373 2.3359575271606445 -22.826385498046875
  endloop
 endfacet
 facet normal 0.10860305525045913 2.5391896544457203e-06 0.99408519573717524
  outer loop
   vertex -1.8935554027557373 2.3359575271606445 -22.826385498046875
   vertex -1.6827975511550903 2.4835214614868164 -22.849411010742188
   vertex -0.69951891899108887 4.5 -22.956838607788086
  endloop
 endfacet
 facet normal 0.10860212499133953 2.9982183970232126e-06 0.99408529736556117
  outer loop
   vertex -0.69951891899108887 4.5 -22.956838607788086
   vertex -1.6827975511550903 2.4835214614868164 -22.849411010742188
   vertex -1.4879615306854248 2.6517782211303711 -22.870697021484375
  endloop
 endfacet
 facet normal 0.10861100965734205 -8.3717866195868565e-07 0.99408432669492974
  outer loop
   vertex -0.69951891899108887 4.5 -22.956838607788086
   vertex -1.4879615306854248 2.6517782211303711 -22.870697021484375
   vertex -1.311046838760376 2.8389997482299805 -22.890026092529297
  endloop
 endfacet
 facet normal 0.10860067485827851 3.0131854673209134e-06 0.99408545578901175
  outer loop
   vertex -1.311046838760376 2.8389997482299805 -22.890026092529297
   vertex -1.1538684368133545 3.0432662963867188 -22.907197952270508
   vertex -0.69951891899108887 4.5 -22.956838607788086
  endloop
 endfacet
 facet normal 0.10862298505076741 -4.0283403595838213e-06 0.99408301821449141
  outer loop
   vertex -0.69951891899108887 4.5 -22.956838607788086
   vertex -1.1538684368133545 3.0432662963867188 -22.907197952270508
   vertex -1.0180394649505615 3.2624797821044922 -22.922039031982422
  endloop
 endfacet
 facet normal 0.10858733814794312 5.2561922181494684e-06 0.99408691268234506
  outer loop
   vertex -0.69951891899108887 4.5 -22.956838607788086
   vertex -1.0180394649505615 3.2624797821044922 -22.922039031982422
   vertex -0.90495419502258301 3.4943923950195312 -22.934392929077148
  endloop
 endfacet
 facet normal 0.10862963252243807 -3.4872527089431335e-06 0.99408229182793473
  outer loop
   vertex -0.90495419502258301 3.4943923950195312 -22.934392929077148
   vertex -0.81577205657958984 3.7366237640380859 -22.944137573242188
   vertex -0.69951891899108887 4.5 -22.956838607788086
  endloop
 endfacet
 facet normal 0.10862570517498332 -2.8820239642864409e-06 0.99408272098801298
  outer loop
   vertex -0.69951891899108887 4.5 -22.956838607788086
   vertex -0.81577205657958984 3.7366237640380859 -22.944137573242188
   vertex -0.75140881538391113 3.9866886138916016 -22.951169967651367
  endloop
 endfacet
 facet normal 0.10858390630349922 1.3937926796975887e-06 0.99408728756077069
  outer loop
   vertex -0.69951891899108887 4.5 -22.956838607788086
   vertex -0.75140881538391113 3.9866886138916016 -22.951169967651367
   vertex -0.7125246524810791 4.2420206069946289 -22.955417633056641
  endloop
 endfacet
 facet normal -0.10865593847238401 2.2809785634077673e-06 -0.99407941686239665
  outer loop
   vertex -1.3641729354858398 4.2420206069946289 -28.919925689697266
   vertex -1.4030570983886719 3.9866886138916016 -28.915676116943359
   vertex -1.3511672019958496 4.5 -28.921346664428711
  endloop
 endfacet
 facet normal -0.10855506517103494 -8.0378997418617166e-06 -0.99409043741558267
  outer loop
   vertex -1.3511672019958496 4.5 -28.921346664428711
   vertex -1.4030570983886719 3.9866886138916016 -28.915676116943359
   vertex -1.4674201011657715 3.7366237640380859 -28.908645629882812
  endloop
 endfacet
 facet normal -0.10862898779615951 3.3539692114519639e-06 -0.9940823622814825
  outer loop
   vertex -1.3511672019958496 4.5 -28.921346664428711
   vertex -1.4674201011657715 3.7366237640380859 -28.908645629882812
   vertex -1.5566024780273438 3.4943923950195312 -28.898900985717773
  endloop
 endfacet
 facet normal -0.10858733814794312 -5.2561922181494684e-06 -0.99408691268234506
  outer loop
   vertex -1.5566024780273438 3.4943923950195312 -28.898900985717773
   vertex -1.6696877479553223 3.2624797821044922 -28.886547088623047
   vertex -1.3511672019958496 4.5 -28.921346664428711
  endloop
 endfacet
 facet normal -0.10862298505076741 4.0283403595838213e-06 -0.99408301821449141
  outer loop
   vertex -1.3511672019958496 4.5 -28.921346664428711
   vertex -1.6696877479553223 3.2624797821044922 -28.886547088623047
   vertex -1.8055167198181152 3.0432662963867188 -28.871706008911133
  endloop
 endfacet
 facet normal -0.10860081173371791 -2.9699850040324826e-06 -0.99408544083592576
  outer loop
   vertex -1.3511672019958496 4.5 -28.921346664428711
   vertex -1.8055167198181152 3.0432662963867188 -28.871706008911133
   vertex -1.9626950025558472 2.8389997482299805 -28.854534149169922
  endloop
 endfacet
 facet normal -0.10861087781701052 7.8026483901092525e-07 -0.99408434109949118
  outer loop
   vertex -1.9626950025558472 2.8389997482299805 -28.854534149169922
   vertex -2.1396098136901855 2.6517782211303711 -28.835205078125
   vertex -1.3511672019958496 4.5 -28.921346664428711
  endloop
 endfacet
 facet normal -0.10860202102714385 -3.0430983888021116e-06 -0.99408530872333056
  outer loop
   vertex -1.3511672019958496 4.5 -28.921346664428711
   vertex -2.1396098136901855 2.6517782211303711 -28.835205078125
   vertex -2.3344459533691406 2.4835214614868164 -28.813919067382812
  endloop
 endfacet
 facet normal -0.10860315416833145 -2.4839590846344629e-06 -0.99408518493060716
  outer loop
   vertex -1.3511672019958496 4.5 -28.921346664428711
   vertex -2.3344459533691406 2.4835214614868164 -28.813919067382812
   vertex -2.545203685760498 2.3359575271606445 -28.7908935546875
  endloop
 endfacet
 facet normal -0.1086076029340805 0 -0.99408469889889828
  outer loop
   vertex -1.3511672019958496 4.5 -28.921346664428711
   vertex -2.545203685760498 2.3359575271606445 -28.7908935546875
   vertex -1.3511672019958496 19.5 -28.921346664428711
  endloop
 endfacet
 facet normal -0.10861225231236354 3.2730017106761357e-07 -0.99408419092525979
  outer loop
   vertex -1.3511672019958496 19.5 -28.921346664428711
   vertex -2.545203685760498 2.3359575271606445 -28.7908935546875
   vertex -2.7697210311889648 2.2105979919433594 -28.766363143920898
  endloop
 endfacet
 facet normal -0.10861073826448189 2.0159333371353308e-07 -0.99408435634688652
  outer loop
   vertex -1.3511672019958496 19.5 -28.921346664428711
   vertex -2.7697210311889648 2.2105979919433594 -28.766363143920898
   vertex -3.0056934356689453 2.1087322235107422 -28.740581512451172
  endloop
 endfacet
 facet normal -0.10860680642455223 -1.7692905464904561e-07 -0.99408478592031002
  outer loop
   vertex -3.0056934356689453 2.1087322235107422 -28.740581512451172
   vertex -3.2506999969482422 2.0314035415649414 -28.713813781738281
   vertex -1.3511672019958496 19.5 -28.921346664428711
  endloop
 endfacet
 facet normal -0.10861098318195028 2.826723597761282e-07 -0.99408432958787274
  outer loop
   vertex -1.3511672019958496 19.5 -28.921346664428711
   vertex -3.2506999969482422 2.0314035415649414 -28.713813781738281
   vertex -3.5022263526916504 1.979405403137207 -28.686332702636719
  endloop
 endfacet
 facet normal -0.10860627498941793 -3.0226727524461934e-07 -0.99408484398105157
  outer loop
   vertex -1.3511672019958496 19.5 -28.921346664428711
   vertex -3.5022263526916504 1.979405403137207 -28.686332702636719
   vertex -3.7576916217803955 1.953272819519043 -28.658422470092773
  endloop
 endfacet
 facet normal -0.10860290375707761 -7.7014885626773402e-07 -0.9940852122906455
  outer loop
   vertex -3.7576916217803955 1.953272819519043 -28.658422470092773
   vertex -4.0144743919372559 1.953272819519043 -28.630369186401367
   vertex -1.3511672019958496 19.5 -28.921346664428711
  endloop
 endfacet
 facet normal -0.10861365115562448 8.8060287496913543e-07 -0.99408403808826395
  outer loop
   vertex -1.3511672019958496 19.5 -28.921346664428711
   vertex -4.0144743919372559 1.953272819519043 -28.630369186401367
   vertex -4.2699394226074219 1.979405403137207 -28.602457046508789
  endloop
 endfacet
 facet normal -0.10860344427128471 -8.4006822077041991e-07 -0.99408515323975566
  outer loop
   vertex -1.3511672019958496 19.5 -28.921346664428711
   vertex -4.2699394226074219 1.979405403137207 -28.602457046508789
   vertex -4.5214662551879883 2.0314035415649414 -28.574977874755859
  endloop
 endfacet
 facet normal -0.10860692428571003 -2.0095708528642113e-07 -0.99408477304360598
  outer loop
   vertex -4.5214662551879883 2.0314035415649414 -28.574977874755859
   vertex -4.7664728164672852 2.1087322235107422 -28.548210144042969
   vertex -1.3511672019958496 19.5 -28.921346664428711
  endloop
 endfacet
 facet normal -0.10860817690556855 4.7969256611103884e-08 -0.99408463619012155
  outer loop
   vertex -1.3511672019958496 19.5 -28.921346664428711
   vertex -4.7664728164672852 2.1087322235107422 -28.548210144042969
   vertex -6.4209985733032227 19.5 -28.36744499206543
  endloop
 endfacet
 facet normal -0.10860817690556737 1.5561370138870777e-07 -0.99408463619011078
  outer loop
   vertex -1.3511672019958496 19.5 -28.921346664428711
   vertex -6.4209985733032227 19.5 -28.36744499206543
   vertex -1.3641729354858398 19.757980346679688 -28.919925689697266
  endloop
 endfacet
 facet normal -0.10860815102815337 -3.5767938139883498e-07 -0.99408463901728095
  outer loop
   vertex -1.3641729354858398 19.757980346679688 -28.919925689697266
   vertex -6.4209985733032227 19.5 -28.36744499206543
   vertex -6.4079933166503906 19.757980346679688 -28.368865966796875
  endloop
 endfacet
 facet normal -0.10860815102675704 5.0834394962485911e-06 -0.99408463900450039
  outer loop
   vertex -1.3641729354858398 19.757980346679688 -28.919925689697266
   vertex -6.4079933166503906 19.757980346679688 -28.368865966796875
   vertex -1.4030570983886719 20.013311386108398 -28.915676116943359
  endloop
 endfacet
 facet normal -0.10860801176260736 2.3210113633406844e-06 -0.99408465423000392
  outer loop
   vertex -1.4030570983886719 20.013311386108398 -28.915676116943359
   vertex -6.4079933166503906 19.757980346679688 -28.368865966796875
   vertex -6.3691091537475586 20.013311386108398 -28.373113632202148
  endloop
 endfacet
 facet normal -0.10860801176110299 -5.7523639989016694e-06 -0.99408465421623449
  outer loop
   vertex -1.4030570983886719 20.013311386108398 -28.915676116943359
   vertex -6.3691091537475586 20.013311386108398 -28.373113632202148
   vertex -1.4674201011657715 20.263376235961914 -28.908645629882812
  endloop
 endfacet
 facet normal -0.10860822272014842 -1.5678876781265345e-06 -0.99408463118343826
  outer loop
   vertex -1.4674201011657715 20.263376235961914 -28.908645629882812
   vertex -6.3691091537475586 20.013311386108398 -28.373113632202148
   vertex -6.3047456741333008 20.263376235961914 -28.380146026611328
  endloop
 endfacet
 facet normal -0.10860822271923898 4.3823883221264302e-06 -0.99408463117511425
  outer loop
   vertex -1.4674201011657715 20.263376235961914 -28.908645629882812
   vertex -6.3047456741333008 20.263376235961914 -28.380146026611328
   vertex -1.5566024780273438 20.505607604980469 -28.898900985717773
  endloop
 endfacet
 facet normal -0.10860776140635728 -4.7680539468330109e-06 -0.99408468157374064
  outer loop
   vertex -1.5566024780273438 20.505607604980469 -28.898900985717773
   vertex -6.3047456741333008 20.263376235961914 -28.380146026611328
   vertex -6.2155637741088867 20.505607604980469 -28.389890670776367
  endloop
 endfacet
 facet normal -0.10860776140632947 -4.8214510255842419e-06 -0.99408468157348617
  outer loop
   vertex -1.5566024780273438 20.505607604980469 -28.898900985717773
   vertex -6.2155637741088867 20.505607604980469 -28.389890670776367
   vertex -1.6696877479553223 20.737520217895508 -28.886547088623047
  endloop
 endfacet
 facet normal -0.10860827149314481 5.2964586834297542e-06 -0.99408462584189439
  outer loop
   vertex -1.6696877479553223 20.737520217895508 -28.886547088623047
   vertex -6.2155637741088867 20.505607604980469 -28.389890670776367
   vertex -6.10247802734375 20.737520217895508 -28.402244567871094
  endloop
 endfacet
 facet normal -0.10860827149320129 5.1973070686958401e-06 -0.99408462584241142
  outer loop
   vertex -1.6696877479553223 20.737520217895508 -28.886547088623047
   vertex -6.10247802734375 20.737520217895508 -28.402244567871094
   vertex -1.8055167198181152 20.956733703613281 -28.871706008911133
  endloop
 endfacet
 facet normal -0.10860773035147309 -5.5366116154996367e-06 -0.99408468496262814
  outer loop
   vertex -1.8055167198181152 20.956733703613281 -28.871706008911133
   vertex -6.10247802734375 20.737520217895508 -28.402244567871094
   vertex -5.966649055480957 20.956733703613281 -28.417085647583008
  endloop
 endfacet
 facet normal -0.10860773035282041 -2.4172823834181377e-06 -0.99408468497496016
  outer loop
   vertex -1.8055167198181152 20.956733703613281 -28.871706008911133
   vertex -5.966649055480957 20.956733703613281 -28.417085647583008
   vertex -1.9626950025558472 21.160999298095703 -28.854534149169922
  endloop
 endfacet
 facet normal -0.10860797406432673 2.4169012328862839e-06 -0.99408465834847337
  outer loop
   vertex -1.9626950025558472 21.160999298095703 -28.854534149169922
   vertex -5.966649055480957 20.956733703613281 -28.417085647583008
   vertex -5.8094711303710938 21.160999298095703 -28.434257507324219
  endloop
 endfacet
 facet normal -0.10860797406442751 1.9963869371108237e-06 -0.99408465834939586
  outer loop
   vertex -1.9626950025558472 21.160999298095703 -28.854534149169922
   vertex -5.8094711303710938 21.160999298095703 -28.434257507324219
   vertex -2.1396098136901855 21.348220825195312 -28.835205078125
  endloop
 endfacet
 facet normal -0.10860777356534936 -1.9806489005211926e-06 -0.99408468025478325
  outer loop
   vertex -2.1396098136901855 21.348220825195312 -28.835205078125
   vertex -5.8094711303710938 21.160999298095703 -28.434257507324219
   vertex -5.6325559616088867 21.348220825195312 -28.453586578369141
  endloop
 endfacet
 facet normal -0.10860777356481992 -3.6976285531487759e-06 -0.99408468024993746
  outer loop
   vertex -2.1396098136901855 21.348220825195312 -28.835205078125
   vertex -5.6325559616088867 21.348220825195312 -28.453586578369141
   vertex -2.3344459533691406 21.5164794921875 -28.813919067382812
  endloop
 endfacet
 facet normal -0.10860815331242259 3.8348179253427763e-06 -0.99408463876038211
  outer loop
   vertex -2.3344459533691406 21.5164794921875 -28.813919067382812
   vertex -5.6325559616088867 21.348220825195312 -28.453586578369141
   vertex -5.4377202987670898 21.5164794921875 -28.474872589111328
  endloop
 endfacet
 facet normal -0.10860815331200042 -4.7412760438397657e-06 -0.9940846387565182
  outer loop
   vertex -2.3344459533691406 21.5164794921875 -28.813919067382812
   vertex -5.4377202987670898 21.5164794921875 -28.474872589111328
   vertex -2.545203685760498 21.664043426513672 -28.7908935546875
  endloop
 endfacet
 facet normal -0.10860868801817987 5.8650424306780081e-06 -0.99408458033135738
  outer loop
   vertex -2.545203685760498 21.664043426513672 -28.7908935546875
   vertex -5.4377202987670898 21.5164794921875 -28.474872589111328
   vertex -5.2269620895385742 21.664043426513672 -28.497898101806641
  endloop
 endfacet
 facet normal -0.10860868801800558 6.1325515428691051e-06 -0.99408458032976221
  outer loop
   vertex -2.545203685760498 21.664043426513672 -28.7908935546875
   vertex -5.2269620895385742 21.664043426513672 -28.497898101806641
   vertex -2.7697210311889648 21.789402008056641 -28.766363143920898
  endloop
 endfacet
 facet normal -0.10860798458128074 -7.8205654687206368e-06 -0.99408465717162686
  outer loop
   vertex -2.7697210311889648 21.789402008056641 -28.766363143920898
   vertex -5.2269620895385742 21.664043426513672 -28.497898101806641
   vertex -5.0024452209472656 21.789402008056641 -28.522428512573242
  endloop
 endfacet
 facet normal -0.10860798458247845 6.2534603008037088e-06 -0.99408465718258943
  outer loop
   vertex -2.7697210311889648 21.789402008056641 -28.766363143920898
   vertex -5.0024452209472656 21.789402008056641 -28.522428512573242
   vertex -3.0056934356689453 21.891267776489258 -28.740581512451172
  endloop
 endfacet
 facet normal -0.10860726955737135 -7.9295869389444291e-06 -0.99408473528991181
  outer loop
   vertex -3.0056934356689453 21.891267776489258 -28.740581512451172
   vertex -5.0024452209472656 21.789402008056641 -28.522428512573242
   vertex -4.7664728164672852 21.891267776489258 -28.548210144042969
  endloop
 endfacet
 facet normal -0.10860726956069298 -1.307961028004839e-06 -0.99408473532031483
  outer loop
   vertex -3.0056934356689453 21.891267776489258 -28.740581512451172
   vertex -4.7664728164672852 21.891267776489258 -28.548210144042969
   vertex -3.2506999969482422 21.968597412109375 -28.713813781738281
  endloop
 endfacet
 facet normal -0.10860742686899794 1.812316587922674e-06 -0.99408471813302246
  outer loop
   vertex -3.2506999969482422 21.968597412109375 -28.713813781738281
   vertex -4.7664728164672852 21.891267776489258 -28.548210144042969
   vertex -4.5214662551879883 21.968597412109375 -28.574977874755859
  endloop
 endfacet
 facet normal -0.10860742685325027 1.7125336927090787e-05 -0.99408471798888398
  outer loop
   vertex -3.2506999969482422 21.968597412109375 -28.713813781738281
   vertex -4.5214662551879883 21.968597412109375 -28.574977874755859
   vertex -3.5022263526916504 22.020595550537109 -28.686332702636719
  endloop
 endfacet
 facet normal -0.10860764165691103 2.1386238331501159e-05 -0.99408469443823189
  outer loop
   vertex -3.5022263526916504 22.020595550537109 -28.686332702636719
   vertex -4.5214662551879883 21.968597412109375 -28.574977874755859
   vertex -4.2699394226074219 22.020595550537109 -28.602457046508789
  endloop
 endfacet
 facet normal -0.10860764167225945 -1.3218595087061271e-05 -0.99408469457871584
  outer loop
   vertex -3.5022263526916504 22.020595550537109 -28.686332702636719
   vertex -4.2699394226074219 22.020595550537109 -28.602457046508789
   vertex -3.7576916217803955 22.046726226806641 -28.658422470092773
  endloop
 endfacet
 facet normal -0.10860290313301363 -0.00010720623468784682 -0.99408520657834176
  outer loop
   vertex -3.7576916217803955 22.046726226806641 -28.658422470092773
   vertex -4.2699394226074219 22.020595550537109 -28.602457046508789
   vertex -4.0144743919372559 22.046726226806641 -28.630369186401367
  endloop
 endfacet
 facet normal -0.10860867517860419 0 -0.99408458175144665
  outer loop
   vertex -6.4209985733032227 19.5 -28.36744499206543
   vertex -4.7664728164672852 2.1087322235107422 -28.548210144042969
   vertex -6.4209985733032227 4.5 -28.36744499206543
  endloop
 endfacet
 facet normal -0.10861149429008138 -1.97383567688764e-06 -0.99408427374351904
  outer loop
   vertex -6.4209985733032227 4.5 -28.36744499206543
   vertex -4.7664728164672852 2.1087322235107422 -28.548210144042969
   vertex -5.0024452209472656 2.2105979919433594 -28.522428512573242
  endloop
 endfacet
 facet normal -0.10861439088754091 -3.7900427296100624e-06 -0.99408395725801957
  outer loop
   vertex -6.4209985733032227 4.5 -28.36744499206543
   vertex -5.0024452209472656 2.2105979919433594 -28.522428512573242
   vertex -5.2269620895385742 2.3359575271606445 -28.497898101806641
  endloop
 endfacet
 facet normal -0.10860275849791488 2.704880760219962e-06 -0.99408522815668432
  outer loop
   vertex -5.2269620895385742 2.3359575271606445 -28.497898101806641
   vertex -5.4377202987670898 2.4835214614868164 -28.474872589111328
   vertex -6.4209985733032227 4.5 -28.36744499206543
  endloop
 endfacet
 facet normal -0.10860243688511245 2.8635779061239939e-06 -0.99408526329204527
  outer loop
   vertex -6.4209985733032227 4.5 -28.36744499206543
   vertex -5.4377202987670898 2.4835214614868164 -28.474872589111328
   vertex -5.6325559616088867 2.6517782211303711 -28.453586578369141
  endloop
 endfacet
 facet normal -0.10861048229792279 -6.095241992006448e-07 -0.99408438431284141
  outer loop
   vertex -6.4209985733032227 4.5 -28.36744499206543
   vertex -5.6325559616088867 2.6517782211303711 -28.453586578369141
   vertex -5.8094711303710938 2.8389997482299805 -28.434257507324219
  endloop
 endfacet
 facet normal -0.10860122236209267 2.8403829607891539e-06 -0.99408539597631718
  outer loop
   vertex -5.8094711303710938 2.8389997482299805 -28.434257507324219
   vertex -5.966649055480957 3.0432662963867188 -28.417085647583008
   vertex -6.4209985733032227 4.5 -28.36744499206543
  endloop
 endfacet
 facet normal -0.10862298505076741 -4.0283403595838213e-06 -0.99408301821449141
  outer loop
   vertex -6.4209985733032227 4.5 -28.36744499206543
   vertex -5.966649055480957 3.0432662963867188 -28.417085647583008
   vertex -6.10247802734375 3.2624797821044922 -28.402244567871094
  endloop
 endfacet
 facet normal -0.10858637985048661 5.5057882321743375e-06 -0.99408701735846661
  outer loop
   vertex -6.4209985733032227 4.5 -28.36744499206543
   vertex -6.10247802734375 3.2624797821044922 -28.402244567871094
   vertex -6.2155637741088867 3.4943923950195312 -28.389890670776367
  endloop
 endfacet
 facet normal -0.10862996664761537 -3.5048160525254244e-06 -0.99408225531585381
  outer loop
   vertex -6.2155637741088867 3.4943923950195312 -28.389890670776367
   vertex -6.3047456741333008 3.7366237640380859 -28.380146026611328
   vertex -6.4209985733032227 4.5 -28.36744499206543
  endloop
 endfacet
 facet normal -0.1086244123936658 -2.6488726484397787e-06 -0.99408286225299858
  outer loop
   vertex -6.4209985733032227 4.5 -28.36744499206543
   vertex -6.3047456741333008 3.7366237640380859 -28.380146026611328
   vertex -6.3691091537475586 3.9866886138916016 -28.373113632202148
  endloop
 endfacet
 facet normal -0.10858195948667987 1.6938083519564854e-06 -0.99408750020869097
  outer loop
   vertex -6.4209985733032227 4.5 -28.36744499206543
   vertex -6.3691091537475586 3.9866886138916016 -28.373113632202148
   vertex -6.4079933166503906 4.2420206069946289 -28.368865966796875
  endloop
 endfacet
endsolid
