solid Visualization Toolkit generated SLA File
 facet normal -0.99528934300012639 0 -0.096949077924323945
  outer loop
   vertex 0.77721047401428223 7.5 -28.961702346801758
   vertex 0.77721047401428223 -7.5 -28.961702346801758
   vertex 0.19551610946655273 7.5 -22.989967346191406
  endloop
 endfacet
 facet normal -0.99528934300012639 0 -0.096949077924323945
  outer loop
   vertex 0.19551610946655273 7.5 -22.989967346191406
   vertex 0.77721047401428223 -7.5 -28.961702346801758
   vertex 0.19551610946655273 -7.5 -22.989967346191406
  endloop
 endfacet
 facet normal 0.99401184346869853 0.050650290686466863 0.096824599649758966
  outer loop
   vertex 5.2714920043945312 7.5 -22.495527267456055
   vertex 5.8531861305236816 7.5 -28.467262268066406
   vertex 5.2584700584411621 7.7579803466796875 -22.496795654296875
  endloop
 endfacet
 facet normal 0.99401184346869853 0.050650290686466863 0.096824599649758966
  outer loop
   vertex 5.2584700584411621 7.7579803466796875 -22.496795654296875
   vertex 5.8531861305236816 7.5 -28.467262268066406
   vertex 5.8401641845703125 7.7579803466796875 -28.468530654907227
  endloop
 endfacet
 facet normal 0.9838118121749041 0.15142896270925871 0.095831036089197866
  outer loop
   vertex 5.2584700584411621 7.7579803466796875 -22.496795654296875
   vertex 5.8401641845703125 7.7579803466796875 -28.468530654907227
   vertex 5.219538688659668 8.0133113861083984 -22.500587463378906
  endloop
 endfacet
 facet normal 0.98381197461497361 0.15142786699850394 0.095831099860484298
  outer loop
   vertex 5.219538688659668 8.0133113861083984 -22.500587463378906
   vertex 5.8401641845703125 7.7579803466796875 -28.468530654907227
   vertex 5.8012332916259766 8.0133113861083984 -28.472324371337891
  endloop
 endfacet
 facet normal 0.96351735197420918 0.2506505408369778 0.093854242433353385
  outer loop
   vertex 5.219538688659668 8.0133113861083984 -22.500587463378906
   vertex 5.8012332916259766 8.0133113861083984 -28.472324371337891
   vertex 5.1550979614257812 8.2633762359619141 -22.506864547729492
  endloop
 endfacet
 facet normal 0.96351708567463912 0.25065159180434332 0.093854169534436968
  outer loop
   vertex 5.1550979614257812 8.2633762359619141 -22.506864547729492
   vertex 5.8012332916259766 8.0133113861083984 -28.472324371337891
   vertex 5.7367920875549316 8.2633762359619141 -28.478599548339844
  endloop
 endfacet
 facet normal 0.93333399299504094 0.34730719009779287 0.09091409806134923
  outer loop
   vertex 5.1550979614257812 8.2633762359619141 -22.506864547729492
   vertex 5.7367920875549316 8.2633762359619141 -28.478599548339844
   vertex 5.0658073425292969 8.5056076049804688 -22.515562057495117
  endloop
 endfacet
 facet normal 0.9333345813657824 0.34730557442777127 0.090914229899150753
  outer loop
   vertex 5.0658073425292969 8.5056076049804688 -22.515562057495117
   vertex 5.7367920875549316 8.2633762359619141 -28.478599548339844
   vertex 5.6475019454956055 8.5056076049804688 -28.487297058105469
  endloop
 endfacet
 facet normal 0.89357622146295745 0.44039223727734644 0.087041448642798683
  outer loop
   vertex 5.0658073425292969 8.5056076049804688 -22.515562057495117
   vertex 5.6475019454956055 8.5056076049804688 -28.487297058105469
   vertex 4.9525852203369141 8.7375202178955078 -22.526590347290039
  endloop
 endfacet
 facet normal 0.89357594243495342 0.44039281430418786 0.08704139366256812
  outer loop
   vertex 4.9525852203369141 8.7375202178955078 -22.526590347290039
   vertex 5.6475019454956055 8.5056076049804688 -28.487297058105469
   vertex 5.5342798233032227 8.7375202178955078 -28.498327255249023
  endloop
 endfacet
 facet normal 0.84464526038429455 0.52896614514896301 0.082275156618468889
  outer loop
   vertex 4.9525852203369141 8.7375202178955078 -22.526590347290039
   vertex 5.5342798233032227 8.7375202178955078 -28.498327255249023
   vertex 4.8165912628173828 8.9567337036132812 -22.539836883544922
  endloop
 endfacet
 facet normal 0.84464526038429455 0.52896614514896301 0.082275156618468889
  outer loop
   vertex 4.8165912628173828 8.9567337036132812 -22.539836883544922
   vertex 5.5342798233032227 8.7375202178955078 -28.498327255249023
   vertex 5.3982858657836914 8.9567337036132812 -28.511573791503906
  endloop
 endfacet
 facet normal 0.78705033048035045 0.61210641417080247 0.076664953021137655
  outer loop
   vertex 4.8165912628173828 8.9567337036132812 -22.539836883544922
   vertex 5.3982858657836914 8.9567337036132812 -28.511573791503906
   vertex 4.6592226028442383 9.1609992980957031 -22.555166244506836
  endloop
 endfacet
 facet normal 0.78705033048035045 0.61210641417080247 0.076664953021137655
  outer loop
   vertex 4.6592226028442383 9.1609992980957031 -22.555166244506836
   vertex 5.3982858657836914 8.9567337036132812 -28.511573791503906
   vertex 5.2409172058105469 9.1609992980957031 -28.52690315246582
  endloop
 endfacet
 facet normal 0.72137889425393764 0.68896654083059383 0.070268033563577928
  outer loop
   vertex 4.6592226028442383 9.1609992980957031 -22.555166244506836
   vertex 5.2409172058105469 9.1609992980957031 -28.52690315246582
   vertex 4.4820938110351562 9.3482208251953125 -22.572420120239258
  endloop
 endfacet
 facet normal 0.7213779866684833 0.68896750600337364 0.070267887556243191
  outer loop
   vertex 4.4820938110351562 9.3482208251953125 -22.572420120239258
   vertex 5.2409172058105469 9.1609992980957031 -28.52690315246582
   vertex 5.0637879371643066 9.3482208251953125 -28.544157028198242
  endloop
 endfacet
 facet normal 0.64830885740764432 0.75875401476895488 0.063150379878409366
  outer loop
   vertex 4.4820938110351562 9.3482208251953125 -22.572420120239258
   vertex 5.0637879371643066 9.3482208251953125 -28.544157028198242
   vertex 4.2870216369628906 9.5164794921875 -22.591421127319336
  endloop
 endfacet
 facet normal 0.64830885740764432 0.75875401476895488 0.063150379878409366
  outer loop
   vertex 4.2870216369628906 9.5164794921875 -22.591421127319336
   vertex 5.0637879371643066 9.3482208251953125 -28.544157028198242
   vertex 4.868715763092041 9.5164794921875 -28.56315803527832
  endloop
 endfacet
 facet normal 0.56857490766092322 0.82076502355255787 0.055383666284759693
  outer loop
   vertex 4.2870216369628906 9.5164794921875 -22.591421127319336
   vertex 4.868715763092041 9.5164794921875 -28.56315803527832
   vertex 4.0760083198547363 9.6640434265136719 -22.611976623535156
  endloop
 endfacet
 facet normal 0.56857524002470006 0.82076478993328827 0.055383716348939842
  outer loop
   vertex 4.0760083198547363 9.6640434265136719 -22.611976623535156
   vertex 4.868715763092041 9.5164794921875 -28.56315803527832
   vertex 4.6577024459838867 9.6640434265136719 -28.583711624145508
  endloop
 endfacet
 facet normal 0.48301519348127686 0.87434699526308313 0.047049492459139114
  outer loop
   vertex 4.0760083198547363 9.6640434265136719 -22.611976623535156
   vertex 4.6577024459838867 9.6640434265136719 -28.583711624145508
   vertex 3.8512189388275146 9.7894020080566406 -22.633872985839844
  endloop
 endfacet
 facet normal 0.48301557958476166 0.87434677890645474 0.047049549352825334
  outer loop
   vertex 3.8512189388275146 9.7894020080566406 -22.633872985839844
   vertex 4.6577024459838867 9.6640434265136719 -28.583711624145508
   vertex 4.4329133033752441 9.7894020080566406 -28.605607986450195
  endloop
 endfacet
 facet normal 0.39249640506783173 0.91895857688242333 0.038232263640276321
  outer loop
   vertex 3.8512189388275146 9.7894020080566406 -22.633872985839844
   vertex 4.4329133033752441 9.7894020080566406 -28.605607986450195
   vertex 3.6149604320526123 9.8912677764892578 -22.656885147094727
  endloop
 endfacet
 facet normal 0.39249614804201577 0.91895868821032278 0.038232226392700297
  outer loop
   vertex 3.6149604320526123 9.8912677764892578 -22.656885147094727
   vertex 4.4329133033752441 9.7894020080566406 -28.605607986450195
   vertex 4.1966547966003418 9.8912677764892578 -28.628622055053711
  endloop
 endfacet
 facet normal 0.29795610978273923 0.95413825302454391 0.029023279594281557
  outer loop
   vertex 3.6149604320526123 9.8912677764892578 -22.656885147094727
   vertex 4.1966547966003418 9.8912677764892578 -28.628622055053711
   vertex 3.369657039642334 9.968597412109375 -22.680780410766602
  endloop
 endfacet
 facet normal 0.29795610978273923 0.95413825302454391 0.029023279594281557
  outer loop
   vertex 3.369657039642334 9.968597412109375 -22.680780410766602
   vertex 4.1966547966003418 9.8912677764892578 -28.628622055053711
   vertex 3.9513514041900635 9.968597412109375 -28.652517318725586
  endloop
 endfacet
 facet normal 0.20035229980576963 0.97952952263739024 0.019515897220097996
  outer loop
   vertex 3.369657039642334 9.968597412109375 -22.680780410766602
   vertex 3.9513514041900635 9.968597412109375 -28.652517318725586
   vertex 3.1178257465362549 10.020595550537109 -22.705310821533203
  endloop
 endfacet
 facet normal 0.20035229980576963 0.97952952263739024 0.019515897220097996
  outer loop
   vertex 3.1178257465362549 10.020595550537109 -22.705310821533203
   vertex 3.9513514041900635 9.968597412109375 -28.652517318725586
   vertex 3.6995201110839844 10.020595550537109 -28.677047729492188
  endloop
 endfacet
 facet normal 0.10068348421356893 0.99487016819257212 0.0098073669809543434
  outer loop
   vertex 3.1178257465362549 10.020595550537109 -22.705310821533203
   vertex 3.6995201110839844 10.020595550537109 -28.677047729492188
   vertex 2.8620510101318359 10.046726226806641 -22.730224609375
  endloop
 endfacet
 facet normal 0.10068348421356893 0.99487016819257212 0.0098073669809543434
  outer loop
   vertex 2.8620510101318359 10.046726226806641 -22.730224609375
   vertex 3.6995201110839844 10.020595550537109 -28.677047729492188
   vertex 3.4437453746795654 10.046726226806641 -28.701961517333984
  endloop
 endfacet
 facet normal 0 1 0
  outer loop
   vertex 2.8620510101318359 10.046726226806641 -22.730224609375
   vertex 3.4437453746795654 10.046726226806641 -28.701961517333984
   vertex 2.6049568653106689 10.046726226806641 -22.755268096923828
  endloop
 endfacet
 facet normal 0 1 0
  outer loop
   vertex 2.6049568653106689 10.046726226806641 -22.755268096923828
   vertex 3.4437453746795654 10.046726226806641 -28.701961517333984
   vertex 3.1866512298583984 10.046726226806641 -28.727005004882812
  endloop
 endfacet
 facet normal -0.10068348421356893 0.99487016819257212 -0.0098073669809543434
  outer loop
   vertex 2.6049568653106689 10.046726226806641 -22.755268096923828
   vertex 3.1866512298583984 10.046726226806641 -28.727005004882812
   vertex 2.34918212890625 10.020595550537109 -22.780181884765625
  endloop
 endfacet
 facet normal -0.10068348421356893 0.99487016819257212 -0.0098073669809543434
  outer loop
   vertex 2.34918212890625 10.020595550537109 -22.780181884765625
   vertex 3.1866512298583984 10.046726226806641 -28.727005004882812
   vertex 2.9308764934539795 10.020595550537109 -28.751918792724609
  endloop
 endfacet
 facet normal -0.20035229980576963 0.97952952263739024 -0.019515897220097996
  outer loop
   vertex 2.34918212890625 10.020595550537109 -22.780181884765625
   vertex 2.9308764934539795 10.020595550537109 -28.751918792724609
   vertex 2.0973508358001709 9.968597412109375 -22.804712295532227
  endloop
 endfacet
 facet normal -0.20035229980576963 0.97952952263739024 -0.019515897220097996
  outer loop
   vertex 2.0973508358001709 9.968597412109375 -22.804712295532227
   vertex 2.9308764934539795 10.020595550537109 -28.751918792724609
   vertex 2.6790452003479004 9.968597412109375 -28.776449203491211
  endloop
 endfacet
 facet normal -0.29795610978273923 0.95413825302454391 -0.029023279594281557
  outer loop
   vertex 2.0973508358001709 9.968597412109375 -22.804712295532227
   vertex 2.6790452003479004 9.968597412109375 -28.776449203491211
   vertex 1.8520474433898926 9.8912677764892578 -22.828607559204102
  endloop
 endfacet
 facet normal -0.29795610978273923 0.95413825302454391 -0.029023279594281557
  outer loop
   vertex 1.8520474433898926 9.8912677764892578 -22.828607559204102
   vertex 2.6790452003479004 9.968597412109375 -28.776449203491211
   vertex 2.4337418079376221 9.8912677764892578 -28.800344467163086
  endloop
 endfacet
 facet normal -0.39249631371389038 0.91895861677885149 -0.038232242530450052
  outer loop
   vertex 1.8520474433898926 9.8912677764892578 -22.828607559204102
   vertex 2.4337418079376221 9.8912677764892578 -28.800344467163086
   vertex 1.6157890558242798 9.7894020080566406 -22.851621627807617
  endloop
 endfacet
 facet normal -0.392496405823825 0.91895857688243876 -0.038232255878803204
  outer loop
   vertex 1.6157890558242798 9.7894020080566406 -22.851621627807617
   vertex 2.4337418079376221 9.8912677764892578 -28.800344467163086
   vertex 2.1974833011627197 9.7894020080566406 -28.823356628417969
  endloop
 endfacet
 facet normal -0.48301519255088748 0.87434699526308501 -0.047049502010583694
  outer loop
   vertex 1.6157890558242798 9.7894020080566406 -22.851621627807617
   vertex 2.1974833011627197 9.7894020080566406 -28.823356628417969
   vertex 1.3909996747970581 9.6640434265136719 -22.873517990112305
  endloop
 endfacet
 facet normal -0.48301538560256391 0.87434688708483588 -0.047049530457420365
  outer loop
   vertex 1.3909996747970581 9.6640434265136719 -22.873517990112305
   vertex 2.1974833011627197 9.7894020080566406 -28.823356628417969
   vertex 1.9726940393447876 9.6640434265136719 -28.845252990722656
  endloop
 endfacet
 facet normal -0.56857523783437036 0.82076478993324964 -0.055383738835670819
  outer loop
   vertex 1.3909996747970581 9.6640434265136719 -22.873517990112305
   vertex 1.9726940393447876 9.6640434265136719 -28.845252990722656
   vertex 1.1799863576889038 9.5164794921875 -22.894071578979492
  endloop
 endfacet
 facet normal -0.56857490547046008 0.82076502355261438 -0.055383688771457218
  outer loop
   vertex 1.1799863576889038 9.5164794921875 -22.894071578979492
   vertex 1.9726940393447876 9.6640434265136719 -28.845252990722656
   vertex 1.7616807222366333 9.5164794921875 -28.865808486938477
  endloop
 endfacet
 facet normal -0.64830908085249606 0.75875381988319202 -0.063150427527107228
  outer loop
   vertex 1.1799863576889038 9.5164794921875 -22.894071578979492
   vertex 1.7616807222366333 9.5164794921875 -28.865808486938477
   vertex 0.98491430282592773 9.3482208251953125 -22.91307258605957
  endloop
 endfacet
 facet normal -0.64830908085249606 0.75875381988319202 -0.063150427527107228
  outer loop
   vertex 0.98491430282592773 9.3482208251953125 -22.91307258605957
   vertex 1.7616807222366333 9.5164794921875 -28.865808486938477
   vertex 1.5666086673736572 9.3482208251953125 -28.884809494018555
  endloop
 endfacet
 facet normal -0.72137798388943442 0.68896750600338075 -0.070267916086193552
  outer loop
   vertex 0.98491430282592773 9.3482208251953125 -22.91307258605957
   vertex 1.5666086673736572 9.3482208251953125 -28.884809494018555
   vertex 0.8077850341796875 9.1609992980957031 -22.930326461791992
  endloop
 endfacet
 facet normal -0.72137821078570197 0.68896726471052883 -0.070267952588013285
  outer loop
   vertex 0.8077850341796875 9.1609992980957031 -22.930326461791992
   vertex 1.5666086673736572 9.3482208251953125 -28.884809494018555
   vertex 1.3894795179367065 9.1609992980957031 -28.902063369750977
  endloop
 endfacet
 facet normal -0.78705033199638541 0.61210641417078304 -0.076664937457518068
  outer loop
   vertex 0.8077850341796875 9.1609992980957031 -22.930326461791992
   vertex 1.3894795179367065 9.1609992980957031 -28.902063369750977
   vertex 0.65041637420654297 8.9567337036132812 -22.945655822753906
  endloop
 endfacet
 facet normal -0.7870501122300565 0.61210670139660206 -0.076664900339247555
  outer loop
   vertex 0.65041637420654297 8.9567337036132812 -22.945655822753906
   vertex 1.3894795179367065 9.1609992980957031 -28.902063369750977
   vertex 1.2321107387542725 8.9567337036132812 -28.917392730712891
  endloop
 endfacet
 facet normal -0.8446456740778755 0.52896548354596951 -0.082275163193457443
  outer loop
   vertex 0.65041637420654297 8.9567337036132812 -22.945655822753906
   vertex 1.2321107387542725 8.9567337036132812 -28.917392730712891
   vertex 0.51442265510559082 8.7375202178955078 -22.958902359008789
  endloop
 endfacet
 facet normal -0.84464587767072563 0.52896515274407441 -0.082275199886039846
  outer loop
   vertex 0.51442265510559082 8.7375202178955078 -22.958902359008789
   vertex 1.2321107387542725 8.9567337036132812 -28.917392730712891
   vertex 1.0961171388626099 8.7375202178955078 -28.930639266967773
  endloop
 endfacet
 facet normal -0.89357558264723791 0.44039355478039316 -0.087041340778610296
  outer loop
   vertex 0.51442265510559082 8.7375202178955078 -22.958902359008789
   vertex 1.0961171388626099 8.7375202178955078 -28.930639266967773
   vertex 0.40120029449462891 8.5056076049804688 -22.969932556152344
  endloop
 endfacet
 facet normal -0.89357568264215137 0.44039334799255636 -0.087041360481786956
  outer loop
   vertex 0.40120029449462891 8.5056076049804688 -22.969932556152344
   vertex 1.0961171388626099 8.7375202178955078 -28.930639266967773
   vertex 0.9828946590423584 8.5056076049804688 -28.941667556762695
  endloop
 endfacet
 facet normal -0.93333458496136856 0.34730557442777937 -0.090914192986465817
  outer loop
   vertex 0.40120029449462891 8.5056076049804688 -22.969932556152344
   vertex 0.9828946590423584 8.5056076049804688 -28.941667556762695
   vertex 0.31191015243530273 8.2633762359619141 -22.978630065917969
  endloop
 endfacet
 facet normal -0.93333458496136856 0.34730557442777937 -0.090914192986465817
  outer loop
   vertex 0.31191015243530273 8.2633762359619141 -22.978630065917969
   vertex 0.9828946590423584 8.5056076049804688 -28.941667556762695
   vertex 0.89360451698303223 8.2633762359619141 -28.95036506652832
  endloop
 endfacet
 facet normal -0.96351708196284636 0.25065159180407115 -0.093854207640824056
  outer loop
   vertex 0.31191015243530273 8.2633762359619141 -22.978630065917969
   vertex 0.89360451698303223 8.2633762359619141 -28.95036506652832
   vertex 0.24746894836425781 8.0133113861083984 -22.984905242919922
  endloop
 endfacet
 facet normal -0.96351691196867073 0.25065226269387647 -0.093854161105393422
  outer loop
   vertex 0.24746894836425781 8.0133113861083984 -22.984905242919922
   vertex 0.89360451698303223 8.2633762359619141 -28.95036506652832
   vertex 0.8291633129119873 8.0133113861083984 -28.956642150878906
  endloop
 endfacet
 facet normal -0.98381184154783108 0.15142876457999463 -0.095831047620497031
  outer loop
   vertex 0.24746894836425781 8.0133113861083984 -22.984905242919922
   vertex 0.8291633129119873 8.0133113861083984 -28.956642150878906
   vertex 0.20853781700134277 7.7579803466796875 -22.988698959350586
  endloop
 endfacet
 facet normal -0.98381194524226057 0.15142806512756257 -0.095831088329216177
  outer loop
   vertex 0.20853781700134277 7.7579803466796875 -22.988698959350586
   vertex 0.8291633129119873 8.0133113861083984 -28.956642150878906
   vertex 0.79023218154907227 7.7579803466796875 -28.960433959960938
  endloop
 endfacet
 facet normal -0.99401188588966483 0.050649374403799109 -0.096824643467330967
  outer loop
   vertex 0.20853781700134277 7.7579803466796875 -22.988698959350586
   vertex 0.79023218154907227 7.7579803466796875 -28.960433959960938
   vertex 0.19551610946655273 7.5 -22.989967346191406
  endloop
 endfacet
 facet normal -0.99401188588966483 0.050649374403799109 -0.096824643467330967
  outer loop
   vertex 0.19551610946655273 7.5 -22.989967346191406
   vertex 0.79023218154907227 7.7579803466796875 -28.960433959960938
   vertex 0.77721047401428223 7.5 -28.961702346801758
  endloop
 endfacet
 facet normal 0.9952893468343893 0 0.096949038561374531
  outer loop
   vertex 5.8531861305236816 -7.5 -28.467262268066406
   vertex 5.8531861305236816 7.5 -28.467262268066406
   vertex 5.2714920043945312 -7.5 -22.495527267456055
  endloop
 endfacet
 facet normal 0.9952893468343893 0 0.096949038561374531
  outer loop
   vertex 5.2714920043945312 -7.5 -22.495527267456055
   vertex 5.8531861305236816 7.5 -28.467262268066406
   vertex 5.2714920043945312 7.5 -22.495527267456055
  endloop
 endfacet
 facet normal -0.99401187646305311 -0.050649561159383363 -0.096824642549104209
  outer loop
   vertex 0.19551610946655273 -7.5 -22.989967346191406
   vertex 0.77721047401428223 -7.5 -28.961702346801758
   vertex 0.20853781700134277 -7.7579793930053711 -22.988698959350586
  endloop
 endfacet
 facet normal -0.99401187646305311 -0.050649561159383363 -0.096824642549104209
  outer loop
   vertex 0.20853781700134277 -7.7579793930053711 -22.988698959350586
   vertex 0.77721047401428223 -7.5 -28.961702346801758
   vertex 0.79023218154907227 -7.7579793930053711 -28.960433959960938
  endloop
 endfacet
 facet normal -0.98381192285464025 -0.15142821195753828 -0.095831086148484346
  outer loop
   vertex 0.20853781700134277 -7.7579793930053711 -22.988698959350586
   vertex 0.79023218154907227 -7.7579793930053711 -28.960433959960938
   vertex 0.24746894836425781 -8.0133113861083984 -22.984905242919922
  endloop
 endfacet
 facet normal -0.98381203245520932 -0.15142751250740849 -0.09583106621638425
  outer loop
   vertex 0.24746894836425781 -8.0133113861083984 -22.984905242919922
   vertex 0.79023218154907227 -7.7579793930053711 -28.960433959960938
   vertex 0.8291633129119873 -8.0133113861083984 -28.956642150878906
  endloop
 endfacet
 facet normal -0.96351708485531018 -0.25065159180428331 -0.093854177945918285
  outer loop
   vertex 0.24746894836425781 -8.0133113861083984 -22.984905242919922
   vertex 0.8291633129119873 -8.0133113861083984 -28.956642150878906
   vertex 0.31191015243530273 -8.2633762359619141 -22.978630065917969
  endloop
 endfacet
 facet normal -0.96351690907615262 -0.25065226269387653 -0.09385419080028852
  outer loop
   vertex 0.31191015243530273 -8.2633762359619141 -22.978630065917969
   vertex 0.8291633129119873 -8.0133113861083984 -28.956642150878906
   vertex 0.89360451698303223 -8.2633762359619141 -28.95036506652832
  endloop
 endfacet
 facet normal -0.93333458496136856 -0.34730557442777937 -0.090914192986465817
  outer loop
   vertex 0.31191015243530273 -8.2633762359619141 -22.978630065917969
   vertex 0.89360451698303223 -8.2633762359619141 -28.95036506652832
   vertex 0.40120029449462891 -8.5056076049804688 -22.969932556152344
  endloop
 endfacet
 facet normal -0.93333458496136856 -0.34730557442777937 -0.090914192986465817
  outer loop
   vertex 0.40120029449462891 -8.5056076049804688 -22.969932556152344
   vertex 0.89360451698303223 -8.2633762359619141 -28.95036506652832
   vertex 0.9828946590423584 -8.5056076049804688 -28.941667556762695
  endloop
 endfacet
 facet normal -0.89357558168587192 -0.44039355478044262 -0.08704135064784442
  outer loop
   vertex 0.40120029449462891 -8.5056076049804688 -22.969932556152344
   vertex 0.9828946590423584 -8.5056076049804688 -28.941667556762695
   vertex 0.51442265510559082 -8.7375202178955078 -22.958902359008789
  endloop
 endfacet
 facet normal -0.89357568360348527 -0.44039334799257268 -0.087041350612548585
  outer loop
   vertex 0.51442265510559082 -8.7375202178955078 -22.958902359008789
   vertex 0.9828946590423584 -8.5056076049804688 -28.941667556762695
   vertex 1.0961171388626099 -8.7375202178955078 -28.930639266967773
  endloop
 endfacet
 facet normal -0.84464567245092637 -0.52896548354595152 -0.082275179896005621
  outer loop
   vertex 0.51442265510559082 -8.7375202178955078 -22.958902359008789
   vertex 1.0961171388626099 -8.7375202178955078 -28.930639266967773
   vertex 0.65041637420654297 -8.9567337036132812 -22.945655822753906
  endloop
 endfacet
 facet normal -0.84464587929767543 -0.52896515274409173 -0.082275183183487643
  outer loop
   vertex 0.65041637420654297 -8.9567337036132812 -22.945655822753906
   vertex 1.0961171388626099 -8.7375202178955078 -28.930639266967773
   vertex 1.2321107387542725 -8.9567337036132812 -28.917392730712891
  endloop
 endfacet
 facet normal -0.78705171027587906 -0.61210462711867719 -0.076665056001538709
  outer loop
   vertex 0.65041637420654297 -8.9567337036132812 -22.945655822753906
   vertex 1.2321107387542725 -8.9567337036132812 -28.917392730712891
   vertex 0.8077850341796875 -9.1610002517700195 -22.930326461791992
  endloop
 endfacet
 facet normal -0.78705148747838338 -0.61210491434470071 -0.07666505001061856
  outer loop
   vertex 0.8077850341796875 -9.1610002517700195 -22.930326461791992
   vertex 1.2321107387542725 -8.9567337036132812 -28.917392730712891
   vertex 1.3894795179367065 -9.1610002517700195 -28.902063369750977
  endloop
 endfacet
 facet normal -0.7213779824999097 -0.68896750600338397 -0.070267930351168614
  outer loop
   vertex 0.8077850341796875 -9.1610002517700195 -22.930326461791992
   vertex 1.3894795179367065 -9.1610002517700195 -28.902063369750977
   vertex 0.98491430282592773 -9.3482217788696289 -22.91307258605957
  endloop
 endfacet
 facet normal -0.72137821217522746 -0.68896726471052494 -0.070267938323033741
  outer loop
   vertex 0.98491430282592773 -9.3482217788696289 -22.91307258605957
   vertex 1.3894795179367065 -9.1610002517700195 -28.902063369750977
   vertex 1.5666086673736572 -9.3482217788696289 -28.884809494018555
  endloop
 endfacet
 facet normal -0.64830484988530623 -0.7587574692683362 -0.063150015397469103
  outer loop
   vertex 0.98491430282592773 -9.3482217788696289 -22.91307258605957
   vertex 1.5666086673736572 -9.3482217788696289 -28.884809494018555
   vertex 1.1799863576889038 -9.5164785385131836 -22.894071578979492
  endloop
 endfacet
 facet normal -0.64830484988530623 -0.7587574692683362 -0.063150015397469103
  outer loop
   vertex 1.1799863576889038 -9.5164785385131836 -22.894071578979492
   vertex 1.5666086673736572 -9.3482217788696289 -28.884809494018555
   vertex 1.7616807222366333 -9.5164785385131836 -28.865808486938477
  endloop
 endfacet
 facet normal -0.56857523954121381 -0.82076478993327984 -0.055383721312588514
  outer loop
   vertex 1.1799863576889038 -9.5164785385131836 -22.894071578979492
   vertex 1.7616807222366333 -9.5164785385131836 -28.865808486938477
   vertex 1.3909996747970581 -9.6640424728393555 -22.873517990112305
  endloop
 endfacet
 facet normal -0.56857490376351205 -0.82076502355265812 -0.055383706294518935
  outer loop
   vertex 1.3909996747970581 -9.6640424728393555 -22.873517990112305
   vertex 1.7616807222366333 -9.5164785385131836 -28.865808486938477
   vertex 1.9726940393447876 -9.6640424728393555 -28.845252990722656
  endloop
 endfacet
 facet normal -0.48301800075985374 -0.87434542868085419 -0.047049785194487187
  outer loop
   vertex 1.3909996747970581 -9.6640424728393555 -22.873517990112305
   vertex 1.9726940393447876 -9.6640424728393555 -28.845252990722656
   vertex 1.6157890558242798 -9.7894020080566406 -22.851621627807617
  endloop
 endfacet
 facet normal -0.48301819567274834 -0.87434532050153702 -0.047049794538417622
  outer loop
   vertex 1.6157890558242798 -9.7894020080566406 -22.851621627807617
   vertex 1.9726940393447876 -9.6640424728393555 -28.845252990722656
   vertex 2.1974833011627197 -9.7894020080566406 -28.823356628417969
  endloop
 endfacet
 facet normal -0.39249631329161894 -0.91895861677885582 -0.03823224686543409
  outer loop
   vertex 1.6157890558242798 -9.7894020080566406 -22.851621627807617
   vertex 2.1974833011627197 -9.7894020080566406 -28.823356628417969
   vertex 1.8520474433898926 -9.8912677764892578 -22.828607559204102
  endloop
 endfacet
 facet normal -0.39249640624606713 -0.91895857688244709 -0.038232251543815272
  outer loop
   vertex 1.8520474433898926 -9.8912677764892578 -22.828607559204102
   vertex 2.1974833011627197 -9.7894020080566406 -28.823356628417969
   vertex 2.4337418079376221 -9.8912677764892578 -28.800344467163086
  endloop
 endfacet
 facet normal -0.29795276452369213 -0.9541393075798299 -0.029022953739615543
  outer loop
   vertex 1.8520474433898926 -9.8912677764892578 -22.828607559204102
   vertex 2.4337418079376221 -9.8912677764892578 -28.800344467163086
   vertex 2.0973508358001709 -9.9685964584350586 -22.804712295532227
  endloop
 endfacet
 facet normal -0.29795276452369213 -0.9541393075798299 -0.029022953739615543
  outer loop
   vertex 2.0973508358001709 -9.9685964584350586 -22.804712295532227
   vertex 2.4337418079376221 -9.8912677764892578 -28.800344467163086
   vertex 2.6790452003479004 -9.9685964584350586 -28.776449203491211
  endloop
 endfacet
 facet normal -0.20035229980576963 -0.97952952263739024 -0.019515897220097996
  outer loop
   vertex 2.0973508358001709 -9.9685964584350586 -22.804712295532227
   vertex 2.6790452003479004 -9.9685964584350586 -28.776449203491211
   vertex 2.34918212890625 -10.020594596862793 -22.780181884765625
  endloop
 endfacet
 facet normal -0.20035229980576963 -0.97952952263739024 -0.019515897220097996
  outer loop
   vertex 2.34918212890625 -10.020594596862793 -22.780181884765625
   vertex 2.6790452003479004 -9.9685964584350586 -28.776449203491211
   vertex 2.9308764934539795 -10.020594596862793 -28.751918792724609
  endloop
 endfacet
 facet normal -0.10069075815834116 -0.9948694250383211 -0.0098080755206551469
  outer loop
   vertex 2.34918212890625 -10.020594596862793 -22.780181884765625
   vertex 2.9308764934539795 -10.020594596862793 -28.751918792724609
   vertex 2.6049568653106689 -10.046727180480957 -22.755268096923828
  endloop
 endfacet
 facet normal -0.10069075815834116 -0.9948694250383211 -0.0098080755206551469
  outer loop
   vertex 2.6049568653106689 -10.046727180480957 -22.755268096923828
   vertex 2.9308764934539795 -10.020594596862793 -28.751918792724609
   vertex 3.1866512298583984 -10.046727180480957 -28.727005004882812
  endloop
 endfacet
 facet normal 0 -1 0
  outer loop
   vertex 2.6049568653106689 -10.046727180480957 -22.755268096923828
   vertex 3.1866512298583984 -10.046727180480957 -28.727005004882812
   vertex 2.8620510101318359 -10.046727180480957 -22.730224609375
  endloop
 endfacet
 facet normal 0 -1 0
  outer loop
   vertex 2.8620510101318359 -10.046727180480957 -22.730224609375
   vertex 3.1866512298583984 -10.046727180480957 -28.727005004882812
   vertex 3.4437453746795654 -10.046727180480957 -28.701961517333984
  endloop
 endfacet
 facet normal 0.10069075815834116 -0.9948694250383211 0.0098080755206551469
  outer loop
   vertex 2.8620510101318359 -10.046727180480957 -22.730224609375
   vertex 3.4437453746795654 -10.046727180480957 -28.701961517333984
   vertex 3.1178257465362549 -10.020594596862793 -22.705310821533203
  endloop
 endfacet
 facet normal 0.10069075815834116 -0.9948694250383211 0.0098080755206551469
  outer loop
   vertex 3.1178257465362549 -10.020594596862793 -22.705310821533203
   vertex 3.4437453746795654 -10.046727180480957 -28.701961517333984
   vertex 3.6995201110839844 -10.020594596862793 -28.677047729492188
  endloop
 endfacet
 facet normal 0.20035229980576963 -0.97952952263739024 0.019515897220097996
  outer loop
   vertex 3.1178257465362549 -10.020594596862793 -22.705310821533203
   vertex 3.6995201110839844 -10.020594596862793 -28.677047729492188
   vertex 3.369657039642334 -9.9685964584350586 -22.680780410766602
  endloop
 endfacet
 facet normal 0.20035229980576963 -0.97952952263739024 0.019515897220097996
  outer loop
   vertex 3.369657039642334 -9.9685964584350586 -22.680780410766602
   vertex 3.6995201110839844 -10.020594596862793 -28.677047729492188
   vertex 3.9513514041900635 -9.9685964584350586 -28.652517318725586
  endloop
 endfacet
 facet normal 0.29795276452369213 -0.9541393075798299 0.029022953739615543
  outer loop
   vertex 3.369657039642334 -9.9685964584350586 -22.680780410766602
   vertex 3.9513514041900635 -9.9685964584350586 -28.652517318725586
   vertex 3.6149604320526123 -9.8912677764892578 -22.656885147094727
  endloop
 endfacet
 facet normal 0.29795276452369213 -0.9541393075798299 0.029022953739615543
  outer loop
   vertex 3.6149604320526123 -9.8912677764892578 -22.656885147094727
   vertex 3.9513514041900635 -9.9685964584350586 -28.652517318725586
   vertex 4.1966547966003418 -9.8912677764892578 -28.628622055053711
  endloop
 endfacet
 facet normal 0.39249640624606713 -0.91895857688244709 0.038232251543815272
  outer loop
   vertex 3.6149604320526123 -9.8912677764892578 -22.656885147094727
   vertex 4.1966547966003418 -9.8912677764892578 -28.628622055053711
   vertex 3.8512189388275146 -9.7894020080566406 -22.633872985839844
  endloop
 endfacet
 facet normal 0.39249614686369944 -0.91895868821033422 0.038232238489145427
  outer loop
   vertex 3.8512189388275146 -9.7894020080566406 -22.633872985839844
   vertex 4.1966547966003418 -9.8912677764892578 -28.628622055053711
   vertex 4.4329133033752441 -9.7894020080566406 -28.605607986450195
  endloop
 endfacet
 facet normal 0.48301800075985374 -0.87434542868085419 0.047049785194487187
  outer loop
   vertex 3.8512189388275146 -9.7894020080566406 -22.633872985839844
   vertex 4.4329133033752441 -9.7894020080566406 -28.605607986450195
   vertex 4.0760083198547363 -9.6640424728393555 -22.611976623535156
  endloop
 endfacet
 facet normal 0.48301839058577622 -0.87434521232208884 0.047049803882353254
  outer loop
   vertex 4.0760083198547363 -9.6640424728393555 -22.611976623535156
   vertex 4.4329133033752441 -9.7894020080566406 -28.605607986450195
   vertex 4.6577024459838867 -9.6640424728393555 -28.583711624145508
  endloop
 endfacet
 facet normal 0.56857490595397608 -0.82076502355260206 0.055383683807814388
  outer loop
   vertex 4.0760083198547363 -9.6640424728393555 -22.611976623535156
   vertex 4.6577024459838867 -9.6640424728393555 -28.583711624145508
   vertex 4.2870216369628906 -9.5164785385131836 -22.591421127319336
  endloop
 endfacet
 facet normal 0.5685752417315425 -0.82076478993331814 0.055383698825864552
  outer loop
   vertex 4.2870216369628906 -9.5164785385131836 -22.591421127319336
   vertex 4.6577024459838867 -9.6640424728393555 -28.583711624145508
   vertex 4.868715763092041 -9.5164785385131836 -28.56315803527832
  endloop
 endfacet
 facet normal 0.6483046264397393 -0.75875766415249268 0.063149967748870495
  outer loop
   vertex 4.2870216369628906 -9.5164785385131836 -22.591421127319336
   vertex 4.868715763092041 -9.5164785385131836 -28.56315803527832
   vertex 4.4820938110351562 -9.3482217788696289 -22.572420120239258
  endloop
 endfacet
 facet normal 0.6483046264397393 -0.75875766415249268 0.063149967748870495
  outer loop
   vertex 4.4820938110351562 -9.3482217788696289 -22.572420120239258
   vertex 4.868715763092041 -9.5164785385131836 -28.56315803527832
   vertex 5.0637879371643066 -9.3482217788696289 -28.544157028198242
  endloop
 endfacet
 facet normal 0.72137889981204995 -0.68896654083057274 0.070267976503605944
  outer loop
   vertex 4.4820938110351562 -9.3482217788696289 -22.572420120239258
   vertex 5.0637879371643066 -9.3482217788696289 -28.544157028198242
   vertex 4.6592226028442383 -9.1610002517700195 -22.555166244506836
  endloop
 endfacet
 facet normal 0.72137798111038509 -0.6889675060033873 0.070267944616143635
  outer loop
   vertex 4.6592226028442383 -9.1610002517700195 -22.555166244506836
   vertex 5.0637879371643066 -9.3482217788696289 -28.544157028198242
   vertex 5.2409172058105469 -9.1610002517700195 -28.52690315246582
  endloop
 endfacet
 facet normal 0.78705170724380369 -0.61210462711871583 0.076665087128832396
  outer loop
   vertex 4.6592226028442383 -9.1610002517700195 -22.555166244506836
   vertex 5.2409172058105469 -9.1610002517700195 -28.52690315246582
   vertex 4.8165912628173828 -8.9567337036132812 -22.539836883544922
  endloop
 endfacet
 facet normal 0.78705170724380369 -0.61210462711871583 0.076665087128832396
  outer loop
   vertex 4.8165912628173828 -8.9567337036132812 -22.539836883544922
   vertex 5.2409172058105469 -9.1610002517700195 -28.52690315246582
   vertex 5.3982858657836914 -8.9567337036132812 -28.511573791503906
  endloop
 endfacet
 facet normal 0.84464526038429455 -0.52896614514896301 0.082275156618468889
  outer loop
   vertex 4.8165912628173828 -8.9567337036132812 -22.539836883544922
   vertex 5.3982858657836914 -8.9567337036132812 -28.511573791503906
   vertex 4.9525852203369141 -8.7375202178955078 -22.526590347290039
  endloop
 endfacet
 facet normal 0.84464526038429455 -0.52896614514896301 0.082275156618468889
  outer loop
   vertex 4.9525852203369141 -8.7375202178955078 -22.526590347290039
   vertex 5.3982858657836914 -8.9567337036132812 -28.511573791503906
   vertex 5.5342798233032227 -8.7375202178955078 -28.498327255249023
  endloop
 endfacet
 facet normal 0.89357622414549187 -0.44039223727738919 0.087041421103411939
  outer loop
   vertex 4.9525852203369141 -8.7375202178955078 -22.526590347290039
   vertex 5.5342798233032227 -8.7375202178955078 -28.498327255249023
   vertex 5.0658073425292969 -8.5056076049804688 -22.515562057495117
  endloop
 endfacet
 facet normal 0.89357593975233074 -0.44039281430432781 0.087041421201937502
  outer loop
   vertex 5.0658073425292969 -8.5056076049804688 -22.515562057495117
   vertex 5.5342798233032227 -8.7375202178955078 -28.498327255249023
   vertex 5.6475019454956055 -8.5056076049804688 -28.487297058105469
  endloop
 endfacet
 facet normal 0.93333398580387916 -0.34730719009776473 0.090914171886672834
  outer loop
   vertex 5.0658073425292969 -8.5056076049804688 -22.515562057495117
   vertex 5.6475019454956055 -8.5056076049804688 -28.487297058105469
   vertex 5.1550979614257812 -8.2633762359619141 -22.506864547729492
  endloop
 endfacet
 facet normal 0.93333458855695317 -0.34730557442778687 0.090914156073780478
  outer loop
   vertex 5.1550979614257812 -8.2633762359619141 -22.506864547729492
   vertex 5.6475019454956055 -8.5056076049804688 -28.487297058105469
   vertex 5.7367920875549316 -8.2633762359619141 -28.478599548339844
  endloop
 endfacet
 facet normal 0.96351735650541903 -0.25065054083696947 0.093854195915492697
  outer loop
   vertex 5.1550979614257812 -8.2633762359619141 -22.506864547729492
   vertex 5.7367920875549316 -8.2633762359619141 -28.478599548339844
   vertex 5.219538688659668 -8.0133113861083984 -22.500587463378906
  endloop
 endfacet
 facet normal 0.96351708114351819 -0.25065159180401098 0.093854216052293105
  outer loop
   vertex 5.219538688659668 -8.0133113861083984 -22.500587463378906
   vertex 5.7367920875549316 -8.2633762359619141 -28.478599548339844
   vertex 5.8012332916259766 -8.0133113861083984 -28.472324371337891
  endloop
 endfacet
 facet normal 0.98381189180876527 -0.151428410085862 0.095831091794501944
  outer loop
   vertex 5.219538688659668 -8.0133113861083984 -22.500587463378906
   vertex 5.8012332916259766 -8.0133113861083984 -28.472324371337891
   vertex 5.2584700584411621 -7.7579793930053711 -22.496795654296875
  endloop
 endfacet
 facet normal 0.9838120635009584 -0.15142731437871379 0.095831060570339369
  outer loop
   vertex 5.2584700584411621 -7.7579793930053711 -22.496795654296875
   vertex 5.8012332916259766 -8.0133113861083984 -28.472324371337891
   vertex 5.8401641845703125 -7.7579793930053711 -28.468530654907227
  endloop
 endfacet
 facet normal 0.9940118340417462 -0.050650477445412269 0.096824598731499401
  outer loop
   vertex 5.2584700584411621 -7.7579793930053711 -22.496795654296875
   vertex 5.8401641845703125 -7.7579793930053711 -28.468530654907227
   vertex 5.2714920043945312 -7.5 -22.495527267456055
  endloop
 endfacet
 facet normal 0.9940118340417462 -0.050650477445412269 0.096824598731499401
  outer loop
   vertex 5.2714920043945312 -7.5 -22.495527267456055
   vertex 5.8401641845703125 -7.7579793930053711 -28.468530654907227
   vertex 5.8531861305236816 -7.5 -28.467262268066406
  endloop
 endfacet
 facet normal -0.097007599865009106 -3.1007177149381393e-06 0.99528364075715414
  outer loop
   vertex 0.20853781700134277 -7.7579793930053711 -22.988698959350586
   vertex 0.24746894836425781 -8.0133113861083984 -22.984905242919922
   vertex 0.19551610946655273 -7.5 -22.989967346191406
  endloop
 endfacet
 facet normal -0.09688279512435935 9.6507970769717551e-06 0.99529579719586547
  outer loop
   vertex 0.19551610946655273 -7.5 -22.989967346191406
   vertex 0.24746894836425781 -8.0133113861083984 -22.984905242919922
   vertex 0.31191015243530273 -8.2633762359619141 -22.978630065917969
  endloop
 endfacet
 facet normal -0.096950504523728179 -7.709567819086072e-07 0.99528920403669607
  outer loop
   vertex 0.19551610946655273 -7.5 -22.989967346191406
   vertex 0.31191015243530273 -8.2633762359619141 -22.978630065917969
   vertex 0.40120029449462891 -8.5056076049804688 -22.969932556152344
  endloop
 endfacet
 facet normal -0.096972337089237248 -5.2789044746719727e-06 0.99528707708458897
  outer loop
   vertex 0.40120029449462891 -8.5056076049804688 -22.969932556152344
   vertex 0.51442265510559082 -8.7375202178955078 -22.958902359008789
   vertex 0.19551610946655273 -7.5 -22.989967346191406
  endloop
 endfacet
 facet normal -0.096942866673932662 2.3876315886316274e-06 0.99528994800276138
  outer loop
   vertex 0.19551610946655273 -7.5 -22.989967346191406
   vertex 0.51442265510559082 -8.7375202178955078 -22.958902359008789
   vertex 0.65041637420654297 -8.9567337036132812 -22.945655822753906
  endloop
 endfacet
 facet normal -0.096952416206186817 -6.2273509189355317e-07 0.99528901781914314
  outer loop
   vertex 0.19551610946655273 -7.5 -22.989967346191406
   vertex 0.65041637420654297 -8.9567337036132812 -22.945655822753906
   vertex 0.8077850341796875 -9.1610002517700195 -22.930326461791992
  endloop
 endfacet
 facet normal -0.096948742520548442 7.4428826720170048e-07 0.9952893756707798
  outer loop
   vertex 0.8077850341796875 -9.1610002517700195 -22.930326461791992
   vertex 0.98491430282592773 -9.3482217788696289 -22.91307258605957
   vertex 0.19551610946655273 -7.5 -22.989967346191406
  endloop
 endfacet
 facet normal -0.096943796427120893 2.8768693831482108e-06 0.99528985744154985
  outer loop
   vertex 0.19551610946655273 -7.5 -22.989967346191406
   vertex 0.98491430282592773 -9.3482217788696289 -22.91307258605957
   vertex 1.1799863576889038 -9.5164785385131836 -22.894071578979492
  endloop
 endfacet
 facet normal -0.096943240106363959 3.1510490679630462e-06 0.99528991162763758
  outer loop
   vertex 0.19551610946655273 -7.5 -22.989967346191406
   vertex 1.1799863576889038 -9.5164785385131836 -22.894071578979492
   vertex 1.3909996747970581 -9.6640424728393555 -22.873517990112305
  endloop
 endfacet
 facet normal -0.096948890467641685 0 0.99528936125987666
  outer loop
   vertex 0.19551610946655273 -7.5 -22.989967346191406
   vertex 1.3909996747970581 -9.6640424728393555 -22.873517990112305
   vertex 0.19551610946655273 7.5 -22.989967346191406
  endloop
 endfacet
 facet normal -0.096949511135422467 -4.3639977758854788e-08 0.99528930080183253
  outer loop
   vertex 0.19551610946655273 7.5 -22.989967346191406
   vertex 1.3909996747970581 -9.6640424728393555 -22.873517990112305
   vertex 1.6157890558242798 -9.7894020080566406 -22.851621627807617
  endloop
 endfacet
 facet normal -0.09695179547305964 -2.330720425662946e-07 0.99528907828554791
  outer loop
   vertex 0.19551610946655273 7.5 -22.989967346191406
   vertex 1.6157890558242798 -9.7894020080566406 -22.851621627807617
   vertex 1.8520474433898926 -9.8912677764892578 -22.828607559204102
  endloop
 endfacet
 facet normal -0.096952247807486361 -2.7656605623383174e-07 0.99528903422322468
  outer loop
   vertex 1.8520474433898926 -9.8912677764892578 -22.828607559204102
   vertex 2.0973508358001709 -9.9685964584350586 -22.804712295532227
   vertex 0.19551610946655273 7.5 -22.989967346191406
  endloop
 endfacet
 facet normal -0.096949242998222121 5.3676518565705635e-08 0.9952893269206039
  outer loop
   vertex 0.19551610946655273 7.5 -22.989967346191406
   vertex 2.0973508358001709 -9.9685964584350586 -22.804712295532227
   vertex 2.34918212890625 -10.020594596862793 -22.780181884765625
  endloop
 endfacet
 facet normal -0.096946335300167386 4.1448777876505386e-07 0.9952896101495764
  outer loop
   vertex 0.19551610946655273 7.5 -22.989967346191406
   vertex 2.34918212890625 -10.020594596862793 -22.780181884765625
   vertex 2.6049568653106689 -10.046727180480957 -22.755268096923828
  endloop
 endfacet
 facet normal -0.096950911940208953 -2.1991951487018041e-07 0.99528916435069936
  outer loop
   vertex 2.6049568653106689 -10.046727180480957 -22.755268096923828
   vertex 2.8620510101318359 -10.046727180480957 -22.730224609375
   vertex 0.19551610946655273 7.5 -22.989967346191406
  endloop
 endfacet
 facet normal -0.096946424664517875 4.684714987299723e-07 0.99528960144500023
  outer loop
   vertex 0.19551610946655273 7.5 -22.989967346191406
   vertex 2.8620510101318359 -10.046727180480957 -22.730224609375
   vertex 3.1178257465362549 -10.020594596862793 -22.705310821533203
  endloop
 endfacet
 facet normal -0.096949252412122003 -7.6516268882839261e-09 0.9952893260036153
  outer loop
   vertex 0.19551610946655273 7.5 -22.989967346191406
   vertex 3.1178257465362549 -10.020594596862793 -22.705310821533203
   vertex 3.369657039642334 -9.9685964584350586 -22.680780410766602
  endloop
 endfacet
 facet normal -0.096952001580635327 -5.1193066975513601e-07 0.9952890582083409
  outer loop
   vertex 3.369657039642334 -9.9685964584350586 -22.680780410766602
   vertex 3.6149604320526123 -9.8912677764892578 -22.656885147094727
   vertex 0.19551610946655273 7.5 -22.989967346191406
  endloop
 endfacet
 facet normal -0.096949030801878666 7.772159932326503e-08 0.99528934759022236
  outer loop
   vertex 0.19551610946655273 7.5 -22.989967346191406
   vertex 3.6149604320526123 -9.8912677764892578 -22.656885147094727
   vertex 5.2714920043945312 7.5 -22.495527267456055
  endloop
 endfacet
 facet normal -0.096949030801878305 1.1634061171438006e-07 0.99528934759021859
  outer loop
   vertex 0.19551610946655273 7.5 -22.989967346191406
   vertex 5.2714920043945312 7.5 -22.495527267456055
   vertex 0.20853781700134277 7.7579803466796875 -22.988698959350586
  endloop
 endfacet
 facet normal -0.096949047111041242 -2.0676936932290056e-07 0.9952893460015626
  outer loop
   vertex 0.20853781700134277 7.7579803466796875 -22.988698959350586
   vertex 5.2714920043945312 7.5 -22.495527267456055
   vertex 5.2584700584411621 7.7579803466796875 -22.496795654296875
  endloop
 endfacet
 facet normal -0.096949047109349193 -5.9117630390065122e-06 0.99528934598419183
  outer loop
   vertex 0.20853781700134277 7.7579803466796875 -22.988698959350586
   vertex 5.2584700584411621 7.7579803466796875 -22.496795654296875
   vertex 0.24746894836425781 8.0133113861083984 -22.984905242919922
  endloop
 endfacet
 facet normal -0.096948828465539802 -1.5800221758588217e-06 0.99528936729810535
  outer loop
   vertex 0.24746894836425781 8.0133113861083984 -22.984905242919922
   vertex 5.2584700584411621 7.7579803466796875 -22.496795654296875
   vertex 5.219538688659668 8.0133113861083984 -22.500587463378906
  endloop
 endfacet
 facet normal -0.096948828462914291 7.5272140010204109e-06 0.99528936727115158
  outer loop
   vertex 0.24746894836425781 8.0133113861083984 -22.984905242919922
   vertex 5.219538688659668 8.0133113861083984 -22.500587463378906
   vertex 0.31191015243530273 8.2633762359619141 -22.978630065917969
  endloop
 endfacet
 facet normal -0.096949200717243444 1.5230132303715488e-07 0.99528933103910255
  outer loop
   vertex 0.31191015243530273 8.2633762359619141 -22.978630065917969
   vertex 5.219538688659668 8.0133113861083984 -22.500587463378906
   vertex 5.1550979614257812 8.2633762359619141 -22.506864547729492
  endloop
 endfacet
 facet normal -0.096949200717240613 2.8579389245313113e-07 0.99528933103907358
  outer loop
   vertex 0.31191015243530273 8.2633762359619141 -22.978630065917969
   vertex 5.1550979614257812 8.2633762359619141 -22.506864547729492
   vertex 0.40120029449462891 8.5056076049804688 -22.969932556152344
  endloop
 endfacet
 facet normal -0.096949239938025553 -4.9123490767474766e-07 0.995289327218572
  outer loop
   vertex 0.40120029449462891 8.5056076049804688 -22.969932556152344
   vertex 5.1550979614257812 8.2633762359619141 -22.506864547729492
   vertex 5.0658073425292969 8.5056076049804688 -22.515562057495117
  endloop
 endfacet
 facet normal -0.096949239936230919 -6.1044065570174958e-06 0.99528932720014818
  outer loop
   vertex 0.40120029449462891 8.5056076049804688 -22.969932556152344
   vertex 5.0658073425292969 8.5056076049804688 -22.515562057495117
   vertex 0.51442265510559082 8.7375202178955078 -22.958902359008789
  endloop
 endfacet
 facet normal -0.096949026529338178 -1.8764332730728538e-06 0.99528934800463575
  outer loop
   vertex 0.51442265510559082 8.7375202178955078 -22.958902359008789
   vertex 5.0658073425292969 8.5056076049804688 -22.515562057495117
   vertex 4.9525852203369141 8.7375202178955078 -22.526590347290039
  endloop
 endfacet
 facet normal -0.096949026529404084 1.4700213284555792e-06 0.99528934800531244
  outer loop
   vertex 0.51442265510559082 8.7375202178955078 -22.958902359008789
   vertex 4.9525852203369141 8.7375202178955078 -22.526590347290039
   vertex 0.65041637420654297 8.9567337036132812 -22.945655822753906
  endloop
 endfacet
 facet normal -0.096949185268862786 -1.674875901567032e-06 0.99528933254250163
  outer loop
   vertex 0.65041637420654297 8.9567337036132812 -22.945655822753906
   vertex 4.9525852203369141 8.7375202178955078 -22.526590347290039
   vertex 4.8165912628173828 8.9567337036132812 -22.539836883544922
  endloop
 endfacet
 facet normal -0.096949185268825608 -1.8900336027962567e-06 0.99528933254211993
  outer loop
   vertex 0.65041637420654297 8.9567337036132812 -22.945655822753906
   vertex 4.8165912628173828 8.9567337036132812 -22.539836883544922
   vertex 0.8077850341796875 9.1609992980957031 -22.930326461791992
  endloop
 endfacet
 facet normal -0.09694898667275248 2.0444861294673882e-06 0.99528935188664946
  outer loop
   vertex 0.8077850341796875 9.1609992980957031 -22.930326461791992
   vertex 4.8165912628173828 8.9567337036132812 -22.539836883544922
   vertex 4.6592226028442383 9.1609992980957031 -22.555166244506836
  endloop
 endfacet
 facet normal -0.096948986672942425 -5.1110530771509364e-07 0.99528935188859946
  outer loop
   vertex 0.8077850341796875 9.1609992980957031 -22.930326461791992
   vertex 4.6592226028442383 9.1609992980957031 -22.555166244506836
   vertex 0.98491430282592773 9.3482208251953125 -22.91307258605957
  endloop
 endfacet
 facet normal -0.09694891936856917 8.2230634764758093e-07 0.99528935844436228
  outer loop
   vertex 0.98491430282592773 9.3482208251953125 -22.91307258605957
   vertex 4.6592226028442383 9.1609992980957031 -22.555166244506836
   vertex 4.4820938110351562 9.3482208251953125 -22.572420120239258
  endloop
 endfacet
 facet normal -0.096948919368130437 3.1188375220418422e-06 0.99528935843985822
  outer loop
   vertex 0.98491430282592773 9.3482208251953125 -22.91307258605957
   vertex 4.4820938110351562 9.3482208251953125 -22.572420120239258
   vertex 1.1799863576889038 9.5164794921875 -22.894071578979492
  endloop
 endfacet
 facet normal -0.096949257673333206 -3.5834633638116984e-06 0.99528932548467952
  outer loop
   vertex 1.1799863576889038 9.5164794921875 -22.894071578979492
   vertex 4.4820938110351562 9.3482208251953125 -22.572420120239258
   vertex 4.2870216369628906 9.5164794921875 -22.591421127319336
  endloop
 endfacet
 facet normal -0.096949257672470285 5.5355864187058779e-06 0.99528932547582072
  outer loop
   vertex 1.1799863576889038 9.5164794921875 -22.894071578979492
   vertex 4.2870216369628906 9.5164794921875 -22.591421127319336
   vertex 1.3909996747970581 9.6640434265136719 -22.873517990112305
  endloop
 endfacet
 facet normal -0.096949160028974871 7.4700512377857712e-06 0.99528933497444583
  outer loop
   vertex 1.3909996747970581 9.6640434265136719 -22.873517990112305
   vertex 4.2870216369628906 9.5164794921875 -22.591421127319336
   vertex 4.0760083198547363 9.6640434265136719 -22.611976623535156
  endloop
 endfacet
 facet normal -0.096949160031662832 -5.9192253704029972e-07 0.99528933500204075
  outer loop
   vertex 1.3909996747970581 9.6640434265136719 -22.873517990112305
   vertex 4.0760083198547363 9.6640434265136719 -22.611976623535156
   vertex 1.6157890558242798 9.7894020080566406 -22.851621627807617
  endloop
 endfacet
 facet normal -0.096949094267901714 7.1096711709497695e-07 0.99528934140787828
  outer loop
   vertex 1.6157890558242798 9.7894020080566406 -22.851621627807617
   vertex 4.0760083198547363 9.6640434265136719 -22.611976623535156
   vertex 3.8512189388275146 9.7894020080566406 -22.633872985839844
  endloop
 endfacet
 facet normal -0.096949094266127606 -6.0913085649809486e-06 0.99528934138966518
  outer loop
   vertex 1.6157890558242798 9.7894020080566406 -22.851621627807617
   vertex 3.8512189388275146 9.7894020080566406 -22.633872985839844
   vertex 1.8520474433898926 9.8912677764892578 -22.828607559204102
  endloop
 endfacet
 facet normal -0.096949470138031596 -1.3538133165074518e-05 0.9952893047032475
  outer loop
   vertex 1.8520474433898926 9.8912677764892578 -22.828607559204102
   vertex 3.8512189388275146 9.7894020080566406 -22.633872985839844
   vertex 3.6149604320526123 9.8912677764892578 -22.656885147094727
  endloop
 endfacet
 facet normal -0.096949470143315661 -8.6182798846271487e-06 0.995289304757494
  outer loop
   vertex 1.8520474433898926 9.8912677764892578 -22.828607559204102
   vertex 3.6149604320526123 9.8912677764892578 -22.656885147094727
   vertex 2.0973508358001709 9.968597412109375 -22.804712295532227
  endloop
 endfacet
 facet normal -0.096948432363940462 1.1941527161668267e-05 0.99528940581098035
  outer loop
   vertex 2.0973508358001709 9.968597412109375 -22.804712295532227
   vertex 3.6149604320526123 9.8912677764892578 -22.656885147094727
   vertex 3.369657039642334 9.968597412109375 -22.680780410766602
  endloop
 endfacet
 facet normal -0.096948432370070767 -4.0168624896437232e-06 0.99528940587391512
  outer loop
   vertex 2.0973508358001709 9.968597412109375 -22.804712295532227
   vertex 3.369657039642334 9.968597412109375 -22.680780410766602
   vertex 2.34918212890625 10.020595550537109 -22.780181884765625
  endloop
 endfacet
 facet normal -0.096947894001590318 6.6489582656225429e-06 0.99528945830067339
  outer loop
   vertex 2.34918212890625 10.020595550537109 -22.780181884765625
   vertex 3.369657039642334 9.968597412109375 -22.680780410766602
   vertex 3.1178257465362549 10.020595550537109 -22.705310821533203
  endloop
 endfacet
 facet normal -0.096947893992845119 1.498728683187649e-05 0.99528945821089321
  outer loop
   vertex 2.34918212890625 10.020595550537109 -22.780181884765625
   vertex 3.1178257465362549 10.020595550537109 -22.705310821533203
   vertex 2.6049568653106689 10.046726226806641 -22.755268096923828
  endloop
 endfacet
 facet normal -0.096950911842884291 -4.4808017561443553e-05 0.99528916335157325
  outer loop
   vertex 2.6049568653106689 10.046726226806641 -22.755268096923828
   vertex 3.1178257465362549 10.020595550537109 -22.705310821533203
   vertex 2.8620510101318359 10.046726226806641 -22.730224609375
  endloop
 endfacet
 facet normal -0.096948222502925452 0 0.99528942632458595
  outer loop
   vertex 5.2714920043945312 7.5 -22.495527267456055
   vertex 3.6149604320526123 -9.8912677764892578 -22.656885147094727
   vertex 5.2714920043945312 -7.5 -22.495527267456055
  endloop
 endfacet
 facet normal -0.096941756611428564 -4.5216915575510653e-06 0.99529005611663013
  outer loop
   vertex 5.2714920043945312 -7.5 -22.495527267456055
   vertex 3.6149604320526123 -9.8912677764892578 -22.656885147094727
   vertex 3.8512189388275146 -9.7894020080566406 -22.633872985839844
  endloop
 endfacet
 facet normal -0.096949756907936183 4.8853042749217718e-07 0.99528927686138235
  outer loop
   vertex 5.2714920043945312 -7.5 -22.495527267456055
   vertex 3.8512189388275146 -9.7894020080566406 -22.633872985839844
   vertex 4.0760083198547363 -9.6640424728393555 -22.611976623535156
  endloop
 endfacet
 facet normal -0.096957768145626511 4.9561793427901122e-06 0.99528849645299078
  outer loop
   vertex 4.0760083198547363 -9.6640424728393555 -22.611976623535156
   vertex 4.2870216369628906 -9.5164785385131836 -22.591421127319336
   vertex 5.2714920043945312 -7.5 -22.495527267456055
  endloop
 endfacet
 facet normal -0.096945093014273634 -1.2906966530662465e-06 0.99528973115308894
  outer loop
   vertex 5.2714920043945312 -7.5 -22.495527267456055
   vertex 4.2870216369628906 -9.5164785385131836 -22.591421127319336
   vertex 4.4820938110351562 -9.3482217788696289 -22.572420120239258
  endloop
 endfacet
 facet normal -0.09695117435852664 1.3313646643512908e-06 0.9952891387876841
  outer loop
   vertex 5.2714920043945312 -7.5 -22.495527267456055
   vertex 4.4820938110351562 -9.3482217788696289 -22.572420120239258
   vertex 4.6592226028442383 -9.1610002517700195 -22.555166244506836
  endloop
 endfacet
 facet normal -0.096955302592402579 2.8675322250946504e-06 0.99528873664429307
  outer loop
   vertex 4.6592226028442383 -9.1610002517700195 -22.555166244506836
   vertex 4.8165912628173828 -8.9567337036132812 -22.539836883544922
   vertex 5.2714920043945312 -7.5 -22.495527267456055
  endloop
 endfacet
 facet normal -0.096946819662910369 1.9339549969900155e-07 0.99528956297009841
  outer loop
   vertex 5.2714920043945312 -7.5 -22.495527267456055
   vertex 4.8165912628173828 -8.9567337036132812 -22.539836883544922
   vertex 4.9525852203369141 -8.7375202178955078 -22.526590347290039
  endloop
 endfacet
 facet normal -0.096944260990744449 -4.7222564943780579e-07 0.99528981219579216
  outer loop
   vertex 5.2714920043945312 -7.5 -22.495527267456055
   vertex 4.9525852203369141 -8.7375202178955078 -22.526590347290039
   vertex 5.0658073425292969 -8.5056076049804688 -22.515562057495117
  endloop
 endfacet
 facet normal -0.096949629853190278 6.3632803538571731e-07 0.99528928923751836
  outer loop
   vertex 5.0658073425292969 -8.5056076049804688 -22.515562057495117
   vertex 5.1550979614257812 -8.2633762359619141 -22.506864547729492
   vertex 5.2714920043945312 -7.5 -22.495527267456055
  endloop
 endfacet
 facet normal -0.096956003244086666 1.6173166780677754e-06 0.9952886683934048
  outer loop
   vertex 5.2714920043945312 -7.5 -22.495527267456055
   vertex 5.1550979614257812 -8.2633762359619141 -22.506864547729492
   vertex 5.219538688659668 -8.0133113861083984 -22.500587463378906
  endloop
 endfacet
 facet normal -0.096935383165499267 -4.8948405479110093e-07 0.99529067688304917
  outer loop
   vertex 5.2714920043945312 -7.5 -22.495527267456055
   vertex 5.219538688659668 -8.0133113861083984 -22.500587463378906
   vertex 5.2584700584411621 -7.7579793930053711 -22.496795654296875
  endloop
 endfacet
 facet normal 0.097009350321628218 -3.2795659947209055e-06 -0.99528347014276286
  outer loop
   vertex 5.8401641845703125 -7.7579793930053711 -28.468530654907227
   vertex 5.8012332916259766 -8.0133113861083984 -28.472324371337891
   vertex 5.8531861305236816 -7.5 -28.467262268066406
  endloop
 endfacet
 facet normal 0.09688279512435935 9.6507970769717551e-06 -0.99529579719586547
  outer loop
   vertex 5.8531861305236816 -7.5 -28.467262268066406
   vertex 5.8012332916259766 -8.0133113861083984 -28.472324371337891
   vertex 5.7367920875549316 -8.2633762359619141 -28.478599548339844
  endloop
 endfacet
 facet normal 0.096950504523728179 -7.709567819086072e-07 -0.99528920403669607
  outer loop
   vertex 5.8531861305236816 -7.5 -28.467262268066406
   vertex 5.7367920875549316 -8.2633762359619141 -28.478599548339844
   vertex 5.6475019454956055 -8.5056076049804688 -28.487297058105469
  endloop
 endfacet
 facet normal 0.096972685219802818 -5.3507859104334831e-06 -0.99528704316525185
  outer loop
   vertex 5.6475019454956055 -8.5056076049804688 -28.487297058105469
   vertex 5.5342798233032227 -8.7375202178955078 -28.498327255249023
   vertex 5.8531861305236816 -7.5 -28.467262268066406
  endloop
 endfacet
 facet normal 0.096942527674494058 2.4944967255927688e-06 -0.99528998102154009
  outer loop
   vertex 5.8531861305236816 -7.5 -28.467262268066406
   vertex 5.5342798233032227 -8.7375202178955078 -28.498327255249023
   vertex 5.3982858657836914 -8.9567337036132812 -28.511573791503906
  endloop
 endfacet
 facet normal 0.096952416206186817 -6.2273509189355317e-07 -0.99528901781914314
  outer loop
   vertex 5.8531861305236816 -7.5 -28.467262268066406
   vertex 5.3982858657836914 -8.9567337036132812 -28.511573791503906
   vertex 5.2409172058105469 -9.1610002517700195 -28.52690315246582
  endloop
 endfacet
 facet normal 0.096948742520548442 7.4428826720170048e-07 -0.9952893756707798
  outer loop
   vertex 5.2409172058105469 -9.1610002517700195 -28.52690315246582
   vertex 5.0637879371643066 -9.3482217788696289 -28.544157028198242
   vertex 5.8531861305236816 -7.5 -28.467262268066406
  endloop
 endfacet
 facet normal 0.096943703510871518 2.916931582498813e-06 -0.99528986649171092
  outer loop
   vertex 5.8531861305236816 -7.5 -28.467262268066406
   vertex 5.0637879371643066 -9.3482217788696289 -28.544157028198242
   vertex 4.868715763092041 -9.5164785385131836 -28.56315803527832
  endloop
 endfacet
 facet normal 0.096943246134600605 3.1423470369021908e-06 -0.99528991104050279
  outer loop
   vertex 5.8531861305236816 -7.5 -28.467262268066406
   vertex 4.868715763092041 -9.5164785385131836 -28.56315803527832
   vertex 4.6577024459838867 -9.6640424728393555 -28.583711624145508
  endloop
 endfacet
 facet normal 0.096948880891115211 0 -0.99528936219270447
  outer loop
   vertex 5.8531861305236816 -7.5 -28.467262268066406
   vertex 4.6577024459838867 -9.6640424728393555 -28.583711624145508
   vertex 5.8531861305236816 7.5 -28.467262268066406
  endloop
 endfacet
 facet normal 0.09694961750012282 -5.1791965095084706e-08 -0.995289290441014
  outer loop
   vertex 5.8531861305236816 7.5 -28.467262268066406
   vertex 4.6577024459838867 -9.6640424728393555 -28.583711624145508
   vertex 4.4329133033752441 -9.7894020080566406 -28.605607986450195
  endloop
 endfacet
 facet normal 0.096951744938392245 -2.2821290443650112e-07 -0.99528908320816456
  outer loop
   vertex 5.8531861305236816 7.5 -28.467262268066406
   vertex 4.4329133033752441 -9.7894020080566406 -28.605607986450195
   vertex 4.1966547966003418 -9.8912677764892578 -28.628622055053711
  endloop
 endfacet
 facet normal 0.096952247807486361 -2.7656605623383174e-07 -0.99528903422322468
  outer loop
   vertex 4.1966547966003418 -9.8912677764892578 -28.628622055053711
   vertex 3.9513514041900635 -9.9685964584350586 -28.652517318725586
   vertex 5.8531861305236816 7.5 -28.467262268066406
  endloop
 endfacet
 facet normal 0.096949242998222121 5.3676518565705635e-08 -0.9952893269206039
  outer loop
   vertex 5.8531861305236816 7.5 -28.467262268066406
   vertex 3.9513514041900635 -9.9685964584350586 -28.652517318725586
   vertex 3.6995201110839844 -10.020594596862793 -28.677047729492188
  endloop
 endfacet
 facet normal 0.096946335300167386 4.1448777876505386e-07 -0.9952896101495764
  outer loop
   vertex 5.8531861305236816 7.5 -28.467262268066406
   vertex 3.6995201110839844 -10.020594596862793 -28.677047729492188
   vertex 3.4437453746795654 -10.046727180480957 -28.701961517333984
  endloop
 endfacet
 facet normal 0.096950911940208953 -2.1991951487018041e-07 -0.99528916435069936
  outer loop
   vertex 3.4437453746795654 -10.046727180480957 -28.701961517333984
   vertex 3.1866512298583984 -10.046727180480957 -28.727005004882812
   vertex 5.8531861305236816 7.5 -28.467262268066406
  endloop
 endfacet
 facet normal 0.096946424664517875 4.684714987299723e-07 -0.99528960144500023
  outer loop
   vertex 5.8531861305236816 7.5 -28.467262268066406
   vertex 3.1866512298583984 -10.046727180480957 -28.727005004882812
   vertex 2.9308764934539795 -10.020594596862793 -28.751918792724609
  endloop
 endfacet
 facet normal 0.096949252412122003 -7.6516268882839261e-09 -0.9952893260036153
  outer loop
   vertex 5.8531861305236816 7.5 -28.467262268066406
   vertex 2.9308764934539795 -10.020594596862793 -28.751918792724609
   vertex 2.6790452003479004 -9.9685964584350586 -28.776449203491211
  endloop
 endfacet
 facet normal 0.096952001580635327 -5.1193066975513601e-07 -0.9952890582083409
  outer loop
   vertex 2.6790452003479004 -9.9685964584350586 -28.776449203491211
   vertex 2.4337418079376221 -9.8912677764892578 -28.800344467163086
   vertex 5.8531861305236816 7.5 -28.467262268066406
  endloop
 endfacet
 facet normal 0.09694903531277399 7.6826258580497896e-08 -0.99528934715082562
  outer loop
   vertex 5.8531861305236816 7.5 -28.467262268066406
   vertex 2.4337418079376221 -9.8912677764892578 -28.800344467163086
   vertex 0.77721047401428223 7.5 -28.961702346801758
  endloop
 endfacet
 facet normal 0.096949035312772214 2.061681835715173e-07 -0.99528934715080741
  outer loop
   vertex 5.8531861305236816 7.5 -28.467262268066406
   vertex 0.77721047401428223 7.5 -28.961702346801758
   vertex 5.8401641845703125 7.7579803466796875 -28.468530654907227
  endloop
 endfacet
 facet normal 0.096949051645202414 -1.1740267278143232e-07 -0.995289345559914
  outer loop
   vertex 5.8401641845703125 7.7579803466796875 -28.468530654907227
   vertex 0.77721047401428223 7.5 -28.961702346801758
   vertex 0.79023218154907227 7.7579803466796875 -28.960433959960938
  endloop
 endfacet
 facet normal 0.096949051643457074 -6.0015925390723336e-06 -0.99528934554199611
  outer loop
   vertex 5.8401641845703125 7.7579803466796875 -28.468530654907227
   vertex 0.79023218154907227 7.7579803466796875 -28.960433959960938
   vertex 5.8012332916259766 8.0133113861083984 -28.472324371337891
  endloop
 endfacet
 facet normal 0.096948823860399366 -1.488786160232569e-06 -0.99528936774682197
  outer loop
   vertex 5.8012332916259766 8.0133113861083984 -28.472324371337891
   vertex 0.79023218154907227 7.7579803466796875 -28.960433959960938
   vertex 0.8291633129119873 8.0133113861083984 -28.956642150878906
  endloop
 endfacet
 facet normal 0.096948823857761171 7.52601600549644e-06 -0.99528936771973797
  outer loop
   vertex 5.8012332916259766 8.0133113861083984 -28.472324371337891
   vertex 0.8291633129119873 8.0133113861083984 -28.956642150878906
   vertex 5.7367920875549316 8.2633762359619141 -28.478599548339844
  endloop
 endfacet
 facet normal 0.096949205444964395 -3.3796531416757522e-08 -0.99528933057859548
  outer loop
   vertex 5.7367920875549316 8.2633762359619141 -28.478599548339844
   vertex 0.8291633129119873 8.0133113861083984 -28.956642150878906
   vertex 0.89360451698303223 8.2633762359619141 -28.95036506652832
  endloop
 endfacet
 facet normal 0.096949205444960454 2.8755313668876791e-07 -0.99528933057855506
  outer loop
   vertex 5.7367920875549316 8.2633762359619141 -28.478599548339844
   vertex 0.89360451698303223 8.2633762359619141 -28.95036506652832
   vertex 5.6475019454956055 8.5056076049804688 -28.487297058105469
  endloop
 endfacet
 facet normal 0.096949235029314601 -2.985618483901533e-07 -0.99528932769679657
  outer loop
   vertex 5.6475019454956055 8.5056076049804688 -28.487297058105469
   vertex 0.89360451698303223 8.2633762359619141 -28.95036506652832
   vertex 0.9828946590423584 8.5056076049804688 -28.941667556762695
  endloop
 endfacet
 facet normal 0.096949235027451661 -6.2064947932499449e-06 -0.99528932767767153
  outer loop
   vertex 5.6475019454956055 8.5056076049804688 -28.487297058105469
   vertex 0.9828946590423584 8.5056076049804688 -28.941667556762695
   vertex 5.5342798233032227 8.7375202178955078 -28.498327255249023
  endloop
 endfacet
 facet normal 0.096949023949729859 -2.0246651252502604e-06 -0.99528934825561932
  outer loop
   vertex 5.5342798233032227 8.7375202178955078 -28.498327255249023
   vertex 0.9828946590423584 8.5056076049804688 -28.941667556762695
   vertex 1.0961171388626099 8.7375202178955078 -28.930639266967773
  endloop
 endfacet
 facet normal 0.096949023949808491 1.5738484870329984e-06 -0.99528934825642656
  outer loop
   vertex 5.5342798233032227 8.7375202178955078 -28.498327255249023
   vertex 1.0961171388626099 8.7375202178955078 -28.930639266967773
   vertex 5.3982858657836914 8.9567337036132812 -28.511573791503906
  endloop
 endfacet
 facet normal 0.096949179772904071 -1.5132697824858363e-06 -0.99528933307811107
  outer loop
   vertex 5.3982858657836914 8.9567337036132812 -28.511573791503906
   vertex 1.0961171388626099 8.7375202178955078 -28.930639266967773
   vertex 1.2321107387542725 8.9567337036132812 -28.917392730712891
  endloop
 endfacet
 facet normal 0.096949179772841121 -1.8943079506739628e-06 -0.99528933307746492
  outer loop
   vertex 5.3982858657836914 8.9567337036132812 -28.511573791503906
   vertex 1.2321107387542725 8.9567337036132812 -28.917392730712891
   vertex 5.2409172058105469 9.1609992980957031 -28.52690315246582
  endloop
 endfacet
 facet normal 0.096948983700212765 1.9902185734129471e-06 -0.99528935217630798
  outer loop
   vertex 5.2409172058105469 9.1609992980957031 -28.52690315246582
   vertex 1.2321107387542725 8.9567337036132812 -28.917392730712891
   vertex 1.3894795179367065 9.1609992980957031 -28.902063369750977
  endloop
 endfacet
 facet normal 0.096948983700391983 -5.1394430558738893e-07 -0.99528935217814773
  outer loop
   vertex 5.2409172058105469 9.1609992980957031 -28.52690315246582
   vertex 1.3894795179367065 9.1609992980957031 -28.902063369750977
   vertex 5.0637879371643066 9.3482208251953125 -28.544157028198242
  endloop
 endfacet
 facet normal 0.096948925915907577 6.3086275732819749e-07 -0.99528935780674044
  outer loop
   vertex 5.0637879371643066 9.3482208251953125 -28.544157028198242
   vertex 1.3894795179367065 9.1609992980957031 -28.902063369750977
   vertex 1.5666086673736572 9.3482208251953125 -28.884809494018555
  endloop
 endfacet
 facet normal 0.096948925915431985 3.1951874125084751e-06 -0.9952893578018579
  outer loop
   vertex 5.0637879371643066 9.3482208251953125 -28.544157028198242
   vertex 1.5666086673736572 9.3482208251953125 -28.884809494018555
   vertex 4.868715763092041 9.5164794921875 -28.56315803527832
  endloop
 endfacet
 facet normal 0.096949265042838642 -3.5234008900683696e-06 -0.99528932476704435
  outer loop
   vertex 4.868715763092041 9.5164794921875 -28.56315803527832
   vertex 1.5666086673736572 9.3482208251953125 -28.884809494018555
   vertex 1.7616807222366333 9.5164794921875 -28.865808486938477
  endloop
 endfacet
 facet normal 0.096949265041949312 5.5462246127507069e-06 -0.99528932475791432
  outer loop
   vertex 4.868715763092041 9.5164794921875 -28.56315803527832
   vertex 1.7616807222366333 9.5164794921875 -28.865808486938477
   vertex 4.6577024459838867 9.6640434265136719 -28.583711624145508
  endloop
 endfacet
 facet normal 0.096949168556787493 7.4577409457817669e-06 -0.99528933414386067
  outer loop
   vertex 4.6577024459838867 9.6640434265136719 -28.583711624145508
   vertex 1.7616807222366333 9.5164794921875 -28.865808486938477
   vertex 1.9726940393447876 9.6640434265136719 -28.845252990722656
  endloop
 endfacet
 facet normal 0.096949168559455498 -7.6087255415202448e-07 -0.99528933417125054
  outer loop
   vertex 4.6577024459838867 9.6640434265136719 -28.583711624145508
   vertex 1.9726940393447876 9.6640434265136719 -28.845252990722656
   vertex 4.4329133033752441 9.7894020080566406 -28.605607986450195
  endloop
 endfacet
 facet normal 0.096949089146461317 8.1243124516205508e-07 -0.99528934190666962
  outer loop
   vertex 4.4329133033752441 9.7894020080566406 -28.605607986450195
   vertex 1.9726940393447876 9.6640434265136719 -28.845252990722656
   vertex 2.1974833011627197 9.7894020080566406 -28.823356628417969
  endloop
 endfacet
 facet normal 0.096949089144754128 -5.989843963767678e-06 -0.99528934188914342
  outer loop
   vertex 4.4329133033752441 9.7894020080566406 -28.605607986450195
   vertex 2.1974833011627197 9.7894020080566406 -28.823356628417969
   vertex 4.1966547966003418 9.8912677764892578 -28.628622055053711
  endloop
 endfacet
 facet normal 0.096949470138031596 -1.3538133165074518e-05 -0.9952893047032475
  outer loop
   vertex 4.1966547966003418 9.8912677764892578 -28.628622055053711
   vertex 2.1974833011627197 9.7894020080566406 -28.823356628417969
   vertex 2.4337418079376221 9.8912677764892578 -28.800344467163086
  endloop
 endfacet
 facet normal 0.096949470143315661 -8.6182798846271487e-06 -0.995289304757494
  outer loop
   vertex 4.1966547966003418 9.8912677764892578 -28.628622055053711
   vertex 2.4337418079376221 9.8912677764892578 -28.800344467163086
   vertex 3.9513514041900635 9.968597412109375 -28.652517318725586
  endloop
 endfacet
 facet normal 0.096948432363940462 1.1941527161668267e-05 -0.99528940581098035
  outer loop
   vertex 3.9513514041900635 9.968597412109375 -28.652517318725586
   vertex 2.4337418079376221 9.8912677764892578 -28.800344467163086
   vertex 2.6790452003479004 9.968597412109375 -28.776449203491211
  endloop
 endfacet
 facet normal 0.096948432370070767 -4.0168624896437232e-06 -0.99528940587391512
  outer loop
   vertex 3.9513514041900635 9.968597412109375 -28.652517318725586
   vertex 2.6790452003479004 9.968597412109375 -28.776449203491211
   vertex 3.6995201110839844 10.020595550537109 -28.677047729492188
  endloop
 endfacet
 facet normal 0.096947894001590318 6.6489582656225429e-06 -0.99528945830067339
  outer loop
   vertex 3.6995201110839844 10.020595550537109 -28.677047729492188
   vertex 2.6790452003479004 9.968597412109375 -28.776449203491211
   vertex 2.9308764934539795 10.020595550537109 -28.751918792724609
  endloop
 endfacet
 facet normal 0.096947893992845119 1.498728683187649e-05 -0.99528945821089321
  outer loop
   vertex 3.6995201110839844 10.020595550537109 -28.677047729492188
   vertex 2.9308764934539795 10.020595550537109 -28.751918792724609
   vertex 3.4437453746795654 10.046726226806641 -28.701961517333984
  endloop
 endfacet
 facet normal 0.096950911842884291 -4.4808017561443553e-05 -0.99528916335157325
  outer loop
   vertex 3.4437453746795654 10.046726226806641 -28.701961517333984
   vertex 2.9308764934539795 10.020595550537109 -28.751918792724609
   vertex 3.1866512298583984 10.046726226806641 -28.727005004882812
  endloop
 endfacet
 facet normal 0.096948236325185858 0 -0.99528942497819994
  outer loop
   vertex 0.77721047401428223 7.5 -28.961702346801758
   vertex 2.4337418079376221 -9.8912677764892578 -28.800344467163086
   vertex 0.77721047401428223 -7.5 -28.961702346801758
  endloop
 endfacet
 facet normal 0.096941750725029044 -4.5354734618532749e-06 -0.99529005668990578
  outer loop
   vertex 0.77721047401428223 -7.5 -28.961702346801758
   vertex 2.4337418079376221 -9.8912677764892578 -28.800344467163086
   vertex 2.1974833011627197 -9.7894020080566406 -28.823356628417969
  endloop
 endfacet
 facet normal 0.096949826251507068 5.2186081118909478e-07 -0.99528927010670143
  outer loop
   vertex 0.77721047401428223 -7.5 -28.961702346801758
   vertex 2.1974833011627197 -9.7894020080566406 -28.823356628417969
   vertex 1.9726940393447876 -9.6640424728393555 -28.845252990722656
  endloop
 endfacet
 facet normal 0.096957762116510818 4.9474760129517655e-06 -0.99528849704037092
  outer loop
   vertex 1.9726940393447876 -9.6640424728393555 -28.845252990722656
   vertex 1.7616807222366333 -9.5164785385131836 -28.865808486938477
   vertex 0.77721047401428223 -7.5 -28.961702346801758
  endloop
 endfacet
 facet normal 0.096945185931823191 -1.2506338942876086e-06 -0.99528972210260469
  outer loop
   vertex 0.77721047401428223 -7.5 -28.961702346801758
   vertex 1.7616807222366333 -9.5164785385131836 -28.865808486938477
   vertex 1.5666086673736572 -9.3482217788696289 -28.884809494018555
  endloop
 endfacet
 facet normal 0.096950820870127963 1.1789528742286811e-06 -0.99528917322113908
  outer loop
   vertex 0.77721047401428223 -7.5 -28.961702346801758
   vertex 1.5666086673736572 -9.3482217788696289 -28.884809494018555
   vertex 1.3894795179367065 -9.1610002517700195 -28.902063369750977
  endloop
 endfacet
 facet normal 0.096955111624085266 2.7755952205541825e-06 -0.99528875524756999
  outer loop
   vertex 1.3894795179367065 -9.1610002517700195 -28.902063369750977
   vertex 1.2321107387542725 -8.9567337036132812 -28.917392730712891
   vertex 0.77721047401428223 -7.5 -28.961702346801758
  endloop
 endfacet
 facet normal 0.096947226153178731 2.8980234729158623e-07 -0.99528952337554544
  outer loop
   vertex 0.77721047401428223 -7.5 -28.961702346801758
   vertex 1.2321107387542725 -8.9567337036132812 -28.917392730712891
   vertex 1.0961171388626099 -8.7375202178955078 -28.930639266967773
  endloop
 endfacet
 facet normal 0.096943578421030741 -6.5912997853353216e-07 -0.99528987867982011
  outer loop
   vertex 0.77721047401428223 -7.5 -28.961702346801758
   vertex 1.0961171388626099 -8.7375202178955078 -28.930639266967773
   vertex 0.9828946590423584 -8.5056076049804688 -28.941667556762695
  endloop
 endfacet
 facet normal 0.096950504523728179 7.709567819086072e-07 -0.99528920403669607
  outer loop
   vertex 0.9828946590423584 -8.5056076049804688 -28.941667556762695
   vertex 0.89360451698303223 -8.2633762359619141 -28.95036506652832
   vertex 0.77721047401428223 -7.5 -28.961702346801758
  endloop
 endfacet
 facet normal 0.096954262758793611 1.3494221256771881e-06 -0.99528883794156853
  outer loop
   vertex 0.77721047401428223 -7.5 -28.961702346801758
   vertex 0.89360451698303223 -8.2633762359619141 -28.95036506652832
   vertex 0.8291633129119873 -8.0133113861083984 -28.956642150878906
  endloop
 endfacet
 facet normal 0.096935392186707492 -5.7860981803730163e-07 -0.99529067600438936
  outer loop
   vertex 0.77721047401428223 -7.5 -28.961702346801758
   vertex 0.8291633129119873 -8.0133113861083984 -28.956642150878906
   vertex 0.79023218154907227 -7.7579793930053711 -28.960433959960938
  endloop
 endfacet
endsolid
