solid Visualization Toolkit generated SLA File
 facet normal -0.95809820341882257 0 0.28643992844159261
  outer loop
   vertex -13.718284606933594 19.5 -26.376285552978516
   vertex -13.718284606933594 4.5 -26.376285552978516
   vertex -11.999645233154297 19.5 -20.627696990966797
  endloop
 endfacet
 facet normal -0.95809820341882257 0 0.28643992844159261
  outer loop
   vertex -11.999645233154297 19.5 -20.627696990966797
   vertex -13.718284606933594 4.5 -26.376285552978516
   vertex -11.999645233154297 4.5 -20.627696990966797
  endloop
 endfacet
 facet normal 0.95686857445448237 0.050647904616547744 -0.28607223035345419
  outer loop
   vertex -7.113344669342041 19.5 -22.088539123535156
   vertex -8.8319835662841797 19.5 -27.837127685546875
   vertex -7.1258792877197266 19.757980346679688 -22.08479118347168
  endloop
 endfacet
 facet normal 0.95686859550947434 0.050647559087452804 -0.28607222110196068
  outer loop
   vertex -7.1258792877197266 19.757980346679688 -22.08479118347168
   vertex -8.8319835662841797 19.5 -27.837127685546875
   vertex -8.8445186614990234 19.757980346679688 -27.833381652832031
  endloop
 endfacet
 facet normal 0.94704967669810391 0.15142828684431159 -0.2831366875016621
  outer loop
   vertex -7.1258792877197266 19.757980346679688 -22.08479118347168
   vertex -8.8445186614990234 19.757980346679688 -27.833381652832031
   vertex -7.163355827331543 20.013311386108398 -22.073587417602539
  endloop
 endfacet
 facet normal 0.94704989799394346 0.15142689723700575 -0.28313669049212709
  outer loop
   vertex -7.163355827331543 20.013311386108398 -22.073587417602539
   vertex -8.8445186614990234 19.757980346679688 -27.833381652832031
   vertex -8.8819942474365234 20.013311386108398 -27.822175979614258
  endloop
 endfacet
 facet normal 0.92751287547850148 0.25065299626762105 -0.27729576499410463
  outer loop
   vertex -7.163355827331543 20.013311386108398 -22.073587417602539
   vertex -8.8819942474365234 20.013311386108398 -27.822175979614258
   vertex -7.2253894805908203 20.263376235961914 -22.055042266845703
  endloop
 endfacet
 facet normal 0.92751287547850148 0.25065299626762105 -0.27729576499410463
  outer loop
   vertex -7.2253894805908203 20.263376235961914 -22.055042266845703
   vertex -8.8819942474365234 20.013311386108398 -27.822175979614258
   vertex -8.9440279006958008 20.263376235961914 -27.803630828857422
  endloop
 endfacet
 facet normal 0.89845831247315766 0.34730627159487659 -0.26860940873087774
  outer loop
   vertex -7.2253894805908203 20.263376235961914 -22.055042266845703
   vertex -8.9440279006958008 20.263376235961914 -27.803630828857422
   vertex -7.3113431930541992 20.505607604980469 -22.02934455871582
  endloop
 endfacet
 facet normal 0.89845831247315766 0.34730627159487659 -0.26860940873087774
  outer loop
   vertex -7.3113431930541992 20.505607604980469 -22.02934455871582
   vertex -8.9440279006958008 20.263376235961914 -27.803630828857422
   vertex -9.0299816131591797 20.505607604980469 -27.777933120727539
  endloop
 endfacet
 facet normal 0.86018525347709485 0.44039351762192153 -0.25716702614669795
  outer loop
   vertex -7.3113431930541992 20.505607604980469 -22.02934455871582
   vertex -9.0299816131591797 20.505607604980469 -27.777933120727539
   vertex -7.4203348159790039 20.737520217895508 -21.996759414672852
  endloop
 endfacet
 facet normal 0.86018525347709485 0.44039351762192153 -0.25716702614669795
  outer loop
   vertex -7.4203348159790039 20.737520217895508 -21.996759414672852
   vertex -9.0299816131591797 20.505607604980469 -27.777933120727539
   vertex -9.1389732360839844 20.737520217895508 -27.74534797668457
  endloop
 endfacet
 facet normal 0.81308376083917933 0.52896537443056957 -0.24308523302155474
  outer loop
   vertex -7.4203348159790039 20.737520217895508 -21.996759414672852
   vertex -9.1389732360839844 20.737520217895508 -27.74534797668457
   vertex -7.5512466430664062 20.956733703613281 -21.957620620727539
  endloop
 endfacet
 facet normal 0.81308469264335737 0.52896385117594624 -0.24308543094592935
  outer loop
   vertex -7.5512466430664062 20.956733703613281 -21.957620620727539
   vertex -9.1389732360839844 20.737520217895508 -27.74534797668457
   vertex -9.2698850631713867 20.956733703613281 -27.706211090087891
  endloop
 endfacet
 facet normal 0.75764051760462647 0.61210645500015237 -0.22650945638303946
  outer loop
   vertex -7.5512466430664062 20.956733703613281 -21.957620620727539
   vertex -9.2698850631713867 20.956733703613281 -27.706211090087891
   vertex -7.7027349472045898 21.160999298095703 -21.912330627441406
  endloop
 endfacet
 facet normal 0.75763951610958091 0.61210777759478441 -0.22650923212358046
  outer loop
   vertex -7.7027349472045898 21.160999298095703 -21.912330627441406
   vertex -9.2698850631713867 20.956733703613281 -27.706211090087891
   vertex -9.4213733673095703 21.160999298095703 -27.660919189453125
  endloop
 endfacet
 facet normal 0.69442210058371023 0.68896757604325498 -0.20760930947813702
  outer loop
   vertex -7.7027349472045898 21.160999298095703 -21.912330627441406
   vertex -9.4213733673095703 21.160999298095703 -27.660919189453125
   vertex -7.8732452392578125 21.348220825195312 -21.861352920532227
  endloop
 endfacet
 facet normal 0.69442313140205458 0.68896646495394287 -0.20760954877517607
  outer loop
   vertex -7.8732452392578125 21.348220825195312 -21.861352920532227
   vertex -9.4213733673095703 21.160999298095703 -27.660919189453125
   vertex -9.591883659362793 21.348220825195312 -27.609943389892578
  endloop
 endfacet
 facet normal 0.62408538735867358 0.75875226582468502 -0.18658088967330139
  outer loop
   vertex -7.8732452392578125 21.348220825195312 -21.861352920532227
   vertex -9.591883659362793 21.348220825195312 -27.609943389892578
   vertex -8.0610275268554688 21.5164794921875 -21.805213928222656
  endloop
 endfacet
 facet normal 0.62408266544941826 0.75875466405321923 -0.1865802413521756
  outer loop
   vertex -8.0610275268554688 21.5164794921875 -21.805213928222656
   vertex -9.591883659362793 21.348220825195312 -27.609943389892578
   vertex -9.7796669006347656 21.5164794921875 -27.553802490234375
  endloop
 endfacet
 facet normal 0.54732765235702519 0.82076590985090414 -0.16363301070372427
  outer loop
   vertex -8.0610275268554688 21.5164794921875 -21.805213928222656
   vertex -9.7796669006347656 21.5164794921875 -27.553802490234375
   vertex -8.2641563415527344 21.664043426513672 -21.744483947753906
  endloop
 endfacet
 facet normal 0.54733023136129255 0.82076406524365286 -0.16363363664817357
  outer loop
   vertex -8.2641563415527344 21.664043426513672 -21.744483947753906
   vertex -9.7796669006347656 21.5164794921875 -27.553802490234375
   vertex -9.9827947616577148 21.664043426513672 -27.493074417114258
  endloop
 endfacet
 facet normal 0.4649662852771122 0.87434701411749072 -0.13900954089353576
  outer loop
   vertex -8.2641563415527344 21.664043426513672 -21.744483947753906
   vertex -9.9827947616577148 21.664043426513672 -27.493074417114258
   vertex -8.4805459976196289 21.789402008056641 -21.679790496826172
  endloop
 endfacet
 facet normal 0.4649662852771122 0.87434701411749072 -0.13900954089353576
  outer loop
   vertex -8.4805459976196289 21.789402008056641 -21.679790496826172
   vertex -9.9827947616577148 21.664043426513672 -27.493074417114258
   vertex -10.199184417724609 21.789402008056641 -27.428380966186523
  endloop
 endfacet
 facet normal 0.37782998361292092 0.91895856416764432 -0.11295866866248605
  outer loop
   vertex -8.4805459976196289 21.789402008056641 -21.679790496826172
   vertex -10.199184417724609 21.789402008056641 -27.428380966186523
   vertex -8.7079763412475586 21.891267776489258 -21.611797332763672
  endloop
 endfacet
 facet normal 0.37782923896050319 0.91895889308962964 -0.11295848351500487
  outer loop
   vertex -8.7079763412475586 21.891267776489258 -21.611797332763672
   vertex -10.199184417724609 21.789402008056641 -27.428380966186523
   vertex -10.426614761352539 21.891267776489258 -27.360385894775391
  endloop
 endfacet
 facet normal 0.28682268837984154 0.95413814133458041 -0.085750525836012878
  outer loop
   vertex -8.7079763412475586 21.891267776489258 -21.611797332763672
   vertex -10.426614761352539 21.891267776489258 -27.360385894775391
   vertex -8.9441127777099609 21.968597412109375 -21.54119873046875
  endloop
 endfacet
 facet normal 0.28682229391488312 0.95413826879369801 -0.085750427035493154
  outer loop
   vertex -8.9441127777099609 21.968597412109375 -21.54119873046875
   vertex -10.426614761352539 21.891267776489258 -27.360385894775391
   vertex -10.662752151489258 21.968597412109375 -27.289789199829102
  endloop
 endfacet
 facet normal 0.19286576331678223 0.97952951063030524 -0.057660516339947794
  outer loop
   vertex -8.9441127777099609 21.968597412109375 -21.54119873046875
   vertex -10.662752151489258 21.968597412109375 -27.289789199829102
   vertex -9.1865339279174805 22.020595550537109 -21.468723297119141
  endloop
 endfacet
 facet normal 0.19286576331678223 0.97952951063030524 -0.057660516339947794
  outer loop
   vertex -9.1865339279174805 22.020595550537109 -21.468723297119141
   vertex -10.662752151489258 21.968597412109375 -27.289789199829102
   vertex -10.905173301696777 22.020595550537109 -27.217313766479492
  endloop
 endfacet
 facet normal 0.096921060452350605 0.99487018622330181 -0.028976207564214922
  outer loop
   vertex -9.1865339279174805 22.020595550537109 -21.468723297119141
   vertex -10.905173301696777 22.020595550537109 -27.217313766479492
   vertex -9.4327516555786133 22.046726226806641 -21.395112991333008
  endloop
 endfacet
 facet normal 0.096921199362077298 0.99487017166931391 -0.028976242628856418
  outer loop
   vertex -9.4327516555786133 22.046726226806641 -21.395112991333008
   vertex -10.905173301696777 22.020595550537109 -27.217313766479492
   vertex -11.151390075683594 22.046726226806641 -27.143701553344727
  endloop
 endfacet
 facet normal 0 1 0
  outer loop
   vertex -9.4327516555786133 22.046726226806641 -21.395112991333008
   vertex -11.151390075683594 22.046726226806641 -27.143701553344727
   vertex -9.6802387237548828 22.046726226806641 -21.321123123168945
  endloop
 endfacet
 facet normal 0 1 -0
  outer loop
   vertex -9.6802387237548828 22.046726226806641 -21.321123123168945
   vertex -11.151390075683594 22.046726226806641 -27.143701553344727
   vertex -11.398877143859863 22.046726226806641 -27.069711685180664
  endloop
 endfacet
 facet normal -0.096921199362077298 0.99487017166931391 0.028976242628856418
  outer loop
   vertex -9.6802387237548828 22.046726226806641 -21.321123123168945
   vertex -11.398877143859863 22.046726226806641 -27.069711685180664
   vertex -9.9264554977416992 22.020595550537109 -21.24751091003418
  endloop
 endfacet
 facet normal -0.096921060452350605 0.99487018622330181 0.028976207564214922
  outer loop
   vertex -9.9264554977416992 22.020595550537109 -21.24751091003418
   vertex -11.398877143859863 22.046726226806641 -27.069711685180664
   vertex -11.645094871520996 22.020595550537109 -26.996101379394531
  endloop
 endfacet
 facet normal -0.19286576331678223 0.97952951063030524 0.057660516339947794
  outer loop
   vertex -9.9264554977416992 22.020595550537109 -21.24751091003418
   vertex -11.645094871520996 22.020595550537109 -26.996101379394531
   vertex -10.168876647949219 21.968597412109375 -21.17503547668457
  endloop
 endfacet
 facet normal -0.19286576331678223 0.97952951063030524 0.057660516339947794
  outer loop
   vertex -10.168876647949219 21.968597412109375 -21.17503547668457
   vertex -11.645094871520996 22.020595550537109 -26.996101379394531
   vertex -11.887516021728516 21.968597412109375 -26.923625946044922
  endloop
 endfacet
 facet normal -0.28682229391488312 0.95413826879369801 0.085750427035493154
  outer loop
   vertex -10.168876647949219 21.968597412109375 -21.17503547668457
   vertex -11.887516021728516 21.968597412109375 -26.923625946044922
   vertex -10.405014038085938 21.891267776489258 -21.104438781738281
  endloop
 endfacet
 facet normal -0.28682268837984154 0.95413814133458041 0.085750525836012878
  outer loop
   vertex -10.405014038085938 21.891267776489258 -21.104438781738281
   vertex -11.887516021728516 21.968597412109375 -26.923625946044922
   vertex -12.123652458190918 21.891267776489258 -26.85302734375
  endloop
 endfacet
 facet normal -0.37782923896050319 0.91895889308962964 0.11295848351500487
  outer loop
   vertex -10.405014038085938 21.891267776489258 -21.104438781738281
   vertex -12.123652458190918 21.891267776489258 -26.85302734375
   vertex -10.632444381713867 21.789402008056641 -21.036443710327148
  endloop
 endfacet
 facet normal -0.37782998361292092 0.91895856416764432 0.11295866866248605
  outer loop
   vertex -10.632444381713867 21.789402008056641 -21.036443710327148
   vertex -12.123652458190918 21.891267776489258 -26.85302734375
   vertex -12.351082801818848 21.789402008056641 -26.7850341796875
  endloop
 endfacet
 facet normal -0.4649662852771122 0.87434701411749072 0.13900954089353576
  outer loop
   vertex -10.632444381713867 21.789402008056641 -21.036443710327148
   vertex -12.351082801818848 21.789402008056641 -26.7850341796875
   vertex -10.848834037780762 21.664043426513672 -20.971750259399414
  endloop
 endfacet
 facet normal -0.4649662852771122 0.87434701411749072 0.13900954089353576
  outer loop
   vertex -10.848834037780762 21.664043426513672 -20.971750259399414
   vertex -12.351082801818848 21.789402008056641 -26.7850341796875
   vertex -12.567472457885742 21.664043426513672 -26.720340728759766
  endloop
 endfacet
 facet normal -0.54733023136129255 0.82076406524365286 0.16363363664817357
  outer loop
   vertex -10.848834037780762 21.664043426513672 -20.971750259399414
   vertex -12.567472457885742 21.664043426513672 -26.720340728759766
   vertex -11.051961898803711 21.5164794921875 -20.911022186279297
  endloop
 endfacet
 facet normal -0.54732765235702519 0.82076590985090414 0.16363301070372427
  outer loop
   vertex -11.051961898803711 21.5164794921875 -20.911022186279297
   vertex -12.567472457885742 21.664043426513672 -26.720340728759766
   vertex -12.770601272583008 21.5164794921875 -26.659610748291016
  endloop
 endfacet
 facet normal -0.62408266544941826 0.75875466405321923 0.1865802413521756
  outer loop
   vertex -11.051961898803711 21.5164794921875 -20.911022186279297
   vertex -12.770601272583008 21.5164794921875 -26.659610748291016
   vertex -11.239745140075684 21.348220825195312 -20.854881286621094
  endloop
 endfacet
 facet normal -0.62408538735867358 0.75875226582468502 0.18658088967330139
  outer loop
   vertex -11.239745140075684 21.348220825195312 -20.854881286621094
   vertex -12.770601272583008 21.5164794921875 -26.659610748291016
   vertex -12.958383560180664 21.348220825195312 -26.603471755981445
  endloop
 endfacet
 facet normal -0.69442313140205458 0.68896646495394287 0.20760954877517607
  outer loop
   vertex -11.239745140075684 21.348220825195312 -20.854881286621094
   vertex -12.958383560180664 21.348220825195312 -26.603471755981445
   vertex -11.410255432128906 21.160999298095703 -20.803905487060547
  endloop
 endfacet
 facet normal -0.69442210058371023 0.68896757604325498 0.20760930947813702
  outer loop
   vertex -11.410255432128906 21.160999298095703 -20.803905487060547
   vertex -12.958383560180664 21.348220825195312 -26.603471755981445
   vertex -13.128893852233887 21.160999298095703 -26.552494049072266
  endloop
 endfacet
 facet normal -0.75763951610958091 0.61210777759478441 0.22650923212358046
  outer loop
   vertex -11.410255432128906 21.160999298095703 -20.803905487060547
   vertex -13.128893852233887 21.160999298095703 -26.552494049072266
   vertex -11.56174373626709 20.956733703613281 -20.758613586425781
  endloop
 endfacet
 facet normal -0.75764051760462647 0.61210645500015237 0.22650945638303946
  outer loop
   vertex -11.56174373626709 20.956733703613281 -20.758613586425781
   vertex -13.128893852233887 21.160999298095703 -26.552494049072266
   vertex -13.28038215637207 20.956733703613281 -26.507204055786133
  endloop
 endfacet
 facet normal -0.81308469264335737 0.52896385117594624 0.24308543094592935
  outer loop
   vertex -11.56174373626709 20.956733703613281 -20.758613586425781
   vertex -13.28038215637207 20.956733703613281 -26.507204055786133
   vertex -11.692655563354492 20.737520217895508 -20.719476699829102
  endloop
 endfacet
 facet normal -0.81308376083917933 0.52896537443056957 0.24308523302155474
  outer loop
   vertex -11.692655563354492 20.737520217895508 -20.719476699829102
   vertex -13.28038215637207 20.956733703613281 -26.507204055786133
   vertex -13.411293983459473 20.737520217895508 -26.46806526184082
  endloop
 endfacet
 facet normal -0.86018525347709485 0.44039351762192153 0.25716702614669795
  outer loop
   vertex -11.692655563354492 20.737520217895508 -20.719476699829102
   vertex -13.411293983459473 20.737520217895508 -26.46806526184082
   vertex -11.801647186279297 20.505607604980469 -20.686891555786133
  endloop
 endfacet
 facet normal -0.86018525347709485 0.44039351762192153 0.25716702614669795
  outer loop
   vertex -11.801647186279297 20.505607604980469 -20.686891555786133
   vertex -13.411293983459473 20.737520217895508 -26.46806526184082
   vertex -13.520285606384277 20.505607604980469 -26.435480117797852
  endloop
 endfacet
 facet normal -0.89845831247315766 0.34730627159487659 0.26860940873087774
  outer loop
   vertex -11.801647186279297 20.505607604980469 -20.686891555786133
   vertex -13.520285606384277 20.505607604980469 -26.435480117797852
   vertex -11.887600898742676 20.263376235961914 -20.66119384765625
  endloop
 endfacet
 facet normal -0.89845831247315766 0.34730627159487659 0.26860940873087774
  outer loop
   vertex -11.887600898742676 20.263376235961914 -20.66119384765625
   vertex -13.520285606384277 20.505607604980469 -26.435480117797852
   vertex -13.606239318847656 20.263376235961914 -26.409782409667969
  endloop
 endfacet
 facet normal -0.92751287547850148 0.25065299626762105 0.27729576499410463
  outer loop
   vertex -11.887600898742676 20.263376235961914 -20.66119384765625
   vertex -13.606239318847656 20.263376235961914 -26.409782409667969
   vertex -11.949634552001953 20.013311386108398 -20.642648696899414
  endloop
 endfacet
 facet normal -0.92751287547850148 0.25065299626762105 0.27729576499410463
  outer loop
   vertex -11.949634552001953 20.013311386108398 -20.642648696899414
   vertex -13.606239318847656 20.263376235961914 -26.409782409667969
   vertex -13.668272972106934 20.013311386108398 -26.391237258911133
  endloop
 endfacet
 facet normal -0.94704989799394346 0.15142689723700575 0.28313669049212709
  outer loop
   vertex -11.949634552001953 20.013311386108398 -20.642648696899414
   vertex -13.668272972106934 20.013311386108398 -26.391237258911133
   vertex -11.987110137939453 19.757980346679688 -20.631443023681641
  endloop
 endfacet
 facet normal -0.94704967669810391 0.15142828684431159 0.2831366875016621
  outer loop
   vertex -11.987110137939453 19.757980346679688 -20.631443023681641
   vertex -13.668272972106934 20.013311386108398 -26.391237258911133
   vertex -13.70574951171875 19.757980346679688 -26.380033493041992
  endloop
 endfacet
 facet normal -0.95686859550947434 0.050647559087452804 0.28607222110196068
  outer loop
   vertex -11.987110137939453 19.757980346679688 -20.631443023681641
   vertex -13.70574951171875 19.757980346679688 -26.380033493041992
   vertex -11.999645233154297 19.5 -20.627696990966797
  endloop
 endfacet
 facet normal -0.95686846695708661 0.050649668704521235 0.28607227758613257
  outer loop
   vertex -11.999645233154297 19.5 -20.627696990966797
   vertex -13.70574951171875 19.757980346679688 -26.380033493041992
   vertex -13.718284606933594 19.5 -26.376285552978516
  endloop
 endfacet
 facet normal 0.9580982252291621 0 -0.28643985548929796
  outer loop
   vertex -8.8319835662841797 4.5 -27.837127685546875
   vertex -8.8319835662841797 19.5 -27.837127685546875
   vertex -7.113344669342041 4.5 -22.088539123535156
  endloop
 endfacet
 facet normal 0.9580982252291621 0 -0.28643985548929796
  outer loop
   vertex -7.113344669342041 4.5 -22.088539123535156
   vertex -8.8319835662841797 19.5 -27.837127685546875
   vertex -7.113344669342041 19.5 -22.088539123535156
  endloop
 endfacet
 facet normal -0.95686856038696311 -0.050647745835856232 0.2860723055186003
  outer loop
   vertex -11.999645233154297 4.5 -20.627696990966797
   vertex -13.718284606933594 4.5 -26.376285552978516
   vertex -11.987110137939453 4.2420206069946289 -20.631443023681641
  endloop
 endfacet
 facet normal -0.95686848393143853 -0.050649855461064291 0.28607218774379983
  outer loop
   vertex -11.987110137939453 4.2420206069946289 -20.631443023681641
   vertex -13.718284606933594 4.5 -26.376285552978516
   vertex -13.70574951171875 4.2420206069946289 -26.380033493041992
  endloop
 endfacet
 facet normal -0.94704996176749023 -0.15142634462124721 0.28313677272802745
  outer loop
   vertex -11.987110137939453 4.2420206069946289 -20.631443023681641
   vertex -13.70574951171875 4.2420206069946289 -26.380033493041992
   vertex -11.949634552001953 3.9866886138916016 -20.642648696899414
  endloop
 endfacet
 facet normal -0.94704977514543009 -0.15142773422344852 0.28313665376447256
  outer loop
   vertex -11.949634552001953 3.9866886138916016 -20.642648696899414
   vertex -13.70574951171875 4.2420206069946289 -26.380033493041992
   vertex -13.668272972106934 3.9866886138916016 -26.391237258911133
  endloop
 endfacet
 facet normal -0.92751287547850148 -0.25065299626762105 0.27729576499410463
  outer loop
   vertex -11.949634552001953 3.9866886138916016 -20.642648696899414
   vertex -13.668272972106934 3.9866886138916016 -26.391237258911133
   vertex -11.887600898742676 3.7366237640380859 -20.66119384765625
  endloop
 endfacet
 facet normal -0.92751287547850148 -0.25065299626762105 0.27729576499410463
  outer loop
   vertex -11.887600898742676 3.7366237640380859 -20.66119384765625
   vertex -13.668272972106934 3.9866886138916016 -26.391237258911133
   vertex -13.606239318847656 3.7366237640380859 -26.409782409667969
  endloop
 endfacet
 facet normal -0.89845831247315766 -0.34730627159487659 0.26860940873087774
  outer loop
   vertex -11.887600898742676 3.7366237640380859 -20.66119384765625
   vertex -13.606239318847656 3.7366237640380859 -26.409782409667969
   vertex -11.801647186279297 3.4943923950195312 -20.686891555786133
  endloop
 endfacet
 facet normal -0.89845831247315766 -0.34730627159487659 0.26860940873087774
  outer loop
   vertex -11.801647186279297 3.4943923950195312 -20.686891555786133
   vertex -13.606239318847656 3.7366237640380859 -26.409782409667969
   vertex -13.520285606384277 3.4943923950195312 -26.435480117797852
  endloop
 endfacet
 facet normal -0.86018525347709485 -0.44039351762192153 0.25716702614669795
  outer loop
   vertex -11.801647186279297 3.4943923950195312 -20.686891555786133
   vertex -13.520285606384277 3.4943923950195312 -26.435480117797852
   vertex -11.692655563354492 3.2624797821044922 -20.719476699829102
  endloop
 endfacet
 facet normal -0.86018525347709485 -0.44039351762192153 0.25716702614669795
  outer loop
   vertex -11.692655563354492 3.2624797821044922 -20.719476699829102
   vertex -13.520285606384277 3.4943923950195312 -26.435480117797852
   vertex -13.411293983459473 3.2624797821044922 -26.46806526184082
  endloop
 endfacet
 facet normal -0.81308467050899391 -0.5289638511755993 0.24308550498283291
  outer loop
   vertex -11.692655563354492 3.2624797821044922 -20.719476699829102
   vertex -13.411293983459473 3.2624797821044922 -26.46806526184082
   vertex -11.56174373626709 3.0432662963867188 -20.758613586425781
  endloop
 endfacet
 facet normal -0.81308378297379491 -0.52896537443045255 0.24308515898481681
  outer loop
   vertex -11.56174373626709 3.0432662963867188 -20.758613586425781
   vertex -13.411293983459473 3.2624797821044922 -26.46806526184082
   vertex -13.28038215637207 3.0432662963867188 -26.507204055786133
  endloop
 endfacet
 facet normal -0.7576408620570092 -0.61210599054308601 0.22650955936290942
  outer loop
   vertex -11.56174373626709 3.0432662963867188 -20.758613586425781
   vertex -13.28038215637207 3.0432662963867188 -26.507204055786133
   vertex -11.410255432128906 2.8389997482299805 -20.803905487060547
  endloop
 endfacet
 facet normal -0.75764182229730503 -0.61210466794808815 0.22650992159766334
  outer loop
   vertex -11.410255432128906 2.8389997482299805 -20.803905487060547
   vertex -13.28038215637207 3.0432662963867188 -26.507204055786133
   vertex -13.128893852233887 2.8389997482299805 -26.552494049072266
  endloop
 endfacet
 facet normal -0.69442311249798794 -0.68896646495373937 0.20760961200713812
  outer loop
   vertex -11.410255432128906 2.8389997482299805 -20.803905487060547
   vertex -13.128893852233887 2.8389997482299805 -26.552494049072266
   vertex -11.239745140075684 2.6517782211303711 -20.854881286621094
  endloop
 endfacet
 facet normal -0.69442211948805754 -0.68896757604312009 0.20760924624635926
  outer loop
   vertex -11.239745140075684 2.6517782211303711 -20.854881286621094
   vertex -13.128893852233887 2.8389997482299805 -26.552494049072266
   vertex -12.958383560180664 2.6517782211303711 -26.603471755981445
  endloop
 endfacet
 facet normal -0.62407863798108887 -0.75875831343144473 0.18657887183263405
  outer loop
   vertex -11.239745140075684 2.6517782211303711 -20.854881286621094
   vertex -12.958383560180664 2.6517782211303711 -26.603471755981445
   vertex -11.051961898803711 2.4835214614868164 -20.911022186279297
  endloop
 endfacet
 facet normal -0.62408126909378603 -0.75875591522197772 0.18657982388765479
  outer loop
   vertex -11.051961898803711 2.4835214614868164 -20.911022186279297
   vertex -12.958383560180664 2.6517782211303711 -26.603471755981445
   vertex -12.770601272583008 2.4835214614868164 -26.659610748291016
  endloop
 endfacet
 facet normal -0.54733019154246776 -0.82076406524351575 0.16363376983686309
  outer loop
   vertex -11.051961898803711 2.4835214614868164 -20.911022186279297
   vertex -12.770601272583008 2.4835214614868164 -26.659610748291016
   vertex -10.848834037780762 2.3359575271606445 -20.971750259399414
  endloop
 endfacet
 facet normal -0.54732769217632304 -0.82076590985056341 0.16363287751584926
  outer loop
   vertex -10.848834037780762 2.3359575271606445 -20.971750259399414
   vertex -12.770601272583008 2.4835214614868164 -26.659610748291016
   vertex -12.567472457885742 2.3359575271606445 -26.720340728759766
  endloop
 endfacet
 facet normal -0.46496898944702247 -0.87434544753544374 0.13901034935090059
  outer loop
   vertex -10.848834037780762 2.3359575271606445 -20.971750259399414
   vertex -12.567472457885742 2.3359575271606445 -26.720340728759766
   vertex -10.632444381713867 2.2105979919433594 -21.036443710327148
  endloop
 endfacet
 facet normal -0.46496898944702247 -0.87434544753544374 0.13901034935090059
  outer loop
   vertex -10.632444381713867 2.2105979919433594 -21.036443710327148
   vertex -12.567472457885742 2.3359575271606445 -26.720340728759766
   vertex -12.351082801818848 2.2105979919433594 -26.7850341796875
  endloop
 endfacet
 facet normal -0.37782924924623967 -0.91895889308958167 0.11295844911113696
  outer loop
   vertex -10.632444381713867 2.2105979919433594 -21.036443710327148
   vertex -12.351082801818848 2.2105979919433594 -26.7850341796875
   vertex -10.405014038085938 2.1087322235107422 -21.104438781738281
  endloop
 endfacet
 facet normal -0.3778299733273881 -0.91895856416759192 0.11295870306648768
  outer loop
   vertex -10.405014038085938 2.1087322235107422 -21.104438781738281
   vertex -12.351082801818848 2.2105979919433594 -26.7850341796875
   vertex -12.123652458190918 2.1087322235107422 -26.85302734375
  endloop
 endfacet
 facet normal -0.28681907890933672 -0.9541393233486597 0.085749446723354369
  outer loop
   vertex -10.405014038085938 2.1087322235107422 -21.104438781738281
   vertex -12.123652458190918 2.1087322235107422 -26.85302734375
   vertex -10.168876647949219 2.0314035415649414 -21.17503547668457
  endloop
 endfacet
 facet normal -0.28681946286997773 -0.95413919589228335 0.085749580646231421
  outer loop
   vertex -10.168876647949219 2.0314035415649414 -21.17503547668457
   vertex -12.123652458190918 2.1087322235107422 -26.85302734375
   vertex -11.887516021728516 2.0314035415649414 -26.923625946044922
  endloop
 endfacet
 facet normal -0.19286576331678223 -0.97952951063030524 0.057660516339947794
  outer loop
   vertex -10.168876647949219 2.0314035415649414 -21.17503547668457
   vertex -11.887516021728516 2.0314035415649414 -26.923625946044922
   vertex -9.9264554977416992 1.979405403137207 -21.24751091003418
  endloop
 endfacet
 facet normal -0.19286576331678223 -0.97952951063030524 0.057660516339947794
  outer loop
   vertex -9.9264554977416992 1.979405403137207 -21.24751091003418
   vertex -11.887516021728516 2.0314035415649414 -26.923625946044922
   vertex -11.645094871520996 1.979405403137207 -26.996101379394531
  endloop
 endfacet
 facet normal -0.096928199723802733 -0.99486942851556603 0.028978341971437546
  outer loop
   vertex -9.9264554977416992 1.979405403137207 -21.24751091003418
   vertex -11.645094871520996 1.979405403137207 -26.996101379394531
   vertex -9.6802387237548828 1.953272819519043 -21.321123123168945
  endloop
 endfacet
 facet normal -0.096928064352881552 -0.99486944307164438 0.028978295034733544
  outer loop
   vertex -9.6802387237548828 1.953272819519043 -21.321123123168945
   vertex -11.645094871520996 1.979405403137207 -26.996101379394531
   vertex -11.398877143859863 1.953272819519043 -27.069711685180664
  endloop
 endfacet
 facet normal 0 -1 0
  outer loop
   vertex -9.6802387237548828 1.953272819519043 -21.321123123168945
   vertex -11.398877143859863 1.953272819519043 -27.069711685180664
   vertex -9.4327516555786133 1.953272819519043 -21.395112991333008
  endloop
 endfacet
 facet normal 0 -1 0
  outer loop
   vertex -9.4327516555786133 1.953272819519043 -21.395112991333008
   vertex -11.398877143859863 1.953272819519043 -27.069711685180664
   vertex -11.151390075683594 1.953272819519043 -27.143701553344727
  endloop
 endfacet
 facet normal 0.096928064352881552 -0.99486944307164438 -0.028978295034733544
  outer loop
   vertex -9.4327516555786133 1.953272819519043 -21.395112991333008
   vertex -11.151390075683594 1.953272819519043 -27.143701553344727
   vertex -9.1865339279174805 1.979405403137207 -21.468723297119141
  endloop
 endfacet
 facet normal 0.096928199723802733 -0.99486942851556603 -0.028978341971437546
  outer loop
   vertex -9.1865339279174805 1.979405403137207 -21.468723297119141
   vertex -11.151390075683594 1.953272819519043 -27.143701553344727
   vertex -10.905173301696777 1.979405403137207 -27.217313766479492
  endloop
 endfacet
 facet normal 0.19286576331678223 -0.97952951063030524 -0.057660516339947794
  outer loop
   vertex -9.1865339279174805 1.979405403137207 -21.468723297119141
   vertex -10.905173301696777 1.979405403137207 -27.217313766479492
   vertex -8.9441127777099609 2.0314035415649414 -21.54119873046875
  endloop
 endfacet
 facet normal 0.19286576331678223 -0.97952951063030524 -0.057660516339947794
  outer loop
   vertex -8.9441127777099609 2.0314035415649414 -21.54119873046875
   vertex -10.905173301696777 1.979405403137207 -27.217313766479492
   vertex -10.662752151489258 2.0314035415649414 -27.289789199829102
  endloop
 endfacet
 facet normal 0.28681946286997773 -0.95413919589228335 -0.085749580646231421
  outer loop
   vertex -8.9441127777099609 2.0314035415649414 -21.54119873046875
   vertex -10.662752151489258 2.0314035415649414 -27.289789199829102
   vertex -8.7079763412475586 2.1087322235107422 -21.611797332763672
  endloop
 endfacet
 facet normal 0.28681907890933672 -0.9541393233486597 -0.085749446723354369
  outer loop
   vertex -8.7079763412475586 2.1087322235107422 -21.611797332763672
   vertex -10.662752151489258 2.0314035415649414 -27.289789199829102
   vertex -10.426614761352539 2.1087322235107422 -27.360385894775391
  endloop
 endfacet
 facet normal 0.3778299733273881 -0.91895856416759192 -0.11295870306648768
  outer loop
   vertex -8.7079763412475586 2.1087322235107422 -21.611797332763672
   vertex -10.426614761352539 2.1087322235107422 -27.360385894775391
   vertex -8.4805459976196289 2.2105979919433594 -21.679790496826172
  endloop
 endfacet
 facet normal 0.37782924924623967 -0.91895889308958167 -0.11295844911113696
  outer loop
   vertex -8.4805459976196289 2.2105979919433594 -21.679790496826172
   vertex -10.426614761352539 2.1087322235107422 -27.360385894775391
   vertex -10.199184417724609 2.2105979919433594 -27.428380966186523
  endloop
 endfacet
 facet normal 0.46496898944702247 -0.87434544753544374 -0.13901034935090059
  outer loop
   vertex -8.4805459976196289 2.2105979919433594 -21.679790496826172
   vertex -10.199184417724609 2.2105979919433594 -27.428380966186523
   vertex -8.2641563415527344 2.3359575271606445 -21.744483947753906
  endloop
 endfacet
 facet normal 0.46496898944702247 -0.87434544753544374 -0.13901034935090059
  outer loop
   vertex -8.2641563415527344 2.3359575271606445 -21.744483947753906
   vertex -10.199184417724609 2.2105979919433594 -27.428380966186523
   vertex -9.9827947616577148 2.3359575271606445 -27.493074417114258
  endloop
 endfacet
 facet normal 0.54732769217632304 -0.82076590985056341 -0.16363287751584926
  outer loop
   vertex -8.2641563415527344 2.3359575271606445 -21.744483947753906
   vertex -9.9827947616577148 2.3359575271606445 -27.493074417114258
   vertex -8.0610275268554688 2.4835214614868164 -21.805213928222656
  endloop
 endfacet
 facet normal 0.54733019154246776 -0.82076406524351575 -0.16363376983686309
  outer loop
   vertex -8.0610275268554688 2.4835214614868164 -21.805213928222656
   vertex -9.9827947616577148 2.3359575271606445 -27.493074417114258
   vertex -9.7796669006347656 2.4835214614868164 -27.553802490234375
  endloop
 endfacet
 facet normal 0.62408126909378603 -0.75875591522197772 -0.18657982388765479
  outer loop
   vertex -8.0610275268554688 2.4835214614868164 -21.805213928222656
   vertex -9.7796669006347656 2.4835214614868164 -27.553802490234375
   vertex -7.8732452392578125 2.6517782211303711 -21.861352920532227
  endloop
 endfacet
 facet normal 0.62407863798108887 -0.75875831343144473 -0.18657887183263405
  outer loop
   vertex -7.8732452392578125 2.6517782211303711 -21.861352920532227
   vertex -9.7796669006347656 2.4835214614868164 -27.553802490234375
   vertex -9.591883659362793 2.6517782211303711 -27.609943389892578
  endloop
 endfacet
 facet normal 0.69442211948805754 -0.68896757604312009 -0.20760924624635926
  outer loop
   vertex -7.8732452392578125 2.6517782211303711 -21.861352920532227
   vertex -9.591883659362793 2.6517782211303711 -27.609943389892578
   vertex -7.7027349472045898 2.8389997482299805 -21.912330627441406
  endloop
 endfacet
 facet normal 0.69442311249798794 -0.68896646495373937 -0.20760961200713812
  outer loop
   vertex -7.7027349472045898 2.8389997482299805 -21.912330627441406
   vertex -9.591883659362793 2.6517782211303711 -27.609943389892578
   vertex -9.4213733673095703 2.8389997482299805 -27.660919189453125
  endloop
 endfacet
 facet normal 0.75764182229730503 -0.61210466794808815 -0.22650992159766334
  outer loop
   vertex -7.7027349472045898 2.8389997482299805 -21.912330627441406
   vertex -9.4213733673095703 2.8389997482299805 -27.660919189453125
   vertex -7.5512466430664062 3.0432662963867188 -21.957620620727539
  endloop
 endfacet
 facet normal 0.7576408620570092 -0.61210599054308601 -0.22650955936290942
  outer loop
   vertex -7.5512466430664062 3.0432662963867188 -21.957620620727539
   vertex -9.4213733673095703 2.8389997482299805 -27.660919189453125
   vertex -9.2698850631713867 3.0432662963867188 -27.706211090087891
  endloop
 endfacet
 facet normal 0.81308378297379491 -0.52896537443045255 -0.24308515898481681
  outer loop
   vertex -7.5512466430664062 3.0432662963867188 -21.957620620727539
   vertex -9.2698850631713867 3.0432662963867188 -27.706211090087891
   vertex -7.4203348159790039 3.2624797821044922 -21.996759414672852
  endloop
 endfacet
 facet normal 0.81308467050899391 -0.5289638511755993 -0.24308550498283291
  outer loop
   vertex -7.4203348159790039 3.2624797821044922 -21.996759414672852
   vertex -9.2698850631713867 3.0432662963867188 -27.706211090087891
   vertex -9.1389732360839844 3.2624797821044922 -27.74534797668457
  endloop
 endfacet
 facet normal 0.86018525347709485 -0.44039351762192153 -0.25716702614669795
  outer loop
   vertex -7.4203348159790039 3.2624797821044922 -21.996759414672852
   vertex -9.1389732360839844 3.2624797821044922 -27.74534797668457
   vertex -7.3113431930541992 3.4943923950195312 -22.02934455871582
  endloop
 endfacet
 facet normal 0.86018525347709485 -0.44039351762192153 -0.25716702614669795
  outer loop
   vertex -7.3113431930541992 3.4943923950195312 -22.02934455871582
   vertex -9.1389732360839844 3.2624797821044922 -27.74534797668457
   vertex -9.0299816131591797 3.4943923950195312 -27.777933120727539
  endloop
 endfacet
 facet normal 0.89845831247315766 -0.34730627159487659 -0.26860940873087774
  outer loop
   vertex -7.3113431930541992 3.4943923950195312 -22.02934455871582
   vertex -9.0299816131591797 3.4943923950195312 -27.777933120727539
   vertex -7.2253894805908203 3.7366237640380859 -22.055042266845703
  endloop
 endfacet
 facet normal 0.89845831247315766 -0.34730627159487659 -0.26860940873087774
  outer loop
   vertex -7.2253894805908203 3.7366237640380859 -22.055042266845703
   vertex -9.0299816131591797 3.4943923950195312 -27.777933120727539
   vertex -8.9440279006958008 3.7366237640380859 -27.803630828857422
  endloop
 endfacet
 facet normal 0.92751287547850148 -0.25065299626762105 -0.27729576499410463
  outer loop
   vertex -7.2253894805908203 3.7366237640380859 -22.055042266845703
   vertex -8.9440279006958008 3.7366237640380859 -27.803630828857422
   vertex -7.163355827331543 3.9866886138916016 -22.073587417602539
  endloop
 endfacet
 facet normal 0.92751287547850148 -0.25065299626762105 -0.27729576499410463
  outer loop
   vertex -7.163355827331543 3.9866886138916016 -22.073587417602539
   vertex -8.9440279006958008 3.7366237640380859 -27.803630828857422
   vertex -8.8819942474365234 3.9866886138916016 -27.822175979614258
  endloop
 endfacet
 facet normal 0.94704977514543009 -0.15142773422344852 -0.28313665376447256
  outer loop
   vertex -7.163355827331543 3.9866886138916016 -22.073587417602539
   vertex -8.8819942474365234 3.9866886138916016 -27.822175979614258
   vertex -7.1258792877197266 4.2420206069946289 -22.08479118347168
  endloop
 endfacet
 facet normal 0.94704996176749023 -0.15142634462124721 -0.28313677272802745
  outer loop
   vertex -7.1258792877197266 4.2420206069946289 -22.08479118347168
   vertex -8.8819942474365234 3.9866886138916016 -27.822175979614258
   vertex -8.8445186614990234 4.2420206069946289 -27.833381652832031
  endloop
 endfacet
 facet normal 0.95686856964711586 -0.050648091366712764 -0.28607221336996658
  outer loop
   vertex -7.1258792877197266 4.2420206069946289 -22.08479118347168
   vertex -8.8445186614990234 4.2420206069946289 -27.833381652832031
   vertex -7.113344669342041 4.5 -22.088539123535156
  endloop
 endfacet
 facet normal 0.95686858216928972 -0.050647745836292571 -0.28607223265992782
  outer loop
   vertex -7.113344669342041 4.5 -22.088539123535156
   vertex -8.8445186614990234 4.2420206069946289 -27.833381652832031
   vertex -8.8319835662841797 4.5 -27.837127685546875
  endloop
 endfacet
 facet normal 0.28655345478043726 1.1763715879070339e-05 0.95806425536861106
  outer loop
   vertex -11.987110137939453 4.2420206069946289 -20.631443023681641
   vertex -11.949634552001953 3.9866886138916016 -20.642648696899414
   vertex -11.999645233154297 4.5 -20.627696990966797
  endloop
 endfacet
 facet normal 0.28641772835831975 -2.6419333159801072e-06 0.95810484023152698
  outer loop
   vertex -11.999645233154297 4.5 -20.627696990966797
   vertex -11.949634552001953 3.9866886138916016 -20.642648696899414
   vertex -11.887600898742676 3.7366237640380859 -20.66119384765625
  endloop
 endfacet
 facet normal 0.28645035760717175 2.5752575096172071e-06 0.95809508537518939
  outer loop
   vertex -11.999645233154297 4.5 -20.627696990966797
   vertex -11.887600898742676 3.7366237640380859 -20.66119384765625
   vertex -11.801647186279297 3.4943923950195312 -20.686891555786133
  endloop
 endfacet
 facet normal 0.2864441862276374 1.2515397547543387e-06 0.95809693046936562
  outer loop
   vertex -11.801647186279297 3.4943923950195312 -20.686891555786133
   vertex -11.692655563354492 3.2624797821044922 -20.719476699829102
   vertex -11.999645233154297 4.5 -20.627696990966797
  endloop
 endfacet
 facet normal 0.28642347770875026 -4.3447412933585616e-06 0.95810312148450294
  outer loop
   vertex -11.999645233154297 4.5 -20.627696990966797
   vertex -11.692655563354492 3.2624797821044922 -20.719476699829102
   vertex -11.56174373626709 3.0432662963867188 -20.758613586425781
  endloop
 endfacet
 facet normal 0.28646033408774135 7.7247448459821193e-06 0.9580921025322503
  outer loop
   vertex -11.999645233154297 4.5 -20.627696990966797
   vertex -11.56174373626709 3.0432662963867188 -20.758613586425781
   vertex -11.410255432128906 2.8389997482299805 -20.803905487060547
  endloop
 endfacet
 facet normal 0.2864296581038222 -4.1332756950781908e-06 0.95810127384397292
  outer loop
   vertex -11.410255432128906 2.8389997482299805 -20.803905487060547
   vertex -11.239745140075684 2.6517782211303711 -20.854881286621094
   vertex -11.999645233154297 4.5 -20.627696990966797
  endloop
 endfacet
 facet normal 0.28643958366195749 3.1238520433648434e-07 0.95809830649650296
  outer loop
   vertex -11.999645233154297 4.5 -20.627696990966797
   vertex -11.239745140075684 2.6517782211303711 -20.854881286621094
   vertex -11.051961898803711 2.4835214614868164 -20.911022186279297
  endloop
 endfacet
 facet normal 0.2864371831869541 -9.1659932935803314e-07 0.95809902415516701
  outer loop
   vertex -11.999645233154297 4.5 -20.627696990966797
   vertex -11.051961898803711 2.4835214614868164 -20.911022186279297
   vertex -10.848834037780762 2.3359575271606445 -20.971750259399414
  endloop
 endfacet
 facet normal 0.28643876538828067 0 0.95809855113283493
  outer loop
   vertex -11.999645233154297 4.5 -20.627696990966797
   vertex -10.848834037780762 2.3359575271606445 -20.971750259399414
   vertex -11.999645233154297 19.5 -20.627696990966797
  endloop
 endfacet
 facet normal 0.28644015863879446 1.017638285405954e-07 0.95809813459737614
  outer loop
   vertex -11.999645233154297 19.5 -20.627696990966797
   vertex -10.848834037780762 2.3359575271606445 -20.971750259399414
   vertex -10.632444381713867 2.2105979919433594 -21.036443710327148
  endloop
 endfacet
 facet normal 0.28644341300145765 3.8211241465118828e-07 0.95809716164276915
  outer loop
   vertex -11.999645233154297 19.5 -20.627696990966797
   vertex -10.632444381713867 2.2105979919433594 -21.036443710327148
   vertex -10.405014038085938 2.1087322235107422 -21.104438781738281
  endloop
 endfacet
 facet normal 0.28643749213766623 -2.0930493174773583e-07 0.95809893179036609
  outer loop
   vertex -10.405014038085938 2.1087322235107422 -21.104438781738281
   vertex -10.168876647949219 2.0314035415649414 -21.17503547668457
   vertex -11.999645233154297 19.5 -20.627696990966797
  endloop
 endfacet
 facet normal 0.28643794955513024 -1.5708121875576433e-07 0.95809879503871009
  outer loop
   vertex -11.999645233154297 19.5 -20.627696990966797
   vertex -10.168876647949219 2.0314035415649414 -21.17503547668457
   vertex -9.9264554977416992 1.979405403137207 -21.24751091003418
  endloop
 endfacet
 facet normal 0.28644527698310734 7.8746202587114318e-07 0.95809660436380351
  outer loop
   vertex -11.999645233154297 19.5 -20.627696990966797
   vertex -9.9264554977416992 1.979405403137207 -21.24751091003418
   vertex -9.6802387237548828 1.953272819519043 -21.321123123168945
  endloop
 endfacet
 facet normal 0.28643763496156566 -3.1298502023462907e-07 0.95809888909106189
  outer loop
   vertex -9.6802387237548828 1.953272819519043 -21.321123123168945
   vertex -9.4327516555786133 1.953272819519043 -21.395112991333008
   vertex -11.999645233154297 19.5 -20.627696990966797
  endloop
 endfacet
 facet normal 0.28643740287302016 -3.4997167189626253e-07 0.95809895847727378
  outer loop
   vertex -11.999645233154297 19.5 -20.627696990966797
   vertex -9.4327516555786133 1.953272819519043 -21.395112991333008
   vertex -9.1865339279174805 1.979405403137207 -21.468723297119141
  endloop
 endfacet
 facet normal 0.28643802786759998 -2.4065311316442947e-07 0.95809877162600632
  outer loop
   vertex -11.999645233154297 19.5 -20.627696990966797
   vertex -9.1865339279174805 1.979405403137207 -21.468723297119141
   vertex -8.9441127777099609 2.0314035415649414 -21.54119873046875
  endloop
 endfacet
 facet normal 0.28644537249467084 1.1588657319617271e-06 0.95809657580801644
  outer loop
   vertex -8.9441127777099609 2.0314035415649414 -21.54119873046875
   vertex -8.7079763412475586 2.1087322235107422 -21.611797332763672
   vertex -11.999645233154297 19.5 -20.627696990966797
  endloop
 endfacet
 facet normal 0.28643967273260845 -1.6361694730416697e-08 0.95809827986738183
  outer loop
   vertex -11.999645233154297 19.5 -20.627696990966797
   vertex -8.7079763412475586 2.1087322235107422 -21.611797332763672
   vertex -7.113344669342041 19.5 -22.088539123535156
  endloop
 endfacet
 facet normal 0.28643967272788812 -5.7410210205258933e-06 0.9580982798515929
  outer loop
   vertex -11.999645233154297 19.5 -20.627696990966797
   vertex -7.113344669342041 19.5 -22.088539123535156
   vertex -11.987110137939453 19.757980346679688 -20.631443023681641
  endloop
 endfacet
 facet normal 0.28643986120998161 -1.8620342485293527e-06 0.95809822351705631
  outer loop
   vertex -11.987110137939453 19.757980346679688 -20.631443023681641
   vertex -7.113344669342041 19.5 -22.088539123535156
   vertex -7.1258792877197266 19.757980346679688 -22.08479118347168
  endloop
 endfacet
 facet normal 0.28643986120461296 6.3994121700743144e-06 0.95809822349909901
  outer loop
   vertex -11.987110137939453 19.757980346679688 -20.631443023681641
   vertex -7.1258792877197266 19.757980346679688 -22.08479118347168
   vertex -11.949634552001953 20.013311386108398 -20.642648696899414
  endloop
 endfacet
 facet normal 0.28643963732796013 1.7917480189063867e-06 0.95809829045052386
  outer loop
   vertex -11.949634552001953 20.013311386108398 -20.642648696899414
   vertex -7.1258792877197266 19.757980346679688 -22.08479118347168
   vertex -7.163355827331543 20.013311386108398 -22.073587417602539
  endloop
 endfacet
 facet normal 0.28643963732688021 -3.2787712649712213e-06 0.95809829044691186
  outer loop
   vertex -11.949634552001953 20.013311386108398 -20.642648696899414
   vertex -7.163355827331543 20.013311386108398 -22.073587417602539
   vertex -11.887600898742676 20.263376235961914 -20.66119384765625
  endloop
 endfacet
 facet normal 0.28643996019246537 3.3660231508256686e-06 0.95809819392043971
  outer loop
   vertex -11.887600898742676 20.263376235961914 -20.66119384765625
   vertex -7.163355827331543 20.013311386108398 -22.073587417602539
   vertex -7.2253894805908203 20.263376235961914 -22.055042266845703
  endloop
 endfacet
 facet normal 0.28643996019378948 1.443953076240042e-06 0.95809819392486872
  outer loop
   vertex -11.887600898742676 20.263376235961914 -20.66119384765625
   vertex -7.2253894805908203 20.263376235961914 -22.055042266845703
   vertex -11.801647186279297 20.505607604980469 -20.686891555786133
  endloop
 endfacet
 facet normal 0.28643981718660422 -1.4992336442899504e-06 0.95809823667923366
  outer loop
   vertex -11.801647186279297 20.505607604980469 -20.686891555786133
   vertex -7.2253894805908203 20.263376235961914 -22.055042266845703
   vertex -7.3113431930541992 20.505607604980469 -22.02934455871582
  endloop
 endfacet
 facet normal 0.28643981718678713 9.8530240322277247e-07 0.95809823667984551
  outer loop
   vertex -11.801647186279297 20.505607604980469 -20.686891555786133
   vertex -7.3113431930541992 20.505607604980469 -22.02934455871582
   vertex -11.692655563354492 20.737520217895508 -20.719476699829102
  endloop
 endfacet
 facet normal 0.28643971899385628 -1.0355747409661064e-06 0.95809826603623915
  outer loop
   vertex -11.692655563354492 20.737520217895508 -20.719476699829102
   vertex -7.3113431930541992 20.505607604980469 -22.02934455871582
   vertex -7.4203348159790039 20.737520217895508 -21.996759414672852
  endloop
 endfacet
 facet normal 0.28643971898846676 -6.2212301747937277e-06 0.95809826601821202
  outer loop
   vertex -11.692655563354492 20.737520217895508 -20.719476699829102
   vertex -7.4203348159790039 20.737520217895508 -21.996759414672852
   vertex -11.56174373626709 20.956733703613281 -20.758613586425781
  endloop
 endfacet
 facet normal 0.28643992502132165 -1.9810259546266647e-06 0.95809820443932325
  outer loop
   vertex -11.56174373626709 20.956733703613281 -20.758613586425781
   vertex -7.4203348159790039 20.737520217895508 -21.996759414672852
   vertex -7.5512466430664062 20.956733703613281 -21.957620620727539
  endloop
 endfacet
 facet normal 0.28643992501088317 8.7640548041521623e-06 0.95809820440440818
  outer loop
   vertex -11.56174373626709 20.956733703613281 -20.758613586425781
   vertex -7.5512466430664062 20.956733703613281 -21.957620620727539
   vertex -11.410255432128906 21.160999298095703 -20.803905487060547
  endloop
 endfacet
 facet normal 0.28643949100243238 -1.683746558298059e-07 0.95809833419865564
  outer loop
   vertex -11.410255432128906 21.160999298095703 -20.803905487060547
   vertex -7.5512466430664062 20.956733703613281 -21.957620620727539
   vertex -7.7027349472045898 21.160999298095703 -21.912330627441406
  endloop
 endfacet
 facet normal 0.28643949099790916 -5.6223395511862036e-06 0.9580983341835263
  outer loop
   vertex -11.410255432128906 21.160999298095703 -20.803905487060547
   vertex -7.7027349472045898 21.160999298095703 -21.912330627441406
   vertex -11.239745140075684 21.348220825195312 -20.854881286621094
  endloop
 endfacet
 facet normal 0.28643956675355836 -4.0632788458089012e-06 0.95809831154298741
  outer loop
   vertex -11.239745140075684 21.348220825195312 -20.854881286621094
   vertex -7.7027349472045898 21.160999298095703 -21.912330627441406
   vertex -7.8732452392578125 21.348220825195312 -21.861352920532227
  endloop
 endfacet
 facet normal 0.2864395667559107 -2.9182742825172583e-07 0.95809831155085579
  outer loop
   vertex -11.239745140075684 21.348220825195312 -20.854881286621094
   vertex -7.8732452392578125 21.348220825195312 -21.861352920532227
   vertex -11.051961898803711 21.5164794921875 -20.911022186279297
  endloop
 endfacet
 facet normal 0.28644007390090626 1.0145733389674604e-05 0.95809815987752922
  outer loop
   vertex -11.051961898803711 21.5164794921875 -20.911022186279297
   vertex -7.8732452392578125 21.348220825195312 -21.861352920532227
   vertex -8.0610275268554688 21.5164794921875 -21.805213928222656
  endloop
 endfacet
 facet normal 0.28644007391397525 -3.4182705726216374e-06 0.95809815992124303
  outer loop
   vertex -11.051961898803711 21.5164794921875 -20.911022186279297
   vertex -8.0610275268554688 21.5164794921875 -21.805213928222656
   vertex -10.848834037780762 21.664043426513672 -20.971750259399414
  endloop
 endfacet
 facet normal 0.28643988019759481 -7.4049828201143911e-06 0.95809821781357762
  outer loop
   vertex -10.848834037780762 21.664043426513672 -20.971750259399414
   vertex -8.0610275268554688 21.5164794921875 -21.805213928222656
   vertex -8.2641563415527344 21.664043426513672 -21.744483947753906
  endloop
 endfacet
 facet normal 0.2864398802054226 4.2181613563099525e-07 0.95809821783976046
  outer loop
   vertex -10.848834037780762 21.664043426513672 -20.971750259399414
   vertex -8.2641563415527344 21.664043426513672 -21.744483947753906
   vertex -10.632444381713867 21.789402008056641 -21.036443710327148
  endloop
 endfacet
 facet normal 0.28643983509201043 -5.06649747535024e-07 0.958098231327146
  outer loop
   vertex -10.632444381713867 21.789402008056641 -21.036443710327148
   vertex -8.2641563415527344 21.664043426513672 -21.744483947753906
   vertex -8.4805459976196289 21.789402008056641 -21.679790496826172
  endloop
 endfacet
 facet normal 0.28643983508213289 8.3201086969672849e-06 0.95809823129410709
  outer loop
   vertex -10.632444381713867 21.789402008056641 -21.036443710327148
   vertex -8.4805459976196289 21.789402008056641 -21.679790496826172
   vertex -10.405014038085938 21.891267776489258 -21.104438781738281
  endloop
 endfacet
 facet normal 0.28643990667310681 9.7935870826886641e-06 0.9580982098768307
  outer loop
   vertex -10.405014038085938 21.891267776489258 -21.104438781738281
   vertex -8.4805459976196289 21.789402008056641 -21.679790496826172
   vertex -8.7079763412475586 21.891267776489258 -21.611797332763672
  endloop
 endfacet
 facet normal 0.286439906678079 -7.8228938704451362e-06 0.95809820989346173
  outer loop
   vertex -10.405014038085938 21.891267776489258 -21.104438781738281
   vertex -8.7079763412475586 21.891267776489258 -21.611797332763672
   vertex -10.168876647949219 21.968597412109375 -21.17503547668457
  endloop
 endfacet
 facet normal 0.28643923903550123 -2.156207903235732e-05 0.95809840928572665
  outer loop
   vertex -10.168876647949219 21.968597412109375 -21.17503547668457
   vertex -8.7079763412475586 21.891267776489258 -21.611797332763672
   vertex -8.9441127777099609 21.968597412109375 -21.54119873046875
  endloop
 endfacet
 facet normal 0.28643923909623525 -6.3922865031779943e-06 0.95809840948887326
  outer loop
   vertex -10.168876647949219 21.968597412109375 -21.17503547668457
   vertex -8.9441127777099609 21.968597412109375 -21.54119873046875
   vertex -9.9264554977416992 22.020595550537109 -21.24751091003418
  endloop
 endfacet
 facet normal 0.28644006380962267 1.0580904600606895e-05 0.95809816288978644
  outer loop
   vertex -9.9264554977416992 22.020595550537109 -21.24751091003418
   vertex -8.9441127777099609 21.968597412109375 -21.54119873046875
   vertex -9.1865339279174805 22.020595550537109 -21.468723297119141
  endloop
 endfacet
 facet normal 0.28644006342752804 5.2724195545863124e-05 0.95809816161173844
  outer loop
   vertex -9.9264554977416992 22.020595550537109 -21.24751091003418
   vertex -9.1865339279174805 22.020595550537109 -21.468723297119141
   vertex -9.6802387237548828 22.046726226806641 -21.321123123168945
  endloop
 endfacet
 facet normal 0.2864376349605105 2.7323257079725745e-06 0.95809888908753238
  outer loop
   vertex -9.6802387237548828 22.046726226806641 -21.321123123168945
   vertex -9.1865339279174805 22.020595550537109 -21.468723297119141
   vertex -9.4327516555786133 22.046726226806641 -21.395112991333008
  endloop
 endfacet
 facet normal 0.2864395089305723 0 0.95809832883875368
  outer loop
   vertex -7.113344669342041 19.5 -22.088539123535156
   vertex -8.7079763412475586 2.1087322235107422 -21.611797332763672
   vertex -7.113344669342041 4.5 -22.088539123535156
  endloop
 endfacet
 facet normal 0.28643433453637818 3.7589885187510116e-06 0.95809987578778666
  outer loop
   vertex -7.113344669342041 4.5 -22.088539123535156
   vertex -8.7079763412475586 2.1087322235107422 -21.611797332763672
   vertex -8.4805459976196289 2.2105979919433594 -21.679790496826172
  endloop
 endfacet
 facet normal 0.28644010025692085 8.0196941508242285e-09 0.9580981520516596
  outer loop
   vertex -7.113344669342041 4.5 -22.088539123535156
   vertex -8.4805459976196289 2.2105979919433594 -21.679790496826172
   vertex -8.2641563415527344 2.3359575271606445 -21.744483947753906
  endloop
 endfacet
 facet normal 0.28644777950406325 -4.4407282421815974e-06 0.95809585616339643
  outer loop
   vertex -8.2641563415527344 2.3359575271606445 -21.744483947753906
   vertex -8.0610275268554688 2.4835214614868164 -21.805213928222656
   vertex -7.113344669342041 4.5 -22.088539123535156
  endloop
 endfacet
 facet normal 0.28642636272564481 6.5241281345608245e-06 0.95810225899597645
  outer loop
   vertex -7.113344669342041 4.5 -22.088539123535156
   vertex -8.0610275268554688 2.4835214614868164 -21.805213928222656
   vertex -7.8732452392578125 2.6517782211303711 -21.861352920532227
  endloop
 endfacet
 facet normal 0.28644591178354112 -2.231916568054051e-06 0.95809641457293537
  outer loop
   vertex -7.113344669342041 4.5 -22.088539123535156
   vertex -7.8732452392578125 2.6517782211303711 -21.861352920532227
   vertex -7.7027349472045898 2.8389997482299805 -21.912330627441406
  endloop
 endfacet
 facet normal 0.28643929708288995 3.2504293482937565e-07 0.95809839217407844
  outer loop
   vertex -7.7027349472045898 2.8389997482299805 -21.912330627441406
   vertex -7.5512466430664062 3.0432662963867188 -21.957620620727539
   vertex -7.113344669342041 4.5 -22.088539123535156
  endloop
 endfacet
 facet normal 0.28644568687646332 -1.7674496933131262e-06 0.95809648181524343
  outer loop
   vertex -7.113344669342041 4.5 -22.088539123535156
   vertex -7.5512466430664062 3.0432662963867188 -21.957620620727539
   vertex -7.4203348159790039 3.2624797821044922 -21.996759414672852
  endloop
 endfacet
 facet normal 0.2864446428106906 -1.4852993397704193e-06 0.95809679396334979
  outer loop
   vertex -7.113344669342041 4.5 -22.088539123535156
   vertex -7.4203348159790039 3.2624797821044922 -21.996759414672852
   vertex -7.3113431930541992 3.4943923950195312 -22.02934455871582
  endloop
 endfacet
 facet normal 0.28645114700617724 -2.8804071675246097e-06 0.95809484936020228
  outer loop
   vertex -7.3113431930541992 3.4943923950195312 -22.02934455871582
   vertex -7.2253894805908203 3.7366237640380859 -22.055042266845703
   vertex -7.113344669342041 4.5 -22.088539123535156
  endloop
 endfacet
 facet normal 0.28641934968121441 2.2037866527522011e-06 0.9581043555497144
  outer loop
   vertex -7.113344669342041 4.5 -22.088539123535156
   vertex -7.2253894805908203 3.7366237640380859 -22.055042266845703
   vertex -7.163355827331543 3.9866886138916016 -22.073587417602539
  endloop
 endfacet
 facet normal 0.28640536706745828 3.6878436209346347e-06 0.95810853544958785
  outer loop
   vertex -7.113344669342041 4.5 -22.088539123535156
   vertex -7.163355827331543 3.9866886138916016 -22.073587417602539
   vertex -7.1258792877197266 4.2420206069946289 -22.08479118347168
  endloop
 endfacet
 facet normal -0.28655345478043726 1.1763715879070339e-05 -0.95806425536861106
  outer loop
   vertex -8.8445186614990234 4.2420206069946289 -27.833381652832031
   vertex -8.8819942474365234 3.9866886138916016 -27.822175979614258
   vertex -8.8319835662841797 4.5 -27.837127685546875
  endloop
 endfacet
 facet normal -0.28641772835831975 -2.6419333159801072e-06 -0.95810484023152698
  outer loop
   vertex -8.8319835662841797 4.5 -27.837127685546875
   vertex -8.8819942474365234 3.9866886138916016 -27.822175979614258
   vertex -8.9440279006958008 3.7366237640380859 -27.803630828857422
  endloop
 endfacet
 facet normal -0.28645035760717175 2.5752575096172071e-06 -0.95809508537518939
  outer loop
   vertex -8.8319835662841797 4.5 -27.837127685546875
   vertex -8.9440279006958008 3.7366237640380859 -27.803630828857422
   vertex -9.0299816131591797 3.4943923950195312 -27.777933120727539
  endloop
 endfacet
 facet normal -0.2864441862276374 1.2515397547543387e-06 -0.95809693046936562
  outer loop
   vertex -9.0299816131591797 3.4943923950195312 -27.777933120727539
   vertex -9.1389732360839844 3.2624797821044922 -27.74534797668457
   vertex -8.8319835662841797 4.5 -27.837127685546875
  endloop
 endfacet
 facet normal -0.28642347770875026 -4.3447412933585616e-06 -0.95810312148450294
  outer loop
   vertex -8.8319835662841797 4.5 -27.837127685546875
   vertex -9.1389732360839844 3.2624797821044922 -27.74534797668457
   vertex -9.2698850631713867 3.0432662963867188 -27.706211090087891
  endloop
 endfacet
 facet normal -0.28646033408774135 7.7247448459821193e-06 -0.9580921025322503
  outer loop
   vertex -8.8319835662841797 4.5 -27.837127685546875
   vertex -9.2698850631713867 3.0432662963867188 -27.706211090087891
   vertex -9.4213733673095703 2.8389997482299805 -27.660919189453125
  endloop
 endfacet
 facet normal -0.2864296581038222 -4.1332756950781908e-06 -0.95810127384397292
  outer loop
   vertex -9.4213733673095703 2.8389997482299805 -27.660919189453125
   vertex -9.591883659362793 2.6517782211303711 -27.609943389892578
   vertex -8.8319835662841797 4.5 -27.837127685546875
  endloop
 endfacet
 facet normal -0.28643958366195749 3.1238520433648434e-07 -0.95809830649650296
  outer loop
   vertex -8.8319835662841797 4.5 -27.837127685546875
   vertex -9.591883659362793 2.6517782211303711 -27.609943389892578
   vertex -9.7796669006347656 2.4835214614868164 -27.553802490234375
  endloop
 endfacet
 facet normal -0.2864371831869541 -9.1659932935803314e-07 -0.95809902415516701
  outer loop
   vertex -8.8319835662841797 4.5 -27.837127685546875
   vertex -9.7796669006347656 2.4835214614868164 -27.553802490234375
   vertex -9.9827947616577148 2.3359575271606445 -27.493074417114258
  endloop
 endfacet
 facet normal -0.28643876538828067 0 -0.95809855113283493
  outer loop
   vertex -8.8319835662841797 4.5 -27.837127685546875
   vertex -9.9827947616577148 2.3359575271606445 -27.493074417114258
   vertex -8.8319835662841797 19.5 -27.837127685546875
  endloop
 endfacet
 facet normal -0.28644015863879446 1.017638285405954e-07 -0.95809813459737614
  outer loop
   vertex -8.8319835662841797 19.5 -27.837127685546875
   vertex -9.9827947616577148 2.3359575271606445 -27.493074417114258
   vertex -10.199184417724609 2.2105979919433594 -27.428380966186523
  endloop
 endfacet
 facet normal -0.28644341300145765 3.8211241465118828e-07 -0.95809716164276915
  outer loop
   vertex -8.8319835662841797 19.5 -27.837127685546875
   vertex -10.199184417724609 2.2105979919433594 -27.428380966186523
   vertex -10.426614761352539 2.1087322235107422 -27.360385894775391
  endloop
 endfacet
 facet normal -0.28643749213766623 -2.0930493174773583e-07 -0.95809893179036609
  outer loop
   vertex -10.426614761352539 2.1087322235107422 -27.360385894775391
   vertex -10.662752151489258 2.0314035415649414 -27.289789199829102
   vertex -8.8319835662841797 19.5 -27.837127685546875
  endloop
 endfacet
 facet normal -0.28643794955513024 -1.5708121875576433e-07 -0.95809879503871009
  outer loop
   vertex -8.8319835662841797 19.5 -27.837127685546875
   vertex -10.662752151489258 2.0314035415649414 -27.289789199829102
   vertex -10.905173301696777 1.979405403137207 -27.217313766479492
  endloop
 endfacet
 facet normal -0.28644527698310734 7.8746202587114318e-07 -0.95809660436380351
  outer loop
   vertex -8.8319835662841797 19.5 -27.837127685546875
   vertex -10.905173301696777 1.979405403137207 -27.217313766479492
   vertex -11.151390075683594 1.953272819519043 -27.143701553344727
  endloop
 endfacet
 facet normal -0.28643763496156566 -3.1298502023462907e-07 -0.95809888909106189
  outer loop
   vertex -11.151390075683594 1.953272819519043 -27.143701553344727
   vertex -11.398877143859863 1.953272819519043 -27.069711685180664
   vertex -8.8319835662841797 19.5 -27.837127685546875
  endloop
 endfacet
 facet normal -0.28643740287302016 -3.4997167189626253e-07 -0.95809895847727378
  outer loop
   vertex -8.8319835662841797 19.5 -27.837127685546875
   vertex -11.398877143859863 1.953272819519043 -27.069711685180664
   vertex -11.645094871520996 1.979405403137207 -26.996101379394531
  endloop
 endfacet
 facet normal -0.28643802786759998 -2.4065311316442947e-07 -0.95809877162600632
  outer loop
   vertex -8.8319835662841797 19.5 -27.837127685546875
   vertex -11.645094871520996 1.979405403137207 -26.996101379394531
   vertex -11.887516021728516 2.0314035415649414 -26.923625946044922
  endloop
 endfacet
 facet normal -0.28644537249467084 1.1588657319617271e-06 -0.95809657580801644
  outer loop
   vertex -11.887516021728516 2.0314035415649414 -26.923625946044922
   vertex -12.123652458190918 2.1087322235107422 -26.85302734375
   vertex -8.8319835662841797 19.5 -27.837127685546875
  endloop
 endfacet
 facet normal -0.28643964707340525 -2.1652331614302185e-08 -0.95809828753863369
  outer loop
   vertex -8.8319835662841797 19.5 -27.837127685546875
   vertex -12.123652458190918 2.1087322235107422 -26.85302734375
   vertex -13.718284606933594 19.5 -26.376285552978516
  endloop
 endfacet
 facet normal -0.28643964706868713 -5.7396628654532818e-06 -0.95809828752285231
  outer loop
   vertex -8.8319835662841797 19.5 -27.837127685546875
   vertex -13.718284606933594 19.5 -26.376285552978516
   vertex -8.8445186614990234 19.757980346679688 -27.833381652832031
  endloop
 endfacet
 facet normal -0.28643986121022386 -1.3325940366175483e-06 -0.95809822351786655
  outer loop
   vertex -8.8445186614990234 19.757980346679688 -27.833381652832031
   vertex -13.718284606933594 19.5 -26.376285552978516
   vertex -13.70574951171875 19.757980346679688 -26.380033493041992
  endloop
 endfacet
 facet normal -0.28643986120461296 6.3994121700743144e-06 -0.95809822349909901
  outer loop
   vertex -8.8445186614990234 19.757980346679688 -27.833381652832031
   vertex -13.70574951171875 19.757980346679688 -26.380033493041992
   vertex -8.8819942474365234 20.013311386108398 -27.822175979614258
  endloop
 endfacet
 facet normal -0.28643963732796013 1.7917480189063867e-06 -0.95809829045052386
  outer loop
   vertex -8.8819942474365234 20.013311386108398 -27.822175979614258
   vertex -13.70574951171875 19.757980346679688 -26.380033493041992
   vertex -13.668272972106934 20.013311386108398 -26.391237258911133
  endloop
 endfacet
 facet normal -0.28643963732688021 -3.2787712649712213e-06 -0.95809829044691186
  outer loop
   vertex -8.8819942474365234 20.013311386108398 -27.822175979614258
   vertex -13.668272972106934 20.013311386108398 -26.391237258911133
   vertex -8.9440279006958008 20.263376235961914 -27.803630828857422
  endloop
 endfacet
 facet normal -0.28643996019246537 3.3660231508256686e-06 -0.95809819392043971
  outer loop
   vertex -8.9440279006958008 20.263376235961914 -27.803630828857422
   vertex -13.668272972106934 20.013311386108398 -26.391237258911133
   vertex -13.606239318847656 20.263376235961914 -26.409782409667969
  endloop
 endfacet
 facet normal -0.28643996019378948 1.443953076240042e-06 -0.95809819392486872
  outer loop
   vertex -8.9440279006958008 20.263376235961914 -27.803630828857422
   vertex -13.606239318847656 20.263376235961914 -26.409782409667969
   vertex -9.0299816131591797 20.505607604980469 -27.777933120727539
  endloop
 endfacet
 facet normal -0.28643981718660422 -1.4992336442899504e-06 -0.95809823667923366
  outer loop
   vertex -9.0299816131591797 20.505607604980469 -27.777933120727539
   vertex -13.606239318847656 20.263376235961914 -26.409782409667969
   vertex -13.520285606384277 20.505607604980469 -26.435480117797852
  endloop
 endfacet
 facet normal -0.28643981718678713 9.8530240322277247e-07 -0.95809823667984551
  outer loop
   vertex -9.0299816131591797 20.505607604980469 -27.777933120727539
   vertex -13.520285606384277 20.505607604980469 -26.435480117797852
   vertex -9.1389732360839844 20.737520217895508 -27.74534797668457
  endloop
 endfacet
 facet normal -0.28643971899385628 -1.0355747409661064e-06 -0.95809826603623915
  outer loop
   vertex -9.1389732360839844 20.737520217895508 -27.74534797668457
   vertex -13.520285606384277 20.505607604980469 -26.435480117797852
   vertex -13.411293983459473 20.737520217895508 -26.46806526184082
  endloop
 endfacet
 facet normal -0.28643971898846676 -6.2212301747937277e-06 -0.95809826601821202
  outer loop
   vertex -9.1389732360839844 20.737520217895508 -27.74534797668457
   vertex -13.411293983459473 20.737520217895508 -26.46806526184082
   vertex -9.2698850631713867 20.956733703613281 -27.706211090087891
  endloop
 endfacet
 facet normal -0.28643992502132165 -1.9810259546266647e-06 -0.95809820443932325
  outer loop
   vertex -9.2698850631713867 20.956733703613281 -27.706211090087891
   vertex -13.411293983459473 20.737520217895508 -26.46806526184082
   vertex -13.28038215637207 20.956733703613281 -26.507204055786133
  endloop
 endfacet
 facet normal -0.28643992501088317 8.7640548041521623e-06 -0.95809820440440818
  outer loop
   vertex -9.2698850631713867 20.956733703613281 -27.706211090087891
   vertex -13.28038215637207 20.956733703613281 -26.507204055786133
   vertex -9.4213733673095703 21.160999298095703 -27.660919189453125
  endloop
 endfacet
 facet normal -0.28643949100243238 -1.683746558298059e-07 -0.95809833419865564
  outer loop
   vertex -9.4213733673095703 21.160999298095703 -27.660919189453125
   vertex -13.28038215637207 20.956733703613281 -26.507204055786133
   vertex -13.128893852233887 21.160999298095703 -26.552494049072266
  endloop
 endfacet
 facet normal -0.28643949099790916 -5.6223395511862036e-06 -0.9580983341835263
  outer loop
   vertex -9.4213733673095703 21.160999298095703 -27.660919189453125
   vertex -13.128893852233887 21.160999298095703 -26.552494049072266
   vertex -9.591883659362793 21.348220825195312 -27.609943389892578
  endloop
 endfacet
 facet normal -0.28643956675355836 -4.0632788458089012e-06 -0.95809831154298741
  outer loop
   vertex -9.591883659362793 21.348220825195312 -27.609943389892578
   vertex -13.128893852233887 21.160999298095703 -26.552494049072266
   vertex -12.958383560180664 21.348220825195312 -26.603471755981445
  endloop
 endfacet
 facet normal -0.2864395667559107 -2.9182742825172583e-07 -0.95809831155085579
  outer loop
   vertex -9.591883659362793 21.348220825195312 -27.609943389892578
   vertex -12.958383560180664 21.348220825195312 -26.603471755981445
   vertex -9.7796669006347656 21.5164794921875 -27.553802490234375
  endloop
 endfacet
 facet normal -0.28644007390090626 1.0145733389674604e-05 -0.95809815987752922
  outer loop
   vertex -9.7796669006347656 21.5164794921875 -27.553802490234375
   vertex -12.958383560180664 21.348220825195312 -26.603471755981445
   vertex -12.770601272583008 21.5164794921875 -26.659610748291016
  endloop
 endfacet
 facet normal -0.28644007391397525 -3.4182705726216374e-06 -0.95809815992124303
  outer loop
   vertex -9.7796669006347656 21.5164794921875 -27.553802490234375
   vertex -12.770601272583008 21.5164794921875 -26.659610748291016
   vertex -9.9827947616577148 21.664043426513672 -27.493074417114258
  endloop
 endfacet
 facet normal -0.28643988019759481 -7.4049828201143911e-06 -0.95809821781357762
  outer loop
   vertex -9.9827947616577148 21.664043426513672 -27.493074417114258
   vertex -12.770601272583008 21.5164794921875 -26.659610748291016
   vertex -12.567472457885742 21.664043426513672 -26.720340728759766
  endloop
 endfacet
 facet normal -0.2864398802054226 4.2181613563099525e-07 -0.95809821783976046
  outer loop
   vertex -9.9827947616577148 21.664043426513672 -27.493074417114258
   vertex -12.567472457885742 21.664043426513672 -26.720340728759766
   vertex -10.199184417724609 21.789402008056641 -27.428380966186523
  endloop
 endfacet
 facet normal -0.28643983509201043 -5.06649747535024e-07 -0.958098231327146
  outer loop
   vertex -10.199184417724609 21.789402008056641 -27.428380966186523
   vertex -12.567472457885742 21.664043426513672 -26.720340728759766
   vertex -12.351082801818848 21.789402008056641 -26.7850341796875
  endloop
 endfacet
 facet normal -0.28643983508213289 8.3201086969672849e-06 -0.95809823129410709
  outer loop
   vertex -10.199184417724609 21.789402008056641 -27.428380966186523
   vertex -12.351082801818848 21.789402008056641 -26.7850341796875
   vertex -10.426614761352539 21.891267776489258 -27.360385894775391
  endloop
 endfacet
 facet normal -0.28643990667310681 9.7935870826886641e-06 -0.9580982098768307
  outer loop
   vertex -10.426614761352539 21.891267776489258 -27.360385894775391
   vertex -12.351082801818848 21.789402008056641 -26.7850341796875
   vertex -12.123652458190918 21.891267776489258 -26.85302734375
  endloop
 endfacet
 facet normal -0.286439906678079 -7.8228938704451362e-06 -0.95809820989346173
  outer loop
   vertex -10.426614761352539 21.891267776489258 -27.360385894775391
   vertex -12.123652458190918 21.891267776489258 -26.85302734375
   vertex -10.662752151489258 21.968597412109375 -27.289789199829102
  endloop
 endfacet
 facet normal -0.28643923903550123 -2.156207903235732e-05 -0.95809840928572665
  outer loop
   vertex -10.662752151489258 21.968597412109375 -27.289789199829102
   vertex -12.123652458190918 21.891267776489258 -26.85302734375
   vertex -11.887516021728516 21.968597412109375 -26.923625946044922
  endloop
 endfacet
 facet normal -0.28643923909623525 -6.3922865031779943e-06 -0.95809840948887326
  outer loop
   vertex -10.662752151489258 21.968597412109375 -27.289789199829102
   vertex -11.887516021728516 21.968597412109375 -26.923625946044922
   vertex -10.905173301696777 22.020595550537109 -27.217313766479492
  endloop
 endfacet
 facet normal -0.28644006380962267 1.0580904600606895e-05 -0.95809816288978644
  outer loop
   vertex -10.905173301696777 22.020595550537109 -27.217313766479492
   vertex -11.887516021728516 21.968597412109375 -26.923625946044922
   vertex -11.645094871520996 22.020595550537109 -26.996101379394531
  endloop
 endfacet
 facet normal -0.28644006342752804 5.2724195545863124e-05 -0.95809816161173844
  outer loop
   vertex -10.905173301696777 22.020595550537109 -27.217313766479492
   vertex -11.645094871520996 22.020595550537109 -26.996101379394531
   vertex -11.151390075683594 22.046726226806641 -27.143701553344727
  endloop
 endfacet
 facet normal -0.2864376349605105 2.7323257079725745e-06 -0.95809888908753238
  outer loop
   vertex -11.151390075683594 22.046726226806641 -27.143701553344727
   vertex -11.645094871520996 22.020595550537109 -26.996101379394531
   vertex -11.398877143859863 22.046726226806641 -27.069711685180664
  endloop
 endfacet
 facet normal -0.2864394303052068 0 -0.95809835234511731
  outer loop
   vertex -13.718284606933594 19.5 -26.376285552978516
   vertex -12.123652458190918 2.1087322235107422 -26.85302734375
   vertex -13.718284606933594 4.5 -26.376285552978516
  endloop
 endfacet
 facet normal -0.28643436802180494 3.6775455682255044e-06 -0.95809986577727113
  outer loop
   vertex -13.718284606933594 4.5 -26.376285552978516
   vertex -12.123652458190918 2.1087322235107422 -26.85302734375
   vertex -12.351082801818848 2.2105979919433594 -26.7850341796875
  endloop
 endfacet
 facet normal -0.28644014876581109 -8.3198289827429089e-08 -0.95809813754907858
  outer loop
   vertex -13.718284606933594 4.5 -26.376285552978516
   vertex -12.351082801818848 2.2105979919433594 -26.7850341796875
   vertex -12.567472457885742 2.3359575271606445 -26.720340728759766
  endloop
 endfacet
 facet normal -0.28644784808977708 -4.5435789984010034e-06 -0.95809583565742107
  outer loop
   vertex -12.567472457885742 2.3359575271606445 -26.720340728759766
   vertex -12.770601272583008 2.4835214614868164 -26.659610748291016
   vertex -13.718284606933594 4.5 -26.376285552978516
  endloop
 endfacet
 facet normal -0.28642645896000773 6.4071274756484561e-06 -0.95810223022732799
  outer loop
   vertex -13.718284606933594 4.5 -26.376285552978516
   vertex -12.770601272583008 2.4835214614868164 -26.659610748291016
   vertex -12.958383560180664 2.6517782211303711 -26.603471755981445
  endloop
 endfacet
 facet normal -0.28644604757250508 -2.3666392897306468e-06 -0.95809637397523284
  outer loop
   vertex -13.718284606933594 4.5 -26.376285552978516
   vertex -12.958383560180664 2.6517782211303711 -26.603471755981445
   vertex -13.128893852233887 2.8389997482299805 -26.552494049072266
  endloop
 endfacet
 facet normal -0.2864394922422332 1.6737222523458296e-07 -0.95809833382799681
  outer loop
   vertex -13.128893852233887 2.8389997482299805 -26.552494049072266
   vertex -13.28038215637207 3.0432662963867188 -26.507204055786133
   vertex -13.718284606933594 4.5 -26.376285552978516
  endloop
 endfacet
 facet normal -0.28644597708097697 -1.9562475633864095e-06 -0.95809639505130051
  outer loop
   vertex -13.718284606933594 4.5 -26.376285552978516
   vertex -13.28038215637207 3.0432662963867188 -26.507204055786133
   vertex -13.411293983459473 3.2624797821044922 -26.46806526184082
  endloop
 endfacet
 facet normal -0.2864450993951187 -1.7190596699981048e-06 -0.9580966574566292
  outer loop
   vertex -13.718284606933594 4.5 -26.376285552978516
   vertex -13.411293983459473 3.2624797821044922 -26.46806526184082
   vertex -13.520285606384277 3.4943923950195312 -26.435480117797852
  endloop
 endfacet
 facet normal -0.28645193640931244 -3.1855585072951456e-06 -0.95809461334317469
  outer loop
   vertex -13.520285606384277 3.4943923950195312 -26.435480117797852
   vertex -13.606239318847656 3.7366237640380859 -26.409782409667969
   vertex -13.718284606933594 4.5 -26.376285552978516
  endloop
 endfacet
 facet normal -0.28642097102158959 1.7656350290631228e-06 -0.95810387085948678
  outer loop
   vertex -13.718284606933594 4.5 -26.376285552978516
   vertex -13.606239318847656 3.7366237640380859 -26.409782409667969
   vertex -13.668272972106934 3.9866886138916016 -26.391237258911133
  endloop
 endfacet
 facet normal -0.28641031637242381 2.8964866361253782e-06 -0.95810705595306966
  outer loop
   vertex -13.718284606933594 4.5 -26.376285552978516
   vertex -13.668272972106934 3.9866886138916016 -26.391237258911133
   vertex -13.70574951171875 4.2420206069946289 -26.380033493041992
  endloop
 endfacet
endsolid
