solid Visualization Toolkit generated SLA File
 facet normal -0.79830383347149236 0 0.60225492066459685
  outer loop
   vertex -26.735601425170898 19.5 -18.677104949951172
   vertex -26.735601425170898 4.5 -18.677104949951172
   vertex -23.122072219848633 19.5 -13.887282371520996
  endloop
 endfacet
 facet normal -0.79830383347149236 0 0.60225492066459685
  outer loop
   vertex -23.122072219848633 19.5 -13.887282371520996
   vertex -26.735601425170898 4.5 -18.677104949951172
   vertex -23.122072219848633 4.5 -13.887282371520996
  endloop
 endfacet
 facet normal 0.7972792681713774 0.050649307947747774 -0.60148185022370138
  outer loop
   vertex -19.050722122192383 19.5 -16.958782196044922
   vertex -22.664251327514648 19.5 -21.748605728149414
   vertex -19.061166763305664 19.757980346679688 -16.950902938842773
  endloop
 endfacet
 facet normal 0.7972792681713774 0.050649307947747774 -0.60148185022370138
  outer loop
   vertex -19.061166763305664 19.757980346679688 -16.950902938842773
   vertex -22.664251327514648 19.5 -21.748605728149414
   vertex -22.67469596862793 19.757980346679688 -21.740726470947266
  endloop
 endfacet
 facet normal 0.78909827500458685 0.15142642469667017 -0.59530996152287685
  outer loop
   vertex -19.061166763305664 19.757980346679688 -16.950902938842773
   vertex -22.67469596862793 19.757980346679688 -21.740726470947266
   vertex -19.092391967773438 20.013311386108398 -16.927345275878906
  endloop
 endfacet
 facet normal 0.78909741956492074 0.15143218416826193 -0.59530963038910512
  outer loop
   vertex -19.092391967773438 20.013311386108398 -16.927345275878906
   vertex -22.67469596862793 19.757980346679688 -21.740726470947266
   vertex -22.705923080444336 20.013311386108398 -21.717168807983398
  endloop
 endfacet
 facet normal 0.77281952588241321 0.25065280830692532 -0.58302928751713157
  outer loop
   vertex -19.092391967773438 20.013311386108398 -16.927345275878906
   vertex -22.705923080444336 20.013311386108398 -21.717168807983398
   vertex -19.144079208374023 20.263376235961914 -16.888351440429688
  endloop
 endfacet
 facet normal 0.77281952588241321 0.25065280830692532 -0.58302928751713157
  outer loop
   vertex -19.144079208374023 20.263376235961914 -16.888351440429688
   vertex -22.705923080444336 20.013311386108398 -21.717168807983398
   vertex -22.757610321044922 20.263376235961914 -21.67817497253418
  endloop
 endfacet
 facet normal 0.74861041636522474 0.34730733737832192 -0.56476548930743398
  outer loop
   vertex -19.144079208374023 20.263376235961914 -16.888351440429688
   vertex -22.757610321044922 20.263376235961914 -21.67817497253418
   vertex -19.2156982421875 20.505607604980469 -16.834321975708008
  endloop
 endfacet
 facet normal 0.74861209226787073 0.34730215376836943 -0.56476645553553639
  outer loop
   vertex -19.2156982421875 20.505607604980469 -16.834321975708008
   vertex -22.757610321044922 20.263376235961914 -21.67817497253418
   vertex -22.829227447509766 20.505607604980469 -21.6241455078125
  endloop
 endfacet
 facet normal 0.7167218200078781 0.44039169334339456 -0.54070785934618348
  outer loop
   vertex -19.2156982421875 20.505607604980469 -16.834321975708008
   vertex -22.829227447509766 20.505607604980469 -21.6241455078125
   vertex -19.306510925292969 20.737520217895508 -16.765810012817383
  endloop
 endfacet
 facet normal 0.71671982221520547 0.44039644471936057 -0.54070663757933624
  outer loop
   vertex -19.306510925292969 20.737520217895508 -16.765810012817383
   vertex -22.829227447509766 20.505607604980469 -21.6241455078125
   vertex -22.920042037963867 20.737520217895508 -21.555633544921875
  endloop
 endfacet
 facet normal 0.67747364946300859 0.52896849951012581 -0.51109860184633493
  outer loop
   vertex -19.306510925292969 20.737520217895508 -16.765810012817383
   vertex -22.920042037963867 20.737520217895508 -21.555633544921875
   vertex -19.415590286254883 20.956733703613281 -16.68351936340332
  endloop
 endfacet
 facet normal 0.6774758915714052 0.52896425423559834 -0.51110002355752904
  outer loop
   vertex -19.415590286254883 20.956733703613281 -16.68351936340332
   vertex -22.920042037963867 20.737520217895508 -21.555633544921875
   vertex -23.029119491577148 20.956733703613281 -21.473342895507812
  endloop
 endfacet
 facet normal 0.63127933849433959 0.61210599761168716 -0.47624851126061318
  outer loop
   vertex -19.415590286254883 20.956733703613281 -16.68351936340332
   vertex -23.029119491577148 20.956733703613281 -21.473342895507812
   vertex -19.541812896728516 21.160999298095703 -16.588294982910156
  endloop
 endfacet
 facet normal 0.63127933849433959 0.61210599761168716 -0.47624851126061318
  outer loop
   vertex -19.541812896728516 21.160999298095703 -16.588294982910156
   vertex -23.029119491577148 20.956733703613281 -21.473342895507812
   vertex -23.155342102050781 21.160999298095703 -21.378118515014648
  endloop
 endfacet
 facet normal 0.57860656331204507 0.68896473020242832 -0.4365112202788371
  outer loop
   vertex -19.541812896728516 21.160999298095703 -16.588294982910156
   vertex -23.155342102050781 21.160999298095703 -21.378118515014648
   vertex -19.683883666992188 21.348220825195312 -16.481113433837891
  endloop
 endfacet
 facet normal 0.57860224638095736 0.68897016291068058 -0.43650836773393031
  outer loop
   vertex -19.683883666992188 21.348220825195312 -16.481113433837891
   vertex -23.155342102050781 21.160999298095703 -21.378118515014648
   vertex -23.297414779663086 21.348220825195312 -21.27093505859375
  endloop
 endfacet
 facet normal 0.51999630448916656 0.75875458296332288 -0.39229494790242181
  outer loop
   vertex -19.683883666992188 21.348220825195312 -16.481113433837891
   vertex -23.297414779663086 21.348220825195312 -21.27093505859375
   vertex -19.840347290039062 21.5164794921875 -16.363073348999023
  endloop
 endfacet
 facet normal 0.5199981341532921 0.75875269613748664 -0.3922961720195467
  outer loop
   vertex -19.840347290039062 21.5164794921875 -16.363073348999023
   vertex -23.297414779663086 21.348220825195312 -21.27093505859375
   vertex -23.453878402709961 21.5164794921875 -21.152896881103516
  endloop
 endfacet
 facet normal 0.45604479220660665 0.82076410336683736 -0.34404859268083732
  outer loop
   vertex -19.840347290039062 21.5164794921875 -16.363073348999023
   vertex -23.453878402709961 21.5164794921875 -21.152896881103516
   vertex -20.009597778320312 21.664043426513672 -16.235389709472656
  endloop
 endfacet
 facet normal 0.45604306179794835 0.82076555462919354 -0.34404742423128953
  outer loop
   vertex -20.009597778320312 21.664043426513672 -16.235389709472656
   vertex -23.453878402709961 21.5164794921875 -21.152896881103516
   vertex -23.623128890991211 21.664043426513672 -21.025211334228516
  endloop
 endfacet
 facet normal 0.38741653440017243 0.87434785410896976 -0.29227428708047443
  outer loop
   vertex -20.009597778320312 21.664043426513672 -16.235389709472656
   vertex -23.623128890991211 21.664043426513672 -21.025211334228516
   vertex -20.189897537231445 21.789402008056641 -16.099367141723633
  endloop
 endfacet
 facet normal 0.38742016763450648 0.87434541846699754 -0.29227675739925285
  outer loop
   vertex -20.189897537231445 21.789402008056641 -16.099367141723633
   vertex -23.623128890991211 21.664043426513672 -21.025211334228516
   vertex -23.803426742553711 21.789402008056641 -20.889190673828125
  endloop
 endfacet
 facet normal 0.31481460132822969 0.918958463296771 -0.23750180952107497
  outer loop
   vertex -20.189897537231445 21.789402008056641 -16.099367141723633
   vertex -23.803426742553711 21.789402008056641 -20.889190673828125
   vertex -20.379396438598633 21.891267776489258 -15.956406593322754
  endloop
 endfacet
 facet normal 0.31481393533003565 0.91895880908536243 -0.23750135436756703
  outer loop
   vertex -20.379396438598633 21.891267776489258 -15.956406593322754
   vertex -23.803426742553711 21.789402008056641 -20.889190673828125
   vertex -23.992925643920898 21.891267776489258 -20.74622917175293
  endloop
 endfacet
 facet normal 0.23898587380827052 0.95413802027827932 -0.18029528662597746
  outer loop
   vertex -20.379396438598633 21.891267776489258 -15.956406593322754
   vertex -23.992925643920898 21.891267776489258 -20.74622917175293
   vertex -20.576148986816406 21.968597412109375 -15.807971954345703
  endloop
 endfacet
 facet normal 0.23898395966741873 0.9541387478222384 -0.18029397362611008
  outer loop
   vertex -20.576148986816406 21.968597412109375 -15.807971954345703
   vertex -23.992925643920898 21.891267776489258 -20.74622917175293
   vertex -24.189680099487305 21.968597412109375 -20.597793579101562
  endloop
 endfacet
 facet normal 0.16069850057942148 0.97952964194273595 -0.12123395756577887
  outer loop
   vertex -20.576148986816406 21.968597412109375 -15.807971954345703
   vertex -24.189680099487305 21.968597412109375 -20.597793579101562
   vertex -20.778139114379883 22.020595550537109 -15.655587196350098
  endloop
 endfacet
 facet normal 0.16069982082158196 0.97952931297999202 -0.12123486545072802
  outer loop
   vertex -20.778139114379883 22.020595550537109 -15.655587196350098
   vertex -24.189680099487305 21.968597412109375 -20.597793579101562
   vertex -24.391668319702148 22.020595550537109 -20.445409774780273
  endloop
 endfacet
 facet normal 0.08075633213330935 0.99487018027616347 -0.060924044659303088
  outer loop
   vertex -20.778139114379883 22.020595550537109 -15.655587196350098
   vertex -24.391668319702148 22.020595550537109 -20.445409774780273
   vertex -20.983291625976562 22.046726226806641 -15.500816345214844
  endloop
 endfacet
 facet normal 0.080756516606709045 0.99487015752223984 -0.060924171699123376
  outer loop
   vertex -20.983291625976562 22.046726226806641 -15.500816345214844
   vertex -24.391668319702148 22.020595550537109 -20.445409774780273
   vertex -24.596820831298828 22.046726226806641 -20.290639877319336
  endloop
 endfacet
 facet normal 0 1 0
  outer loop
   vertex -20.983291625976562 22.046726226806641 -15.500816345214844
   vertex -24.596820831298828 22.046726226806641 -20.290639877319336
   vertex -21.189502716064453 22.046726226806641 -15.345247268676758
  endloop
 endfacet
 facet normal 0 1 -0
  outer loop
   vertex -21.189502716064453 22.046726226806641 -15.345247268676758
   vertex -24.596820831298828 22.046726226806641 -20.290639877319336
   vertex -24.803031921386719 22.046726226806641 -20.13507080078125
  endloop
 endfacet
 facet normal -0.080756516606709045 0.99487015752223984 0.060924171699123376
  outer loop
   vertex -21.189502716064453 22.046726226806641 -15.345247268676758
   vertex -24.803031921386719 22.046726226806641 -20.13507080078125
   vertex -21.394655227661133 22.020595550537109 -15.19047737121582
  endloop
 endfacet
 facet normal -0.08075614766067489 0.99487020302994178 0.06092391762000951
  outer loop
   vertex -21.394655227661133 22.020595550537109 -15.19047737121582
   vertex -24.803031921386719 22.046726226806641 -20.13507080078125
   vertex -25.008184432983398 22.020595550537109 -19.98029899597168
  endloop
 endfacet
 facet normal -0.16069945921327078 0.97952940308165981 0.1212346167851807
  outer loop
   vertex -21.394655227661133 22.020595550537109 -15.19047737121582
   vertex -25.008184432983398 22.020595550537109 -19.98029899597168
   vertex -21.596643447875977 21.968597412109375 -15.038092613220215
  endloop
 endfacet
 facet normal -0.16069886218369481 0.97952955184261703 0.12123420622855521
  outer loop
   vertex -21.596643447875977 21.968597412109375 -15.038092613220215
   vertex -25.008184432983398 22.020595550537109 -19.98029899597168
   vertex -25.210174560546875 21.968597412109375 -19.827915191650391
  endloop
 endfacet
 facet normal -0.2389844839361778 0.95413854855404379 0.18029433324689187
  outer loop
   vertex -21.596643447875977 21.968597412109375 -15.038092613220215
   vertex -25.210174560546875 21.968597412109375 -19.827915191650391
   vertex -21.793397903442383 21.891267776489258 -14.889657974243164
  endloop
 endfacet
 facet normal -0.23898639808455505 0.95413782100553068 0.18029564625189479
  outer loop
   vertex -21.793397903442383 21.891267776489258 -14.889657974243164
   vertex -25.210174560546875 21.968597412109375 -19.827915191650391
   vertex -25.406927108764648 21.891267776489258 -19.679481506347656
  endloop
 endfacet
 facet normal -0.31481395806505896 0.91895880908535776 0.23750132423174472
  outer loop
   vertex -21.793397903442383 21.891267776489258 -14.889657974243164
   vertex -25.406927108764648 21.891267776489258 -19.679481506347656
   vertex -21.98289680480957 21.789402008056641 -14.746696472167969
  endloop
 endfacet
 facet normal -0.31481395806505896 0.91895880908535776 0.23750132423174472
  outer loop
   vertex -21.98289680480957 21.789402008056641 -14.746696472167969
   vertex -25.406927108764648 21.891267776489258 -19.679481506347656
   vertex -25.596426010131836 21.789402008056641 -19.536520004272461
  endloop
 endfacet
 facet normal -0.38742016763450648 0.87434541846699754 0.29227675739925285
  outer loop
   vertex -21.98289680480957 21.789402008056641 -14.746696472167969
   vertex -25.596426010131836 21.789402008056641 -19.536520004272461
   vertex -22.16319465637207 21.664043426513672 -14.610675811767578
  endloop
 endfacet
 facet normal -0.38741653440017243 0.87434785410896976 0.29227428708047443
  outer loop
   vertex -22.16319465637207 21.664043426513672 -14.610675811767578
   vertex -25.596426010131836 21.789402008056641 -19.536520004272461
   vertex -25.776725769042969 21.664043426513672 -19.400497436523438
  endloop
 endfacet
 facet normal -0.45604306179794835 0.82076555462919354 0.34404742423128953
  outer loop
   vertex -22.16319465637207 21.664043426513672 -14.610675811767578
   vertex -25.776725769042969 21.664043426513672 -19.400497436523438
   vertex -22.33244514465332 21.5164794921875 -14.482990264892578
  endloop
 endfacet
 facet normal -0.45604479220660665 0.82076410336683736 0.34404859268083732
  outer loop
   vertex -22.33244514465332 21.5164794921875 -14.482990264892578
   vertex -25.776725769042969 21.664043426513672 -19.400497436523438
   vertex -25.945976257324219 21.5164794921875 -19.27281379699707
  endloop
 endfacet
 facet normal -0.51999725687318199 0.75875363955266395 0.39229551018327002
  outer loop
   vertex -22.33244514465332 21.5164794921875 -14.482990264892578
   vertex -25.945976257324219 21.5164794921875 -19.27281379699707
   vertex -22.488908767700195 21.348220825195312 -14.364951133728027
  endloop
 endfacet
 facet normal -0.51999634204205969 0.7587545829631962 0.39229489812540719
  outer loop
   vertex -22.488908767700195 21.348220825195312 -14.364951133728027
   vertex -25.945976257324219 21.5164794921875 -19.27281379699707
   vertex -26.102439880371094 21.348220825195312 -19.154773712158203
  endloop
 endfacet
 facet normal -0.57860406091819439 0.68896782680289004 0.4365096497438255
  outer loop
   vertex -22.488908767700195 21.348220825195312 -14.364951133728027
   vertex -26.102439880371094 21.348220825195312 -19.154773712158203
   vertex -22.6309814453125 21.160999298095703 -14.257769584655762
  endloop
 endfacet
 facet normal -0.57860652152654712 0.68896473020255089 0.43651127566636305
  outer loop
   vertex -22.6309814453125 21.160999298095703 -14.257769584655762
   vertex -26.102439880371094 21.348220825195312 -19.154773712158203
   vertex -26.244510650634766 21.160999298095703 -19.047592163085938
  endloop
 endfacet
 facet normal -0.63127843372018477 0.61210738802625164 0.47624792350567802
  outer loop
   vertex -22.6309814453125 21.160999298095703 -14.257769584655762
   vertex -26.244510650634766 21.160999298095703 -19.047592163085938
   vertex -22.757204055786133 20.956733703613281 -14.162544250488281
  endloop
 endfacet
 facet normal -0.63127933849433959 0.61210599761168716 0.47624851126061318
  outer loop
   vertex -22.757204055786133 20.956733703613281 -14.162544250488281
   vertex -26.244510650634766 21.160999298095703 -19.047592163085938
   vertex -26.370733261108398 20.956733703613281 -18.952367782592773
  endloop
 endfacet
 facet normal -0.6774758915714052 0.52896425423559834 0.51110002355752904
  outer loop
   vertex -22.757204055786133 20.956733703613281 -14.162544250488281
   vertex -26.370733261108398 20.956733703613281 -18.952367782592773
   vertex -22.866281509399414 20.737520217895508 -14.080253601074219
  endloop
 endfacet
 facet normal -0.67747364946300859 0.52896849951012581 0.51109860184633493
  outer loop
   vertex -22.866281509399414 20.737520217895508 -14.080253601074219
   vertex -26.370733261108398 20.956733703613281 -18.952367782592773
   vertex -26.479812622070312 20.737520217895508 -18.870077133178711
  endloop
 endfacet
 facet normal -0.71672052404238051 0.44039465246121767 0.54070716705068644
  outer loop
   vertex -22.866281509399414 20.737520217895508 -14.080253601074219
   vertex -26.479812622070312 20.737520217895508 -18.870077133178711
   vertex -22.957096099853516 20.505607604980469 -14.01174259185791
  endloop
 endfacet
 facet normal -0.71672176824804701 0.44039169334368822 0.5407079279548912
  outer loop
   vertex -22.957096099853516 20.505607604980469 -14.01174259185791
   vertex -26.479812622070312 20.737520217895508 -18.870077133178711
   vertex -26.570625305175781 20.505607604980469 -18.801565170288086
  endloop
 endfacet
 facet normal -0.74861146010397384 0.34730410907712295 0.56476609106703846
  outer loop
   vertex -22.957096099853516 20.505607604980469 -14.01174259185791
   vertex -26.570625305175781 20.505607604980469 -18.801565170288086
   vertex -23.028713226318359 20.263376235961914 -13.957712173461914
  endloop
 endfacet
 facet normal -0.74861041636522474 0.34730733737832192 0.56476548930743398
  outer loop
   vertex -23.028713226318359 20.263376235961914 -13.957712173461914
   vertex -26.570625305175781 20.505607604980469 -18.801565170288086
   vertex -26.642244338989258 20.263376235961914 -18.747535705566406
  endloop
 endfacet
 facet normal -0.77281952588241321 0.25065280830692532 0.58302928751713157
  outer loop
   vertex -23.028713226318359 20.263376235961914 -13.957712173461914
   vertex -26.642244338989258 20.263376235961914 -18.747535705566406
   vertex -23.080400466918945 20.013311386108398 -13.918718338012695
  endloop
 endfacet
 facet normal -0.77281952588241321 0.25065280830692532 0.58302928751713157
  outer loop
   vertex -23.080400466918945 20.013311386108398 -13.918718338012695
   vertex -26.642244338989258 20.263376235961914 -18.747535705566406
   vertex -26.693931579589844 20.013311386108398 -18.708541870117188
  endloop
 endfacet
 facet normal -0.78909768526104684 0.15143001164456865 0.59530983083515732
  outer loop
   vertex -23.080400466918945 20.013311386108398 -13.918718338012695
   vertex -26.693931579589844 20.013311386108398 -18.708541870117188
   vertex -23.111627578735352 19.757980346679688 -13.895161628723145
  endloop
 endfacet
 facet normal -0.78909821801800994 0.15142642469690243 0.59531003705994623
  outer loop
   vertex -23.111627578735352 19.757980346679688 -13.895161628723145
   vertex -26.693931579589844 20.013311386108398 -18.708541870117188
   vertex -26.725156784057617 19.757980346679688 -18.68498420715332
  endloop
 endfacet
 facet normal -0.79727921059402396 0.050649307947638861 0.60148192654392796
  outer loop
   vertex -23.111627578735352 19.757980346679688 -13.895161628723145
   vertex -26.725156784057617 19.757980346679688 -18.68498420715332
   vertex -23.122072219848633 19.5 -13.887282371520996
  endloop
 endfacet
 facet normal -0.79727921059402396 0.050649307947638861 0.60148192654392796
  outer loop
   vertex -23.122072219848633 19.5 -13.887282371520996
   vertex -26.725156784057617 19.757980346679688 -18.68498420715332
   vertex -26.735601425170898 19.5 -18.677104949951172
  endloop
 endfacet
 facet normal 0.79830389112284561 0 -0.60225484424629072
  outer loop
   vertex -22.664251327514648 4.5 -21.748605728149414
   vertex -22.664251327514648 19.5 -21.748605728149414
   vertex -19.050722122192383 4.5 -16.958782196044922
  endloop
 endfacet
 facet normal 0.79830389112284561 0 -0.60225484424629072
  outer loop
   vertex -19.050722122192383 4.5 -16.958782196044922
   vertex -22.664251327514648 19.5 -21.748605728149414
   vertex -19.050722122192383 19.5 -16.958782196044922
  endloop
 endfacet
 facet normal -0.79727920303312672 -0.050649494702979331 0.60148192083984964
  outer loop
   vertex -23.122072219848633 4.5 -13.887282371520996
   vertex -26.735601425170898 4.5 -18.677104949951172
   vertex -23.111627578735352 4.2420206069946289 -13.895161628723145
  endloop
 endfacet
 facet normal -0.79727920303312672 -0.050649494702979331 0.60148192083984964
  outer loop
   vertex -23.111627578735352 4.2420206069946289 -13.895161628723145
   vertex -26.735601425170898 4.5 -18.677104949951172
   vertex -26.725156784057617 4.2420206069946289 -18.68498420715332
  endloop
 endfacet
 facet normal -0.78909784693328577 -0.15142945901836033 0.59530975710688605
  outer loop
   vertex -23.111627578735352 4.2420206069946289 -13.895161628723145
   vertex -26.725156784057617 4.2420206069946289 -18.68498420715332
   vertex -23.080400466918945 3.9866886138916016 -13.918718338012695
  endloop
 endfacet
 facet normal -0.78909819151194349 -0.15142587208278907 0.59531021276016016
  outer loop
   vertex -23.080400466918945 3.9866886138916016 -13.918718338012695
   vertex -26.725156784057617 4.2420206069946289 -18.68498420715332
   vertex -26.693931579589844 3.9866886138916016 -18.708541870117188
  endloop
 endfacet
 facet normal -0.77281952588241321 -0.25065280830692532 0.58302928751713157
  outer loop
   vertex -23.080400466918945 3.9866886138916016 -13.918718338012695
   vertex -26.693931579589844 3.9866886138916016 -18.708541870117188
   vertex -23.028713226318359 3.7366237640380859 -13.957712173461914
  endloop
 endfacet
 facet normal -0.77281952588241321 -0.25065280830692532 0.58302928751713157
  outer loop
   vertex -23.028713226318359 3.7366237640380859 -13.957712173461914
   vertex -26.693931579589844 3.9866886138916016 -18.708541870117188
   vertex -26.642244338989258 3.7366237640380859 -18.747535705566406
  endloop
 endfacet
 facet normal -0.7486113708436245 -0.34730410907761594 0.56476620938352251
  outer loop
   vertex -23.028713226318359 3.7366237640380859 -13.957712173461914
   vertex -26.642244338989258 3.7366237640380859 -18.747535705566406
   vertex -22.957096099853516 3.4943923950195312 -14.01174259185791
  endloop
 endfacet
 facet normal -0.74861050562515641 -0.34730733737885666 0.56476537099087154
  outer loop
   vertex -22.957096099853516 3.4943923950195312 -14.01174259185791
   vertex -26.642244338989258 3.7366237640380859 -18.747535705566406
   vertex -26.570625305175781 3.4943923950195312 -18.801565170288086
  endloop
 endfacet
 facet normal -0.71672060949991712 -0.44039465246168202 0.54070705377424244
  outer loop
   vertex -22.957096099853516 3.4943923950195312 -14.01174259185791
   vertex -26.570625305175781 3.4943923950195312 -18.801565170288086
   vertex -22.866281509399414 3.2624797821044922 -14.080253601074219
  endloop
 endfacet
 facet normal -0.71672168279000315 -0.44039169334416572 0.54070804123123983
  outer loop
   vertex -22.866281509399414 3.2624797821044922 -14.080253601074219
   vertex -26.570625305175781 3.4943923950195312 -18.801565170288086
   vertex -26.479812622070312 3.2624797821044922 -18.870077133178711
  endloop
 endfacet
 facet normal -0.6774757618673527 -0.52896425423595461 0.51110019548308772
  outer loop
   vertex -22.866281509399414 3.2624797821044922 -14.080253601074219
   vertex -26.479812622070312 3.2624797821044922 -18.870077133178711
   vertex -22.757204055786133 3.0432662963867188 -14.162544250488281
  endloop
 endfacet
 facet normal -0.6774737791662524 -0.52896849951058245 0.5110984299210074
  outer loop
   vertex -22.757204055786133 3.0432662963867188 -14.162544250488281
   vertex -26.479812622070312 3.2624797821044922 -18.870077133178711
   vertex -26.370733261108398 3.0432662963867188 -18.952367782592773
  endloop
 endfacet
 facet normal -0.63127958358945135 -0.61210560097459732 0.47624869616478321
  outer loop
   vertex -22.757204055786133 3.0432662963867188 -14.162544250488281
   vertex -26.370733261108398 3.0432662963867188 -18.952367782592773
   vertex -22.6309814453125 2.8389997482299805 -14.257769584655762
  endloop
 endfacet
 facet normal -0.63128039718143936 -0.61210421055931474 0.47624940477653321
  outer loop
   vertex -22.6309814453125 2.8389997482299805 -14.257769584655762
   vertex -26.370733261108398 3.0432662963867188 -18.952367782592773
   vertex -26.244510650634766 2.8389997482299805 -19.047592163085938
  endloop
 endfacet
 facet normal -0.57860417169272871 -0.68896782680317403 0.43650950290902363
  outer loop
   vertex -22.6309814453125 2.8389997482299805 -14.257769584655762
   vertex -26.244510650634766 2.8389997482299805 -19.047592163085938
   vertex -22.488908767700195 2.6517782211303711 -14.364951133728027
  endloop
 endfacet
 facet normal -0.57860641075111308 -0.68896473020285975 0.43651142250142189
  outer loop
   vertex -22.488908767700195 2.6517782211303711 -14.364951133728027
   vertex -26.244510650634766 2.8389997482299805 -19.047592163085938
   vertex -26.102439880371094 2.6517782211303711 -19.154773712158203
  endloop
 endfacet
 facet normal -0.51999382573819297 -0.75875728893930439 0.39229299977903576
  outer loop
   vertex -22.488908767700195 2.6517782211303711 -14.364951133728027
   vertex -26.102439880371094 2.6517782211303711 -19.154773712158203
   vertex -22.33244514465332 2.4835214614868164 -14.482990264892578
  endloop
 endfacet
 facet normal -0.51999298600982702 -0.75875823234192075 0.3922922881652755
  outer loop
   vertex -22.33244514465332 2.4835214614868164 -14.482990264892578
   vertex -26.102439880371094 2.6517782211303711 -19.154773712158203
   vertex -25.945976257324219 2.4835214614868164 -19.27281379699707
  endloop
 endfacet
 facet normal -0.45604312766637733 -0.8207655546292254 0.34404733692102352
  outer loop
   vertex -22.33244514465332 2.4835214614868164 -14.482990264892578
   vertex -25.945976257324219 2.4835214614868164 -19.27281379699707
   vertex -22.16319465637207 2.3359575271606445 -14.610675811767578
  endloop
 endfacet
 facet normal -0.45604472633835963 -0.82076410336643713 0.34404867999174066
  outer loop
   vertex -22.16319465637207 2.3359575271606445 -14.610675811767578
   vertex -25.945976257324219 2.4835214614868164 -19.27281379699707
   vertex -25.776725769042969 2.3359575271606445 -19.400497436523438
  endloop
 endfacet
 facet normal -0.38742229067011064 -0.87434385186945973 0.29227862971828938
  outer loop
   vertex -22.16319465637207 2.3359575271606445 -14.610675811767578
   vertex -25.776725769042969 2.3359575271606445 -19.400497436523438
   vertex -21.98289680480957 2.2105979919433594 -14.746696472167969
  endloop
 endfacet
 facet normal -0.38741891768664993 -0.87434628753482635 0.2922758144160606
  outer loop
   vertex -21.98289680480957 2.2105979919433594 -14.746696472167969
   vertex -25.776725769042969 2.3359575271606445 -19.400497436523438
   vertex -25.596426010131836 2.2105979919433594 -19.536520004272461
  endloop
 endfacet
 facet normal -0.31481395806505896 -0.91895880908535776 0.23750132423174472
  outer loop
   vertex -21.98289680480957 2.2105979919433594 -14.746696472167969
   vertex -25.596426010131836 2.2105979919433594 -19.536520004272461
   vertex -21.793397903442383 2.1087322235107422 -14.889657974243164
  endloop
 endfacet
 facet normal -0.31481395806505896 -0.91895880908535776 0.23750132423174472
  outer loop
   vertex -21.793397903442383 2.1087322235107422 -14.889657974243164
   vertex -25.596426010131836 2.2105979919433594 -19.536520004272461
   vertex -25.406927108764648 2.1087322235107422 -19.679481506347656
  endloop
 endfacet
 facet normal -0.23898186378282901 -0.95413960310307122 0.18029222549294555
  outer loop
   vertex -21.793397903442383 2.1087322235107422 -14.889657974243164
   vertex -25.406927108764648 2.1087322235107422 -19.679481506347656
   vertex -21.596643447875977 2.0314035415649414 -15.038092613220215
  endloop
 endfacet
 facet normal -0.2389836518892467 -0.95413887557003652 0.18029370553523377
  outer loop
   vertex -21.596643447875977 2.0314035415649414 -15.038092613220215
   vertex -25.406927108764648 2.1087322235107422 -19.679481506347656
   vertex -25.210174560546875 2.0314035415649414 -19.827915191650391
  endloop
 endfacet
 facet normal -0.16069944005228612 -0.97952940308168202 0.12123464218335303
  outer loop
   vertex -21.596643447875977 2.0314035415649414 -15.038092613220215
   vertex -25.210174560546875 2.0314035415649414 -19.827915191650391
   vertex -21.394655227661133 1.979405403137207 -15.19047737121582
  endloop
 endfacet
 facet normal -0.16069888134442661 -0.97952955184264223 0.12123418083033544
  outer loop
   vertex -21.394655227661133 1.979405403137207 -15.19047737121582
   vertex -25.210174560546875 2.0314035415649414 -19.827915191650391
   vertex -25.008184432983398 1.979405403137207 -19.98029899597168
  endloop
 endfacet
 facet normal -0.080762339249590434 -0.99486941436644949 0.060928588668145843
  outer loop
   vertex -21.394655227661133 1.979405403137207 -15.19047737121582
   vertex -25.008184432983398 1.979405403137207 -19.98029899597168
   vertex -21.189502716064453 1.953272819519043 -15.345247268676758
  endloop
 endfacet
 facet normal -0.080761993607151 -0.9948694598806922 0.060928303646975296
  outer loop
   vertex -21.189502716064453 1.953272819519043 -15.345247268676758
   vertex -25.008184432983398 1.979405403137207 -19.98029899597168
   vertex -24.803031921386719 1.953272819519043 -20.13507080078125
  endloop
 endfacet
 facet normal 0 -1 0
  outer loop
   vertex -21.189502716064453 1.953272819519043 -15.345247268676758
   vertex -24.803031921386719 1.953272819519043 -20.13507080078125
   vertex -20.983291625976562 1.953272819519043 -15.500816345214844
  endloop
 endfacet
 facet normal 0 -1 0
  outer loop
   vertex -20.983291625976562 1.953272819519043 -15.500816345214844
   vertex -24.803031921386719 1.953272819519043 -20.13507080078125
   vertex -24.596820831298828 1.953272819519043 -20.290639877319336
  endloop
 endfacet
 facet normal 0.080762172260396711 -0.99486943712364906 -0.060928438426203949
  outer loop
   vertex -20.983291625976562 1.953272819519043 -15.500816345214844
   vertex -24.596820831298828 1.953272819519043 -20.290639877319336
   vertex -20.778139114379883 1.979405403137207 -15.655587196350098
  endloop
 endfacet
 facet normal 0.080762345082010328 -0.99486941436645215 -0.060928580937084843
  outer loop
   vertex -20.778139114379883 1.979405403137207 -15.655587196350098
   vertex -24.596820831298828 1.953272819519043 -20.290639877319336
   vertex -24.391668319702148 1.979405403137207 -20.445409774780273
  endloop
 endfacet
 facet normal 0.16069854295060157 -0.97952964194275005 -0.12123390140163587
  outer loop
   vertex -20.778139114379883 1.979405403137207 -15.655587196350098
   vertex -24.391668319702148 1.979405403137207 -20.445409774780273
   vertex -20.576148986816406 2.0314035415649414 -15.807971954345703
  endloop
 endfacet
 facet normal 0.16069977844998243 -0.97952931297999923 -0.12123492161525541
  outer loop
   vertex -20.576148986816406 2.0314035415649414 -15.807971954345703
   vertex -24.391668319702148 1.979405403137207 -20.445409774780273
   vertex -24.189680099487305 2.0314035415649414 -20.597793579101562
  endloop
 endfacet
 facet normal 0.23898312761761889 -0.95413907483862026 -0.18029334591216278
  outer loop
   vertex -20.576148986816406 2.0314035415649414 -15.807971954345703
   vertex -24.189680099487305 2.0314035415649414 -20.597793579101562
   vertex -20.379396438598633 2.1087322235107422 -15.956406593322754
  endloop
 endfacet
 facet normal 0.23898133951894418 -0.95413980236692209 -0.1802918658757017
  outer loop
   vertex -20.379396438598633 2.1087322235107422 -15.956406593322754
   vertex -24.189680099487305 2.0314035415649414 -20.597793579101562
   vertex -23.992925643920898 2.1087322235107422 -20.74622917175293
  endloop
 endfacet
 facet normal 0.31481457859324152 -0.91895846329673192 -0.23750183965702049
  outer loop
   vertex -20.379396438598633 2.1087322235107422 -15.956406593322754
   vertex -23.992925643920898 2.1087322235107422 -20.74622917175293
   vertex -20.189897537231445 2.2105979919433594 -16.099367141723633
  endloop
 endfacet
 facet normal 0.31481395806505896 -0.91895880908535776 -0.23750132423174472
  outer loop
   vertex -20.189897537231445 2.2105979919433594 -16.099367141723633
   vertex -23.992925643920898 2.1087322235107422 -20.74622917175293
   vertex -23.803426742553711 2.2105979919433594 -20.889190673828125
  endloop
 endfacet
 facet normal 0.38741891768664993 -0.87434628753482635 -0.2922758144160606
  outer loop
   vertex -20.189897537231445 2.2105979919433594 -16.099367141723633
   vertex -23.803426742553711 2.2105979919433594 -20.889190673828125
   vertex -20.009597778320312 2.3359575271606445 -16.235389709472656
  endloop
 endfacet
 facet normal 0.38742229067011064 -0.87434385186945973 -0.29227862971828938
  outer loop
   vertex -20.009597778320312 2.3359575271606445 -16.235389709472656
   vertex -23.803426742553711 2.2105979919433594 -20.889190673828125
   vertex -23.623128890991211 2.3359575271606445 -21.025211334228516
  endloop
 endfacet
 facet normal 0.45604472633835963 -0.82076410336643713 -0.34404867999174066
  outer loop
   vertex -20.009597778320312 2.3359575271606445 -16.235389709472656
   vertex -23.623128890991211 2.3359575271606445 -21.025211334228516
   vertex -19.840347290039062 2.4835214614868164 -16.363073348999023
  endloop
 endfacet
 facet normal 0.45604312766637733 -0.8207655546292254 -0.34404733692102352
  outer loop
   vertex -19.840347290039062 2.4835214614868164 -16.363073348999023
   vertex -23.623128890991211 2.3359575271606445 -21.025211334228516
   vertex -23.453878402709961 2.4835214614868164 -21.152896881103516
  endloop
 endfacet
 facet normal 0.51999298600982702 -0.75875823234192075 -0.3922922881652755
  outer loop
   vertex -19.840347290039062 2.4835214614868164 -16.363073348999023
   vertex -23.453878402709961 2.4835214614868164 -21.152896881103516
   vertex -19.683883666992188 2.6517782211303711 -16.481113433837891
  endloop
 endfacet
 facet normal 0.51999466546851258 -0.75875634553167093 -0.39229371139455338
  outer loop
   vertex -19.683883666992188 2.6517782211303711 -16.481113433837891
   vertex -23.453878402709961 2.4835214614868164 -21.152896881103516
   vertex -23.297414779663086 2.6517782211303711 -21.27093505859375
  endloop
 endfacet
 facet normal 0.57860636896558826 -0.68896473020297022 -0.43651147788896227
  outer loop
   vertex -19.683883666992188 2.6517782211303711 -16.481113433837891
   vertex -23.297414779663086 2.6517782211303711 -21.27093505859375
   vertex -19.541812896728516 2.8389997482299805 -16.588294982910156
  endloop
 endfacet
 facet normal 0.57860244072628642 -0.68897016290980018 -0.43650811012583446
  outer loop
   vertex -19.541812896728516 2.8389997482299805 -16.588294982910156
   vertex -23.297414779663086 2.6517782211303711 -21.27093505859375
   vertex -23.155342102050781 2.8389997482299805 -21.378118515014648
  endloop
 endfacet
 facet normal 0.63128044277078221 -0.61210421055935937 -0.47624934434666522
  outer loop
   vertex -19.541812896728516 2.8389997482299805 -16.588294982910156
   vertex -23.155342102050781 2.8389997482299805 -21.378118515014648
   vertex -19.415590286254883 3.0432662963867188 -16.68351936340332
  endloop
 endfacet
 facet normal 0.63128044277078221 -0.61210421055935937 -0.47624934434666522
  outer loop
   vertex -19.415590286254883 3.0432662963867188 -16.68351936340332
   vertex -23.155342102050781 2.8389997482299805 -21.378118515014648
   vertex -23.029119491577148 3.0432662963867188 -21.473342895507812
  endloop
 endfacet
 facet normal 0.6774737791662524 -0.52896849951058245 -0.5110984299210074
  outer loop
   vertex -19.415590286254883 3.0432662963867188 -16.68351936340332
   vertex -23.029119491577148 3.0432662963867188 -21.473342895507812
   vertex -19.306510925292969 3.2624797821044922 -16.765810012817383
  endloop
 endfacet
 facet normal 0.6774757618673527 -0.52896425423595461 -0.51110019548308772
  outer loop
   vertex -19.306510925292969 3.2624797821044922 -16.765810012817383
   vertex -23.029119491577148 3.0432662963867188 -21.473342895507812
   vertex -22.920042037963867 3.2624797821044922 -21.555633544921875
  endloop
 endfacet
 facet normal 0.71672168279000315 -0.44039169334416572 -0.54070804123123983
  outer loop
   vertex -19.306510925292969 3.2624797821044922 -16.765810012817383
   vertex -22.920042037963867 3.2624797821044922 -21.555633544921875
   vertex -19.2156982421875 3.4943923950195312 -16.834321975708008
  endloop
 endfacet
 facet normal 0.71671995943236799 -0.44039644471949907 -0.54070645569448328
  outer loop
   vertex -19.2156982421875 3.4943923950195312 -16.834321975708008
   vertex -22.920042037963867 3.2624797821044922 -21.555633544921875
   vertex -22.829227447509766 3.4943923950195312 -21.6241455078125
  endloop
 endfacet
 facet normal 0.74861055968769674 -0.34730733737917679 -0.56476529932942954
  outer loop
   vertex -19.2156982421875 3.4943923950195312 -16.834321975708008
   vertex -22.829227447509766 3.4943923950195312 -21.6241455078125
   vertex -19.144079208374023 3.7366237640380859 -16.888351440429688
  endloop
 endfacet
 facet normal 0.74861194894481187 -0.34730215376850693 -0.56476664551370825
  outer loop
   vertex -19.144079208374023 3.7366237640380859 -16.888351440429688
   vertex -22.829227447509766 3.4943923950195312 -21.6241455078125
   vertex -22.757610321044922 3.7366237640380859 -21.67817497253418
  endloop
 endfacet
 facet normal 0.77281952588241321 -0.25065280830692532 -0.58302928751713157
  outer loop
   vertex -19.144079208374023 3.7366237640380859 -16.888351440429688
   vertex -22.757610321044922 3.7366237640380859 -21.67817497253418
   vertex -19.092391967773438 3.9866886138916016 -16.927345275878906
  endloop
 endfacet
 facet normal 0.77281952588241321 -0.25065280830692532 -0.58302928751713157
  outer loop
   vertex -19.092391967773438 3.9866886138916016 -16.927345275878906
   vertex -22.757610321044922 3.7366237640380859 -21.67817497253418
   vertex -22.705923080444336 3.9866886138916016 -21.717168807983398
  endloop
 endfacet
 facet normal 0.78909819151194349 -0.15142587208278907 -0.59531021276016016
  outer loop
   vertex -19.092391967773438 3.9866886138916016 -16.927345275878906
   vertex -22.705923080444336 3.9866886138916016 -21.717168807983398
   vertex -19.061166763305664 4.2420206069946289 -16.950902938842773
  endloop
 endfacet
 facet normal 0.7890976382255801 -0.1514316315342259 -0.59530948112531679
  outer loop
   vertex -19.061166763305664 4.2420206069946289 -16.950902938842773
   vertex -22.705923080444336 3.9866886138916016 -21.717168807983398
   vertex -22.67469596862793 4.2420206069946289 -21.740726470947266
  endloop
 endfacet
 facet normal 0.7972792606104796 -0.050649494703088244 -0.60148184451962383
  outer loop
   vertex -19.061166763305664 4.2420206069946289 -16.950902938842773
   vertex -22.67469596862793 4.2420206069946289 -21.740726470947266
   vertex -19.050722122192383 4.5 -16.958782196044922
  endloop
 endfacet
 facet normal 0.7972792606104796 -0.050649494703088244 -0.60148184451962383
  outer loop
   vertex -19.050722122192383 4.5 -16.958782196044922
   vertex -22.67469596862793 4.2420206069946289 -21.740726470947266
   vertex -22.664251327514648 4.5 -21.748605728149414
  endloop
 endfacet
 facet normal 0.60222507785104751 -7.5125457984598082e-07 0.79832634655680468
  outer loop
   vertex -23.111627578735352 4.2420206069946289 -13.895161628723145
   vertex -23.080400466918945 3.9866886138916016 -13.918718338012695
   vertex -23.122072219848633 4.5 -13.887282371520996
  endloop
 endfacet
 facet normal 0.60227108433776877 5.1091952224373087e-06 0.79829163902956191
  outer loop
   vertex -23.122072219848633 4.5 -13.887282371520996
   vertex -23.080400466918945 3.9866886138916016 -13.918718338012695
   vertex -23.028713226318359 3.7366237640380859 -13.957712173461914
  endloop
 endfacet
 facet normal 0.60227631160141171 6.112329787712268e-06 0.79828769528688015
  outer loop
   vertex -23.122072219848633 4.5 -13.887282371520996
   vertex -23.028713226318359 3.7366237640380859 -13.957712173461914
   vertex -22.957096099853516 3.4943923950195312 -14.01174259185791
  endloop
 endfacet
 facet normal 0.60224535274900359 -1.8573810521664908e-06 0.79831105158877658
  outer loop
   vertex -22.957096099853516 3.4943923950195312 -14.01174259185791
   vertex -22.866281509399414 3.2624797821044922 -14.080253601074219
   vertex -23.122072219848633 4.5 -13.887282371520996
  endloop
 endfacet
 facet normal 0.60226272406856562 3.7767505650354836e-06 0.79829794637293583
  outer loop
   vertex -23.122072219848633 4.5 -13.887282371520996
   vertex -22.866281509399414 3.2624797821044922 -14.080253601074219
   vertex -22.757204055786133 3.0432662963867188 -14.162544250488281
  endloop
 endfacet
 facet normal 0.6022609152081102 3.0658205014062896e-06 0.79829931103771468
  outer loop
   vertex -23.122072219848633 4.5 -13.887282371520996
   vertex -22.757204055786133 3.0432662963867188 -14.162544250488281
   vertex -22.6309814453125 2.8389997482299805 -14.257769584655762
  endloop
 endfacet
 facet normal 0.60225143452864416 -1.3325871662043679e-06 0.79830646346275713
  outer loop
   vertex -22.6309814453125 2.8389997482299805 -14.257769584655762
   vertex -22.488908767700195 2.6517782211303711 -14.364951133728027
   vertex -23.122072219848633 4.5 -13.887282371520996
  endloop
 endfacet
 facet normal 0.60225617895238992 1.2178105892994613e-06 0.79830288419382767
  outer loop
   vertex -23.122072219848633 4.5 -13.887282371520996
   vertex -22.488908767700195 2.6517782211303711 -14.364951133728027
   vertex -22.33244514465332 2.4835214614868164 -14.482990264892578
  endloop
 endfacet
 facet normal 0.60225485074526042 4.0168333411588041e-07 0.79830388621980464
  outer loop
   vertex -23.122072219848633 4.5 -13.887282371520996
   vertex -22.33244514465332 2.4835214614868164 -14.482990264892578
   vertex -22.16319465637207 2.3359575271606445 -14.610675811767578
  endloop
 endfacet
 facet normal 0.60225427301749157 0 0.79830432206782698
  outer loop
   vertex -23.122072219848633 4.5 -13.887282371520996
   vertex -22.16319465637207 2.3359575271606445 -14.610675811767578
   vertex -23.122072219848633 19.5 -13.887282371520996
  endloop
 endfacet
 facet normal 0.60225695599206708 2.3519263923970555e-07 0.79830229797935193
  outer loop
   vertex -23.122072219848633 19.5 -13.887282371520996
   vertex -22.16319465637207 2.3359575271606445 -14.610675811767578
   vertex -21.98289680480957 2.2105979919433594 -14.746696472167969
  endloop
 endfacet
 facet normal 0.60225517120145255 5.0664819735859293e-08 0.79830364446187185
  outer loop
   vertex -23.122072219848633 19.5 -13.887282371520996
   vertex -21.98289680480957 2.2105979919433594 -14.746696472167969
   vertex -21.793397903442383 2.1087322235107422 -14.889657974243164
  endloop
 endfacet
 facet normal 0.60225359791955801 -1.3794188235477949e-07 0.79830483137265817
  outer loop
   vertex -21.793397903442383 2.1087322235107422 -14.889657974243164
   vertex -21.596643447875977 2.0314035415649414 -15.038092613220215
   vertex -23.122072219848633 19.5 -13.887282371520996
  endloop
 endfacet
 facet normal 0.60225795198929866 4.5867164950081291e-07 0.79830154657588193
  outer loop
   vertex -23.122072219848633 19.5 -13.887282371520996
   vertex -21.596643447875977 2.0314035415649414 -15.038092613220215
   vertex -21.394655227661133 1.979405403137207 -15.19047737121582
  endloop
 endfacet
 facet normal 0.60225269517999347 -3.5459756869345648e-07 0.79830551241257763
  outer loop
   vertex -23.122072219848633 19.5 -13.887282371520996
   vertex -21.394655227661133 1.979405403137207 -15.19047737121582
   vertex -21.189502716064453 1.953272819519043 -15.345247268676758
  endloop
 endfacet
 facet normal 0.6022541371337794 -1.0539460019886362e-07 0.798304424580771
  outer loop
   vertex -21.189502716064453 1.953272819519043 -15.345247268676758
   vertex -20.983291625976562 1.953272819519043 -15.500816345214844
   vertex -23.122072219848633 19.5 -13.887282371520996
  endloop
 endfacet
 facet normal 0.60225508282741991 7.5482641527256288e-08 0.7983037111328819
  outer loop
   vertex -23.122072219848633 19.5 -13.887282371520996
   vertex -20.983291625976562 1.953272819519043 -15.500816345214844
   vertex -20.778139114379883 1.979405403137207 -15.655587196350098
  endloop
 endfacet
 facet normal 0.60225426815974104 -9.5534737817313381e-08 0.79830432573259047
  outer loop
   vertex -23.122072219848633 19.5 -13.887282371520996
   vertex -20.778139114379883 1.979405403137207 -15.655587196350098
   vertex -20.576148986816406 2.0314035415649414 -15.807971954345703
  endloop
 endfacet
 facet normal 0.6022572086623591 5.7693490914994456e-07 0.79830210735904406
  outer loop
   vertex -20.576148986816406 2.0314035415649414 -15.807971954345703
   vertex -20.379396438598633 2.1087322235107422 -15.956406593322754
   vertex -23.122072219848633 19.5 -13.887282371520996
  endloop
 endfacet
 facet normal 0.60225483525590262 -1.0391287160146091e-08 0.79830389790535627
  outer loop
   vertex -23.122072219848633 19.5 -13.887282371520996
   vertex -20.379396438598633 2.1087322235107422 -15.956406593322754
   vertex -19.050722122192383 19.5 -16.958782196044922
  endloop
 endfacet
 facet normal 0.60225483525551182 -1.1391406983476129e-06 0.79830389790483836
  outer loop
   vertex -23.122072219848633 19.5 -13.887282371520996
   vertex -19.050722122192383 19.5 -16.958782196044922
   vertex -23.111627578735352 19.757980346679688 -13.895161628723145
  endloop
 endfacet
 facet normal 0.60225492773085998 1.1450154437949506e-06 0.79830382813975387
  outer loop
   vertex -23.111627578735352 19.757980346679688 -13.895161628723145
   vertex -19.050722122192383 19.5 -16.958782196044922
   vertex -19.061166763305664 19.757980346679688 -16.950902938842773
  endloop
 endfacet
 facet normal 0.60225492772379585 -4.976935089315188e-06 0.79830382813039025
  outer loop
   vertex -23.111627578735352 19.757980346679688 -13.895161628723145
   vertex -19.061166763305664 19.757980346679688 -16.950902938842773
   vertex -23.080400466918945 20.013311386108398 -13.918718338012695
  endloop
 endfacet
 facet normal 0.60225502864391989 -2.4843097785830994e-06 0.79830375200605153
  outer loop
   vertex -23.080400466918945 20.013311386108398 -13.918718338012695
   vertex -19.061166763305664 19.757980346679688 -16.950902938842773
   vertex -19.092391967773438 20.013311386108398 -16.927345275878906
  endloop
 endfacet
 facet normal 0.6022550286457754 9.8277654202327296e-08 0.79830375200851111
  outer loop
   vertex -23.080400466918945 20.013311386108398 -13.918718338012695
   vertex -19.092391967773438 20.013311386108398 -16.927345275878906
   vertex -23.028713226318359 20.263376235961914 -13.957712173461914
  endloop
 endfacet
 facet normal 0.60225502058227398 -1.0089293390603036e-07 0.79830375809176457
  outer loop
   vertex -23.028713226318359 20.263376235961914 -13.957712173461914
   vertex -19.092391967773438 20.013311386108398 -16.927345275878906
   vertex -19.144079208374023 20.263376235961914 -16.888351440429688
  endloop
 endfacet
 facet normal 0.60225502057800784 3.7653408391768522e-06 0.79830375808610965
  outer loop
   vertex -23.028713226318359 20.263376235961914 -13.957712173461914
   vertex -19.144079208374023 20.263376235961914 -16.888351440429688
   vertex -22.957096099853516 20.505607604980469 -14.01174259185791
  endloop
 endfacet
 facet normal 0.60225503520287227 4.1266003461024959e-06 0.79830374705105711
  outer loop
   vertex -22.957096099853516 20.505607604980469 -14.01174259185791
   vertex -19.144079208374023 20.263376235961914 -16.888351440429688
   vertex -19.2156982421875 20.505607604980469 -16.834321975708008
  endloop
 endfacet
 facet normal 0.60225503520295776 -4.092055316761986e-06 0.79830374705117058
  outer loop
   vertex -22.957096099853516 20.505607604980469 -14.01174259185791
   vertex -19.2156982421875 20.505607604980469 -16.834321975708008
   vertex -22.866281509399414 20.737520217895508 -14.080253601074219
  endloop
 endfacet
 facet normal 0.60225503304850436 -4.1452676286625693e-06 0.79830374867625531
  outer loop
   vertex -22.866281509399414 20.737520217895508 -14.080253601074219
   vertex -19.2156982421875 20.505607604980469 -16.834321975708008
   vertex -19.306510925292969 20.737520217895508 -16.765810012817383
  endloop
 endfacet
 facet normal 0.60225503305218342 2.2283188216728939e-06 0.79830374868113207
  outer loop
   vertex -22.866281509399414 20.737520217895508 -14.080253601074219
   vertex -19.306510925292969 20.737520217895508 -16.765810012817383
   vertex -22.757204055786133 20.956733703613281 -14.162544250488281
  endloop
 endfacet
 facet normal 0.6022550658068403 3.0374012487694509e-06 0.79830372396774685
  outer loop
   vertex -22.757204055786133 20.956733703613281 -14.162544250488281
   vertex -19.306510925292969 20.737520217895508 -16.765810012817383
   vertex -19.415590286254883 20.956733703613281 -16.68351936340332
  endloop
 endfacet
 facet normal 0.6022550658075736 2.6059448005702634e-06 0.79830372396871874
  outer loop
   vertex -22.757204055786133 20.956733703613281 -14.162544250488281
   vertex -19.415590286254883 20.956733703613281 -16.68351936340332
   vertex -22.6309814453125 21.160999298095703 -14.257769584655762
  endloop
 endfacet
 facet normal 0.60225500324161774 1.0605047876118893e-06 0.79830377117317597
  outer loop
   vertex -22.6309814453125 21.160999298095703 -14.257769584655762
   vertex -19.415590286254883 20.956733703613281 -16.68351936340332
   vertex -19.541812896728516 21.160999298095703 -16.588294982910156
  endloop
 endfacet
 facet normal 0.6022550032393944 -2.9168193415352451e-06 0.79830377117022899
  outer loop
   vertex -22.6309814453125 21.160999298095703 -14.257769584655762
   vertex -19.541812896728516 21.160999298095703 -16.588294982910156
   vertex -22.488908767700195 21.348220825195312 -14.364951133728027
  endloop
 endfacet
 facet normal 0.60225499039601316 -3.2340401521597422e-06 0.79830378085828901
  outer loop
   vertex -22.488908767700195 21.348220825195312 -14.364951133728027
   vertex -19.541812896728516 21.160999298095703 -16.588294982910156
   vertex -19.683883666992188 21.348220825195312 -16.481113433837891
  endloop
 endfacet
 facet normal 0.60225499039908226 5.1648137243517835e-07 0.7983037808623572
  outer loop
   vertex -22.488908767700195 21.348220825195312 -14.364951133728027
   vertex -19.683883666992188 21.348220825195312 -16.481113433837891
   vertex -22.33244514465332 21.5164794921875 -14.482990264892578
  endloop
 endfacet
 facet normal 0.60225475125609507 -5.3901258418676018e-06 0.79830396125811964
  outer loop
   vertex -22.33244514465332 21.5164794921875 -14.482990264892578
   vertex -19.683883666992188 21.348220825195312 -16.481113433837891
   vertex -19.840347290039062 21.5164794921875 -16.363073348999023
  endloop
 endfacet
 facet normal 0.60225475126482886 -2.2264298637425242e-07 0.79830396126969672
  outer loop
   vertex -22.33244514465332 21.5164794921875 -14.482990264892578
   vertex -19.840347290039062 21.5164794921875 -16.363073348999023
   vertex -22.16319465637207 21.664043426513672 -14.610675811767578
  endloop
 endfacet
 facet normal 0.60225522124830322 1.1387100711170663e-05 0.79830360662437916
  outer loop
   vertex -22.16319465637207 21.664043426513672 -14.610675811767578
   vertex -19.840347290039062 21.5164794921875 -16.363073348999023
   vertex -20.009597778320312 21.664043426513672 -16.235389709472656
  endloop
 endfacet
 facet normal 0.60225522128327169 3.6797615997606733e-06 0.79830360667073075
  outer loop
   vertex -22.16319465637207 21.664043426513672 -14.610675811767578
   vertex -20.009597778320312 21.664043426513672 -16.235389709472656
   vertex -21.98289680480957 21.789402008056641 -14.746696472167969
  endloop
 endfacet
 facet normal 0.60225476044780801 -7.7026789814363201e-06 0.79830395430476364
  outer loop
   vertex -21.98289680480957 21.789402008056641 -14.746696472167969
   vertex -20.009597778320312 21.664043426513672 -16.235389709472656
   vertex -20.189897537231445 21.789402008056641 -16.099367141723633
  endloop
 endfacet
 facet normal 0.60225476046527715 1.148295061130667e-06 0.79830395432791945
  outer loop
   vertex -21.98289680480957 21.789402008056641 -14.746696472167969
   vertex -20.189897537231445 21.789402008056641 -16.099367141723633
   vertex -21.793397903442383 21.891267776489258 -14.889657974243164
  endloop
 endfacet
 facet normal 0.6022549981395805 7.0193058755571208e-06 0.79830377499209104
  outer loop
   vertex -21.793397903442383 21.891267776489258 -14.889657974243164
   vertex -20.189897537231445 21.789402008056641 -16.099367141723633
   vertex -20.379396438598633 21.891267776489258 -15.956406593322754
  endloop
 endfacet
 facet normal 0.6022549981454649 -5.4524520770759175e-06 0.79830377499989102
  outer loop
   vertex -21.793397903442383 21.891267776489258 -14.889657974243164
   vertex -20.379396438598633 21.891267776489258 -15.956406593322754
   vertex -21.596643447875977 21.968597412109375 -15.038092613220215
  endloop
 endfacet
 facet normal 0.60225480738019355 -1.0163801462944086e-05 0.79830391887059104
  outer loop
   vertex -21.596643447875977 21.968597412109375 -15.038092613220215
   vertex -20.379396438598633 21.891267776489258 -15.956406593322754
   vertex -20.576148986816406 21.968597412109375 -15.807971954345703
  endloop
 endfacet
 facet normal 0.60225480730589998 1.8708852065591231e-05 0.79830391877211304
  outer loop
   vertex -21.596643447875977 21.968597412109375 -15.038092613220215
   vertex -20.576148986816406 21.968597412109375 -15.807971954345703
   vertex -21.394655227661133 22.020595550537109 -15.19047737121582
  endloop
 endfacet
 facet normal 0.60225398361614091 -1.638879816969001e-06 0.79830454039533261
  outer loop
   vertex -21.394655227661133 22.020595550537109 -15.19047737121582
   vertex -20.576148986816406 21.968597412109375 -15.807971954345703
   vertex -20.778139114379883 22.020595550537109 -15.655587196350098
  endloop
 endfacet
 facet normal 0.60225398354443493 -1.5518097051287162e-05 0.79830454030028442
  outer loop
   vertex -21.394655227661133 22.020595550537109 -15.19047737121582
   vertex -20.778139114379883 22.020595550537109 -15.655587196350098
   vertex -21.189502716064453 22.046726226806641 -15.345247268676758
  endloop
 endfacet
 facet normal 0.60225413709237896 -1.1725870232398202e-05 0.79830442452589356
  outer loop
   vertex -21.189502716064453 22.046726226806641 -15.345247268676758
   vertex -20.778139114379883 22.020595550537109 -15.655587196350098
   vertex -20.983291625976562 22.046726226806641 -15.500816345214844
  endloop
 endfacet
 facet normal 0.60225474857596273 0 0.79830396329825637
  outer loop
   vertex -19.050722122192383 19.5 -16.958782196044922
   vertex -20.379396438598633 2.1087322235107422 -15.956406593322754
   vertex -19.050722122192383 4.5 -16.958782196044922
  endloop
 endfacet
 facet normal 0.60225167565989479 2.6791900395176278e-06 0.79830628154717065
  outer loop
   vertex -19.050722122192383 4.5 -16.958782196044922
   vertex -20.379396438598633 2.1087322235107422 -15.956406593322754
   vertex -20.189897537231445 2.2105979919433594 -16.099367141723633
  endloop
 endfacet
 facet normal 0.60225979546307784 -3.6606474901292278e-06 0.79830015580317348
  outer loop
   vertex -19.050722122192383 4.5 -16.958782196044922
   vertex -20.189897537231445 2.2105979919433594 -16.099367141723633
   vertex -20.009597778320312 2.3359575271606445 -16.235389709472656
  endloop
 endfacet
 facet normal 0.60224534603599167 6.3857264373237917e-06 0.79831105662968949
  outer loop
   vertex -20.009597778320312 2.3359575271606445 -16.235389709472656
   vertex -19.840347290039062 2.4835214614868164 -16.363073348999023
   vertex -19.050722122192383 4.5 -16.958782196044922
  endloop
 endfacet
 facet normal 0.60226041415468134 -2.8729561784070636e-06 0.79829968904790249
  outer loop
   vertex -19.050722122192383 4.5 -16.958782196044922
   vertex -19.840347290039062 2.4835214614868164 -16.363073348999023
   vertex -19.683883666992188 2.6517782211303711 -16.481113433837891
  endloop
 endfacet
 facet normal 0.60225987638807077 -2.5838745850555425e-06 0.79830009475531771
  outer loop
   vertex -19.050722122192383 4.5 -16.958782196044922
   vertex -19.683883666992188 2.6517782211303711 -16.481113433837891
   vertex -19.541812896728516 2.8389997482299805 -16.588294982910156
  endloop
 endfacet
 facet normal 0.60225354494594119 3.5349712376618871e-07 0.79830487133671058
  outer loop
   vertex -19.541812896728516 2.8389997482299805 -16.588294982910156
   vertex -19.415590286254883 3.0432662963867188 -16.68351936340332
   vertex -19.050722122192383 4.5 -16.958782196044922
  endloop
 endfacet
 facet normal 0.60224786266903452 2.5867591945398416e-06 0.79830915809847036
  outer loop
   vertex -19.050722122192383 4.5 -16.958782196044922
   vertex -19.415590286254883 3.0432662963867188 -16.68351936340332
   vertex -19.306510925292969 3.2624797821044922 -16.765810012817383
  endloop
 endfacet
 facet normal 0.60226842096234734 -4.0810262601696331e-06 0.79829364841195249
  outer loop
   vertex -19.050722122192383 4.5 -16.958782196044922
   vertex -19.306510925292969 3.2624797821044922 -16.765810012817383
   vertex -19.2156982421875 3.4943923950195312 -16.834321975708008
  endloop
 endfacet
 facet normal 0.60223812795519649 3.7172185564087012e-06 0.79831650191086656
  outer loop
   vertex -19.2156982421875 3.4943923950195312 -16.834321975708008
   vertex -19.144079208374023 3.7366237640380859 -16.888351440429688
   vertex -19.050722122192383 4.5 -16.958782196044922
  endloop
 endfacet
 facet normal 0.60225219152214682 1.0184562186990587e-06 0.7983058923781875
  outer loop
   vertex -19.050722122192383 4.5 -16.958782196044922
   vertex -19.144079208374023 3.7366237640380859 -16.888351440429688
   vertex -19.092391967773438 3.9866886138916016 -16.927345275878906
  endloop
 endfacet
 facet normal 0.60228335066769645 -2.95069432588114e-06 0.79828238456061762
  outer loop
   vertex -19.050722122192383 4.5 -16.958782196044922
   vertex -19.092391967773438 3.9866886138916016 -16.927345275878906
   vertex -19.061166763305664 4.2420206069946289 -16.950902938842773
  endloop
 endfacet
 facet normal -0.60224830500099946 7.2429267869990662e-07 -0.79830882440500339
  outer loop
   vertex -22.67469596862793 4.2420206069946289 -21.740726470947266
   vertex -22.705923080444336 3.9866886138916016 -21.717168807983398
   vertex -22.664251327514648 4.5 -21.748605728149414
  endloop
 endfacet
 facet normal -0.60226355392020314 2.6667832853001417e-06 -0.79829732030885259
  outer loop
   vertex -22.664251327514648 4.5 -21.748605728149414
   vertex -22.705923080444336 3.9866886138916016 -21.717168807983398
   vertex -22.757610321044922 3.7366237640380859 -21.67817497253418
  endloop
 endfacet
 facet normal -0.60226109203936817 2.1943406071139242e-06 -0.79829917763375691
  outer loop
   vertex -22.664251327514648 4.5 -21.748605728149414
   vertex -22.757610321044922 3.7366237640380859 -21.67817497253418
   vertex -22.829227447509766 3.4943923950195312 -21.6241455078125
  endloop
 endfacet
 facet normal -0.60225454752387053 5.0959659088541686e-07 -0.79830411497533849
  outer loop
   vertex -22.829227447509766 3.4943923950195312 -21.6241455078125
   vertex -22.920042037963867 3.2624797821044922 -21.555633544921875
   vertex -22.664251327514648 4.5 -21.748605728149414
  endloop
 endfacet
 facet normal -0.60226137630035603 2.7244221213814107e-06 -0.7982989631769406
  outer loop
   vertex -22.664251327514648 4.5 -21.748605728149414
   vertex -22.920042037963867 3.2624797821044922 -21.555633544921875
   vertex -23.029119491577148 3.0432662963867188 -21.473342895507812
  endloop
 endfacet
 facet normal -0.60225354494594119 -3.5349712376618871e-07 -0.79830487133671058
  outer loop
   vertex -22.664251327514648 4.5 -21.748605728149414
   vertex -23.029119491577148 3.0432662963867188 -21.473342895507812
   vertex -23.155342102050781 2.8389997482299805 -21.378118515014648
  endloop
 endfacet
 facet normal -0.60226262423261356 3.8586995036568677e-06 -0.79829802169212227
  outer loop
   vertex -23.155342102050781 2.8389997482299805 -21.378118515014648
   vertex -23.297414779663086 2.6517782211303711 -21.27093505859375
   vertex -22.664251327514648 4.5 -21.748605728149414
  endloop
 endfacet
 facet normal -0.60225037536045556 -2.7257939549333915e-06 -0.79830726250658668
  outer loop
   vertex -22.664251327514648 4.5 -21.748605728149414
   vertex -23.297414779663086 2.6517782211303711 -21.27093505859375
   vertex -23.453878402709961 2.4835214614868164 -21.152896881103516
  endloop
 endfacet
 facet normal -0.60225453221711978 -1.7158891800027177e-07 -0.79830412652316218
  outer loop
   vertex -22.664251327514648 4.5 -21.748605728149414
   vertex -23.453878402709961 2.4835214614868164 -21.152896881103516
   vertex -23.623128890991211 2.3359575271606445 -21.025211334228516
  endloop
 endfacet
 facet normal -0.60225477900763869 0 -0.79830394034005636
  outer loop
   vertex -22.664251327514648 4.5 -21.748605728149414
   vertex -23.623128890991211 2.3359575271606445 -21.025211334228516
   vertex -22.664251327514648 19.5 -21.748605728149414
  endloop
 endfacet
 facet normal -0.60225693554387461 1.890445820284111e-07 -0.79830231340593361
  outer loop
   vertex -22.664251327514648 19.5 -21.748605728149414
   vertex -23.623128890991211 2.3359575271606445 -21.025211334228516
   vertex -23.803426742553711 2.2105979919433594 -20.889190673828125
  endloop
 endfacet
 facet normal -0.6022551555625183 5.0139167917766015e-09 -0.79830365626017719
  outer loop
   vertex -22.664251327514648 19.5 -21.748605728149414
   vertex -23.803426742553711 2.2105979919433594 -20.889190673828125
   vertex -23.992925643920898 2.1087322235107422 -20.74622917175293
  endloop
 endfacet
 facet normal -0.60225612887766766 1.2169614903620631e-07 -0.79830292197214914
  outer loop
   vertex -23.992925643920898 2.1087322235107422 -20.74622917175293
   vertex -24.189680099487305 2.0314035415649414 -20.597793579101562
   vertex -22.664251327514648 19.5 -21.748605728149414
  endloop
 endfacet
 facet normal -0.60225548010219299 3.2798062590252521e-08 -0.79830341142129413
  outer loop
   vertex -22.664251327514648 19.5 -21.748605728149414
   vertex -24.189680099487305 2.0314035415649414 -20.597793579101562
   vertex -24.391668319702148 1.979405403137207 -20.445409774780273
  endloop
 endfacet
 facet normal -0.60225269160764183 -3.9860329732600406e-07 -0.79830551510758807
  outer loop
   vertex -22.664251327514648 19.5 -21.748605728149414
   vertex -24.391668319702148 1.979405403137207 -20.445409774780273
   vertex -24.596820831298828 1.953272819519043 -20.290639877319336
  endloop
 endfacet
 facet normal -0.60225413713377596 -1.4878288671892956e-07 -0.79830442458076645
  outer loop
   vertex -24.596820831298828 1.953272819519043 -20.290639877319336
   vertex -24.803031921386719 1.953272819519043 -20.13507080078125
   vertex -22.664251327514648 19.5 -21.748605728149414
  endloop
 endfacet
 facet normal -0.60225741511055719 4.7817722587816162e-07 -0.79830195160986628
  outer loop
   vertex -22.664251327514648 19.5 -21.748605728149414
   vertex -24.803031921386719 1.953272819519043 -20.13507080078125
   vertex -25.008184432983398 1.979405403137207 -19.98029899597168
  endloop
 endfacet
 facet normal -0.60225195989121583 -6.6699853740898861e-07 -0.79830606712384722
  outer loop
   vertex -22.664251327514648 19.5 -21.748605728149414
   vertex -25.008184432983398 1.979405403137207 -19.98029899597168
   vertex -25.210174560546875 2.0314035415649414 -19.827915191650391
  endloop
 endfacet
 facet normal -0.60225488664251725 2.3248957016083708e-09 -0.79830385913836643
  outer loop
   vertex -25.210174560546875 2.0314035415649414 -19.827915191650391
   vertex -25.406927108764648 2.1087322235107422 -19.679481506347656
   vertex -22.664251327514648 19.5 -21.748605728149414
  endloop
 endfacet
 facet normal -0.60225495442573085 1.9098598261834499e-08 -0.79830380800147793
  outer loop
   vertex -22.664251327514648 19.5 -21.748605728149414
   vertex -25.406927108764648 2.1087322235107422 -19.679481506347656
   vertex -26.735601425170898 19.5 -18.677104949951172
  endloop
 endfacet
 facet normal -0.60225495442533494 -1.1467112822836493e-06 -0.79830380800095313
  outer loop
   vertex -22.664251327514648 19.5 -21.748605728149414
   vertex -26.735601425170898 19.5 -18.677104949951172
   vertex -22.67469596862793 19.757980346679688 -21.740726470947266
  endloop
 endfacet
 facet normal -0.60225504751524128 1.1526250698712335e-06 -0.79830373777221264
  outer loop
   vertex -22.67469596862793 19.757980346679688 -21.740726470947266
   vertex -26.735601425170898 19.5 -18.677104949951172
   vertex -26.725156784057617 19.757980346679688 -18.68498420715332
  endloop
 endfacet
 facet normal -0.60225504751441483 -2.0182172972469876e-06 -0.79830373777111729
  outer loop
   vertex -22.67469596862793 19.757980346679688 -21.740726470947266
   vertex -26.725156784057617 19.757980346679688 -18.68498420715332
   vertex -22.705923080444336 20.013311386108398 -21.717168807983398
  endloop
 endfacet
 facet normal -0.60225502864391989 -2.4843097785830994e-06 -0.79830375200605153
  outer loop
   vertex -22.705923080444336 20.013311386108398 -21.717168807983398
   vertex -26.725156784057617 19.757980346679688 -18.68498420715332
   vertex -26.693931579589844 20.013311386108398 -18.708541870117188
  endloop
 endfacet
 facet normal -0.6022550286457754 9.8277654202327296e-08 -0.79830375200851111
  outer loop
   vertex -22.705923080444336 20.013311386108398 -21.717168807983398
   vertex -26.693931579589844 20.013311386108398 -18.708541870117188
   vertex -22.757610321044922 20.263376235961914 -21.67817497253418
  endloop
 endfacet
 facet normal -0.60225502058227398 -1.0089293390603036e-07 -0.79830375809176457
  outer loop
   vertex -22.757610321044922 20.263376235961914 -21.67817497253418
   vertex -26.693931579589844 20.013311386108398 -18.708541870117188
   vertex -26.642244338989258 20.263376235961914 -18.747535705566406
  endloop
 endfacet
 facet normal -0.60225502058216041 6.2238791007890805e-07 -0.79830375809161414
  outer loop
   vertex -22.757610321044922 20.263376235961914 -21.67817497253418
   vertex -26.642244338989258 20.263376235961914 -18.747535705566406
   vertex -22.829227447509766 20.505607604980469 -21.6241455078125
  endloop
 endfacet
 facet normal -0.60225516488200947 4.1867632418646752e-06 -0.79830364921840014
  outer loop
   vertex -22.829227447509766 20.505607604980469 -21.6241455078125
   vertex -26.642244338989258 20.263376235961914 -18.747535705566406
   vertex -26.570625305175781 20.505607604980469 -18.801565170288086
  endloop
 endfacet
 facet normal -0.60225516488705 -8.8894227426593066e-07 -0.79830364922508146
  outer loop
   vertex -22.829227447509766 20.505607604980469 -21.6241455078125
   vertex -26.570625305175781 20.505607604980469 -18.801565170288086
   vertex -22.920042037963867 20.737520217895508 -21.555633544921875
  endloop
 endfacet
 facet normal -0.60225503304850436 -4.1452676286625693e-06 -0.79830374867625531
  outer loop
   vertex -22.920042037963867 20.737520217895508 -21.555633544921875
   vertex -26.570625305175781 20.505607604980469 -18.801565170288086
   vertex -26.479812622070312 20.737520217895508 -18.870077133178711
  endloop
 endfacet
 facet normal -0.60225503305218342 2.2283188216728939e-06 -0.79830374868113207
  outer loop
   vertex -22.920042037963867 20.737520217895508 -21.555633544921875
   vertex -26.479812622070312 20.737520217895508 -18.870077133178711
   vertex -23.029119491577148 20.956733703613281 -21.473342895507812
  endloop
 endfacet
 facet normal -0.6022550658068403 3.0374012487694509e-06 -0.79830372396774685
  outer loop
   vertex -23.029119491577148 20.956733703613281 -21.473342895507812
   vertex -26.479812622070312 20.737520217895508 -18.870077133178711
   vertex -26.370733261108398 20.956733703613281 -18.952367782592773
  endloop
 endfacet
 facet normal -0.60225506580923993 -1.1211721432799209e-06 -0.79830372397092764
  outer loop
   vertex -23.029119491577148 20.956733703613281 -21.473342895507812
   vertex -26.370733261108398 20.956733703613281 -18.952367782592773
   vertex -23.155342102050781 21.160999298095703 -21.378118515014648
  endloop
 endfacet
 facet normal -0.6022551603005496 1.2127936299115139e-06 -0.79830365268479664
  outer loop
   vertex -23.155342102050781 21.160999298095703 -21.378118515014648
   vertex -26.370733261108398 20.956733703613281 -18.952367782592773
   vertex -26.244510650634766 21.160999298095703 -19.047592163085938
  endloop
 endfacet
 facet normal -0.60225516029337678 5.0290074685684565e-06 -0.7983036526752888
  outer loop
   vertex -23.155342102050781 21.160999298095703 -21.378118515014648
   vertex -26.244510650634766 21.160999298095703 -19.047592163085938
   vertex -23.297414779663086 21.348220825195312 -21.27093505859375
  endloop
 endfacet
 facet normal -0.60225481742670872 -3.4399995713519718e-06 -0.79830391134860934
  outer loop
   vertex -23.297414779663086 21.348220825195312 -21.27093505859375
   vertex -26.244510650634766 21.160999298095703 -19.047592163085938
   vertex -26.102439880371094 21.348220825195312 -19.154773712158203
  endloop
 endfacet
 facet normal -0.60225481742602438 -3.7558427919512879e-06 -0.79830391134770207
  outer loop
   vertex -23.297414779663086 21.348220825195312 -21.27093505859375
   vertex -26.102439880371094 21.348220825195312 -19.154773712158203
   vertex -23.453878402709961 21.5164794921875 -21.152896881103516
  endloop
 endfacet
 facet normal -0.60225475125609507 -5.3901258418676018e-06 -0.79830396125811964
  outer loop
   vertex -23.453878402709961 21.5164794921875 -21.152896881103516
   vertex -26.102439880371094 21.348220825195312 -19.154773712158203
   vertex -25.945976257324219 21.5164794921875 -19.27281379699707
  endloop
 endfacet
 facet normal -0.60225475126482886 -2.2264298637425242e-07 -0.79830396126969672
  outer loop
   vertex -23.453878402709961 21.5164794921875 -21.152896881103516
   vertex -25.945976257324219 21.5164794921875 -19.27281379699707
   vertex -23.623128890991211 21.664043426513672 -21.025211334228516
  endloop
 endfacet
 facet normal -0.60225522124830322 1.1387100711170663e-05 -0.79830360662437916
  outer loop
   vertex -23.623128890991211 21.664043426513672 -21.025211334228516
   vertex -25.945976257324219 21.5164794921875 -19.27281379699707
   vertex -25.776725769042969 21.664043426513672 -19.400497436523438
  endloop
 endfacet
 facet normal -0.60225522128327169 3.6797615997606733e-06 -0.79830360667073075
  outer loop
   vertex -23.623128890991211 21.664043426513672 -21.025211334228516
   vertex -25.776725769042969 21.664043426513672 -19.400497436523438
   vertex -23.803426742553711 21.789402008056641 -20.889190673828125
  endloop
 endfacet
 facet normal -0.60225476044780801 -7.7026789814363201e-06 -0.79830395430476364
  outer loop
   vertex -23.803426742553711 21.789402008056641 -20.889190673828125
   vertex -25.776725769042969 21.664043426513672 -19.400497436523438
   vertex -25.596426010131836 21.789402008056641 -19.536520004272461
  endloop
 endfacet
 facet normal -0.60225476046527715 1.148295061130667e-06 -0.79830395432791945
  outer loop
   vertex -23.803426742553711 21.789402008056641 -20.889190673828125
   vertex -25.596426010131836 21.789402008056641 -19.536520004272461
   vertex -23.992925643920898 21.891267776489258 -20.74622917175293
  endloop
 endfacet
 facet normal -0.60225465502670439 -1.4560751596884312e-06 -0.79830403387214899
  outer loop
   vertex -23.992925643920898 21.891267776489258 -20.74622917175293
   vertex -25.596426010131836 21.789402008056641 -19.536520004272461
   vertex -25.406927108764648 21.891267776489258 -19.679481506347656
  endloop
 endfacet
 facet normal -0.60225465501734299 5.7626248066036932e-06 -0.79830403385974025
  outer loop
   vertex -23.992925643920898 21.891267776489258 -20.74622917175293
   vertex -25.406927108764648 21.891267776489258 -19.679481506347656
   vertex -24.189680099487305 21.968597412109375 -20.597793579101562
  endloop
 endfacet
 facet normal -0.6022543319711412 -2.2168082557309429e-06 -0.79830427758911604
  outer loop
   vertex -24.189680099487305 21.968597412109375 -20.597793579101562
   vertex -25.406927108764648 21.891267776489258 -19.679481506347656
   vertex -25.210174560546875 21.968597412109375 -19.827915191650391
  endloop
 endfacet
 facet normal -0.60225433195801092 6.9655081573078985e-06 -0.79830427757171141
  outer loop
   vertex -24.189680099487305 21.968597412109375 -20.597793579101562
   vertex -25.210174560546875 21.968597412109375 -19.827915191650391
   vertex -24.391668319702148 22.020595550537109 -20.445409774780273
  endloop
 endfacet
 facet normal -0.60225477049660514 1.779941468688231e-05 -0.7983039465624997
  outer loop
   vertex -24.391668319702148 22.020595550537109 -20.445409774780273
   vertex -25.210174560546875 21.968597412109375 -19.827915191650391
   vertex -25.008184432983398 22.020595550537109 -19.98029899597168
  endloop
 endfacet
 facet normal -0.60225477040058062 -2.5213136994374477e-05 -0.79830394643521685
  outer loop
   vertex -24.391668319702148 22.020595550537109 -20.445409774780273
   vertex -25.008184432983398 22.020595550537109 -19.98029899597168
   vertex -24.596820831298828 22.046726226806641 -20.290639877319336
  endloop
 endfacet
 facet normal -0.60225413663101279 -4.0861068176493524e-05 -0.79830442391434009
  outer loop
   vertex -24.596820831298828 22.046726226806641 -20.290639877319336
   vertex -25.008184432983398 22.020595550537109 -19.98029899597168
   vertex -24.803031921386719 22.046726226806641 -20.13507080078125
  endloop
 endfacet
 facet normal -0.60225511373846807 0 -0.7983036878130183
  outer loop
   vertex -26.735601425170898 19.5 -18.677104949951172
   vertex -25.406927108764648 2.1087322235107422 -19.679481506347656
   vertex -26.735601425170898 4.5 -18.677104949951172
  endloop
 endfacet
 facet normal -0.60225517092580616 -4.986019323865006e-08 -0.79830364466982451
  outer loop
   vertex -26.735601425170898 4.5 -18.677104949951172
   vertex -25.406927108764648 2.1087322235107422 -19.679481506347656
   vertex -25.596426010131836 2.2105979919433594 -19.536520004272461
  endloop
 endfacet
 facet normal -0.60225979546307784 -3.6606474901292278e-06 -0.79830015580317348
  outer loop
   vertex -26.735601425170898 4.5 -18.677104949951172
   vertex -25.596426010131836 2.2105979919433594 -19.536520004272461
   vertex -25.776725769042969 2.3359575271606445 -19.400497436523438
  endloop
 endfacet
 facet normal -0.60224534603599167 6.3857264373237917e-06 -0.79831105662968949
  outer loop
   vertex -25.776725769042969 2.3359575271606445 -19.400497436523438
   vertex -25.945976257324219 2.4835214614868164 -19.27281379699707
   vertex -26.735601425170898 4.5 -18.677104949951172
  endloop
 endfacet
 facet normal -0.60226041415468134 -2.8729561784070636e-06 -0.79829968904790249
  outer loop
   vertex -26.735601425170898 4.5 -18.677104949951172
   vertex -25.945976257324219 2.4835214614868164 -19.27281379699707
   vertex -26.102439880371094 2.6517782211303711 -19.154773712158203
  endloop
 endfacet
 facet normal -0.60225987638807077 -2.5838745850555425e-06 -0.79830009475531771
  outer loop
   vertex -26.735601425170898 4.5 -18.677104949951172
   vertex -26.102439880371094 2.6517782211303711 -19.154773712158203
   vertex -26.244510650634766 2.8389997482299805 -19.047592163085938
  endloop
 endfacet
 facet normal -0.60225354494594119 3.5349712376618871e-07 -0.79830487133671058
  outer loop
   vertex -26.244510650634766 2.8389997482299805 -19.047592163085938
   vertex -26.370733261108398 3.0432662963867188 -18.952367782592773
   vertex -26.735601425170898 4.5 -18.677104949951172
  endloop
 endfacet
 facet normal -0.60224786266903452 2.5867591945398416e-06 -0.79830915809847036
  outer loop
   vertex -26.735601425170898 4.5 -18.677104949951172
   vertex -26.370733261108398 3.0432662963867188 -18.952367782592773
   vertex -26.479812622070312 3.2624797821044922 -18.870077133178711
  endloop
 endfacet
 facet normal -0.60226842096234734 -4.0810262601696331e-06 -0.79829364841195249
  outer loop
   vertex -26.735601425170898 4.5 -18.677104949951172
   vertex -26.479812622070312 3.2624797821044922 -18.870077133178711
   vertex -26.570625305175781 3.4943923950195312 -18.801565170288086
  endloop
 endfacet
 facet normal -0.60223812795519649 3.7172185564087012e-06 -0.79831650191086656
  outer loop
   vertex -26.570625305175781 3.4943923950195312 -18.801565170288086
   vertex -26.642244338989258 3.7366237640380859 -18.747535705566406
   vertex -26.735601425170898 4.5 -18.677104949951172
  endloop
 endfacet
 facet normal -0.60225219152214682 1.0184562186990587e-06 -0.7983058923781875
  outer loop
   vertex -26.735601425170898 4.5 -18.677104949951172
   vertex -26.642244338989258 3.7366237640380859 -18.747535705566406
   vertex -26.693931579589844 3.9866886138916016 -18.708541870117188
  endloop
 endfacet
 facet normal -0.60228335066769645 -2.95069432588114e-06 -0.79828238456061762
  outer loop
   vertex -26.735601425170898 4.5 -18.677104949951172
   vertex -26.693931579589844 3.9866886138916016 -18.708541870117188
   vertex -26.725156784057617 4.2420206069946289 -18.68498420715332
  endloop
 endfacet
endsolid
