solid Visualization Toolkit generated SLA File
 facet normal -0.8939843757294984 0 0.44809813205540022
  outer loop
   vertex -20.646387100219727 19.5 -23.084285736083984
   vertex -20.646387100219727 4.5 -23.084285736083984
   vertex -17.957798004150391 19.5 -17.720378875732422
  endloop
 endfacet
 facet normal -0.8939843757294984 0 0.44809813205540022
  outer loop
   vertex -17.957798004150391 19.5 -17.720378875732422
   vertex -20.646387100219727 4.5 -23.084285736083984
   vertex -17.957798004150391 4.5 -17.720378875732422
  endloop
 endfacet
 facet normal 0.89283681800283399 0.050652150619162825 -0.44752293355338563
  outer loop
   vertex -13.398477554321289 19.5 -20.005680084228516
   vertex -16.087066650390625 19.5 -25.369586944580078
   vertex -13.410174369812012 19.757980346679688 -19.99981689453125
  endloop
 endfacet
 facet normal 0.89283703085294974 0.050648858541738936 -0.44752288150004993
  outer loop
   vertex -13.410174369812012 19.757980346679688 -19.99981689453125
   vertex -16.087066650390625 19.5 -25.369586944580078
   vertex -16.098762512207031 19.757980346679688 -25.363723754882812
  endloop
 endfacet
 facet normal 0.88367508905223169 0.1514293235617192 -0.4429305780302038
  outer loop
   vertex -13.410174369812012 19.757980346679688 -19.99981689453125
   vertex -16.098762512207031 19.757980346679688 -25.363723754882812
   vertex -13.44514274597168 20.013311386108398 -19.982288360595703
  endloop
 endfacet
 facet normal 0.88367559364977166 0.15142609867236362 -0.44293067384026502
  outer loop
   vertex -13.44514274597168 20.013311386108398 -19.982288360595703
   vertex -16.098762512207031 19.757980346679688 -25.363723754882812
   vertex -16.133729934692383 20.013311386108398 -25.346195220947266
  endloop
 endfacet
 facet normal 0.86544654887572292 0.25064991059997127 -0.43379360686313423
  outer loop
   vertex -13.44514274597168 20.013311386108398 -19.982288360595703
   vertex -16.133729934692383 20.013311386108398 -25.346195220947266
   vertex -13.503025054931641 20.263376235961914 -19.953277587890625
  endloop
 endfacet
 facet normal 0.86544654887572292 0.25064991059997127 -0.43379360686313423
  outer loop
   vertex -13.503025054931641 20.263376235961914 -19.953277587890625
   vertex -16.133729934692383 20.013311386108398 -25.346195220947266
   vertex -16.191612243652344 20.263376235961914 -25.317184448242188
  endloop
 endfacet
 facet normal 0.83833490943266953 0.34730816568190348 -0.4202042570907501
  outer loop
   vertex -13.503025054931641 20.263376235961914 -19.953277587890625
   vertex -16.191612243652344 20.263376235961914 -25.317184448242188
   vertex -13.583227157592773 20.505607604980469 -19.913076400756836
  endloop
 endfacet
 facet normal 0.83833490943266953 0.34730816568190348 -0.4202042570907501
  outer loop
   vertex -13.583227157592773 20.505607604980469 -19.913076400756836
   vertex -16.191612243652344 20.263376235961914 -25.317184448242188
   vertex -16.271814346313477 20.505607604980469 -25.276983261108398
  endloop
 endfacet
 facet normal 0.8026245885102572 0.44039131622942407 -0.40230493224475344
  outer loop
   vertex -13.583227157592773 20.505607604980469 -19.913076400756836
   vertex -16.271814346313477 20.505607604980469 -25.276983261108398
   vertex -13.684925079345703 20.737520217895508 -19.862102508544922
  endloop
 endfacet
 facet normal 0.8026245885102572 0.44039131622942407 -0.40230493224475344
  outer loop
   vertex -13.684925079345703 20.737520217895508 -19.862102508544922
   vertex -16.271814346313477 20.505607604980469 -25.276983261108398
   vertex -16.373512268066406 20.737520217895508 -25.226009368896484
  endloop
 endfacet
 facet normal 0.75867377039240969 0.52896588466647765 -0.38027516744796241
  outer loop
   vertex -13.684925079345703 20.737520217895508 -19.862102508544922
   vertex -16.373512268066406 20.737520217895508 -25.226009368896484
   vertex -13.807076454162598 20.956733703613281 -19.800874710083008
  endloop
 endfacet
 facet normal 0.75867239179961654 0.5289682617089666 -0.38027461133455015
  outer loop
   vertex -13.807076454162598 20.956733703613281 -19.800874710083008
   vertex -16.373512268066406 20.737520217895508 -25.226009368896484
   vertex -16.495664596557617 20.956733703613281 -25.16478157043457
  endloop
 endfacet
 facet normal 0.7069413065001432 0.61210583425012755 -0.35434508158125505
  outer loop
   vertex -13.807076454162598 20.956733703613281 -19.800874710083008
   vertex -16.495664596557617 20.956733703613281 -25.16478157043457
   vertex -13.948427200317383 21.160999298095703 -19.730024337768555
  endloop
 endfacet
 facet normal 0.70693982792029619 0.61210789817403766 -0.35434446615261828
  outer loop
   vertex -13.948427200317383 21.160999298095703 -19.730024337768555
   vertex -16.495664596557617 20.956733703613281 -25.16478157043457
   vertex -16.637016296386719 21.160999298095703 -25.093931198120117
  endloop
 endfacet
 facet normal 0.64795307811875658 0.68896733012199862 -0.32477811899971576
  outer loop
   vertex -13.948427200317383 21.160999298095703 -19.730024337768555
   vertex -16.637016296386719 21.160999298095703 -25.093931198120117
   vertex -14.107527732849121 21.348220825195312 -19.650278091430664
  endloop
 endfacet
 facet normal 0.64795459770144381 0.68896559625182108 -0.32477876546802248
  outer loop
   vertex -14.107527732849121 21.348220825195312 -19.650278091430664
   vertex -16.637016296386719 21.160999298095703 -25.093931198120117
   vertex -16.796115875244141 21.348220825195312 -25.014184951782227
  endloop
 endfacet
 facet normal 0.58232088618463607 0.75875426007798674 -0.29188072619932814
  outer loop
   vertex -14.107527732849121 21.348220825195312 -19.650278091430664
   vertex -16.796115875244141 21.348220825195312 -25.014184951782227
   vertex -14.282744407653809 21.5164794921875 -19.56245231628418
  endloop
 endfacet
 facet normal 0.58232088618463607 0.75875426007798674 -0.29188072619932814
  outer loop
   vertex -14.282744407653809 21.5164794921875 -19.56245231628418
   vertex -16.796115875244141 21.348220825195312 -25.014184951782227
   vertex -16.971332550048828 21.5164794921875 -24.926359176635742
  endloop
 endfacet
 facet normal 0.51070280637855259 0.82076506733482424 -0.25598310061395102
  outer loop
   vertex -14.282744407653809 21.5164794921875 -19.56245231628418
   vertex -16.971332550048828 21.5164794921875 -24.926359176635742
   vertex -14.472280502319336 21.664043426513672 -19.467451095581055
  endloop
 endfacet
 facet normal 0.5107028028660483 0.8207650699994461 -0.25598309907797917
  outer loop
   vertex -14.472280502319336 21.664043426513672 -19.467451095581055
   vertex -16.971332550048828 21.5164794921875 -24.926359176635742
   vertex -17.160867691040039 21.664043426513672 -24.831356048583984
  endloop
 endfacet
 facet normal 0.43385122880322696 0.87434734506227896 -0.21746225292789101
  outer loop
   vertex -14.472280502319336 21.664043426513672 -19.467451095581055
   vertex -17.160867691040039 21.664043426513672 -24.831356048583984
   vertex -14.674189567565918 21.789402008056641 -19.366245269775391
  endloop
 endfacet
 facet normal 0.43385123197696474 0.87434734313927776 -0.21746225432786256
  outer loop
   vertex -14.674189567565918 21.789402008056641 -19.366245269775391
   vertex -17.160867691040039 21.664043426513672 -24.831356048583984
   vertex -17.362777709960938 21.789402008056641 -24.730152130126953
  endloop
 endfacet
 facet normal 0.35254724144285532 0.91895817481321507 -0.17670969270245873
  outer loop
   vertex -14.674189567565918 21.789402008056641 -19.366245269775391
   vertex -17.362777709960938 21.789402008056641 -24.730152130126953
   vertex -14.88640022277832 21.891267776489258 -19.259878158569336
  endloop
 endfacet
 facet normal 0.35254833586190765 0.91895766151964153 -0.17671017858445884
  outer loop
   vertex -14.88640022277832 21.891267776489258 -19.259878158569336
   vertex -17.362777709960938 21.789402008056641 -24.730152130126953
   vertex -17.574987411499023 21.891267776489258 -24.623785018920898
  endloop
 endfacet
 facet normal 0.26762877620331937 0.9541382795091472 -0.13414537533302434
  outer loop
   vertex -14.88640022277832 21.891267776489258 -19.259878158569336
   vertex -17.574987411499023 21.891267776489258 -24.623785018920898
   vertex -15.106735229492188 21.968597412109375 -19.149436950683594
  endloop
 endfacet
 facet normal 0.26762705246546353 0.9541388710959442 -0.13414460649763429
  outer loop
   vertex -15.106735229492188 21.968597412109375 -19.149436950683594
   vertex -17.574987411499023 21.891267776489258 -24.623785018920898
   vertex -17.795324325561523 21.968597412109375 -24.513343811035156
  endloop
 endfacet
 facet normal 0.1799595472742494 0.97952952392085502 -0.090202400811898009
  outer loop
   vertex -15.106735229492188 21.968597412109375 -19.149436950683594
   vertex -17.795324325561523 21.968597412109375 -24.513343811035156
   vertex -15.332934379577637 22.020595550537109 -19.03605842590332
  endloop
 endfacet
 facet normal 0.17996014190129425 0.97952939017535134 -0.090202666865068004
  outer loop
   vertex -15.332934379577637 22.020595550537109 -19.03605842590332
   vertex -17.795324325561523 21.968597412109375 -24.513343811035156
   vertex -18.021522521972656 22.020595550537109 -24.399965286254883
  endloop
 endfacet
 facet normal 0.090435435155763078 0.99487017311583137 -0.04532957878321215
  outer loop
   vertex -15.332934379577637 22.020595550537109 -19.03605842590332
   vertex -18.021522521972656 22.020595550537109 -24.399965286254883
   vertex -15.562675476074219 22.046726226806641 -18.920904159545898
  endloop
 endfacet
 facet normal 0.090435738554551642 0.99487013933988266 -0.045329714778889037
  outer loop
   vertex -15.562675476074219 22.046726226806641 -18.920904159545898
   vertex -18.021522521972656 22.020595550537109 -24.399965286254883
   vertex -18.251262664794922 22.046726226806641 -24.284811019897461
  endloop
 endfacet
 facet normal 0 1 0
  outer loop
   vertex -15.562675476074219 22.046726226806641 -18.920904159545898
   vertex -18.251262664794922 22.046726226806641 -24.284811019897461
   vertex -15.793601036071777 22.046726226806641 -18.805154800415039
  endloop
 endfacet
 facet normal 0 1 -0
  outer loop
   vertex -15.793601036071777 22.046726226806641 -18.805154800415039
   vertex -18.251262664794922 22.046726226806641 -24.284811019897461
   vertex -18.482189178466797 22.046726226806641 -24.169061660766602
  endloop
 endfacet
 facet normal -0.090435435155763078 0.99487017311583137 0.04532957878321215
  outer loop
   vertex -15.793601036071777 22.046726226806641 -18.805154800415039
   vertex -18.482189178466797 22.046726226806641 -24.169061660766602
   vertex -16.023342132568359 22.020595550537109 -18.690000534057617
  endloop
 endfacet
 facet normal -0.090435738554551642 0.99487013933988266 0.045329714778889037
  outer loop
   vertex -16.023342132568359 22.020595550537109 -18.690000534057617
   vertex -18.482189178466797 22.046726226806641 -24.169061660766602
   vertex -18.711929321289062 22.020595550537109 -24.05390739440918
  endloop
 endfacet
 facet normal -0.17996015471861107 0.97952939017535789 0.090202641293615132
  outer loop
   vertex -16.023342132568359 22.020595550537109 -18.690000534057617
   vertex -18.711929321289062 22.020595550537109 -24.05390739440918
   vertex -16.249540328979492 21.968597412109375 -18.576622009277344
  endloop
 endfacet
 facet normal -0.17995896546820223 0.97952965766506905 0.090202109189124691
  outer loop
   vertex -16.249540328979492 21.968597412109375 -18.576622009277344
   vertex -18.711929321289062 22.020595550537109 -24.05390739440918
   vertex -18.938129425048828 21.968597412109375 -23.940528869628906
  endloop
 endfacet
 facet normal -0.26762705246546353 0.9541388710959442 0.13414460649763429
  outer loop
   vertex -16.249540328979492 21.968597412109375 -18.576622009277344
   vertex -18.938129425048828 21.968597412109375 -23.940528869628906
   vertex -16.469877243041992 21.891267776489258 -18.466180801391602
  endloop
 endfacet
 facet normal -0.26762877620331937 0.9541382795091472 0.13414537533302434
  outer loop
   vertex -16.469877243041992 21.891267776489258 -18.466180801391602
   vertex -18.938129425048828 21.968597412109375 -23.940528869628906
   vertex -19.158464431762695 21.891267776489258 -23.830087661743164
  endloop
 endfacet
 facet normal -0.35254833586190765 0.91895766151964153 0.17671017858445884
  outer loop
   vertex -16.469877243041992 21.891267776489258 -18.466180801391602
   vertex -19.158464431762695 21.891267776489258 -23.830087661743164
   vertex -16.682086944580078 21.789402008056641 -18.359813690185547
  endloop
 endfacet
 facet normal -0.35254614702999942 0.91895868810204195 0.17670920682317534
  outer loop
   vertex -16.682086944580078 21.789402008056641 -18.359813690185547
   vertex -19.158464431762695 21.891267776489258 -23.830087661743164
   vertex -19.370676040649414 21.789402008056641 -23.723720550537109
  endloop
 endfacet
 facet normal -0.43385120107682429 0.87434734313917872 0.21746231597602408
  outer loop
   vertex -16.682086944580078 21.789402008056641 -18.359813690185547
   vertex -19.370676040649414 21.789402008056641 -23.723720550537109
   vertex -16.883996963500977 21.664043426513672 -18.258609771728516
  endloop
 endfacet
 facet normal -0.4338524808274663 0.87434656772324937 0.21746288048866239
  outer loop
   vertex -16.883996963500977 21.664043426513672 -18.258609771728516
   vertex -19.370676040649414 21.789402008056641 -23.723720550537109
   vertex -19.57258415222168 21.664043426513672 -23.622514724731445
  endloop
 endfacet
 facet normal -0.5107028028660483 0.8207650699994461 0.25598309907797917
  outer loop
   vertex -16.883996963500977 21.664043426513672 -18.258609771728516
   vertex -19.57258415222168 21.664043426513672 -23.622514724731445
   vertex -17.073532104492188 21.5164794921875 -18.163606643676758
  endloop
 endfacet
 facet normal -0.51070422624266432 0.82076399020912072 0.25598372150174742
  outer loop
   vertex -17.073532104492188 21.5164794921875 -18.163606643676758
   vertex -19.57258415222168 21.664043426513672 -23.622514724731445
   vertex -19.762119293212891 21.5164794921875 -23.52751350402832
  endloop
 endfacet
 facet normal -0.58232092765958055 0.75875426007783542 0.29188064345451542
  outer loop
   vertex -17.073532104492188 21.5164794921875 -18.163606643676758
   vertex -19.762119293212891 21.5164794921875 -23.52751350402832
   vertex -17.248748779296875 21.348220825195312 -18.075780868530273
  endloop
 endfacet
 facet normal -0.58232092765958055 0.75875426007783542 0.29188064345451542
  outer loop
   vertex -17.248748779296875 21.348220825195312 -18.075780868530273
   vertex -19.762119293212891 21.5164794921875 -23.52751350402832
   vertex -19.937335968017578 21.348220825195312 -23.439687728881836
  endloop
 endfacet
 facet normal -0.64795464385080659 0.68896559625190434 0.32477867339687261
  outer loop
   vertex -17.248748779296875 21.348220825195312 -18.075780868530273
   vertex -19.937335968017578 21.348220825195312 -23.439687728881836
   vertex -17.407848358154297 21.160999298095703 -17.996034622192383
  endloop
 endfacet
 facet normal -0.6479516046884255 0.68896906398043833 0.32477738046177596
  outer loop
   vertex -17.407848358154297 21.160999298095703 -17.996034622192383
   vertex -19.937335968017578 21.348220825195312 -23.439687728881836
   vertex -20.096437454223633 21.160999298095703 -23.359941482543945
  endloop
 endfacet
 facet normal -0.70693982792029619 0.61210789817403766 0.35434446615261828
  outer loop
   vertex -17.407848358154297 21.160999298095703 -17.996034622192383
   vertex -20.096437454223633 21.160999298095703 -23.359941482543945
   vertex -17.549200057983398 20.956733703613281 -17.92518424987793
  endloop
 endfacet
 facet normal -0.70693982792029619 0.61210789817403766 0.35434446615261828
  outer loop
   vertex -17.549200057983398 20.956733703613281 -17.92518424987793
   vertex -20.096437454223633 21.160999298095703 -23.359941482543945
   vertex -20.237789154052734 20.956733703613281 -23.289091110229492
  endloop
 endfacet
 facet normal -0.75867233776438947 0.52896826170915467 0.38027471913803501
  outer loop
   vertex -17.549200057983398 20.956733703613281 -17.92518424987793
   vertex -20.237789154052734 20.956733703613281 -23.289091110229492
   vertex -17.671352386474609 20.737520217895508 -17.863956451416016
  endloop
 endfacet
 facet normal -0.75867509494865171 0.52896350761173427 0.38027583136421528
  outer loop
   vertex -17.671352386474609 20.737520217895508 -17.863956451416016
   vertex -20.237789154052734 20.956733703613281 -23.289091110229492
   vertex -20.359939575195312 20.737520217895508 -23.227863311767578
  endloop
 endfacet
 facet normal -0.8026245885102572 0.44039131622942407 0.40230493224475344
  outer loop
   vertex -17.671352386474609 20.737520217895508 -17.863956451416016
   vertex -20.359939575195312 20.737520217895508 -23.227863311767578
   vertex -17.773050308227539 20.505607604980469 -17.812982559204102
  endloop
 endfacet
 facet normal -0.8026245885102572 0.44039131622942407 0.40230493224475344
  outer loop
   vertex -17.773050308227539 20.505607604980469 -17.812982559204102
   vertex -20.359939575195312 20.737520217895508 -23.227863311767578
   vertex -20.461637496948242 20.505607604980469 -23.176889419555664
  endloop
 endfacet
 facet normal -0.83833490943266953 0.34730816568190348 0.4202042570907501
  outer loop
   vertex -17.773050308227539 20.505607604980469 -17.812982559204102
   vertex -20.461637496948242 20.505607604980469 -23.176889419555664
   vertex -17.853252410888672 20.263376235961914 -17.772781372070312
  endloop
 endfacet
 facet normal -0.83833490943266953 0.34730816568190348 0.4202042570907501
  outer loop
   vertex -17.853252410888672 20.263376235961914 -17.772781372070312
   vertex -20.461637496948242 20.505607604980469 -23.176889419555664
   vertex -20.541839599609375 20.263376235961914 -23.136688232421875
  endloop
 endfacet
 facet normal -0.86544654887572292 0.25064991059997127 0.43379360686313423
  outer loop
   vertex -17.853252410888672 20.263376235961914 -17.772781372070312
   vertex -20.541839599609375 20.263376235961914 -23.136688232421875
   vertex -17.911134719848633 20.013311386108398 -17.743770599365234
  endloop
 endfacet
 facet normal -0.86544654887572292 0.25064991059997127 0.43379360686313423
  outer loop
   vertex -17.911134719848633 20.013311386108398 -17.743770599365234
   vertex -20.541839599609375 20.263376235961914 -23.136688232421875
   vertex -20.599721908569336 20.013311386108398 -23.107677459716797
  endloop
 endfacet
 facet normal -0.88367559364977166 0.15142609867236362 0.44293067384026502
  outer loop
   vertex -17.911134719848633 20.013311386108398 -17.743770599365234
   vertex -20.599721908569336 20.013311386108398 -23.107677459716797
   vertex -17.946102142333984 19.757980346679688 -17.726242065429688
  endloop
 endfacet
 facet normal -0.8836745844458449 0.151432548445777 0.44293048221552866
  outer loop
   vertex -17.946102142333984 19.757980346679688 -17.726242065429688
   vertex -20.599721908569336 20.013311386108398 -23.107677459716797
   vertex -20.63469123840332 19.757980346679688 -23.09014892578125
  endloop
 endfacet
 facet normal -0.89283696726216655 0.050648858542126897 0.44752300836769998
  outer loop
   vertex -17.946102142333984 19.757980346679688 -17.726242065429688
   vertex -20.63469123840332 19.757980346679688 -23.09014892578125
   vertex -17.957798004150391 19.5 -17.720378875732422
  endloop
 endfacet
 facet normal -0.89283696726216655 0.050648858542126897 0.44752300836769998
  outer loop
   vertex -17.957798004150391 19.5 -17.720378875732422
   vertex -20.63469123840332 19.757980346679688 -23.09014892578125
   vertex -20.646387100219727 19.5 -23.084285736083984
  endloop
 endfacet
 facet normal 0.8939843757294984 0 -0.44809813205540022
  outer loop
   vertex -16.087066650390625 4.5 -25.369586944580078
   vertex -16.087066650390625 19.5 -25.369586944580078
   vertex -13.398477554321289 4.5 -20.005680084228516
  endloop
 endfacet
 facet normal 0.8939843757294984 0 -0.44809813205540022
  outer loop
   vertex -13.398477554321289 4.5 -20.005680084228516
   vertex -16.087066650390625 19.5 -25.369586944580078
   vertex -13.398477554321289 19.5 -20.005680084228516
  endloop
 endfacet
 facet normal -0.89283695879520963 -0.050649045295818831 0.44752300412374707
  outer loop
   vertex -17.957798004150391 4.5 -17.720378875732422
   vertex -20.646387100219727 4.5 -23.084285736083984
   vertex -17.946102142333984 4.2420206069946289 -17.726242065429688
  endloop
 endfacet
 facet normal -0.89283695879520963 -0.050649045295818831 0.44752300412374707
  outer loop
   vertex -17.946102142333984 4.2420206069946289 -17.726242065429688
   vertex -20.646387100219727 4.5 -23.084285736083984
   vertex -20.63469123840332 4.2420206069946289 -23.09014892578125
  endloop
 endfacet
 facet normal -0.88367554345432764 -0.15142554606051326 0.44293096290615536
  outer loop
   vertex -17.946102142333984 4.2420206069946289 -17.726242065429688
   vertex -20.63469123840332 4.2420206069946289 -23.09014892578125
   vertex -17.911134719848633 3.9866886138916016 -17.743770599365234
  endloop
 endfacet
 facet normal -0.88367478600994209 -0.15143199580939326 0.44293026902150973
  outer loop
   vertex -17.911134719848633 3.9866886138916016 -17.743770599365234
   vertex -20.63469123840332 4.2420206069946289 -23.09014892578125
   vertex -20.599721908569336 3.9866886138916016 -23.107677459716797
  endloop
 endfacet
 facet normal -0.86544654887572292 -0.25064991059997127 0.43379360686313423
  outer loop
   vertex -17.911134719848633 3.9866886138916016 -17.743770599365234
   vertex -20.599721908569336 3.9866886138916016 -23.107677459716797
   vertex -17.853252410888672 3.7366237640380859 -17.772781372070312
  endloop
 endfacet
 facet normal -0.86544654887572292 -0.25064991059997127 0.43379360686313423
  outer loop
   vertex -17.853252410888672 3.7366237640380859 -17.772781372070312
   vertex -20.599721908569336 3.9866886138916016 -23.107677459716797
   vertex -20.541839599609375 3.7366237640380859 -23.136688232421875
  endloop
 endfacet
 facet normal -0.83833490943266953 -0.34730816568190348 0.4202042570907501
  outer loop
   vertex -17.853252410888672 3.7366237640380859 -17.772781372070312
   vertex -20.541839599609375 3.7366237640380859 -23.136688232421875
   vertex -17.773050308227539 3.4943923950195312 -17.812982559204102
  endloop
 endfacet
 facet normal -0.83833490943266953 -0.34730816568190348 0.4202042570907501
  outer loop
   vertex -17.773050308227539 3.4943923950195312 -17.812982559204102
   vertex -20.541839599609375 3.7366237640380859 -23.136688232421875
   vertex -20.461637496948242 3.4943923950195312 -23.176889419555664
  endloop
 endfacet
 facet normal -0.8026245885102572 -0.44039131622942407 0.40230493224475344
  outer loop
   vertex -17.773050308227539 3.4943923950195312 -17.812982559204102
   vertex -20.461637496948242 3.4943923950195312 -23.176889419555664
   vertex -17.671352386474609 3.2624797821044922 -17.863956451416016
  endloop
 endfacet
 facet normal -0.8026245885102572 -0.44039131622942407 0.40230493224475344
  outer loop
   vertex -17.671352386474609 3.2624797821044922 -17.863956451416016
   vertex -20.461637496948242 3.4943923950195312 -23.176889419555664
   vertex -20.359939575195312 3.2624797821044922 -23.227863311767578
  endloop
 endfacet
 facet normal -0.7586724458348405 -0.52896826170877087 0.38027450353104442
  outer loop
   vertex -17.671352386474609 3.2624797821044922 -17.863956451416016
   vertex -20.359939575195312 3.2624797821044922 -23.227863311767578
   vertex -17.549200057983398 3.0432662963867188 -17.92518424987793
  endloop
 endfacet
 facet normal -0.75867498687744594 -0.5289635076127952 0.38027604697176959
  outer loop
   vertex -17.549200057983398 3.0432662963867188 -17.92518424987793
   vertex -20.359939575195312 3.2624797821044922 -23.227863311767578
   vertex -20.237789154052734 3.0432662963867188 -23.289091110229492
  endloop
 endfacet
 facet normal -0.70694106455485484 -0.61210611112281033 0.3543450859997328
  outer loop
   vertex -17.549200057983398 3.0432662963867188 -17.92518424987793
   vertex -20.237789154052734 3.0432662963867188 -23.289091110229492
   vertex -17.407848358154297 2.8389997482299805 -17.996034622192383
  endloop
 endfacet
 facet normal -0.70694106455485484 -0.61210611112281033 0.3543450859997328
  outer loop
   vertex -17.407848358154297 2.8389997482299805 -17.996034622192383
   vertex -20.237789154052734 3.0432662963867188 -23.289091110229492
   vertex -20.096437454223633 2.8389997482299805 -23.359941482543945
  endloop
 endfacet
 facet normal -0.6479545515520807 -0.68896559625173059 0.32477885753915581
  outer loop
   vertex -17.407848358154297 2.8389997482299805 -17.996034622192383
   vertex -20.096437454223633 2.8389997482299805 -23.359941482543945
   vertex -17.248748779296875 2.6517782211303711 -18.075780868530273
  endloop
 endfacet
 facet normal -0.64795169698631172 -0.68896906398110591 0.32477719632011975
  outer loop
   vertex -17.248748779296875 2.6517782211303711 -18.075780868530273
   vertex -20.096437454223633 2.8389997482299805 -23.359941482543945
   vertex -19.937335968017578 2.6517782211303711 -23.439687728881836
  endloop
 endfacet
 facet normal -0.58231712733706409 -0.75875790945935118 0.29187873859324603
  outer loop
   vertex -17.248748779296875 2.6517782211303711 -18.075780868530273
   vertex -19.937335968017578 2.6517782211303711 -23.439687728881836
   vertex -17.073532104492188 2.4835214614868164 -18.163606643676758
  endloop
 endfacet
 facet normal -0.58231712733706409 -0.75875790945935118 0.29187873859324603
  outer loop
   vertex -17.073532104492188 2.4835214614868164 -18.163606643676758
   vertex -19.937335968017578 2.6517782211303711 -23.439687728881836
   vertex -19.762119293212891 2.4835214614868164 -23.52751350402832
  endloop
 endfacet
 facet normal -0.51070283933018024 -0.82076506999926357 0.25598302633025516
  outer loop
   vertex -17.073532104492188 2.4835214614868164 -18.163606643676758
   vertex -19.762119293212891 2.4835214614868164 -23.52751350402832
   vertex -16.883996963500977 2.3359575271606445 -18.258609771728516
  endloop
 endfacet
 facet normal -0.51070418977882748 -0.82076399020899637 0.25598379424986656
  outer loop
   vertex -16.883996963500977 2.3359575271606445 -18.258609771728516
   vertex -19.762119293212891 2.4835214614868164 -23.52751350402832
   vertex -19.57258415222168 2.3359575271606445 -23.622514724731445
  endloop
 endfacet
 facet normal -0.43385375511213403 -0.87434577656046808 0.21746351920718229
  outer loop
   vertex -16.883996963500977 2.3359575271606445 -18.258609771728516
   vertex -19.57258415222168 2.3359575271606445 -23.622514724731445
   vertex -16.682086944580078 2.2105979919433594 -18.359813690185547
  endloop
 endfacet
 facet normal -0.43385497321736621 -0.87434500113704183 0.21746420671279373
  outer loop
   vertex -16.682086944580078 2.2105979919433594 -18.359813690185547
   vertex -19.57258415222168 2.3359575271606445 -23.622514724731445
   vertex -19.370676040649414 2.2105979919433594 -23.723720550537109
  endloop
 endfacet
 facet normal -0.3525482856427018 -0.91895766151960723 0.17671027877519502
  outer loop
   vertex -16.682086944580078 2.2105979919433594 -18.359813690185547
   vertex -19.370676040649414 2.2105979919433594 -23.723720550537109
   vertex -16.469877243041992 2.1087322235107422 -18.466180801391602
  endloop
 endfacet
 facet normal -0.35254619724859604 -0.9189586881022227 0.17670910663289424
  outer loop
   vertex -16.469877243041992 2.1087322235107422 -18.466180801391602
   vertex -19.370676040649414 2.2105979919433594 -23.723720550537109
   vertex -19.158464431762695 2.1087322235107422 -23.830087661743164
  endloop
 endfacet
 facet normal -0.26762408583978847 -0.95413992563801631 0.13414302435049841
  outer loop
   vertex -16.469877243041992 2.1087322235107422 -18.466180801391602
   vertex -19.158464431762695 2.1087322235107422 -23.830087661743164
   vertex -16.249540328979492 2.0314035415649414 -18.576622009277344
  endloop
 endfacet
 facet normal -0.26762573331719991 -0.954139334063971 0.13414394529158988
  outer loop
   vertex -16.249540328979492 2.0314035415649414 -18.576622009277344
   vertex -19.158464431762695 2.1087322235107422 -23.830087661743164
   vertex -18.938129425048828 2.0314035415649414 -23.940528869628906
  endloop
 endfacet
 facet normal -0.17996012908397907 -0.97952939017534368 0.090202692436517143
  outer loop
   vertex -16.249540328979492 2.0314035415649414 -18.576622009277344
   vertex -18.938129425048828 2.0314035415649414 -23.940528869628906
   vertex -16.023342132568359 1.979405403137207 -18.690000534057617
  endloop
 endfacet
 facet normal -0.17995899110250274 -0.97952965766512157 0.090202058046470301
  outer loop
   vertex -16.023342132568359 1.979405403137207 -18.690000534057617
   vertex -18.938129425048828 2.0314035415649414 -23.940528869628906
   vertex -18.711929321289062 1.979405403137207 -24.05390739440918
  endloop
 endfacet
 facet normal -0.090441975165083635 -0.99486942996229022 0.045332840797221177
  outer loop
   vertex -16.023342132568359 1.979405403137207 -18.690000534057617
   vertex -18.711929321289062 1.979405403137207 -24.05390739440918
   vertex -15.793601036071777 1.953272819519043 -18.805154800415039
  endloop
 endfacet
 facet normal -0.090442265702201499 -0.99486939618148407 0.045333002505256279
  outer loop
   vertex -15.793601036071777 1.953272819519043 -18.805154800415039
   vertex -18.711929321289062 1.979405403137207 -24.05390739440918
   vertex -18.482189178466797 1.953272819519043 -24.169061660766602
  endloop
 endfacet
 facet normal 0 -1 0
  outer loop
   vertex -15.793601036071777 1.953272819519043 -18.805154800415039
   vertex -18.482189178466797 1.953272819519043 -24.169061660766602
   vertex -15.562675476074219 1.953272819519043 -18.920904159545898
  endloop
 endfacet
 facet normal 0 -1 0
  outer loop
   vertex -15.562675476074219 1.953272819519043 -18.920904159545898
   vertex -18.482189178466797 1.953272819519043 -24.169061660766602
   vertex -18.251262664794922 1.953272819519043 -24.284811019897461
  endloop
 endfacet
 facet normal 0.090441975165083635 -0.99486942996229022 -0.045332840797221177
  outer loop
   vertex -15.562675476074219 1.953272819519043 -18.920904159545898
   vertex -18.251262664794922 1.953272819519043 -24.284811019897461
   vertex -15.332934379577637 1.979405403137207 -19.03605842590332
  endloop
 endfacet
 facet normal 0.090442265702201499 -0.99486939618148407 -0.045333002505256279
  outer loop
   vertex -15.332934379577637 1.979405403137207 -19.03605842590332
   vertex -18.251262664794922 1.953272819519043 -24.284811019897461
   vertex -18.021522521972656 1.979405403137207 -24.399965286254883
  endloop
 endfacet
 facet normal 0.1799595600914817 -0.97952952392087211 -0.090202375240510765
  outer loop
   vertex -15.332934379577637 1.979405403137207 -19.03605842590332
   vertex -18.021522521972656 1.979405403137207 -24.399965286254883
   vertex -15.106735229492188 2.0314035415649414 -19.149436950683594
  endloop
 endfacet
 facet normal 0.17996012908397907 -0.97952939017534368 -0.090202692436517143
  outer loop
   vertex -15.106735229492188 2.0314035415649414 -19.149436950683594
   vertex -18.021522521972656 1.979405403137207 -24.399965286254883
   vertex -17.795324325561523 2.0314035415649414 -24.513343811035156
  endloop
 endfacet
 facet normal 0.26762573331719991 -0.954139334063971 -0.13414394529158988
  outer loop
   vertex -15.106735229492188 2.0314035415649414 -19.149436950683594
   vertex -17.795324325561523 2.0314035415649414 -24.513343811035156
   vertex -14.88640022277832 2.1087322235107422 -19.259878158569336
  endloop
 endfacet
 facet normal 0.26762408583978847 -0.95413992563801631 -0.13414302435049841
  outer loop
   vertex -14.88640022277832 2.1087322235107422 -19.259878158569336
   vertex -17.795324325561523 2.0314035415649414 -24.513343811035156
   vertex -17.574987411499023 2.1087322235107422 -24.623785018920898
  endloop
 endfacet
 facet normal 0.35254726655230723 -0.91895817481326747 -0.1767096426072006
  outer loop
   vertex -14.88640022277832 2.1087322235107422 -19.259878158569336
   vertex -17.574987411499023 2.1087322235107422 -24.623785018920898
   vertex -14.674189567565918 2.2105979919433594 -19.366245269775391
  endloop
 endfacet
 facet normal 0.35254831075230347 -0.91895766151962577 -0.17671022867983077
  outer loop
   vertex -14.674189567565918 2.2105979919433594 -19.366245269775391
   vertex -17.574987411499023 2.1087322235107422 -24.623785018920898
   vertex -17.362777709960938 2.2105979919433594 -24.730152130126953
  endloop
 endfacet
 facet normal 0.43385375209127469 -0.87434577848348805 -0.21746351750219195
  outer loop
   vertex -14.674189567565918 2.2105979919433594 -19.366245269775391
   vertex -17.362777709960938 2.2105979919433594 -24.730152130126953
   vertex -14.472280502319336 2.3359575271606445 -19.467451095581055
  endloop
 endfacet
 facet normal 0.43385375511213403 -0.87434577656046808 -0.21746351920718229
  outer loop
   vertex -14.472280502319336 2.3359575271606445 -19.467451095581055
   vertex -17.362777709960938 2.2105979919433594 -24.730152130126953
   vertex -17.160867691040039 2.3359575271606445 -24.831356048583984
  endloop
 endfacet
 facet normal 0.51070280628857012 -0.82076506733482368 -0.25598310079347347
  outer loop
   vertex -14.472280502319336 2.3359575271606445 -19.467451095581055
   vertex -17.160867691040039 2.3359575271606445 -24.831356048583984
   vertex -14.282744407653809 2.4835214614868164 -19.56245231628418
  endloop
 endfacet
 facet normal 0.51070280295603199 -0.82076506999944565 -0.25598309889845733
  outer loop
   vertex -14.282744407653809 2.4835214614868164 -19.56245231628418
   vertex -17.160867691040039 2.3359575271606445 -24.831356048583984
   vertex -16.971332550048828 2.4835214614868164 -24.926359176635742
  endloop
 endfacet
 facet normal 0.58231708586239028 -0.75875790945950239 -0.29187882133751875
  outer loop
   vertex -14.282744407653809 2.4835214614868164 -19.56245231628418
   vertex -16.971332550048828 2.4835214614868164 -24.926359176635742
   vertex -14.107527732849121 2.6517782211303711 -19.650278091430664
  endloop
 endfacet
 facet normal 0.58231708586239028 -0.75875790945950239 -0.29187882133751875
  outer loop
   vertex -14.107527732849121 2.6517782211303711 -19.650278091430664
   vertex -16.971332550048828 2.4835214614868164 -24.926359176635742
   vertex -16.796115875244141 2.6517782211303711 -25.014184951782227
  endloop
 endfacet
 facet normal 0.64795312426790974 -0.68896733012221256 -0.32477802692873919
  outer loop
   vertex -14.107527732849121 2.6517782211303711 -19.650278091430664
   vertex -16.796115875244141 2.6517782211303711 -25.014184951782227
   vertex -13.948427200317383 2.8389997482299805 -19.730024337768555
  endloop
 endfacet
 facet normal 0.6479545515520807 -0.68896559625173059 -0.32477885753915581
  outer loop
   vertex -13.948427200317383 2.8389997482299805 -19.730024337768555
   vertex -16.796115875244141 2.6517782211303711 -25.014184951782227
   vertex -16.637016296386719 2.8389997482299805 -25.093931198120117
  endloop
 endfacet
 facet normal 0.70694249277816357 -0.61210404719775058 -0.35434580187823606
  outer loop
   vertex -13.948427200317383 2.8389997482299805 -19.730024337768555
   vertex -16.637016296386719 2.8389997482299805 -25.093931198120117
   vertex -13.807076454162598 3.0432662963867188 -19.800874710083008
  endloop
 endfacet
 facet normal 0.70694111490543665 -0.61210611112291213 -0.3543449855469149
  outer loop
   vertex -13.807076454162598 3.0432662963867188 -19.800874710083008
   vertex -16.637016296386719 2.8389997482299805 -25.093931198120117
   vertex -16.495664596557617 3.0432662963867188 -25.16478157043457
  endloop
 endfacet
 facet normal 0.75867371635699721 -0.52896588466684269 -0.38027527525160915
  outer loop
   vertex -13.807076454162598 3.0432662963867188 -19.800874710083008
   vertex -16.495664596557617 3.0432662963867188 -25.16478157043457
   vertex -13.684925079345703 3.2624797821044922 -19.862102508544922
  endloop
 endfacet
 facet normal 0.7586724458348405 -0.52896826170877087 -0.38027450353104442
  outer loop
   vertex -13.684925079345703 3.2624797821044922 -19.862102508544922
   vertex -16.495664596557617 3.0432662963867188 -25.16478157043457
   vertex -16.373512268066406 3.2624797821044922 -25.226009368896484
  endloop
 endfacet
 facet normal 0.8026245885102572 -0.44039131622942407 -0.40230493224475344
  outer loop
   vertex -13.684925079345703 3.2624797821044922 -19.862102508544922
   vertex -16.373512268066406 3.2624797821044922 -25.226009368896484
   vertex -13.583227157592773 3.4943923950195312 -19.913076400756836
  endloop
 endfacet
 facet normal 0.8026245885102572 -0.44039131622942407 -0.40230493224475344
  outer loop
   vertex -13.583227157592773 3.4943923950195312 -19.913076400756836
   vertex -16.373512268066406 3.2624797821044922 -25.226009368896484
   vertex -16.271814346313477 3.4943923950195312 -25.276983261108398
  endloop
 endfacet
 facet normal 0.83833490943266953 -0.34730816568190348 -0.4202042570907501
  outer loop
   vertex -13.583227157592773 3.4943923950195312 -19.913076400756836
   vertex -16.271814346313477 3.4943923950195312 -25.276983261108398
   vertex -13.503025054931641 3.7366237640380859 -19.953277587890625
  endloop
 endfacet
 facet normal 0.83833490943266953 -0.34730816568190348 -0.4202042570907501
  outer loop
   vertex -13.503025054931641 3.7366237640380859 -19.953277587890625
   vertex -16.271814346313477 3.4943923950195312 -25.276983261108398
   vertex -16.191612243652344 3.7366237640380859 -25.317184448242188
  endloop
 endfacet
 facet normal 0.86544654887572292 -0.25064991059997127 -0.43379360686313423
  outer loop
   vertex -13.503025054931641 3.7366237640380859 -19.953277587890625
   vertex -16.191612243652344 3.7366237640380859 -25.317184448242188
   vertex -13.44514274597168 3.9866886138916016 -19.982288360595703
  endloop
 endfacet
 facet normal 0.86544654887572292 -0.25064991059997127 -0.43379360686313423
  outer loop
   vertex -13.44514274597168 3.9866886138916016 -19.982288360595703
   vertex -16.191612243652344 3.7366237640380859 -25.317184448242188
   vertex -16.133729934692383 3.9866886138916016 -25.346195220947266
  endloop
 endfacet
 facet normal 0.88367522767497508 -0.15142877093661616 -0.44293049040025106
  outer loop
   vertex -13.44514274597168 3.9866886138916016 -19.982288360595703
   vertex -16.133729934692383 3.9866886138916016 -25.346195220947266
   vertex -13.410174369812012 4.2420206069946289 -19.99981689453125
  endloop
 endfacet
 facet normal 0.88367560639268994 -0.15142554605975994 -0.44293083734034056
  outer loop
   vertex -13.410174369812012 4.2420206069946289 -19.99981689453125
   vertex -16.133729934692383 3.9866886138916016 -25.346195220947266
   vertex -16.098762512207031 4.2420206069946289 -25.363723754882812
  endloop
 endfacet
 facet normal 0.89283687312553894 -0.050652337384777445 -0.44752280244124859
  outer loop
   vertex -13.410174369812012 4.2420206069946289 -19.99981689453125
   vertex -16.098762512207031 4.2420206069946289 -25.363723754882812
   vertex -13.398477554321289 4.5 -20.005680084228516
  endloop
 endfacet
 facet normal 0.89283695879520963 -0.050649045295818831 -0.44752300412374707
  outer loop
   vertex -13.398477554321289 4.5 -20.005680084228516
   vertex -16.098762512207031 4.2420206069946289 -25.363723754882812
   vertex -16.087066650390625 4.5 -25.369586944580078
  endloop
 endfacet
 facet normal 0.44812204357521446 -1.3807617327145554e-06 0.89397238998755835
  outer loop
   vertex -17.946102142333984 4.2420206069946289 -17.726242065429688
   vertex -17.911134719848633 3.9866886138916016 -17.743770599365234
   vertex -17.957798004150391 4.5 -17.720378875732422
  endloop
 endfacet
 facet normal 0.44803440922895049 -1.1348868681529558e-05 0.8940163130603761
  outer loop
   vertex -17.957798004150391 4.5 -17.720378875732422
   vertex -17.911134719848633 3.9866886138916016 -17.743770599365234
   vertex -17.853252410888672 3.7366237640380859 -17.772781372070312
  endloop
 endfacet
 facet normal 0.44811031238893378 1.6576559699961995e-06 0.89397827038913236
  outer loop
   vertex -17.957798004150391 4.5 -17.720378875732422
   vertex -17.853252410888672 3.7366237640380859 -17.772781372070312
   vertex -17.773050308227539 3.4943923950195312 -17.812982559204102
  endloop
 endfacet
 facet normal 0.44808392422944582 -4.4083191731187131e-06 0.89399149706678249
  outer loop
   vertex -17.773050308227539 3.4943923950195312 -17.812982559204102
   vertex -17.671352386474609 3.2624797821044922 -17.863956451416016
   vertex -17.957798004150391 4.5 -17.720378875732422
  endloop
 endfacet
 facet normal 0.44810261576519878 1.005128894661899e-06 0.89398212831318746
  outer loop
   vertex -17.957798004150391 4.5 -17.720378875732422
   vertex -17.671352386474609 3.2624797821044922 -17.863956451416016
   vertex -17.549200057983398 3.0432662963867188 -17.92518424987793
  endloop
 endfacet
 facet normal 0.44809411102731095 -1.9796866960550685e-06 0.89398639120443268
  outer loop
   vertex -17.957798004150391 4.5 -17.720378875732422
   vertex -17.549200057983398 3.0432662963867188 -17.92518424987793
   vertex -17.407848358154297 2.8389997482299805 -17.996034622192383
  endloop
 endfacet
 facet normal 0.44809496678943461 -1.6251627324931507e-06 0.89398596226972959
  outer loop
   vertex -17.407848358154297 2.8389997482299805 -17.996034622192383
   vertex -17.248748779296875 2.6517782211303711 -18.075780868530273
   vertex -17.957798004150391 4.5 -17.720378875732422
  endloop
 endfacet
 facet normal 0.4481023804991569 1.933593356892093e-06 0.8939822462371666
  outer loop
   vertex -17.957798004150391 4.5 -17.720378875732422
   vertex -17.248748779296875 2.6517782211303711 -18.075780868530273
   vertex -17.073532104492188 2.4835214614868164 -18.163606643676758
  endloop
 endfacet
 facet normal 0.44810396370913397 2.8022928949241156e-06 0.89398145266012652
  outer loop
   vertex -17.957798004150391 4.5 -17.720378875732422
   vertex -17.073532104492188 2.4835214614868164 -18.163606643676758
   vertex -16.883996963500977 2.3359575271606445 -18.258609771728516
  endloop
 endfacet
 facet normal 0.44809945020357234 0 0.89398371502352103
  outer loop
   vertex -17.957798004150391 4.5 -17.720378875732422
   vertex -16.883996963500977 2.3359575271606445 -18.258609771728516
   vertex -17.957798004150391 19.5 -17.720378875732422
  endloop
 endfacet
 facet normal 0.44809486469420973 -3.5894842173706796e-07 0.89398601344458906
  outer loop
   vertex -17.957798004150391 19.5 -17.720378875732422
   vertex -16.883996963500977 2.3359575271606445 -18.258609771728516
   vertex -16.682086944580078 2.2105979919433594 -18.359813690185547
  endloop
 endfacet
 facet normal 0.44809719034947332 -1.442358549427384e-07 0.89398484774681009
  outer loop
   vertex -17.957798004150391 19.5 -17.720378875732422
   vertex -16.682086944580078 2.2105979919433594 -18.359813690185547
   vertex -16.469877243041992 2.1087322235107422 -18.466180801391602
  endloop
 endfacet
 facet normal 0.44809869789353041 1.714751089192054e-08 0.89398409211021312
  outer loop
   vertex -16.469877243041992 2.1087322235107422 -18.466180801391602
   vertex -16.249540328979492 2.0314035415649414 -18.576622009277344
   vertex -17.957798004150391 19.5 -17.720378875732422
  endloop
 endfacet
 facet normal 0.4480968225383285 -2.1231886643868628e-07 0.89398503210680691
  outer loop
   vertex -17.957798004150391 19.5 -17.720378875732422
   vertex -16.249540328979492 2.0314035415649414 -18.576622009277344
   vertex -16.023342132568359 1.979405403137207 -18.690000534057617
  endloop
 endfacet
 facet normal 0.44809657456159996 -2.4657676787230121e-07 0.89398515640143583
  outer loop
   vertex -17.957798004150391 19.5 -17.720378875732422
   vertex -16.023342132568359 1.979405403137207 -18.690000534057617
   vertex -15.793601036071777 1.953272819519043 -18.805154800415039
  endloop
 endfacet
 facet normal 0.4481009232048222 4.2453482990543608e-07 0.89398297669631588
  outer loop
   vertex -15.793601036071777 1.953272819519043 -18.805154800415039
   vertex -15.562675476074219 1.953272819519043 -18.920904159545898
   vertex -17.957798004150391 19.5 -17.720378875732422
  endloop
 endfacet
 facet normal 0.44809662511835197 -3.0955149853787852e-07 0.89398513106060518
  outer loop
   vertex -17.957798004150391 19.5 -17.720378875732422
   vertex -15.562675476074219 1.953272819519043 -18.920904159545898
   vertex -15.332934379577637 1.979405403137207 -19.03605842590332
  endloop
 endfacet
 facet normal 0.44809544904147075 -5.3001325796335453e-07 0.89398572055041337
  outer loop
   vertex -17.957798004150391 19.5 -17.720378875732422
   vertex -15.332934379577637 1.979405403137207 -19.03605842590332
   vertex -15.106735229492188 2.0314035415649414 -19.149436950683594
  endloop
 endfacet
 facet normal 0.44810159010670797 7.2408827276025728e-07 0.89398264241724257
  outer loop
   vertex -15.106735229492188 2.0314035415649414 -19.149436950683594
   vertex -14.88640022277832 2.1087322235107422 -19.259878158569336
   vertex -17.957798004150391 19.5 -17.720378875732422
  endloop
 endfacet
 facet normal 0.4480982367428587 -1.6925257921296928e-08 0.8939843232562531
  outer loop
   vertex -17.957798004150391 19.5 -17.720378875732422
   vertex -14.88640022277832 2.1087322235107422 -19.259878158569336
   vertex -13.398477554321289 19.5 -20.005680084228516
  endloop
 endfacet
 facet normal 0.44809823674118737 2.7312798139169495e-06 0.89398432325291877
  outer loop
   vertex -17.957798004150391 19.5 -17.720378875732422
   vertex -13.398477554321289 19.5 -20.005680084228516
   vertex -17.946102142333984 19.757980346679688 -17.726242065429688
  endloop
 endfacet
 facet normal 0.44809806373785116 -1.0846127487621916e-06 0.89398440997212714
  outer loop
   vertex -17.946102142333984 19.757980346679688 -17.726242065429688
   vertex -13.398477554321289 19.5 -20.005680084228516
   vertex -13.410174369812012 19.757980346679688 -19.99981689453125
  endloop
 endfacet
 facet normal 0.44809806373136196 5.4899649488852776e-06 0.89398440995918083
  outer loop
   vertex -17.946102142333984 19.757980346679688 -17.726242065429688
   vertex -13.410174369812012 19.757980346679688 -19.99981689453125
   vertex -17.911134719848633 20.013311386108398 -17.743770599365234
  endloop
 endfacet
 facet normal 0.44809763850761059 -3.8891643100523088e-06 0.89398462310532889
  outer loop
   vertex -17.911134719848633 20.013311386108398 -17.743770599365234
   vertex -13.410174369812012 19.757980346679688 -19.99981689453125
   vertex -13.44514274597168 20.013311386108398 -19.982288360595703
  endloop
 endfacet
 facet normal 0.44809763850013623 -6.9632080788895129e-06 0.89398462309041704
  outer loop
   vertex -17.911134719848633 20.013311386108398 -17.743770599365234
   vertex -13.44514274597168 20.013311386108398 -19.982288360595703
   vertex -17.853252410888672 20.263376235961914 -17.772781372070312
  endloop
 endfacet
 facet normal 0.44809827829320359 7.1485045936412212e-06 0.89398430240109106
  outer loop
   vertex -17.853252410888672 20.263376235961914 -17.772781372070312
   vertex -13.44514274597168 20.013311386108398 -19.982288360595703
   vertex -13.503025054931641 20.263376235961914 -19.953277587890625
  endloop
 endfacet
 facet normal 0.44809827830217147 3.3278825572447375e-06 0.89398430241898263
  outer loop
   vertex -17.853252410888672 20.263376235961914 -17.772781372070312
   vertex -13.503025054931641 20.263376235961914 -19.953277587890625
   vertex -17.773050308227539 20.505607604980469 -17.812982559204102
  endloop
 endfacet
 facet normal 0.44809797076837438 -3.4552886156962976e-06 0.89398445656584324
  outer loop
   vertex -17.773050308227539 20.505607604980469 -17.812982559204102
   vertex -13.503025054931641 20.263376235961914 -19.953277587890625
   vertex -13.583227157592773 20.505607604980469 -19.913076400756836
  endloop
 endfacet
 facet normal 0.44809797076861108 -3.2988319403213519e-06 0.89398445656631553
  outer loop
   vertex -17.773050308227539 20.505607604980469 -17.812982559204102
   vertex -13.583227157592773 20.505607604980469 -19.913076400756836
   vertex -17.671352386474609 20.737520217895508 -17.863956451416016
  endloop
 endfacet
 facet normal 0.44809827752256487 3.4671446364317923e-06 0.89398430280922125
  outer loop
   vertex -17.671352386474609 20.737520217895508 -17.863956451416016
   vertex -13.583227157592773 20.505607604980469 -19.913076400756836
   vertex -13.684925079345703 20.737520217895508 -19.862102508544922
  endloop
 endfacet
 facet normal 0.44809827752434434 2.0196213483694415e-06 0.89398430281277141
  outer loop
   vertex -17.671352386474609 20.737520217895508 -17.863956451416016
   vertex -13.684925079345703 20.737520217895508 -19.862102508544922
   vertex -17.549200057983398 20.956733703613281 -17.92518424987793
  endloop
 endfacet
 facet normal 0.44809799714649218 -4.1645286263175619e-06 0.89398444334113503
  outer loop
   vertex -17.549200057983398 20.956733703613281 -17.92518424987793
   vertex -13.684925079345703 20.737520217895508 -19.862102508544922
   vertex -13.807076454162598 20.956733703613281 -19.800874710083008
  endloop
 endfacet
 facet normal 0.44809799714994808 -1.3851212914539029e-06 0.89398444334802984
  outer loop
   vertex -17.549200057983398 20.956733703613281 -17.92518424987793
   vertex -13.807076454162598 20.956733703613281 -19.800874710083008
   vertex -17.407848358154297 21.160999298095703 -17.996034622192383
  endloop
 endfacet
 facet normal 0.44809802915298907 -6.7924710040773293e-07 0.89398442730773864
  outer loop
   vertex -17.407848358154297 21.160999298095703 -17.996034622192383
   vertex -13.807076454162598 20.956733703613281 -19.800874710083008
   vertex -13.948427200317383 21.160999298095703 -19.730024337768555
  endloop
 endfacet
 facet normal 0.44809802915249641 -1.6310237665322869e-06 0.89398442730675587
  outer loop
   vertex -17.407848358154297 21.160999298095703 -17.996034622192383
   vertex -13.948427200317383 21.160999298095703 -19.730024337768555
   vertex -17.248748779296875 21.348220825195312 -18.075780868530273
  endloop
 endfacet
 facet normal 0.44809829325979433 4.194386568265109e-06 0.89398429491801834
  outer loop
   vertex -17.248748779296875 21.348220825195312 -18.075780868530273
   vertex -13.948427200317383 21.160999298095703 -19.730024337768555
   vertex -14.107527732849121 21.348220825195312 -19.650278091430664
  endloop
 endfacet
 facet normal 0.44809829326115819 3.3920352013988204e-06 0.89398429492073928
  outer loop
   vertex -17.248748779296875 21.348220825195312 -18.075780868530273
   vertex -14.107527732849121 21.348220825195312 -19.650278091430664
   vertex -17.073532104492188 21.5164794921875 -18.163606643676758
  endloop
 endfacet
 facet normal 0.44809796637103194 -3.8179666371071324e-06 0.89398445876847799
  outer loop
   vertex -17.073532104492188 21.5164794921875 -18.163606643676758
   vertex -14.107527732849121 21.348220825195312 -19.650278091430664
   vertex -14.282744407653809 21.5164794921875 -19.56245231628418
  endloop
 endfacet
 facet normal 0.44809796636382726 6.8362141418247469e-06 0.89398445875410415
  outer loop
   vertex -17.073532104492188 21.5164794921875 -18.163606643676758
   vertex -14.282744407653809 21.5164794921875 -19.56245231628418
   vertex -16.883996963500977 21.664043426513672 -18.258609771728516
  endloop
 endfacet
 facet normal 0.44809800444467773 7.6762156635072085e-06 0.89398443965975893
  outer loop
   vertex -16.883996963500977 21.664043426513672 -18.258609771728516
   vertex -14.282744407653809 21.5164794921875 -19.56245231628418
   vertex -14.472280502319336 21.664043426513672 -19.467451095581055
  endloop
 endfacet
 facet normal 0.44809800444989795 -5.9686592772560078e-06 0.8939844396701736
  outer loop
   vertex -16.883996963500977 21.664043426513672 -18.258609771728516
   vertex -14.472280502319336 21.664043426513672 -19.467451095581055
   vertex -16.682086944580078 21.789402008056641 -18.359813690185547
  endloop
 endfacet
 facet normal 0.44809775126570117 -1.1552580386502176e-05 0.89398456652067526
  outer loop
   vertex -16.682086944580078 21.789402008056641 -18.359813690185547
   vertex -14.472280502319336 21.664043426513672 -19.467451095581055
   vertex -14.674189567565918 21.789402008056641 -19.366245269775391
  endloop
 endfacet
 facet normal 0.44809775129521401 -1.3179342062668182e-06 0.89398456657955538
  outer loop
   vertex -16.682086944580078 21.789402008056641 -18.359813690185547
   vertex -14.674189567565918 21.789402008056641 -19.366245269775391
   vertex -16.469877243041992 21.891267776489258 -18.466180801391602
  endloop
 endfacet
 facet normal 0.44809810249085458 6.4285142518599854e-06 0.8939843905252316
  outer loop
   vertex -16.469877243041992 21.891267776489258 -18.466180801391602
   vertex -14.674189567565918 21.789402008056641 -19.366245269775391
   vertex -14.88640022277832 21.891267776489258 -19.259878158569336
  endloop
 endfacet
 facet normal 0.44809810249912035 2.1055382917167581e-06 0.8939843905417223
  outer loop
   vertex -16.469877243041992 21.891267776489258 -18.466180801391602
   vertex -14.88640022277832 21.891267776489258 -19.259878158569336
   vertex -16.249540328979492 21.968597412109375 -18.576622009277344
  endloop
 endfacet
 facet normal 0.44809727699751406 -1.6100792292920539e-05 0.89398480417072967
  outer loop
   vertex -16.249540328979492 21.968597412109375 -18.576622009277344
   vertex -14.88640022277832 21.891267776489258 -19.259878158569336
   vertex -15.106735229492188 21.968597412109375 -19.149436950683594
  endloop
 endfacet
 facet normal 0.44809727705444941 -2.2616332444620895e-06 0.89398480428431959
  outer loop
   vertex -16.249540328979492 21.968597412109375 -18.576622009277344
   vertex -15.106735229492188 21.968597412109375 -19.149436950683594
   vertex -16.023342132568359 22.020595550537109 -18.690000534057617
  endloop
 endfacet
 facet normal 0.44809804395674341 1.4654527651962641e-05 0.89398441976769683
  outer loop
   vertex -16.023342132568359 22.020595550537109 -18.690000534057617
   vertex -15.106735229492188 21.968597412109375 -19.149436950683594
   vertex -15.332934379577637 22.020595550537109 -19.03605842590332
  endloop
 endfacet
 facet normal 0.44809804394808478 -1.5918580787618166e-05 0.89398441975042231
  outer loop
   vertex -16.023342132568359 22.020595550537109 -18.690000534057617
   vertex -15.332934379577637 22.020595550537109 -19.03605842590332
   vertex -15.793601036071777 22.046726226806641 -18.805154800415039
  endloop
 endfacet
 facet normal 0.44810092269738083 4.7592366300557446e-05 0.89398297568394591
  outer loop
   vertex -15.793601036071777 22.046726226806641 -18.805154800415039
   vertex -15.332934379577637 22.020595550537109 -19.03605842590332
   vertex -15.562675476074219 22.046726226806641 -18.920904159545898
  endloop
 endfacet
 facet normal 0.44809807863769968 0 0.89398440250442957
  outer loop
   vertex -13.398477554321289 19.5 -20.005680084228516
   vertex -14.88640022277832 2.1087322235107422 -19.259878158569336
   vertex -13.398477554321289 4.5 -20.005680084228516
  endloop
 endfacet
 facet normal 0.44809459608832786 2.7113708218087762e-06 0.89398614807450272
  outer loop
   vertex -13.398477554321289 4.5 -20.005680084228516
   vertex -14.88640022277832 2.1087322235107422 -19.259878158569336
   vertex -14.674189567565918 2.2105979919433594 -19.366245269775391
  endloop
 endfacet
 facet normal 0.44810612785139348 -5.3288364680305189e-06 0.89398036787931423
  outer loop
   vertex -13.398477554321289 4.5 -20.005680084228516
   vertex -14.674189567565918 2.2105979919433594 -19.366245269775391
   vertex -14.472280502319336 2.3359575271606445 -19.467451095581055
  endloop
 endfacet
 facet normal 0.44809051053724641 4.3674460615084637e-06 0.89398819586580425
  outer loop
   vertex -14.472280502319336 2.3359575271606445 -19.467451095581055
   vertex -14.282744407653809 2.4835214614868164 -19.56245231628418
   vertex -13.398477554321289 4.5 -20.005680084228516
  endloop
 endfacet
 facet normal 0.44810266145338623 -2.299677492220156e-06 0.8939821054098922
  outer loop
   vertex -13.398477554321289 4.5 -20.005680084228516
   vertex -14.282744407653809 2.4835214614868164 -19.56245231628418
   vertex -14.107527732849121 2.6517782211303711 -19.650278091430664
  endloop
 endfacet
 facet normal 0.44809144990067856 3.0821333659495852e-06 0.8939877250367636
  outer loop
   vertex -13.398477554321289 4.5 -20.005680084228516
   vertex -14.107527732849121 2.6517782211303711 -19.650278091430664
   vertex -13.948427200317383 2.8389997482299805 -19.730024337768555
  endloop
 endfacet
 facet normal 0.44809874389589754 6.0385915847215501e-08 0.89398406905208072
  outer loop
   vertex -13.948427200317383 2.8389997482299805 -19.730024337768555
   vertex -13.807076454162598 3.0432662963867188 -19.800874710083008
   vertex -13.398477554321289 4.5 -20.005680084228516
  endloop
 endfacet
 facet normal 0.44810909285821515 -3.5716964840761292e-06 0.89397888167731943
  outer loop
   vertex -13.398477554321289 4.5 -20.005680084228516
   vertex -13.807076454162598 3.0432662963867188 -19.800874710083008
   vertex -13.684925079345703 3.2624797821044922 -19.862102508544922
  endloop
 endfacet
 facet normal 0.44808659004149676 2.9456289862853651e-06 0.89399016091694583
  outer loop
   vertex -13.398477554321289 4.5 -20.005680084228516
   vertex -13.684925079345703 3.2624797821044922 -19.862102508544922
   vertex -13.583227157592773 3.4943923950195312 -19.913076400756836
  endloop
 endfacet
 facet normal 0.44811492138859649 -3.5671043365180692e-06 0.89397596008850688
  outer loop
   vertex -13.583227157592773 3.4943923950195312 -19.913076400756836
   vertex -13.503025054931641 3.7366237640380859 -19.953277587890625
   vertex -13.398477554321289 4.5 -20.005680084228516
  endloop
 endfacet
 facet normal 0.44804387573275534 8.6072815415346663e-06 0.89401156890964562
  outer loop
   vertex -13.398477554321289 4.5 -20.005680084228516
   vertex -13.503025054931641 3.7366237640380859 -19.953277587890625
   vertex -13.44514274597168 3.9866886138916016 -19.982288360595703
  endloop
 endfacet
 facet normal 0.4481218937385204 -2.6731365746813971e-07 0.89397246509729311
  outer loop
   vertex -13.398477554321289 4.5 -20.005680084228516
   vertex -13.44514274597168 3.9866886138916016 -19.982288360595703
   vertex -13.410174369812012 4.2420206069946289 -19.99981689453125
  endloop
 endfacet
 facet normal -0.44812204357521446 -1.3807617327145554e-06 -0.89397238998755835
  outer loop
   vertex -16.098762512207031 4.2420206069946289 -25.363723754882812
   vertex -16.133729934692383 3.9866886138916016 -25.346195220947266
   vertex -16.087066650390625 4.5 -25.369586944580078
  endloop
 endfacet
 facet normal -0.44803440922895049 -1.1348868681529558e-05 -0.8940163130603761
  outer loop
   vertex -16.087066650390625 4.5 -25.369586944580078
   vertex -16.133729934692383 3.9866886138916016 -25.346195220947266
   vertex -16.191612243652344 3.7366237640380859 -25.317184448242188
  endloop
 endfacet
 facet normal -0.44811031238893378 1.6576559699961995e-06 -0.89397827038913236
  outer loop
   vertex -16.087066650390625 4.5 -25.369586944580078
   vertex -16.191612243652344 3.7366237640380859 -25.317184448242188
   vertex -16.271814346313477 3.4943923950195312 -25.276983261108398
  endloop
 endfacet
 facet normal -0.44808392422944582 -4.4083191731187131e-06 -0.89399149706678249
  outer loop
   vertex -16.271814346313477 3.4943923950195312 -25.276983261108398
   vertex -16.373512268066406 3.2624797821044922 -25.226009368896484
   vertex -16.087066650390625 4.5 -25.369586944580078
  endloop
 endfacet
 facet normal -0.44810261576519878 1.005128894661899e-06 -0.89398212831318746
  outer loop
   vertex -16.087066650390625 4.5 -25.369586944580078
   vertex -16.373512268066406 3.2624797821044922 -25.226009368896484
   vertex -16.495664596557617 3.0432662963867188 -25.16478157043457
  endloop
 endfacet
 facet normal -0.44809411102731095 -1.9796866960550685e-06 -0.89398639120443268
  outer loop
   vertex -16.087066650390625 4.5 -25.369586944580078
   vertex -16.495664596557617 3.0432662963867188 -25.16478157043457
   vertex -16.637016296386719 2.8389997482299805 -25.093931198120117
  endloop
 endfacet
 facet normal -0.44809496678943461 -1.6251627324931507e-06 -0.89398596226972959
  outer loop
   vertex -16.637016296386719 2.8389997482299805 -25.093931198120117
   vertex -16.796115875244141 2.6517782211303711 -25.014184951782227
   vertex -16.087066650390625 4.5 -25.369586944580078
  endloop
 endfacet
 facet normal -0.4481023804991569 1.933593356892093e-06 -0.8939822462371666
  outer loop
   vertex -16.087066650390625 4.5 -25.369586944580078
   vertex -16.796115875244141 2.6517782211303711 -25.014184951782227
   vertex -16.971332550048828 2.4835214614868164 -24.926359176635742
  endloop
 endfacet
 facet normal -0.44810396370913397 2.8022928949241156e-06 -0.89398145266012652
  outer loop
   vertex -16.087066650390625 4.5 -25.369586944580078
   vertex -16.971332550048828 2.4835214614868164 -24.926359176635742
   vertex -17.160867691040039 2.3359575271606445 -24.831356048583984
  endloop
 endfacet
 facet normal -0.44809945020357234 0 -0.89398371502352103
  outer loop
   vertex -16.087066650390625 4.5 -25.369586944580078
   vertex -17.160867691040039 2.3359575271606445 -24.831356048583984
   vertex -16.087066650390625 19.5 -25.369586944580078
  endloop
 endfacet
 facet normal -0.44809486469420973 -3.5894842173706796e-07 -0.89398601344458906
  outer loop
   vertex -16.087066650390625 19.5 -25.369586944580078
   vertex -17.160867691040039 2.3359575271606445 -24.831356048583984
   vertex -17.362777709960938 2.2105979919433594 -24.730152130126953
  endloop
 endfacet
 facet normal -0.44809719034947332 -1.442358549427384e-07 -0.89398484774681009
  outer loop
   vertex -16.087066650390625 19.5 -25.369586944580078
   vertex -17.362777709960938 2.2105979919433594 -24.730152130126953
   vertex -17.574987411499023 2.1087322235107422 -24.623785018920898
  endloop
 endfacet
 facet normal -0.44809869789353041 1.714751089192054e-08 -0.89398409211021312
  outer loop
   vertex -17.574987411499023 2.1087322235107422 -24.623785018920898
   vertex -17.795324325561523 2.0314035415649414 -24.513343811035156
   vertex -16.087066650390625 19.5 -25.369586944580078
  endloop
 endfacet
 facet normal -0.4480968225383285 -2.1231886643868628e-07 -0.89398503210680691
  outer loop
   vertex -16.087066650390625 19.5 -25.369586944580078
   vertex -17.795324325561523 2.0314035415649414 -24.513343811035156
   vertex -18.021522521972656 1.979405403137207 -24.399965286254883
  endloop
 endfacet
 facet normal -0.44809808007194069 -3.8590947501829094e-08 -0.89398440178553396
  outer loop
   vertex -16.087066650390625 19.5 -25.369586944580078
   vertex -18.021522521972656 1.979405403137207 -24.399965286254883
   vertex -18.251262664794922 1.953272819519043 -24.284811019897461
  endloop
 endfacet
 facet normal -0.44809944422872644 1.7193474437346848e-07 -0.89398371801832988
  outer loop
   vertex -18.251262664794922 1.953272819519043 -24.284811019897461
   vertex -18.482189178466797 1.953272819519043 -24.169061660766602
   vertex -16.087066650390625 19.5 -25.369586944580078
  endloop
 endfacet
 facet normal -0.44809808899209569 -5.9531207984581849e-08 -0.89398439731442081
  outer loop
   vertex -16.087066650390625 19.5 -25.369586944580078
   vertex -18.482189178466797 1.953272819519043 -24.169061660766602
   vertex -18.711929321289062 1.979405403137207 -24.05390739440918
  endloop
 endfacet
 facet normal -0.44809399377087383 -8.2720161154641081e-07 -0.89398644997884824
  outer loop
   vertex -16.087066650390625 19.5 -25.369586944580078
   vertex -18.711929321289062 1.979405403137207 -24.05390739440918
   vertex -18.938129425048828 2.0314035415649414 -23.940528869628906
  endloop
 endfacet
 facet normal -0.44810159010670797 7.2408827276025728e-07 -0.89398264241724257
  outer loop
   vertex -18.938129425048828 2.0314035415649414 -23.940528869628906
   vertex -19.158464431762695 2.1087322235107422 -23.830087661743164
   vertex -16.087066650390625 19.5 -25.369586944580078
  endloop
 endfacet
 facet normal -0.4480982367428587 -1.6925257921296928e-08 -0.8939843232562531
  outer loop
   vertex -16.087066650390625 19.5 -25.369586944580078
   vertex -19.158464431762695 2.1087322235107422 -23.830087661743164
   vertex -20.646387100219727 19.5 -23.084285736083984
  endloop
 endfacet
 facet normal -0.44809823674118737 2.7312798139169495e-06 -0.89398432325291877
  outer loop
   vertex -16.087066650390625 19.5 -25.369586944580078
   vertex -20.646387100219727 19.5 -23.084285736083984
   vertex -16.098762512207031 19.757980346679688 -25.363723754882812
  endloop
 endfacet
 facet normal -0.4480979884413025 -2.7453653695012369e-06 -0.89398444770998176
  outer loop
   vertex -16.098762512207031 19.757980346679688 -25.363723754882812
   vertex -20.646387100219727 19.5 -23.084285736083984
   vertex -20.63469123840332 19.757980346679688 -23.09014892578125
  endloop
 endfacet
 facet normal -0.44809798843620663 5.5028674753751036e-06 -0.89398444769981522
  outer loop
   vertex -16.098762512207031 19.757980346679688 -25.363723754882812
   vertex -20.63469123840332 19.757980346679688 -23.09014892578125
   vertex -16.133729934692383 20.013311386108398 -25.346195220947266
  endloop
 endfacet
 facet normal -0.44809763850989981 -2.2154970189925996e-06 -0.89398462310989601
  outer loop
   vertex -16.133729934692383 20.013311386108398 -25.346195220947266
   vertex -20.63469123840332 19.757980346679688 -23.09014892578125
   vertex -20.599721908569336 20.013311386108398 -23.107677459716797
  endloop
 endfacet
 facet normal -0.44809763850013623 -6.9632080788895129e-06 -0.89398462309041704
  outer loop
   vertex -16.133729934692383 20.013311386108398 -25.346195220947266
   vertex -20.599721908569336 20.013311386108398 -23.107677459716797
   vertex -16.191612243652344 20.263376235961914 -25.317184448242188
  endloop
 endfacet
 facet normal -0.44809827829320359 7.1485045936412212e-06 -0.89398430240109106
  outer loop
   vertex -16.191612243652344 20.263376235961914 -25.317184448242188
   vertex -20.599721908569336 20.013311386108398 -23.107677459716797
   vertex -20.541839599609375 20.263376235961914 -23.136688232421875
  endloop
 endfacet
 facet normal -0.44809827830217147 3.3278825572447375e-06 -0.89398430241898263
  outer loop
   vertex -16.191612243652344 20.263376235961914 -25.317184448242188
   vertex -20.541839599609375 20.263376235961914 -23.136688232421875
   vertex -16.271814346313477 20.505607604980469 -25.276983261108398
  endloop
 endfacet
 facet normal -0.44809797076837438 -3.4552886156962976e-06 -0.89398445656584324
  outer loop
   vertex -16.271814346313477 20.505607604980469 -25.276983261108398
   vertex -20.541839599609375 20.263376235961914 -23.136688232421875
   vertex -20.461637496948242 20.505607604980469 -23.176889419555664
  endloop
 endfacet
 facet normal -0.44809797076861108 -3.2988319403213519e-06 -0.89398445656631553
  outer loop
   vertex -16.271814346313477 20.505607604980469 -25.276983261108398
   vertex -20.461637496948242 20.505607604980469 -23.176889419555664
   vertex -16.373512268066406 20.737520217895508 -25.226009368896484
  endloop
 endfacet
 facet normal -0.44809827752256487 3.4671446364317923e-06 -0.89398430280922125
  outer loop
   vertex -16.373512268066406 20.737520217895508 -25.226009368896484
   vertex -20.461637496948242 20.505607604980469 -23.176889419555664
   vertex -20.359939575195312 20.737520217895508 -23.227863311767578
  endloop
 endfacet
 facet normal -0.44809827752434434 2.0196213483694415e-06 -0.89398430281277141
  outer loop
   vertex -16.373512268066406 20.737520217895508 -25.226009368896484
   vertex -20.359939575195312 20.737520217895508 -23.227863311767578
   vertex -16.495664596557617 20.956733703613281 -25.16478157043457
  endloop
 endfacet
 facet normal -0.44809790587461085 -6.1775837793235053e-06 -0.89398448907832062
  outer loop
   vertex -16.495664596557617 20.956733703613281 -25.16478157043457
   vertex -20.359939575195312 20.737520217895508 -23.227863311767578
   vertex -20.237789154052734 20.956733703613281 -23.289091110229492
  endloop
 endfacet
 facet normal -0.44809790588277887 -1.3060970571753296e-06 -0.89398448909461636
  outer loop
   vertex -16.495664596557617 20.956733703613281 -25.16478157043457
   vertex -20.237789154052734 20.956733703613281 -23.289091110229492
   vertex -16.637016296386719 21.160999298095703 -25.093931198120117
  endloop
 endfacet
 facet normal -0.44809802915264524 1.4128310232628596e-06 -0.89398442730705274
  outer loop
   vertex -16.637016296386719 21.160999298095703 -25.093931198120117
   vertex -20.237789154052734 20.956733703613281 -23.289091110229492
   vertex -20.096437454223633 21.160999298095703 -23.359941482543945
  endloop
 endfacet
 facet normal -0.44809802915249641 -1.6310237665322869e-06 -0.89398442730675587
  outer loop
   vertex -16.637016296386719 21.160999298095703 -25.093931198120117
   vertex -20.096437454223633 21.160999298095703 -23.359941482543945
   vertex -16.796115875244141 21.348220825195312 -25.014184951782227
  endloop
 endfacet
 facet normal -0.44809840198033346 6.5925314256104659e-06 -0.89398424040875002
  outer loop
   vertex -16.796115875244141 21.348220825195312 -25.014184951782227
   vertex -20.096437454223633 21.160999298095703 -23.359941482543945
   vertex -19.937335968017578 21.348220825195312 -23.439687728881836
  endloop
 endfacet
 facet normal -0.44809840198770395 3.2503665996819618e-06 -0.8939842404234547
  outer loop
   vertex -16.796115875244141 21.348220825195312 -25.014184951782227
   vertex -19.937335968017578 21.348220825195312 -23.439687728881836
   vertex -16.971332550048828 21.5164794921875 -24.926359176635742
  endloop
 endfacet
 facet normal -0.44809808875013046 -3.6585090888610028e-06 -0.89398439742821889
  outer loop
   vertex -16.971332550048828 21.5164794921875 -24.926359176635742
   vertex -19.937335968017578 21.348220825195312 -23.439687728881836
   vertex -19.762119293212891 21.5164794921875 -23.52751350402832
  endloop
 endfacet
 facet normal -0.44809808874325241 6.6395356220231218e-06 -0.89398439741449676
  outer loop
   vertex -16.971332550048828 21.5164794921875 -24.926359176635742
   vertex -19.762119293212891 21.5164794921875 -23.52751350402832
   vertex -17.160867691040039 21.664043426513672 -24.831356048583984
  endloop
 endfacet
 facet normal -0.44809800445276005 4.7802535843552769e-06 -0.89398443967588359
  outer loop
   vertex -17.160867691040039 21.664043426513672 -24.831356048583984
   vertex -19.762119293212891 21.5164794921875 -23.52751350402832
   vertex -19.57258415222168 21.664043426513672 -23.622514724731445
  endloop
 endfacet
 facet normal -0.44809800444989795 -5.9686592772560078e-06 -0.8939844396701736
  outer loop
   vertex -17.160867691040039 21.664043426513672 -24.831356048583984
   vertex -19.57258415222168 21.664043426513672 -23.622514724731445
   vertex -17.362777709960938 21.789402008056641 -24.730152130126953
  endloop
 endfacet
 facet normal -0.4480975811482476 -1.530430944756916e-05 -0.89398465173338848
  outer loop
   vertex -17.362777709960938 21.789402008056641 -24.730152130126953
   vertex -19.57258415222168 21.664043426513672 -23.622514724731445
   vertex -19.370676040649414 21.789402008056641 -23.723720550537109
  endloop
 endfacet
 facet normal -0.44809758120055332 -8.7456245453704464e-07 -0.89398465183774189
  outer loop
   vertex -17.362777709960938 21.789402008056641 -24.730152130126953
   vertex -19.370676040649414 21.789402008056641 -23.723720550537109
   vertex -17.574987411499023 21.891267776489258 -24.623785018920898
  endloop
 endfacet
 facet normal -0.44809810247482701 1.0623639445657303e-05 -0.89398439049325551
  outer loop
   vertex -17.574987411499023 21.891267776489258 -24.623785018920898
   vertex -19.370676040649414 21.789402008056641 -23.723720550537109
   vertex -19.158464431762695 21.891267776489258 -23.830087661743164
  endloop
 endfacet
 facet normal -0.44809810249912035 2.1055382917167581e-06 -0.8939843905417223
  outer loop
   vertex -17.574987411499023 21.891267776489258 -24.623785018920898
   vertex -19.158464431762695 21.891267776489258 -23.830087661743164
   vertex -17.795324325561523 21.968597412109375 -24.513343811035156
  endloop
 endfacet
 facet normal -0.44809727699751406 -1.6100792292920539e-05 -0.89398480417072967
  outer loop
   vertex -17.795324325561523 21.968597412109375 -24.513343811035156
   vertex -19.158464431762695 21.891267776489258 -23.830087661743164
   vertex -18.938129425048828 21.968597412109375 -23.940528869628906
  endloop
 endfacet
 facet normal -0.44809727705444941 -2.2616332444620895e-06 -0.89398480428431959
  outer loop
   vertex -17.795324325561523 21.968597412109375 -24.513343811035156
   vertex -18.938129425048828 21.968597412109375 -23.940528869628906
   vertex -18.021522521972656 22.020595550537109 -24.399965286254883
  endloop
 endfacet
 facet normal -0.44809853854234283 2.5565491590559783e-05 -0.89398417161749677
  outer loop
   vertex -18.021522521972656 22.020595550537109 -24.399965286254883
   vertex -18.938129425048828 21.968597412109375 -23.940528869628906
   vertex -18.711929321289062 22.020595550537109 -24.05390739440918
  endloop
 endfacet
 facet normal -0.44809853868316418 -5.0065832454120516e-06 -0.89398417189844404
  outer loop
   vertex -18.021522521972656 22.020595550537109 -24.399965286254883
   vertex -18.711929321289062 22.020595550537109 -24.05390739440918
   vertex -18.251262664794922 22.046726226806641 -24.284811019897461
  endloop
 endfacet
 facet normal -0.44809944417853476 1.4968300104241586e-05 -0.89398371791819464
  outer loop
   vertex -18.251262664794922 22.046726226806641 -24.284811019897461
   vertex -18.711929321289062 22.020595550537109 -24.05390739440918
   vertex -18.482189178466797 22.046726226806641 -24.169061660766602
  endloop
 endfacet
 facet normal -0.44809807863769968 0 -0.89398440250442957
  outer loop
   vertex -20.646387100219727 19.5 -23.084285736083984
   vertex -19.158464431762695 2.1087322235107422 -23.830087661743164
   vertex -20.646387100219727 4.5 -23.084285736083984
  endloop
 endfacet
 facet normal -0.44809230126328248 4.4980236572773911e-06 -0.89398729830369705
  outer loop
   vertex -20.646387100219727 4.5 -23.084285736083984
   vertex -19.158464431762695 2.1087322235107422 -23.830087661743164
   vertex -19.370676040649414 2.2105979919433594 -23.723720550537109
  endloop
 endfacet
 facet normal -0.44810857254912317 -6.8466798480325724e-06 -0.89397914246424703
  outer loop
   vertex -20.646387100219727 4.5 -23.084285736083984
   vertex -19.370676040649414 2.2105979919433594 -23.723720550537109
   vertex -19.57258415222168 2.3359575271606445 -23.622514724731445
  endloop
 endfacet
 facet normal -0.44809344682327429 2.5444100227489329e-06 -0.89398672412265912
  outer loop
   vertex -19.57258415222168 2.3359575271606445 -23.622514724731445
   vertex -19.762119293212891 2.4835214614868164 -23.52751350402832
   vertex -20.646387100219727 4.5 -23.084285736083984
  endloop
 endfacet
 facet normal -0.44810294240786341 -2.6657620866076477e-06 -0.89398196458223289
  outer loop
   vertex -20.646387100219727 4.5 -23.084285736083984
   vertex -19.762119293212891 2.4835214614868164 -23.52751350402832
   vertex -19.937335968017578 2.6517782211303711 -23.439687728881836
  endloop
 endfacet
 facet normal -0.44808793305924144 4.5390811293373977e-06 -0.893989487760395
  outer loop
   vertex -20.646387100219727 4.5 -23.084285736083984
   vertex -19.937335968017578 2.6517782211303711 -23.439687728881836
   vertex -20.096437454223633 2.8389997482299805 -23.359941482543945
  endloop
 endfacet
 facet normal -0.44809411102731095 1.9796866960550685e-06 -0.89398639120443268
  outer loop
   vertex -20.096437454223633 2.8389997482299805 -23.359941482543945
   vertex -20.237789154052734 3.0432662963867188 -23.289091110229492
   vertex -20.646387100219727 4.5 -23.084285736083984
  endloop
 endfacet
 facet normal -0.44811387565121918 -4.9569129871794114e-06 -0.89397648426805543
  outer loop
   vertex -20.646387100219727 4.5 -23.084285736083984
   vertex -20.237789154052734 3.0432662963867188 -23.289091110229492
   vertex -20.359939575195312 3.2624797821044922 -23.227863311767578
  endloop
 endfacet
 facet normal -0.44808659004149676 2.9456289862853651e-06 -0.89399016091694583
  outer loop
   vertex -20.646387100219727 4.5 -23.084285736083984
   vertex -20.359939575195312 3.2624797821044922 -23.227863311767578
   vertex -20.461637496948242 3.4943923950195312 -23.176889419555664
  endloop
 endfacet
 facet normal -0.44811492138859649 -3.5671043365180692e-06 -0.89397596008850688
  outer loop
   vertex -20.461637496948242 3.4943923950195312 -23.176889419555664
   vertex -20.541839599609375 3.7366237640380859 -23.136688232421875
   vertex -20.646387100219727 4.5 -23.084285736083984
  endloop
 endfacet
 facet normal -0.44804387573275534 8.6072815415346663e-06 -0.89401156890964562
  outer loop
   vertex -20.646387100219727 4.5 -23.084285736083984
   vertex -20.541839599609375 3.7366237640380859 -23.136688232421875
   vertex -20.599721908569336 3.9866886138916016 -23.107677459716797
  endloop
 endfacet
 facet normal -0.44809284307815467 3.0372623095996113e-06 -0.89398702673635666
  outer loop
   vertex -20.646387100219727 4.5 -23.084285736083984
   vertex -20.599721908569336 3.9866886138916016 -23.107677459716797
   vertex -20.63469123840332 4.2420206069946289 -23.09014892578125
  endloop
 endfacet
endsolid
